<?xml version="1.0" standalone="no"?>
<!DOCTYPE svg PUBLIC "-//W3C//DTD SVG 1.1//EN" "http://www.w3.org/Graphics/SVG/1.1/DTD/svg11.dtd" >
<svg>
<metadata>
Created by FontForge 20090914 at Tue Dec 13 12:37:30 2011
 By www-data
Typeface &#194;&#169; The Monotype Corporation plc. Data &#194;&#169; The Monotype Corporation plc / Type Solutions Inc. 1990-91 All Rights Reserved
</metadata>
<defs>
<font id="webfont-bold-italic" horiz-adv-x="1229" >
  <font-face 
    font-family="Century Gothic"
    font-weight="700"
    font-style="italic"
    font-stretch="normal"
    units-per-em="2048"
    panose-1="2 11 6 2 2 2 2 9 2 4"
    ascent="1638"
    descent="-410"
    x-height="1088"
    cap-height="1471"
    bbox="-401 -628 2494 2297"
    underline-thickness="184"
    underline-position="-96"
    slope="-7.59999"
    unicode-range="U+0020-U+F108"
  />
<missing-glyph horiz-adv-x="1536" 
d="M256 0v1280h1024v-1280h-1024zM288 32h960v1216h-960v-1216z" />
    <glyph glyph-name=".notdef" horiz-adv-x="1536" 
d="M256 0v1280h1024v-1280h-1024zM288 32h960v1216h-960v-1216z" />
    <glyph glyph-name="space" unicode=" " horiz-adv-x="573" 
 />
    <glyph glyph-name="exclam" unicode="!" horiz-adv-x="573" 
d="M260 1508h275l-151 -1074h-275zM214 308c46 0 85.5 -16.333 118.5 -49s49.5 -72.334 49.5 -119.001c0 -46 -16.5 -85.5 -49.5 -118.5s-72.5 -49.5 -118.5 -49.5c-46.667 0 -86.334 16.5 -119.001 49.5s-49 72.5 -49 118.5c0 46.667 16.333 86.334 49 119.001
s72.334 49 119.001 49z" />
    <glyph glyph-name="quotedbl" unicode="&#x22;" horiz-adv-x="737" 
d="M706 1004h-156l-55 504h267zM295 1004h-156l-55 504h267z" />
    <glyph glyph-name="numbersign" unicode="#" 
d="M1110 678v-199h-231l-71 -479h-201l70 479h-191l-70 -479h-200l70 479h-225v199h256l30 188h-223v199h251l65 443h195l-62 -443h191l65 443h201l-65 -443h202v-199h-231l-26 -188h200zM736 866h-194l-26 -188h189z" />
    <glyph glyph-name="dollar" unicode="$" horiz-adv-x="1147" 
d="M619 1607l174.998 0.00195312l-18 -119c60 -16 112 -39 156 -69s90 -74.667 138 -134l-192 -150c-46.667 52 -89 87.667 -127 107s-76.667 29 -116 29c-50 0 -92.833 -15.5 -128.5 -46.5s-53.5 -66.167 -53.5 -105.5c0 -20.667 3.33301 -38.667 10 -54
c10 -20 25.333 -38.667 46 -56c8.66699 -8 48.334 -34 119.001 -78c103.333 -64.667 173 -112.334 209 -143.001c62.667 -53.333 109 -109.5 139 -168.5s45 -123.5 45 -193.5c0 -78.667 -19.333 -152.834 -58 -222.501s-90.167 -124.5 -154.5 -164.5
s-146.166 -64.333 -245.499 -73l-37 -263h-174l36 263c-94.667 18 -172.5 51 -233.5 99s-117.5 122 -169.5 222l240 121c72 -140 169 -210 291 -210c69.333 0 126.666 20.667 171.999 62s68 91 68 149c0 46.667 -15.333 89.667 -46 129c-30.667 38.667 -102 91 -214 157
c-121.333 72 -203 139.333 -245 202c-42.667 62 -64 130 -64 204c0 96 35.833 185 107.5 267s174.834 126.667 309.501 134z" />
    <glyph glyph-name="percent" unicode="%" horiz-adv-x="1761" 
d="M1465 1536l201.001 0.00195312l-1399 -1636h-202l1197 1405c-46 -8.66699 -91.833 -15.334 -137.5 -20.001s-91.167 -7 -136.5 -7c-63.333 0 -131.333 4 -204 12c8.66699 -36.667 13 -68.334 13 -95.001c0 -66.667 -17.667 -131 -53 -193s-82.5 -109.833 -141.5 -143.5
s-124.167 -50.5 -195.5 -50.5c-91.333 0 -166 28.5 -224 85.5s-87 129.5 -87 217.5c0 119.333 49 220 147 302c74.667 63.333 151.667 95 231 95c28.667 0 85 -8 169 -24c147.333 -28 271 -42 371 -42c78.667 0 155.667 7.83301 231 23.5s148.666 39.167 219.999 70.5z
M471.001 1331c-54.667 0 -100.833 -19.666 -138.5 -58.999s-56.5 -88 -56.5 -146c0 -40.667 13.833 -75.334 41.5 -104.001s62.167 -43 103.5 -43c52 0 97 19.833 135 59.5s57 87.5 57 143.5c0 44.667 -13.167 80.667 -39.5 108s-60.5 41 -102.5 41zM1348 660.003
c87.333 0 159.833 -29.167 217.5 -87.5s86.5 -132.166 86.5 -221.499c0 -67.333 -17.5 -131.833 -52.5 -193.5s-82.167 -109.5 -141.5 -143.5s-124.333 -51 -195 -51c-98.667 0 -175.167 30.667 -229.5 92s-81.5 133.333 -81.5 216c0 64 18.167 127.167 54.5 189.5
s85.333 111.166 147 146.499s126.5 53 194.5 53zM1325 488.003c-53.333 0 -98.668 -19.332 -136.001 -57.999s-56 -86.334 -56 -143.001c0 -46 14 -83 42 -111s63.333 -42 106 -42c50 0 93.833 20.5 131.5 61.5s56.5 89.167 56.5 144.5c0 45.333 -13.167 81.333 -39.5 108
s-61.166 40 -104.499 40z" />
    <glyph glyph-name="ampersand" unicode="&#x26;" horiz-adv-x="1393" 
d="M1133 588l146.002 -198.001c-36.667 -32 -75.334 -62.333 -116.001 -91l-58 -43l62 -76c64 -78.667 111.333 -138.667 142 -180h-327c-35.333 36 -68.333 73 -99 111c-70.667 -47.333 -145.667 -83.833 -225 -109.5s-154 -38.5 -224 -38.5
c-98.667 0 -184.834 35.333 -258.501 106s-110.5 154 -110.5 250c0 81.333 25.167 156.833 75.5 226.5s144.833 144.834 283.5 225.501c-36 69.333 -59.833 123.666 -71.5 162.999s-17.5 79 -17.5 119c0 98.667 37.833 183 113.5 253s168.834 105 279.501 105
c93.333 0 170.5 -29.833 231.5 -89.5s91.5 -134.167 91.5 -223.5c0 -72.667 -21.333 -142.5 -64 -209.5s-112.334 -133.833 -209.001 -200.5c65.333 -97.333 122 -174.666 170 -231.999c71.333 47.333 133 91.333 185 132zM645.002 896.999
c100.667 68.667 151 131.668 151 189.001c0 19.333 -8.33301 36.166 -25 50.499s-38 21.5 -64 21.5c-32 0 -59 -10.5 -81 -31.5s-33 -45.167 -33 -72.5c0 -46 17.333 -98.333 52 -157zM556.002 550c-52 -28 -103.998 -61.332 -155.998 -99.999
c-26.667 -19.333 -46.667 -41.333 -60 -66c-10 -18.667 -15 -37.667 -15 -57c0 -33.333 11.667 -60.833 35 -82.5s54 -32.5 92 -32.5c32.667 0 73 8.66699 121 26c11.333 4.66699 62.666 29.667 153.999 75c-12.667 15.333 -31.334 40.666 -56.001 75.999z" />
    <glyph glyph-name="quotesingle" unicode="'" horiz-adv-x="451" 
d="M357 1004h-156l-55 504h266z" />
    <glyph glyph-name="parenleft" unicode="(" horiz-adv-x="778" 
d="M614 1536l347 0.000976562c-340 -326 -510 -742.667 -510 -1250c0 -130.667 16.5 -247.834 49.5 -351.501s93.833 -223.834 182.5 -360.501h-345c-62 121.333 -106.167 235.666 -132.5 342.999s-39.5 221.333 -39.5 342c0 156 17 312.333 51 469s82 297.834 144 423.501
s146.333 253.834 253 384.501z" />
    <glyph glyph-name="parenright" unicode=")" horiz-adv-x="778" 
d="M123 -426l-347 -0.000976562c340 326 510 742.667 510 1250c0 130.667 -16.5 247.834 -49.5 351.501s-93.833 223.834 -182.5 360.501h345c62 -122 106.167 -236.5 132.5 -343.5s39.5 -221.167 39.5 -342.5c0 -156 -17 -312.167 -51 -468.5s-82 -297.333 -144 -423
s-146.333 -253.834 -253 -384.501z" />
    <glyph glyph-name="asterisk" unicode="*" horiz-adv-x="901" 
d="M386 1508h254l-79 -301l226 213l117 -220l-305 -78l305 -87l-132 -217l-218 217l77 -300h-245l77 300l-223 -217l-133 217l306 87l-306 85l133 223l223 -223z" />
    <glyph glyph-name="plus" unicode="+" 
d="M490 860v375h250v-375h374v-250h-374v-374h-250v374h-375v250h375z" />
    <glyph glyph-name="comma" unicode="," horiz-adv-x="573" 
d="M147 267l207 -123l-276 -360l-129 78z" />
    <glyph glyph-name="hyphen" unicode="-" horiz-adv-x="860" 
d="M156 663h539l-31 -243h-540z" />
    <glyph glyph-name="hyphen" unicode="&#xad;" horiz-adv-x="860" 
d="M156 663h539l-31 -243h-540z" />
    <glyph glyph-name="period" unicode="." horiz-adv-x="573" 
d="M205 308c46 0 85.5 -16.333 118.5 -49s49.5 -72.334 49.5 -119.001c0 -46 -16.5 -85.5 -49.5 -118.5s-72.5 -49.5 -118.5 -49.5c-46.667 0 -86.334 16.5 -119.001 49.5s-49 72.5 -49 118.5c0 46.667 16.333 86.334 49 119.001s72.334 49 119.001 49z" />
    <glyph glyph-name="slash" unicode="/" horiz-adv-x="942" 
d="M44 -262l661 1775h194l-662 -1775h-193z" />
    <glyph glyph-name="zero" unicode="0" horiz-adv-x="1147" 
d="M669 1508c114 0 209.333 -49.833 286 -149.5s115 -245.167 115 -436.5c0 -196.667 -30.833 -372.167 -92.5 -526.5s-137.5 -265 -227.5 -332s-186.333 -100.5 -289 -100.5c-73.333 0 -138.833 20 -196.5 60s-103.834 99.833 -138.501 179.5s-52 183.5 -52 311.5
c0 214.667 30.667 404.667 92 570c55.333 146.667 127.833 254 217.5 322s184.834 102 285.501 102zM643 1248c-40.667 0 -78.332 -16.998 -112.999 -50.998c-50.667 -50.667 -95.667 -141.834 -135 -273.501s-59 -268.5 -59 -410.5c0 -117.333 13.667 -196.833 41 -238.5
s65 -62.5 113 -62.5c43.333 0 88 21.667 134 65s88.167 128.666 126.5 255.999s57.5 266.666 57.5 417.999c0 106.667 -15.333 182.834 -46 228.501s-70.334 68.5 -119.001 68.5z" />
    <glyph glyph-name="one" unicode="1" horiz-adv-x="1147" 
d="M412 1471h435l-198 -1471h-270l164 1214h-218z" />
    <glyph glyph-name="two" unicode="2" horiz-adv-x="1147" 
d="M422 1021l-268.001 0.000976562c4 99.333 26 186.166 66 260.499s93.333 130.666 160 168.999s142.334 57.5 227.001 57.5c122.667 0 224 -39.5 304 -118.5s120 -177.167 120 -294.5c0 -93.333 -31.333 -194.5 -94 -303.5s-216.334 -289.167 -461.001 -540.5h495
l-33 -251h-909l25 193c252.667 256.667 416.667 428.334 492 515.001c101.333 118 164 205 188 261c19.333 43.333 29 85.333 29 126c0 46 -15.167 84.167 -45.5 114.5s-67.5 45.5 -111.5 45.5c-46.667 0 -85.667 -17.5 -117 -52.5s-53.666 -95.5 -66.999 -181.5z" />
    <glyph glyph-name="three" unicode="3" horiz-adv-x="1147" 
d="M474 1116l-253.997 -0.00488281c14.667 120 61.667 215.333 141 286s176.333 106 291 106c71.333 0 135.666 -16.167 192.999 -48.5s103.166 -78.166 137.499 -137.499s51.5 -120.666 51.5 -183.999c0 -64 -18.833 -126.333 -56.5 -187
s-94.834 -114.334 -171.501 -161.001c132.667 -81.333 199 -194.666 199 -339.999c0 -134 -49 -248.667 -147 -344s-217.333 -143 -358 -143c-128 0 -233.833 44.333 -317.5 133s-125.5 206.334 -125.5 353.001h260c7.33301 -74.667 25 -129 53 -163
c38.667 -46 89.334 -69 152.001 -69c66 0 118.333 24.667 157 74s58 108 58 176c0 38.667 -10.5 74.834 -31.5 108.501s-48.667 59.334 -83 77.001s-86.833 28.5 -157.5 32.5l33 230c84.667 0 149.167 19.167 193.5 57.5s66.5 86.833 66.5 145.5c0 40 -12.5 72.667 -37.5 98
s-56.5 38 -94.5 38c-38.667 0 -71.834 -12 -99.501 -36s-45.167 -58 -52.5 -102z" />
    <glyph glyph-name="four" unicode="4" horiz-adv-x="1147" 
d="M795 1508h245l-129 -986h145l-32 -239h-145l-38 -283h-251l36 283h-618l32 239zM720 1041l-390 -519h326z" />
    <glyph glyph-name="five" unicode="5" horiz-adv-x="1147" 
d="M406 1471h702.998l-34 -251h-475l-84 -286c42.667 20.667 87.667 31 135 31c110.667 0 199.667 -36.5 267 -109.5s101 -175.833 101 -308.5c0 -174.667 -49.167 -315.667 -147.5 -423s-220.833 -161 -367.5 -161c-103.333 0 -195.333 26 -276 78s-146 129.667 -196 233
l242 110c42 -63.333 81.833 -106.833 119.5 -130.5s78.834 -35.5 123.501 -35.5c64.667 0 118.334 25.5 161.001 76.5s64 118.833 64 203.5c0 63.333 -16.333 114.333 -49 153s-72 58 -118 58c-62.667 0 -113 -29.333 -151 -88l-245 68z" />
    <glyph glyph-name="six" unicode="6" horiz-adv-x="1147" 
d="M675 1508l211 -142.002l-354 -494c35.333 9.33301 67.333 14 96 14c112.667 0 209 -41.667 289 -125s120 -186.666 120 -309.999c0 -139.333 -47 -255.5 -141 -348.5s-214 -139.5 -360 -139.5c-132.667 0 -243 44.167 -331 132.5s-132 196.5 -132 324.5
c0 51.333 6.66699 101 20 149c20 68.667 47.333 134.667 82 198c62 112.667 126 215.334 192 308.001zM559 650.998c-62.667 0 -116.333 -22 -161 -66s-67 -97 -67 -159c0 -58 20.5 -107.167 61.5 -147.5s91.5 -60.5 151.5 -60.5c63.333 0 116.5 21.833 159.5 65.5
s64.5 97.5 64.5 161.5c0 58.667 -19.833 107.667 -59.5 147s-89.5 59 -149.5 59z" />
    <glyph glyph-name="seven" unicode="7" horiz-adv-x="1147" 
d="M237 1471h918l-16 -180l-743 -1328l-225 124l639 1129h-605z" />
    <glyph glyph-name="eight" unicode="8" horiz-adv-x="1147" 
d="M789 792c73.333 -28 130.665 -72.168 171.998 -132.501s62 -132.166 62 -215.499c0 -92 -21.5 -174.5 -64.5 -247.5s-104.333 -130.167 -184 -171.5s-170.5 -62 -272.5 -62c-133.333 0 -243.5 41.333 -330.5 124s-130.5 182 -130.5 298
c0 61.333 13.333 122.166 40 182.499s61.834 110.666 105.501 150.999s101.834 73.833 174.501 100.5c-47.333 28 -83 60.333 -107 97c-38.667 58.667 -58 122.334 -58 191.001c0 69.333 19 135.333 57 198s92.167 112.167 162.5 148.5s146.833 54.5 229.5 54.5
c120.667 0 219.667 -36.167 297 -108.5s116 -157.833 116 -256.5c0 -73.333 -22.167 -140.666 -66.5 -201.999s-111.833 -111 -202.5 -149zM638.999 1251c-50 0 -91.665 -16.5 -124.998 -49.5s-50 -72.833 -50 -119.5c0 -43.333 13.167 -79 39.5 -107
s61.166 -42 104.499 -42c48 0 88.667 16.333 122 49s50 72.667 50 120c0 46 -12.833 82.333 -38.5 109s-59.834 40 -102.501 40zM556.001 677.999c-66.667 0 -123.499 -24.833 -170.499 -74.5s-70.5 -111.5 -70.5 -185.5c0 -57.333 19.667 -105.5 59 -144.5
s88.666 -58.5 147.999 -58.5c66.667 0 122.667 23.5 168 70.5s68 104.5 68 172.5c0 62 -20 114.167 -60 156.5s-87.333 63.5 -142 63.5z" />
    <glyph glyph-name="nine" unicode="9" horiz-adv-x="1147" 
d="M483 -37l-211 141.001l354 494c-35.333 -8.66699 -67.333 -13 -96 -13c-112.667 0 -209 41.667 -289 125s-120 186.666 -120 309.999c0 139.333 47 255.5 141 348.5s214 139.5 360 139.5c132.667 0 243 -44.167 331 -132.5s132 -196.5 132 -324.5
c0 -51.333 -6.66699 -101 -20 -149c-20 -69.333 -47.333 -135.333 -82 -198c-62 -113.333 -126 -216.333 -192 -309zM599 820.001c62.667 0 116.333 22 161 66s67 96.667 67 158c0 58.667 -20.5 108 -61.5 148s-91.5 60 -151.5 60c-63.333 0 -116.5 -21.833 -159.5 -65.5
s-64.5 -97.5 -64.5 -161.5c0 -58 19.833 -106.667 59.5 -146s89.5 -59 149.5 -59z" />
    <glyph glyph-name="colon" unicode=":" horiz-adv-x="573" 
d="M319 1116c46 0 85.502 -16.333 118.502 -49s49.5 -72 49.5 -118s-16.5 -85.333 -49.5 -118s-72.5 -49 -118.5 -49c-46.667 0 -86.334 16.333 -119.001 49s-49 72 -49 118c0 46.667 16.167 86.167 48.5 118.5s72.166 48.5 119.499 48.5zM205.002 308
c46 0 85.5 -16.333 118.5 -49s49.5 -72.334 49.5 -119.001c0 -46 -16.5 -85.5 -49.5 -118.5s-72.5 -49.5 -118.5 -49.5c-46.667 0 -86.334 16.5 -119.001 49.5s-49 72.5 -49 118.5c0 46.667 16.333 86.334 49 119.001s72.334 49 119.001 49z" />
    <glyph glyph-name="semicolon" unicode=";" horiz-adv-x="573" 
d="M320 1116c46 0 85.502 -16.333 118.502 -49s49.5 -72 49.5 -118s-16.5 -85.333 -49.5 -118s-72.5 -49 -118.5 -49c-46.667 0 -86.334 16.333 -119.001 49s-49 72 -49 118c0 46.667 16.167 86.167 48.5 118.5s72.166 48.5 119.499 48.5zM147.002 267l207 -123l-276 -360
l-129 78z" />
    <glyph glyph-name="semicolon" unicode="&#x37e;" horiz-adv-x="573" 
d="M320 1116c46 0 85.502 -16.333 118.502 -49s49.5 -72 49.5 -118s-16.5 -85.333 -49.5 -118s-72.5 -49 -118.5 -49c-46.667 0 -86.334 16.333 -119.001 49s-49 72 -49 118c0 46.667 16.167 86.167 48.5 118.5s72.166 48.5 119.499 48.5zM147.002 267l207 -123l-276 -360
l-129 78z" />
    <glyph glyph-name="less" unicode="&#x3c;" 
d="M1114 366v-250l-999 508v222l999 508v-249l-712 -370z" />
    <glyph glyph-name="equal" unicode="=" 
d="M115 1074h999v-250h-999v250zM115 646h999v-250h-999v250z" />
    <glyph glyph-name="greater" unicode="&#x3e;" 
d="M115 1105v249l999 -508v-222l-999 -508v250l713 369z" />
    <glyph glyph-name="question" unicode="?" horiz-adv-x="1147" 
d="M347 1098l-261.001 0.000976562c9.33301 84 37.333 159.333 84 226s109 118.667 187 156s165.667 56 263 56c128.667 0 233.667 -38.5 315 -115.5s122 -169.167 122 -276.5c0 -136 -80.667 -263.333 -242 -382c-73.333 -53.333 -119.166 -90.5 -137.499 -111.5
s-34 -48.833 -47 -83.5s-21.833 -78.334 -26.5 -131.001h-257c3.33301 120.667 23.5 216.5 60.5 287.5s104.833 139.833 203.5 206.5c79.333 53.333 129.5 94.5 150.5 123.5s31.5 58.5 31.5 88.5c0 38.667 -18.167 72.667 -54.5 102s-84.5 44 -144.5 44
c-132.667 0 -215 -63.333 -247 -190zM424.999 308.001c46 0 85.333 -16.333 118 -49s49 -72.334 49 -119.001c0 -46 -16.333 -85.5 -49 -118.5s-72 -49.5 -118 -49.5c-46.667 0 -86.334 16.5 -119.001 49.5s-49 72.5 -49 118.5c0 46.667 16.333 86.334 49 119.001
s72.334 49 119.001 49z" />
    <glyph glyph-name="at" unicode="@" horiz-adv-x="1515" 
d="M1252 301l191.004 -0.00195312c-72.667 -90 -137.167 -155.5 -193.5 -196.5s-121.833 -73.167 -196.5 -96.5s-152.334 -35 -233.001 -35c-142.667 0 -275 34.833 -397 104.5s-217.667 164.5 -287 284.5s-104 250.667 -104 392c0 142.667 34.833 275.334 104.5 398.001
s164.667 218 285 286s252.5 102 396.5 102c200 0 368.833 -64.333 506.5 -193s206.5 -278.334 206.5 -449.001c0 -125.333 -28.833 -233.166 -86.5 -323.499s-136.167 -160.833 -235.5 -211.5c-76 -38.667 -139.667 -58 -191 -58c-38.667 0 -69.667 10.333 -93 31
c-18 14.667 -27.667 40 -29 76c-58.667 -64.667 -130 -97 -214 -97c-94.667 0 -173.5 33.667 -236.5 101s-94.5 157 -94.5 269c0 123.333 38.667 233.5 116 330.5s180 145.5 308 145.5c52.667 0 99.667 -10.833 141 -32.5s76.666 -54.5 105.999 -98.5l21 105h196l-99 -583
c-6.66699 -41.333 -10 -64.666 -10 -69.999c0 -7.33301 3.5 -14.166 10.5 -20.499s15.167 -9.5 24.5 -9.5c23.333 0 54.833 16.167 94.5 48.5s72 79 97 140s37.5 127.833 37.5 200.5c0 108 -23.667 203.333 -71 286s-115.333 147.667 -204 195s-190.334 71 -305.001 71
c-120.667 0 -229 -26.833 -325 -80.5s-171.667 -129.667 -227 -228s-83 -206.5 -83 -324.5c0 -120.667 28 -230 84 -328s134.333 -174.333 235 -229s213.334 -82 338.001 -82c73.333 0 142.666 13.667 207.999 41s134.666 73.666 207.999 138.999zM763.004 525.998
c58 0 106.001 23.833 144.001 71.5s57 101.5 57 161.5c0 52 -15.5 94.5 -46.5 127.5s-69.833 49.5 -116.5 49.5c-54.667 0 -102.334 -22.5 -143.001 -67.5s-61 -99.5 -61 -163.5c0 -54 15.333 -97.333 46 -130s70.667 -49 120 -49z" />
    <glyph glyph-name="A" unicode="A" horiz-adv-x="1515" 
d="M770 1471h233l366 -1471h-268l-78 313h-581l-169 -313h-297zM956 573l-118 483l-259 -483h377z" />
    <glyph glyph-name="B" unicode="B" horiz-adv-x="1188" 
d="M266 1471l229.999 -0.00292969c140 0 244 -15 312 -45s122.833 -76.667 164.5 -140s62.5 -131.666 62.5 -204.999c0 -61.333 -14.667 -119.166 -44 -173.499s-71.666 -99.833 -126.999 -136.5c131.333 -91.333 197 -212.666 197 -363.999
c0 -78.667 -20.833 -150.667 -62.5 -216s-93.167 -113.5 -154.5 -144.5s-150 -46.5 -266 -46.5h-508zM464.999 886.997l49.998 -0.000976562c74.667 0 125.334 5.5 152.001 16.5s49.334 31.5 68.001 61.5s28 63.333 28 100c0 34 -8.33301 63.333 -25 88
s-38.5 41.334 -65.5 50.001s-81.833 13 -164.5 13zM382.997 260.996l165.999 -6.00098c83.333 0 144 16.333 182 49s57 77.334 57 134.001c0 41.333 -11.833 78.333 -35.5 111s-55.167 55.667 -94.5 69s-114.666 20.333 -225.999 21z" />
    <glyph glyph-name="C" unicode="C" horiz-adv-x="1597" 
d="M1524 1281l-201.002 -186.002c-43.333 50 -96.333 88.5 -159 115.5s-130.667 40.5 -204 40.5c-102.667 0 -201 -26.333 -295 -79s-167.167 -122.334 -219.5 -209.001s-78.5 -179 -78.5 -277c0 -133.333 46 -244.166 138 -332.499s210 -132.5 354 -132.5
c154 0 287.333 44.667 400 134l163 -215c-167.333 -118 -361 -177 -581 -177c-154.667 0 -286.167 29.333 -394.5 88s-195.333 144.834 -261 258.501s-98.5 236.834 -98.5 369.501c0 142 38.833 278.167 116.5 408.5s182.834 233 315.501 308s277.334 112.5 434.001 112.5
c220 0 410.333 -75.667 571 -227z" />
    <glyph glyph-name="D" unicode="D" horiz-adv-x="1434" 
d="M267 1471l234 0.00195312c219.333 0 382.5 -25.833 489.5 -77.5s194 -132.834 261 -243.501s100.5 -238.334 100.5 -383.001c0 -148.667 -35.5 -285.167 -106.5 -409.5s-160.5 -215 -268.5 -272s-258 -85.5 -450 -85.5h-457zM510 1212l-126.999 -955.002h91
c140 0 241.333 11.667 304 35c88 33.333 158.667 90.333 212 171s80 180.334 80 299.001c0 97.333 -18.833 178.833 -56.5 244.5s-90.834 116.334 -159.501 152.001s-160 53.5 -274 53.5h-70z" />
    <glyph glyph-name="E" unicode="E" horiz-adv-x="1065" 
d="M245 1471h799l-34 -261h-520l-42 -304h522l-33 -259h-522l-52 -390h525l-35 -257h-801z" />
    <glyph glyph-name="F" unicode="F" horiz-adv-x="983" 
d="M247 1471h725l-33 -261h-447l-42 -304h448l-33 -259h-449l-84 -647h-278z" />
    <glyph glyph-name="G" unicode="G" horiz-adv-x="1720" 
d="M1541 1197l-230 -148.998c-66.667 76 -131 128.833 -193 158.5s-132.333 44.5 -211 44.5c-170 0 -308.333 -68.333 -415 -205c-84.667 -108.667 -127 -229.334 -127 -362.001c0 -130.667 43.5 -240.334 130.5 -329.001s194.167 -133 321.5 -133
c94.667 0 180.834 22.833 258.501 68.5s141.167 114.167 190.5 205.5h-459l34 261h744c-10.667 -243.333 -86.834 -436.5 -228.501 -579.5s-322.167 -214.5 -541.5 -214.5c-238.667 0 -426.334 82.667 -563.001 248c-110 132.667 -165 290.667 -165 474
c0 223.333 80.5 416.333 241.5 579s352.833 244 575.5 244c82.667 0 163.334 -12 242.001 -36s149.667 -57.667 213 -101s124 -101.333 182 -174z" />
    <glyph glyph-name="H" unicode="H" horiz-adv-x="1393" 
d="M266 1471h277l-74 -555h503l75 555h278l-200 -1471h-276l91 668h-507l-90 -668h-275z" />
    <glyph glyph-name="I" unicode="I" horiz-adv-x="573" 
d="M256 1471h270l-203 -1471h-265z" />
    <glyph glyph-name="J" unicode="J" horiz-adv-x="983" 
d="M643 1471h276l-138 -1038c-18.667 -137.333 -42 -234.5 -70 -291.5s-68.667 -101 -122 -132s-115.666 -46.5 -186.999 -46.5c-88.667 0 -173.167 26 -253.5 78s-145.5 126 -195.5 222l219 133c38.667 -60 77 -103.5 115 -130.5s71.667 -40.5 101 -40.5
c31.333 0 55.666 12 72.999 36s30.333 76.333 39 157z" />
    <glyph glyph-name="K" unicode="K" horiz-adv-x="1270" 
d="M270 1471h277l-68 -500l474 500h342l-641 -673l507 -798h-309l-415 654l-89 -654h-274z" />
    <glyph glyph-name="L" unicode="L" horiz-adv-x="901" 
d="M271 1471h277l-166 -1218h457l-32 -253h-735z" />
    <glyph glyph-name="M" unicode="M" horiz-adv-x="1843" 
d="M376 1471h250l249 -1025l508 1025h238l20 -1471h-258l-12 880l-436 -880h-211l-224 924l-235 -924h-264z" />
    <glyph glyph-name="N" unicode="N" horiz-adv-x="1515" 
d="M266 1471h242l533 -1000l135 1000h269l-198 -1471h-236l-540 1011l-135 -1011h-265z" />
    <glyph glyph-name="O" unicode="O" horiz-adv-x="1720" 
d="M945 1508c202 0 368.667 -64.999 500 -194.999s197 -295 197 -495c0 -153.333 -38.833 -297.833 -116.5 -433.5s-181 -239.834 -310 -312.501s-277.167 -109 -444.5 -109c-209.333 0 -376.5 62 -501.5 186s-187.5 287.333 -187.5 490c0 230 74.667 427.667 224 593
c166.667 184 379.667 276 639 276zM935 1247c-105.333 0 -201.5 -25.5 -288.5 -76.5s-157.167 -124.333 -210.5 -220s-80 -194.5 -80 -296.5c0 -120.667 37 -223 111 -307s180.333 -126 319 -126c160.667 0 297.167 56.667 409.5 170s168.5 251 168.5 413
c0 134 -39.5 241.333 -118.5 322s-182.5 121 -310.5 121z" />
    <glyph glyph-name="P" unicode="P" horiz-adv-x="1147" 
d="M269 1471l258.998 -0.000976562c157.333 0 268.333 -13.667 333 -41c80 -34 140.667 -81.333 182 -142s62 -131.667 62 -213c0 -89.333 -24.167 -170.166 -72.5 -242.499s-113.166 -125 -194.499 -158s-216.666 -50.833 -405.999 -53.5l-84 -621h-277zM464.998 880.999
c150.667 0.666992 249 16.333 295 47s69 76.334 69 137.001c0 34 -9 62.667 -27 86s-44.667 39.666 -80 48.999s-105.333 14 -210 14z" />
    <glyph glyph-name="Q" unicode="Q" horiz-adv-x="1720" 
d="M1408 224l258.003 -292.999h-350l-117 132c-130.667 -66.667 -273 -100 -427 -100c-210 0 -377.5 62 -502.5 186s-187.5 287.333 -187.5 490c0 159.333 38.167 306 114.5 440s179.666 239 309.999 315s274.166 114 431.499 114c206 0 374.833 -65 506.5 -195
s197.5 -295 197.5 -495c0 -108 -20.833 -214.833 -62.5 -320.5s-98.834 -196.834 -171.501 -273.501zM1228 427.001c90.667 107.333 136.001 233 136.001 377c0 134.667 -39.5 242.167 -118.5 322.5s-183.833 120.5 -314.5 120.5c-103.333 0 -198.333 -25.667 -285 -77
s-156.667 -124.833 -210 -220.5s-80 -194.167 -80 -295.5c0 -121.333 37.167 -223.833 111.5 -307.5s180.166 -125.5 317.499 -125.5c84.667 0 162 15.333 232 46l-220 247h354z" />
    <glyph glyph-name="R" unicode="R" horiz-adv-x="1188" 
d="M281 1471h257c158.667 0 270.334 -13.667 335.001 -41c80.667 -34 141.5 -81.167 182.5 -141.5s61.5 -131.833 61.5 -214.5c0 -102 -30.333 -189.5 -91 -262.5s-152.334 -123.833 -275.001 -152.5l321 -659h-286l-314 642h-26l-85 -642h-276zM478 883
c151.333 0.666992 249.833 16.168 295.5 46.501s68.5 75.833 68.5 136.5c0 34.667 -9.16699 63.667 -27.5 87s-44.833 39.666 -79.5 48.999s-105 14 -211 14z" />
    <glyph glyph-name="S" unicode="S" horiz-adv-x="1065" 
d="M1017 1266l-200.999 -178.001c-82.667 106.667 -159.667 160 -231 160c-35.333 0 -64.666 -10.5 -87.999 -31.5s-35 -46.167 -35 -75.5c0 -27.333 10.667 -57.666 32 -90.999s86 -107 194 -221c57.333 -60.667 95 -103.667 113 -129
c43.333 -58.667 74.5 -113.5 93.5 -164.5s28.5 -102.833 28.5 -155.5c0 -118 -42 -217 -126 -297s-191.667 -120 -323 -120c-200 0 -363 95 -489 285l212 171c85.333 -130 177.666 -195 276.999 -195c47.333 0 87.166 15.333 119.499 46s48.5 67.667 48.5 111
c0 34 -9.83301 68.667 -29.5 104s-75.834 102 -168.501 200c-98 103.333 -162.333 181.333 -193 234c-41.333 71.333 -62 141.333 -62 210c0 90.667 29.667 172 89 244c74.667 90 175.334 135 302.001 135c174 0 319.667 -80.667 437 -242z" />
    <glyph glyph-name="T" unicode="T" horiz-adv-x="860" 
d="M79 1471h898l-32 -262h-313l-159 -1209h-274l159 1209h-313z" />
    <glyph glyph-name="U" unicode="U" horiz-adv-x="1311" 
d="M260 1471l275.001 0.000976562l-122 -908c-10.667 -79.333 -16 -135.333 -16 -168c0 -55.333 17.167 -98.5 51.5 -129.5s84.166 -46.5 149.499 -46.5c52.667 0 98.667 11.667 138 35c29.333 17.333 52.833 46.166 70.5 86.499s34.834 120.5 51.501 240.5l123 890h278
l-120 -878c-24.667 -180.667 -57 -310.334 -97 -389.001s-97.833 -138.5 -173.5 -179.5s-167.834 -61.5 -276.501 -61.5c-146.667 0 -261 39 -343 117s-123 184.667 -123 320c0 58.667 8 145.334 24 260.001z" />
    <glyph glyph-name="V" unicode="V" horiz-adv-x="1434" 
d="M105 1471h270l263 -1062l569 1062h297l-787 -1471h-247z" />
    <glyph glyph-name="W" unicode="W" horiz-adv-x="1843" 
d="M132 1471h252l84 -953l451 953h208l175 -928l327 928h267l-520 -1471h-226l-185 974l-461 -974h-241z" />
    <glyph glyph-name="X" unicode="X" horiz-adv-x="1393" 
d="M250 1471h284l207 -455l321 455h320l-518 -728l338 -743h-286l-224 499l-354 -499h-322l552 772z" />
    <glyph glyph-name="Y" unicode="Y" horiz-adv-x="1270" 
d="M66 1471h279l230 -589l418 589h317l-628 -883l-79 -588h-276l81 588z" />
    <glyph glyph-name="Z" unicode="Z" horiz-adv-x="1024" 
d="M183 1471h831l-584 -1215h463l-34 -256h-841l585 1212h-456z" />
    <glyph glyph-name="bracketleft" unicode="[" horiz-adv-x="655" 
d="M316 1508h437l-35 -255h-161l-195 -1397h161l-34 -254h-439z" />
    <glyph glyph-name="backslash" unicode="\" horiz-adv-x="1311" 
d="M1082 -262h-193l-661 1775h193z" />
    <glyph glyph-name="bracketright" unicode="]" horiz-adv-x="655" 
d="M311 -398h-437l35 255h161l196 1397h-162l35 254h438z" />
    <glyph glyph-name="asciicircum" unicode="^" 
d="M497 1471h232l390 -1105h-242l-262 748l-263 -748h-243z" />
    <glyph glyph-name="underscore" unicode="_" horiz-adv-x="1024" 
d="M-12 -154h1048v-102h-1048v102z" />
    <glyph glyph-name="grave" unicode="`" horiz-adv-x="860" 
d="M216 1677h322l182 -392h-195z" />
    <glyph glyph-name="a" unicode="a" horiz-adv-x="1352" 
d="M984 1088l267 0.000976562l-142 -1088h-264l15 117c-58 -54 -112.167 -91.667 -162.5 -113s-106.833 -32 -169.5 -32c-144 0 -258.5 53 -343.5 159s-127.5 229.333 -127.5 370c0 107.333 27 209.5 81 306.5s126.5 172.667 217.5 227s186.167 81.5 285.5 81.5
c66.667 0 128.167 -15.333 184.5 -46s102.833 -75.334 139.5 -134.001zM590 210.001c65.333 0 122.333 14.667 171 44s89.5 75.333 122.5 138s49.5 126.667 49.5 192c0 86 -24.833 155.167 -74.5 207.5s-115.167 78.5 -196.5 78.5c-94.667 0 -175 -35 -241 -105
s-99 -160.333 -99 -271c0 -85.333 25 -154 75 -206s114.333 -78 193 -78z" />
    <glyph glyph-name="b" unicode="b" horiz-adv-x="1352" 
d="M310 0l-267.001 -0.00292969l197 1508h264l-70 -537c58 54.667 112.167 92.5 162.5 113.5s106.833 31.5 169.5 31.5c144 0 258.5 -53 343.5 -159s127.5 -229 127.5 -369c0 -107.333 -27 -209.666 -81 -306.999s-126.5 -173.166 -217.5 -227.499
s-185.833 -81.5 -284.5 -81.5c-67.333 0 -129.166 15.333 -185.499 46s-102.5 75.334 -138.5 134.001zM703.999 878.997c-65.333 0 -122.333 -14.8311 -171 -44.498s-89.5 -75.834 -122.5 -138.501s-49.5 -126.667 -49.5 -192c0 -86 24.833 -155.167 74.5 -207.5
s115.167 -78.5 196.5 -78.5c94.667 0 175 35 241 105s99 160.333 99 271c0 85.333 -25 154.166 -75 206.499s-114.333 78.5 -193 78.5z" />
    <glyph glyph-name="c" unicode="c" horiz-adv-x="1311" 
d="M1187 863l-226.001 -122.999c-64 81.333 -150 122 -258 122c-72.667 0 -137 -15.5 -193 -46.5s-100.667 -75.833 -134 -134.5s-50 -120.667 -50 -186c0 -84 26.333 -151.333 79 -202s125 -76 217 -76c127.333 0 225 43 293 129l210 -148
c-59.333 -70.667 -133.166 -126 -221.499 -166s-186.833 -60 -295.5 -60c-169.333 0 -302.833 46.667 -400.5 140s-146.5 216.666 -146.5 369.999c0 175.333 60.333 324.833 181 448.5s276 185.5 466 185.5c214 0 373.667 -84.333 479 -253z" />
    <glyph glyph-name="d" unicode="d" horiz-adv-x="1352" 
d="M1039 1508l267 0.000976562l-197 -1508h-264l15 117c-58 -54 -112.167 -91.667 -162.5 -113s-106.833 -32 -169.5 -32c-144 0 -258.5 53 -343.5 159s-127.5 229.333 -127.5 370c0 107.333 27 209.5 81 306.5s126.5 172.667 217.5 227s186.167 81.5 285.5 81.5
c66.667 0 128.167 -15.333 184.5 -46s102.833 -75.334 139.5 -134.001zM590 210.001c65.333 0 122.333 14.667 171 44s89.5 75.333 122.5 138s49.5 126.667 49.5 192c0 86 -24.833 155.167 -74.5 207.5s-115.167 78.5 -196.5 78.5c-94.667 0 -175 -35 -241 -105
s-99 -160.333 -99 -271c0 -85.333 25 -154 75 -206s114.333 -78 193 -78z" />
    <glyph glyph-name="e" unicode="e" horiz-adv-x="1311" 
d="M861 319l235 -122.001c-52.667 -69.333 -122.5 -124.166 -209.5 -164.499s-183.5 -60.5 -289.5 -60.5c-166 0 -296.833 46.667 -392.5 140s-143.5 217.333 -143.5 372c0 176.667 59.833 326.167 179.5 448.5s264.167 183.5 433.5 183.5c102 0 192.833 -22.333 272.5 -67
s142.5 -109.667 188.5 -195s69 -178 69 -278c0 -31.333 -3.33301 -68 -10 -110h-868c2.66699 -75.333 27.5 -135.333 74.5 -180s111.833 -67 194.5 -67c100 0 188.667 33.333 266 100zM929 661.999c-20 66.667 -53.333 117.167 -100 151.5s-103 51.5 -169 51.5
c-65.333 0 -124.333 -17.667 -177 -53s-92.667 -85.333 -120 -150h566z" />
    <glyph glyph-name="f" unicode="f" horiz-adv-x="573" 
d="M56 1088h116c18.667 142 39.5 239.167 62.5 291.5s54.167 91.5 93.5 117.5s88 39 146 39c75.333 0 145 -21.667 209 -65l-30 -218c-36.667 32.667 -73.667 49 -111 49c-28 0 -48.5 -10.167 -61.5 -30.5s-26.833 -81.5 -41.5 -183.5h166l-29 -230h-166l-120 -858h-266
l117 858h-114z" />
    <glyph glyph-name="g" unicode="g" horiz-adv-x="1352" 
d="M984 1088l266.999 0.00195312l-119 -871c-23.333 -172 -47.333 -286 -72 -342c-38.667 -86.667 -103.667 -158.5 -195 -215.5s-206 -85.5 -344 -85.5c-114.667 0 -214.5 22.167 -299.5 66.5s-148.5 101.5 -190.5 171.5l229 120c68.667 -72.667 158 -109 268 -109
c64 0 119.333 11.667 166 35s83 54.833 109 94.5s44.333 98.5 55 176.5c-96.667 -86 -206.334 -129 -329.001 -129c-85.333 0 -164.166 21.5 -236.499 64.5s-129.166 103.5 -170.499 181.5s-62 164.667 -62 260c0 107.333 27 208.166 81 302.499
s127.5 169.166 220.5 224.499s190.167 83 291.5 83c61.333 0 117 -12 167 -36s99 -64.333 147 -121zM666.999 864.002c-96.667 0 -178.168 -33.999 -244.501 -101.999s-99.5 -151.667 -99.5 -251c0 -80.667 24.667 -145.334 74 -194.001s115.333 -73 198 -73
c62 0 119.333 15 172 45s94.334 73 125.001 129s46 116.333 46 181c0 76 -25.333 139.167 -76 189.5s-115.667 75.5 -195 75.5z" />
    <glyph glyph-name="h" unicode="h" 
d="M250 1508l265.001 0.00195312l-72 -530c102 92 208 138 318 138c94 0 171 -29.833 231 -89.5s90 -134.834 90 -225.501c0 -42.667 -5.66699 -106.334 -17 -191.001l-81 -610h-265l79 595c8 61.333 12 107.333 12 138c0 44 -12.5 77.833 -37.5 101.5
s-60.5 35.5 -106.5 35.5c-44.667 0 -89.334 -15.5 -134.001 -46.5s-79 -74 -103 -129s-46 -158.167 -66 -309.5l-51 -385h-266z" />
    <glyph glyph-name="i" unicode="i" horiz-adv-x="491" 
d="M324 1533c45.333 0 84.166 -16.167 116.499 -48.5s48.5 -71.166 48.5 -116.499s-16.167 -84.166 -48.5 -116.499s-71.166 -48.5 -116.499 -48.5s-84.166 16.167 -116.499 48.5s-48.5 71.166 -48.5 116.499s16.167 84.166 48.5 116.499s71.166 48.5 116.499 48.5z
M158 1088h264l-146 -1088h-266z" />
    <glyph glyph-name="j" unicode="j" horiz-adv-x="532" 
d="M348 1533c46 0 85 -16.167 117 -48.5s48 -71.166 48 -116.499s-16 -84.166 -48 -116.499s-71 -48.5 -117 -48.5c-45.333 0 -84.166 16.167 -116.499 48.5s-48.5 71.166 -48.5 116.499s16.167 84.166 48.5 116.499s71.166 48.5 116.499 48.5zM178 1088
l266.004 -0.000976562l-130 -963c-24.667 -181.333 -49.834 -302.666 -75.501 -363.999s-61.834 -107.833 -108.501 -139.5s-100.334 -47.5 -161.001 -47.5c-46.667 0 -101.334 13 -164.001 39l32 240c30 -19.333 57.667 -29 83 -29c30 0 52.667 12.667 68 38
c22 36.667 40.667 112.667 56 228z" />
    <glyph glyph-name="k" unicode="k" horiz-adv-x="1188" 
d="M246 1508h263l-107 -799l430 379h366l-550 -485l481 -603h-320l-430 536l-71 -536h-262z" />
    <glyph glyph-name="l" unicode="l" horiz-adv-x="491" 
d="M214 1508h266l-200 -1508h-266z" />
    <glyph glyph-name="m" unicode="m" horiz-adv-x="1925" 
d="M187 1088l268 0.000976562l-16 -118c96.667 97.333 205 146 325 146c48.667 0 94.167 -8.33301 136.5 -25s76.666 -38 102.999 -64s48.833 -62.333 67.5 -109c50 64.667 108.667 113.834 176 147.501s137.333 50.5 210 50.5c91.333 0 167 -30.5 227 -91.5
s90 -140.167 90 -237.5c0 -36.667 -3.33301 -82.334 -10 -137.001l-86 -650h-265l73 559c10 75.333 15 125.333 15 150c0 51.333 -12.833 90.333 -38.5 117s-61.834 40 -108.501 40c-45.333 0 -91.166 -16.167 -137.499 -48.5s-81.666 -75.333 -105.999 -129
s-44.833 -145.834 -61.5 -276.501l-54 -412h-267l79 592c6.66699 48 10 89 10 123c0 47.333 -13.667 84.833 -41 112.5s-63.333 41.5 -108 41.5c-42.667 0 -86.5 -14.833 -131.5 -44.5s-80 -70 -105 -121s-44.5 -129.167 -58.5 -234.5l-61 -469h-267z" />
    <glyph glyph-name="n" unicode="n" 
d="M193 1088l266.001 0.00195312l-16 -110c102 92 208 138 318 138c94 0 171 -29.833 231 -89.5s90 -134.834 90 -225.501c0 -42.667 -5.66699 -106.334 -17 -191.001l-81 -610h-265l79 595c8 61.333 12 107.333 12 138c0 44 -12.5 77.833 -37.5 101.5
s-60.5 35.5 -106.5 35.5c-44.667 0 -89.334 -15.5 -134.001 -46.5s-79 -74 -103 -129s-46 -158.167 -66 -309.5l-51 -385h-266z" />
    <glyph glyph-name="o" unicode="o" horiz-adv-x="1311" 
d="M684 1116c96.667 0 184.5 -22.334 263.5 -67.001s140.5 -108 184.5 -190s66 -174 66 -276c0 -169.333 -60.333 -313.5 -181 -432.5s-270 -178.5 -448 -178.5c-154.667 0 -278 46.833 -370 140.5s-138 216.167 -138 367.5c0 182.667 62.333 334.334 187 455.001
s270 181 436 181zM665 862.999c-109.333 0 -193.167 -39.168 -251.5 -117.501s-87.5 -163.166 -87.5 -254.499c0 -81.333 23.833 -146.833 71.5 -196.5s111.167 -74.5 190.5 -74.5c112.667 0 198.5 37.833 257.5 113.5s88.5 162.167 88.5 259.5c0 80 -25 145 -75 195
s-114.667 75 -194 75z" />
    <glyph glyph-name="p" unicode="p" horiz-adv-x="1352" 
d="M258 -398l-267 -0.00292969l195 1486h263l-15 -117c58 54.667 112.167 92.5 162.5 113.5s106.833 31.5 169.5 31.5c144.667 0 259.334 -53 344.001 -159s127 -229 127 -369c0 -107.333 -27 -209.666 -81 -306.999s-126.5 -173.166 -217.5 -227.499
s-185.833 -81.5 -284.5 -81.5c-66.667 0 -128.334 15.333 -185.001 46s-103 75.334 -139 134.001zM704 878.997c-64.667 0 -121.5 -14.8311 -170.5 -44.498s-90 -75.834 -123 -138.501s-49.5 -126.667 -49.5 -192c0 -86 24.833 -155.167 74.5 -207.5
s115.167 -78.5 196.5 -78.5c94.667 0 175 35 241 105s99 160.333 99 271c0 85.333 -25 154.166 -75 206.499s-114.333 78.5 -193 78.5z" />
    <glyph glyph-name="q" unicode="q" horiz-adv-x="1352" 
d="M984 1088l267 0.000976562l-194 -1486h-264l67 515c-58 -54 -112.167 -91.667 -162.5 -113s-106.833 -32 -169.5 -32c-144 0 -258.5 53 -343.5 159s-127.5 229.333 -127.5 370c0 107.333 27 209.5 81 306.5s126.5 172.667 217.5 227s186.167 81.5 285.5 81.5
c66.667 0 128.167 -15.333 184.5 -46s102.833 -75.334 139.5 -134.001zM590 210.001c65.333 0 122.333 14.667 171 44s89.5 75.333 122.5 138s49.5 126.667 49.5 192c0 86 -24.833 155.167 -74.5 207.5s-115.167 78.5 -196.5 78.5c-94.667 0 -175 -35 -241 -105
s-99 -160.333 -99 -271c0 -85.333 25 -154 75 -206s114.333 -78 193 -78z" />
    <glyph glyph-name="r" unicode="r" horiz-adv-x="655" 
d="M126 1088l237.998 -0.000976562l-19 -148c71.333 117.333 157 176 257 176c24 0 49 -6.33301 75 -19l-96 -241c-20 6 -34.667 9 -44 9c-51.333 0 -97.166 -30.167 -137.499 -90.5s-72.166 -182.166 -95.499 -365.499l-52 -409h-268z" />
    <glyph glyph-name="s" unicode="s" horiz-adv-x="901" 
d="M790 936l-126.999 -204.004c-32.667 48.667 -67 84.5 -103 107.5s-69.667 34.5 -101 34.5c-24 0 -44.333 -6.66699 -61 -20s-25 -28.333 -25 -45c0 -16 6.66699 -32 20 -48c12.667 -16 51 -47 115 -93c102 -73.333 169.167 -136.166 201.5 -188.499
s48.5 -109.166 48.5 -170.499c0 -80.667 -33.167 -157 -99.5 -229s-162.5 -108 -288.5 -108c-72.667 0 -138.834 14.667 -198.501 44s-126.167 83 -199.5 161l165 192c74.667 -98.667 156.334 -148 245.001 -148c35.333 0 63.5 8.5 84.5 25.5s31.5 37.167 31.5 60.5
c0 18.667 -8 37.834 -24 57.501s-59.667 54.834 -131 105.501c-82.667 58.667 -139.667 109 -171 151c-44 58.667 -66 120.667 -66 186c0 91.333 34.5 165.666 103.5 222.999s150.5 86 244.5 86c66 0 128.667 -15.667 188 -47s108.666 -75.666 147.999 -132.999z" />
    <glyph glyph-name="t" unicode="t" horiz-adv-x="614" 
d="M249 1492h266l-56 -404h169l-32 -230h-168l-117 -858h-267l118 858h-131l31 230h131z" />
    <glyph glyph-name="u" unicode="u" 
d="M195 1088h264.001l-73 -556c-8 -61.333 -12 -107.333 -12 -138c0 -48 16.667 -88.333 50 -121s76.666 -49 129.999 -49c68.667 0 121.5 21 158.5 63s64.167 127.333 81.5 256l75 545h264l-79 -585c-18 -132 -48.167 -234.167 -90.5 -306.5s-98.5 -127.833 -168.5 -166.5
s-152.333 -58 -247 -58c-133.333 0 -239.333 38.5 -318 115.5s-118 176.5 -118 298.5c0 74.667 8.33301 170.667 25 288z" />
    <glyph glyph-name="v" unicode="v" horiz-adv-x="1147" 
d="M55 1088h262l170 -605l349 605h290l-631 -1088h-129z" />
    <glyph glyph-name="w" unicode="w" horiz-adv-x="1638" 
d="M52 1088h257l150 -583l317 583h105l152 -583l315 583h284l-591 -1088h-129l-148 575l-310 -575h-127z" />
    <glyph glyph-name="x" unicode="x" horiz-adv-x="1147" 
d="M60 1088h294l190 -309l226 309h311l-395 -541l335 -547h-294l-202 329l-244 -329h-311l414 560z" />
    <glyph glyph-name="y" unicode="y" horiz-adv-x="1188" 
d="M45 1088h262l212 -646l372 646h288l-855 -1486h-282l309 546z" />
    <glyph glyph-name="z" unicode="z" horiz-adv-x="942" 
d="M87 1088h862l-557 -842h510l-34 -246h-939l555 839h-429z" />
    <glyph glyph-name="braceleft" unicode="{" horiz-adv-x="696" 
d="M-16 390l33.9961 239.998c60.667 2.66699 107.5 15.167 140.5 37.5s60.833 60.5 83.5 114.5c16.667 40 31.834 109.5 45.501 208.5s25.834 167.833 36.501 206.5c18.667 70 45.167 123.667 79.5 161s85.833 67.333 154.5 90c46 15.333 115.667 23 209 23h53l-34 -240
c-75.333 0 -124.666 -4.5 -147.999 -13.5s-40.666 -23.167 -51.999 -42.5c-8 -14 -19.667 -63.667 -35 -149c-26.667 -154.667 -46 -248.667 -58 -282c-20 -54.667 -44.5 -99.167 -73.5 -133.5s-71.167 -68.166 -126.5 -101.499c88 -55.333 132 -141.333 132 -258
c0 -49.333 -6.33301 -135.333 -19 -258c-6.66699 -62 -10 -101 -10 -117c0 -33.333 15.667 -57.666 47 -72.999c20 -10 66.667 -15 140 -15l-34 -239h-52c-102 0 -176.5 9.33301 -223.5 28s-82.833 47 -107.5 85s-37 86.667 -37 146c0 46 7 114.667 21 206
c12.667 82 19 146 19 192c0 57.333 -16.667 104 -50 140c-24 25.333 -69 40 -135 44z" />
    <glyph glyph-name="bar" unicode="|" 
d="M536 1508h158v-1906h-158v1906z" />
    <glyph glyph-name="braceright" unicode="}" horiz-adv-x="696" 
d="M627 630l-33.9971 -240.001c-60.667 -3.33301 -107.5 -16.166 -140.5 -38.499s-60.833 -60.166 -83.5 -113.499c-17.333 -40 -32.833 -109.5 -46.5 -208.5s-25.5 -168.167 -35.5 -207.5c-18.667 -69.333 -45.334 -122.833 -80.001 -160.5
s-86.334 -67.834 -155.001 -90.501c-46 -14.667 -115.333 -22 -208 -22h-53l34 239c75.333 0 124.666 4.66699 147.999 14s40.666 23.333 51.999 42c8 14 19.333 63.667 34 149c27.333 154.667 47 249 59 283c20 54.667 44.333 99.167 73 133.5s71 67.833 127 100.5
c-88.667 56 -133 142 -133 258c0 49.333 6.66699 135.333 20 258c6.66699 62 10 101.333 10 118c0 32.667 -16 57 -48 73c-19.333 9.33301 -66 14 -140 14l34 240h53c102 0 176.333 -9.5 223 -28.5s82.334 -47.333 107.001 -85s37 -86.167 37 -145.5
c0 -46.667 -6.66699 -115.667 -20 -207c-12.667 -82 -19 -146 -19 -192c0 -56.667 16.667 -103 50 -139c24 -26 69 -40.667 135 -44z" />
    <glyph glyph-name="asciitilde" unicode="~" 
d="M100 564l0.00292969 319c101.333 49.333 184.666 74 249.999 74c42.667 0 89.5 -7.16699 140.5 -21.5s118.833 -41.833 203.5 -82.5c55.333 -27.333 91.666 -43.333 108.999 -48c23.333 -6.66699 46.333 -10 69 -10c74 0 160 37.667 258 113v-322
c-84 -48 -166.333 -72 -247 -72c-44 0 -88.333 6 -133 18s-117.334 40.333 -218.001 85c-64 28 -106.833 44.833 -128.5 50.5s-43.5 8.5 -65.5 8.5c-33.333 0 -67 -7.33301 -101 -22s-79.667 -44.667 -137 -90z" />
    <glyph glyph-name="nbspace" unicode="&#xa0;" horiz-adv-x="573" 
 />
    <glyph glyph-name="exclamdown" unicode="&#xa1;" horiz-adv-x="573" 
d="M326 802c-46.667 0 -86.334 16.333 -119.001 49s-49 72.334 -49 119.001c0 46 16.333 85.5 49 118.5s72.334 49.5 119.001 49.5c46 0 85.333 -16.5 118 -49.5s49 -72.5 49 -118.5c0 -46.667 -16.333 -86.334 -49 -119.001s-72 -49 -118 -49zM279 -398h-275l151 1074h275z
" />
    <glyph glyph-name="cent" unicode="&#xa2;" horiz-adv-x="1147" 
d="M1037 1356l131.999 -86.002l-159 -243c35.333 -23.333 68.333 -49.666 99 -78.999l-147 -186c-26 24 -53.333 45.333 -82 64l-394 -607c34.667 -9.33301 64.667 -14 90 -14c45.333 0 94.833 13.833 148.5 41.5s100.834 65.834 141.501 114.501l144 -193
c-76 -73.333 -150.5 -125.833 -223.5 -157.5s-150.167 -47.5 -231.5 -47.5c-71.333 0 -140 14 -206 42l-200 -308l-132 84l203 312c-100 102 -150 228 -150 378c0 116 28.667 225.333 86 328s134.5 182.5 231.5 239.5s200.833 85.5 311.5 85.5
c54 0 109.667 -9.66699 167 -29zM729.999 882.998l-48 1.99902c-96 0 -180.333 -39 -253 -117s-109 -172 -109 -282c0 -53.333 15.333 -108.666 46 -165.999z" />
    <glyph glyph-name="sterling" unicode="&#xa3;" horiz-adv-x="1147" 
d="M1066 1088h-268.999c2.66699 20.667 4 38.334 4 53.001c0 34 -10.833 61.333 -32.5 82s-51.5 31 -89.5 31c-47.333 0 -86 -16.833 -116 -50.5s-45 -79.834 -45 -138.501c0 -34 7.33301 -99.667 22 -197h326l-33 -252h-279c-0.666992 -62.667 -8 -117 -22 -163
c-18.667 -62 -49 -132 -91 -210c12.667 0 47 -3.66699 103 -11c41.333 -5.33301 74.333 -8 99 -8c66.667 0 114 36.333 142 109h267c-34 -120.667 -88.667 -212.5 -164 -275.5s-161.666 -94.5 -258.999 -94.5c-46.667 0 -121.334 6.33301 -224.001 19
c-96.667 12 -161.667 18 -195 18c-63.333 -0 -142 -13.667 -236 -41l34 251c46.667 15.333 93.667 26.333 141 33c55.333 104.667 90.5 179.5 105.5 224.5s24.167 94.5 27.5 148.5h-220l32 252h161c-18 76 -27 142.333 -27 199c0 126 44.333 231 133 315
s204.667 126 348 126c113.333 0 202.666 -30.833 267.999 -92.5s98 -140.5 98 -236.5c0 -24 -3 -54.333 -9 -91z" />
    <glyph glyph-name="currency" unicode="&#xa4;" 
d="M96 425l103.004 104c-34.667 52.667 -58.667 101 -72 145s-20 92 -20 144c0 55.333 7 105.833 21 151.5s38.333 92.5 73 140.5l-106 104l121 124l106 -106c46.667 32.667 94.667 57 144 73s100 24 152 24c50 0 98.667 -7.33301 146 -22s95.666 -38.667 144.999 -72
l105 103l119 -124l-104 -101c35.333 -48 60.5 -95.5 75.5 -142.5s22.5 -97.833 22.5 -152.5c0 -54 -7.33301 -103.833 -22 -149.5s-39 -92.167 -73 -139.5l104 -104l-119 -121l-105 103c-48.667 -35.333 -96.834 -60.833 -144.501 -76.5s-98.167 -23.5 -151.5 -23.5
c-52.667 0 -102.834 7.83301 -150.501 23.5s-95.834 41.167 -144.501 76.5l-105 -103zM303.004 816c0 -88 30.833 -162.999 92.5 -224.999s135.5 -93 221.5 -93s159.667 31.167 221 93.5s92 138.166 92 227.499c0 88.667 -30.5 164.167 -91.5 226.5s-134.5 93.5 -220.5 93.5
s-160 -31.333 -222 -94s-93 -139 -93 -229z" />
    <glyph glyph-name="yen" unicode="&#xa5;" horiz-adv-x="1147" 
d="M66 1471h271l179 -580l364 580h307l-465 -739h217l-21 -166h-298l-16 -115h296l-20 -168h-300l-38 -283h-276l38 283h-284l21 168h286l15 115h-284l24 166h213z" />
    <glyph glyph-name="brokenbar" unicode="&#xa6;" 
d="M537 744v764h158v-709zM537 -398v910l158 55v-965h-158z" />
    <glyph glyph-name="section" unicode="&#xa7;" horiz-adv-x="1147" 
d="M1048 1151l-266.999 0.00488281c-2.66699 42.667 -16.5 75.5 -41.5 98.5s-58.167 34.5 -99.5 34.5c-38.667 0 -69.667 -10.167 -93 -30.5s-35 -44.5 -35 -72.5c0 -23.333 10 -47.333 30 -72c19.333 -24.667 70.666 -67.334 153.999 -128.001
c105.333 -76.667 175.666 -133.834 210.999 -171.501s61.333 -76.834 78 -117.501s25 -84 25 -130c0 -76.667 -23.5 -145 -70.5 -205s-114.167 -103.333 -201.5 -130c48.667 -36.667 85 -78.167 109 -124.5s36 -97.5 36 -153.5c0 -108 -43.333 -197.5 -130 -268.5
s-190 -106.5 -310 -106.5c-75.333 0 -141.666 15.167 -198.999 45.5s-102.5 73.333 -135.5 129s-49.5 115.167 -49.5 178.5v23h261c4 -38 19 -68.5 45 -91.5s60 -34.5 102 -34.5c44 0 78.5 10.333 103.5 31s37.5 46 37.5 76c0 12.667 -2.5 25 -7.5 37
s-12.833 23.667 -23.5 35c-36.667 41.333 -124 112.666 -262 213.999c-91.333 66.667 -152.166 125.5 -182.499 176.5s-45.5 106.167 -45.5 165.5c0 74 23 144.167 69 210.5s108.667 116.166 188 149.499c-36.667 33.333 -64.334 69.833 -83.001 109.5s-28 82.5 -28 128.5
c0 102 41 190.667 123 266s185.667 113 311 113c114 0 206 -36 276 -108s105 -164.333 105 -277zM487.001 800.005c-51.333 -15.333 -91.166 -39.832 -119.499 -73.499s-42.5 -70.167 -42.5 -109.5c0 -26 6 -48.5 18 -67.5s44.667 -49.167 98 -90.5l160 -123
c55.333 16.667 96.666 39.167 123.999 67.5s41 62.166 41 101.499c0 29.333 -9.16699 57.833 -27.5 85.5s-58.833 65.167 -121.5 112.5z" />
    <glyph glyph-name="dieresis" unicode="&#xa8;" horiz-adv-x="1024" 
d="M365 1536c34.667 0 63.833 -11.667 87.5 -35s35.5 -51.333 35.5 -84c0 -46 -16 -85.333 -48 -118s-71 -49 -117 -49c-37.333 0 -67.333 11.5 -90 34.5s-34 53.167 -34 90.5c0 42.667 16.5 80.167 49.5 112.5s71.833 48.5 116.5 48.5zM807.999 1536
c34.667 0 63.833 -11.667 87.5 -35s35.5 -51.333 35.5 -84c0 -46 -16 -85.333 -48 -118s-71 -49 -117 -49c-37.333 0 -67.333 11.5 -90 34.5s-34 53.167 -34 90.5c0 42.667 16.5 80.167 49.5 112.5s71.833 48.5 116.5 48.5z" />
    <glyph glyph-name="copyright" unicode="&#xa9;" horiz-adv-x="1515" 
d="M1524 757c0 -136.667 -34.1611 -264.167 -102.494 -382.5s-161.833 -211.666 -280.5 -279.999s-246.334 -102.5 -383.001 -102.5s-264.334 34.167 -383.001 102.5s-212.167 161.666 -280.5 279.999s-102.5 245.833 -102.5 382.5c0 136 34.167 263 102.5 381
s161.666 211.167 279.999 279.5s246.166 102.5 383.499 102.5s265.166 -34.167 383.499 -102.5s211.666 -161.5 279.999 -279.5s102.5 -245 102.5 -381zM1366.01 754c0 168.667 -59.1689 312.167 -177.502 430.5s-261.5 177.5 -429.5 177.5
c-109.333 0 -211.166 -27 -305.499 -81s-168.5 -127.833 -222.5 -221.5s-81 -194.167 -81 -301.5s27 -207.5 81 -300.5s128.167 -166.5 222.5 -220.5s195.5 -81 303.5 -81c108.667 0 210.334 27 305.001 81s169 127.167 223 219.5s81 191.5 81 297.5zM980.004 616h175.999
c-11.333 -87.333 -50.666 -159.333 -117.999 -216s-150 -85 -248 -85c-125.333 0 -228.166 42.167 -308.499 126.5s-120.5 193.833 -120.5 328.5c0 130.667 39.667 236.667 119 318s180.666 122 303.999 122c99.333 0 181 -25 245 -75s106.333 -122.667 127 -218h-176
c-11.333 49.333 -34 87.333 -68 114s-76 40 -126 40c-74 0 -135 -26.833 -183 -80.5s-72 -126.5 -72 -218.5c0 -94.667 25.5 -171.167 76.5 -229.5s111.833 -87.5 182.5 -87.5c50 0 92.667 15 128 45s56 68.667 62 116z" />
    <glyph glyph-name="ordfeminine" unicode="&#xaa;" horiz-adv-x="737" 
d="M535 1491h198.001l-96 -681h-196l8 60c-32.667 -31.333 -60.167 -51.833 -82.5 -61.5s-49.5 -14.5 -81.5 -14.5c-58.667 0 -108.834 26.833 -150.501 80.5s-62.5 127.167 -62.5 220.5c0 116 32.833 213.833 98.5 293.5s138.5 119.5 218.5 119.5
c26 0 48.833 -5.5 68.5 -16.5s42.5 -32.5 68.5 -64.5zM368.001 964c35.333 0 64.333 16.001 87 48.001c30 43.333 45 97.666 45 162.999c0 51.333 -9.83301 90.5 -29.5 117.5s-44.167 40.5 -73.5 40.5c-33.333 0 -63.333 -18.667 -90 -56s-40 -89.333 -40 -156
c0 -50.667 10 -89.5 30 -116.5s43.667 -40.5 71 -40.5z" />
    <glyph glyph-name="guillemotleft" unicode="&#xab;" horiz-adv-x="942" 
d="M260 1088h254l-263 -550l108 -538h-255l-107 538zM714 1088h253l-263 -550l108 -538h-254l-108 538z" />
    <glyph glyph-name="logicalnot" unicode="&#xac;" 
d="M115 1074h999v-678l-249 1v428l-750 -1v250z" />
    <glyph glyph-name="registered" unicode="&#xae;" horiz-adv-x="1515" 
d="M1524 755c0 -136.667 -34.1641 -263.833 -102.497 -381.5s-161.666 -210.667 -279.999 -279s-246.166 -102.5 -383.499 -102.5c-136.667 0 -264.334 34.167 -383.001 102.5s-212.167 161.333 -280.5 279s-102.5 245.167 -102.5 382.5c0 136.667 34.167 264 102.5 382
s161.666 211.167 279.999 279.5s246.166 102.5 383.499 102.5s265.166 -34.167 383.499 -102.5s211.666 -161.5 279.999 -279.5s102.5 -245.667 102.5 -383zM1366 753.001c0 169.333 -59.1699 313.167 -177.503 431.5s-261.166 177.5 -428.499 177.5
c-168.667 0 -312.5 -59 -431.5 -177s-178.5 -260.333 -178.5 -427c0 -108 26.833 -208.333 80.5 -301s127.834 -166 222.501 -220s196.334 -81 305.001 -81c108 0 209.333 26.833 304 80.5s169 126.667 223 219s81 191.5 81 297.5zM441 1173h371.002
c78 0 135.333 -8.66699 172 -26s66.167 -44.666 88.5 -81.999s33.5 -82.333 33.5 -135c0 -44.667 -6.83301 -81.167 -20.5 -109.5s-39.5 -56.166 -77.5 -83.499c30.667 -17.333 51.667 -36.833 63 -58.5s18.333 -59.834 21 -114.501
c4.66699 -104 9.16699 -164.5 13.5 -181.5s16.166 -33.167 35.499 -48.5h-210c-9.33301 22.667 -15.333 41.667 -18 57s-4.33398 41.666 -5.00098 78.999c-2 74 -6 119.667 -12 137s-16.5 30.333 -31.5 39s-45.167 13 -90.5 13h-149v-325h-184v839zM625.002 1012
l0.000976562 -199h154c59.333 0 98.666 8 117.999 24s29 41.667 29 77s-9.5 60.5 -28.5 75.5s-58.167 22.5 -117.5 22.5h-155z" />
    <glyph glyph-name="overscore" unicode="&#xaf;" horiz-adv-x="1024" 
d="M103 1685h1048v-102h-1048v102z" />
    <glyph glyph-name="degree" unicode="&#xb0;" horiz-adv-x="819" 
d="M797 1164c0 -96.667 -33.667 -178.167 -101 -244.5s-149 -99.5 -245 -99.5s-177.333 33.333 -244 100s-100 149 -100 247c0 94 34.167 174.333 102.5 241s149.833 100 244.5 100s175.5 -33.333 242.5 -100s100.5 -148 100.5 -244zM678 1162c0 66 -21.667 121.333 -65 166
s-96 67 -158 67c-63.333 0 -117.333 -22.5 -162 -67.5s-67 -99.5 -67 -163.5c0 -62.667 22.5 -117 67.5 -163s98.5 -69 160.5 -69c61.333 0 114 22.5 158 67.5s66 99.167 66 162.5z" />
    <glyph glyph-name="plusminus" unicode="&#xb1;" horiz-adv-x="1124" 
d="M437 1079v375h250v-375h374v-250h-374v-374h-250v374h-375v250h375zM62 250h999v-250h-999v250z" />
    <glyph glyph-name="twosuperior" unicode="&#xb2;" horiz-adv-x="688" 
d="M313 1239l-180.999 -0.00195312c3.33301 84 30 149.833 80 197.5s117 71.5 201 71.5c78 0 141.167 -21.333 189.5 -64s72.5 -94 72.5 -154c0 -46.667 -16.5 -95.5 -49.5 -146.5s-117.5 -136.833 -253.5 -257.5h270l-24 -153h-561l18 118
c205.333 174.667 330.333 289.334 375 344.001c28 34.667 42 66.334 42 95.001c0 17.333 -7.5 32.5 -22.5 45.5s-34.167 19.5 -57.5 19.5c-26.667 0 -47.834 -8.16699 -63.501 -24.5s-27.5 -46.833 -35.5 -91.5z" />
    <glyph glyph-name="threesuperior" unicode="&#xb3;" horiz-adv-x="688" 
d="M343 1286l-174 0.000976562c9.33301 69.333 37.833 123.666 85.5 162.999s108.167 59 181.5 59c70.667 0 128.334 -19.667 173.001 -59s67 -85.333 67 -138c0 -68 -39.667 -125.667 -119 -173c68 -42.667 102 -98.667 102 -168c0 -68 -29.5 -127.5 -88.5 -178.5
s-133.167 -76.5 -222.5 -76.5c-55.333 0 -104 11.5 -146 34.5s-73.667 53.167 -95 90.5s-32 85.333 -32 144h176c5.33301 -76.667 42.333 -115 111 -115c33.333 0 60.666 10.333 81.999 31s32 46.667 32 78c0 26 -11.833 47.833 -35.5 65.5s-66.167 27.5 -127.5 29.5l24 141
c53.333 0 92 8.5 116 25.5s36 37.5 36 61.5c0 15.333 -6.16699 28 -18.5 38s-28.833 15 -49.5 15c-44.667 0 -70.667 -22.667 -78 -68z" />
    <glyph glyph-name="acute" unicode="&#xb4;" horiz-adv-x="860" 
d="M615 1677h323l-421 -391h-196z" />
    <glyph glyph-name="mu1" unicode="&#xb5;" horiz-adv-x="1180" 
d="M-69 -398l222.002 1486h265l-86 -571c-8.66699 -56.667 -13 -97.667 -13 -123c0 -54 18.667 -99.333 56 -136s83 -55 137 -55c42.667 0 82.667 11.167 120 33.5s68.166 55.166 92.499 98.499s42.5 106.666 54.5 189.999l85 563h264l-164 -1088h-263l19 127
c-38 -56.667 -77.333 -96.834 -118 -120.501s-84.334 -35.5 -131.001 -35.5c-44 0 -82.833 11.833 -116.5 35.5s-61.167 61.167 -82.5 112.5l-77 -517h-264z" />
    <glyph glyph-name="paragraph" unicode="&#xb6;" 
d="M552 -379v1089c-122.667 0.666992 -218.167 35.667 -286.5 105s-102.5 165.666 -102.5 288.999c0 135.333 37.167 237.333 111.5 306s194.833 103 361.5 103h420v-116h-82v-1776h-139v1776h-144v-1776h-139z" />
    <glyph glyph-name="middot" unicode="&#xb7;" horiz-adv-x="682" 
d="M713 874c34.667 0 63.833 -11.667 87.5 -35s35.5 -51.333 35.5 -84c0 -46 -16 -85.333 -48 -118s-71 -49 -117 -49c-37.333 0 -67.333 11.5 -90 34.5s-34 53.167 -34 90.5c0 42.667 16.5 80.167 49.5 112.5s71.833 48.5 116.5 48.5z" />
    <glyph glyph-name="cedilla" unicode="&#xb8;" horiz-adv-x="696" 
d="M265 14h169l-18 -44c40 -10.667 70.333 -28.167 91 -52.5s31 -51.5 31 -81.5c0 -57.333 -25.833 -108 -77.5 -152s-120.5 -66 -206.5 -66c-72 0 -144 15.667 -216 47l54 129c47.333 -16 93.333 -24 138 -24c35.333 0 62.833 7.66699 82.5 23s29.5 34.333 29.5 57
c0 16 -5.5 28 -16.5 36s-31.833 12 -62.5 12l-51 -2z" />
    <glyph glyph-name="onesuperior" unicode="&#xb9;" horiz-adv-x="688" 
d="M290 1489h279l-122 -756h-183l96 602h-133z" />
    <glyph glyph-name="ordmasculine" unicode="&#xba;" horiz-adv-x="737" 
d="M431 1508c86 0 157.5 -30.5 214.5 -91.5s85.5 -141.833 85.5 -242.5c0 -106.667 -35.333 -196.667 -106 -270s-157 -110 -259 -110c-88.667 0 -160.167 29 -214.5 87s-81.5 135 -81.5 231c0 112 35.667 206 107 282s156 114 254 114zM416 1328
c-40.667 0 -75.667 -19 -105 -57s-44 -88.667 -44 -152c0 -47.333 10.5 -84 31.5 -110s48.5 -39 82.5 -39c43.333 0 79.833 18.833 109.5 56.5s44.5 88.5 44.5 152.5c0 46.667 -11.333 83.167 -34 109.5s-51 39.5 -85 39.5z" />
    <glyph glyph-name="guillemotright" unicode="&#xbb;" horiz-adv-x="942" 
d="M628 0h-254l263 550l-108 538h255l107 -538zM174 0h-253l263 550l-108 538h254l108 -538z" />
    <glyph glyph-name="onequarter" unicode="&#xbc;" horiz-adv-x="1720" 
d="M298 1489h279l-122 -756h-183l96 602h-133zM296 -37l988 1545h171l-988 -1545h-171zM1494 775h168l-77 -488h82l-23 -147h-82l-22 -140h-166l22 140h-376l22 140zM1453 529l-216 -242h181z" />
    <glyph glyph-name="onehalf" unicode="&#xbd;" horiz-adv-x="1720" 
d="M298 1489h279l-122 -756h-183l96 602h-133zM271 -37l988 1545h171l-988 -1545h-171zM1289 506l-180.999 -0.00195312c3.33301 84 30 149.833 80 197.5s117 71.5 201 71.5c78 0 141.167 -21.333 189.5 -64s72.5 -94 72.5 -154c0 -46.667 -16.5 -95.5 -49.5 -146.5
s-117.5 -136.833 -253.5 -257.5h270l-24 -153h-561l18 118c205.333 174.667 330.333 289.334 375 344.001c28 34.667 42 66.334 42 95.001c0 17.333 -7.5 32.5 -22.5 45.5s-34.167 19.5 -57.5 19.5c-26.667 0 -47.834 -8.16699 -63.501 -24.5s-27.5 -46.833 -35.5 -91.5z
" />
    <glyph glyph-name="threequarters" unicode="&#xbe;" horiz-adv-x="1720" 
d="M351 1286l-174 0.000976562c9.33301 69.333 37.833 123.666 85.5 162.999s108.167 59 181.5 59c70.667 0 128.334 -19.667 173.001 -59s67 -85.333 67 -138c0 -68 -39.667 -125.667 -119 -173c68 -42.667 102 -98.667 102 -168c0 -68 -29.5 -127.5 -88.5 -178.5
s-133.167 -76.5 -222.5 -76.5c-55.333 0 -104 11.5 -146 34.5s-73.667 53.167 -95 90.5s-32 85.333 -32 144h176c5.33301 -76.667 42.333 -115 111 -115c33.333 0 60.666 10.333 81.999 31s32 46.667 32 78c0 26 -11.833 47.833 -35.5 65.5s-66.167 27.5 -127.5 29.5l24 141
c53.333 0 92 8.5 116 25.5s36 37.5 36 61.5c0 15.333 -6.16699 28 -18.5 38s-28.833 15 -49.5 15c-44.667 0 -70.667 -22.667 -78 -68zM331 -36.999l988 1545h171l-988 -1545h-171zM1493 775.001h168l-77 -488h82l-23 -147h-82l-22 -140h-166l22 140h-376l22 140z
M1452 529.001l-216 -242h181z" />
    <glyph glyph-name="questiondown" unicode="&#xbf;" horiz-adv-x="1147" 
d="M633 802c-46 0 -85.5 16.333 -118.5 49s-49.5 72.334 -49.5 119.001c0 46 16.5 85.5 49.5 118.5s72.5 49.5 118.5 49.5c46.667 0 86.334 -16.5 119.001 -49.5s49 -72.5 49 -118.5c0 -46.667 -16.333 -86.334 -49 -119.001s-72.334 -49 -119.001 -49zM710 12
l262.001 -0.00292969c-9.33301 -84 -37.333 -159.333 -84 -226s-109 -118.667 -187 -156s-166 -56 -264 -56c-128 0 -232.667 38.5 -314 115.5s-122 169.167 -122 276.5c0 136 80.667 263 242 381c73.333 54 119.166 91.5 137.499 112.5s34 48.833 47 83.5
s21.833 78.334 26.5 131.001h256c-2.66699 -120.667 -22.5 -216.5 -59.5 -287.5s-104.833 -139.833 -203.5 -206.5c-79.333 -53.333 -129.5 -94.666 -150.5 -123.999s-31.5 -58.666 -31.5 -87.999c0 -38.667 18.167 -72.667 54.5 -102s84.5 -44 144.5 -44
c132.667 0 214.667 63.333 246 190z" />
    <glyph glyph-name="Agrave" unicode="&#xc0;" horiz-adv-x="1515" 
d="M770 1471h233l366 -1471h-268l-78 313h-581l-169 -313h-297zM956 573l-118 483l-259 -483h377zM604 2006h322l182 -392h-195z" />
    <glyph glyph-name="Aacute" unicode="&#xc1;" horiz-adv-x="1515" 
d="M770 1471h233l366 -1471h-268l-78 313h-581l-169 -313h-297zM956 573l-118 483l-259 -483h377zM1003 2006h323l-421 -391h-196z" />
    <glyph glyph-name="Acircumflex" unicode="&#xc2;" horiz-adv-x="1515" 
d="M770 1471h233l366 -1471h-268l-78 313h-581l-169 -313h-297zM956 573l-118 483l-259 -483h377zM835 1865h218l259 -282h-298l-90 130l-130 -130h-300z" />
    <glyph glyph-name="Atilde" unicode="&#xc3;" horiz-adv-x="1515" 
d="M770 1471h233l366 -1471h-268l-78 313h-581l-169 -313h-297zM956 573l-118 483l-259 -483h377zM574 1618l-86 164.999c59.333 38 109.5 63.667 150.5 77s82.167 20 123.5 20c31.333 0 72 -7 122 -21c79.333 -22 135 -33 167 -33c56.667 0 116.334 17 179.001 51l83 -155
c-68 -48 -114.667 -76.667 -140 -86c-40.667 -14.667 -81.334 -22 -122.001 -22s-90 9 -148 27c-47.333 14.667 -77 23.334 -89 26.001c-16 2.66699 -34 4 -54 4c-65.333 0 -127.333 -17.667 -186 -53z" />
    <glyph glyph-name="Adieresis" unicode="&#xc4;" horiz-adv-x="1515" 
d="M770 1471h233l366 -1471h-268l-78 313h-581l-169 -313h-297zM956 573l-118 483l-259 -483h377zM707 1865c34.667 0 63.833 -11.667 87.5 -35s35.5 -51.333 35.5 -84c0 -46 -16 -85.333 -48 -118s-71 -49 -117 -49c-37.333 0 -67.333 11.5 -90 34.5s-34 53.167 -34 90.5
c0 42.667 16.5 80.167 49.5 112.5s71.833 48.5 116.5 48.5zM1150 1865c34.667 0 63.833 -11.667 87.5 -35s35.5 -51.333 35.5 -84c0 -46 -16 -85.333 -48 -118s-71 -49 -117 -49c-37.333 0 -67.333 11.5 -90 34.5s-34 53.167 -34 90.5c0 42.667 16.5 80.167 49.5 112.5
s71.833 48.5 116.5 48.5z" />
    <glyph glyph-name="Aring" unicode="&#xc5;" horiz-adv-x="1515" 
d="M770 1471h233l366 -1471h-268l-78 313h-581l-169 -313h-297zM956 573l-118 483l-259 -483h377zM962 2060c54 0 98.501 -17.667 133.501 -53s52.5 -82 52.5 -140c0 -66 -25.667 -124.667 -77 -176s-110 -77 -176 -77c-54.667 0 -99.834 18.333 -135.501 55
s-53.5 82.667 -53.5 138c0 69.333 25.167 128.833 75.5 178.5s110.5 74.5 180.5 74.5zM943.001 1932c-26.667 0 -49.833 -10 -69.5 -30s-29.5 -43.667 -29.5 -71c0 -22.667 6.66699 -41 20 -55s30.333 -21 51 -21c24.667 0 46.667 10 66 30s29 43.333 29 70
c0 22.667 -6.5 41.167 -19.5 55.5s-28.833 21.5 -47.5 21.5z" />
    <glyph glyph-name="AE" unicode="&#xc6;" horiz-adv-x="1843" 
d="M761 1471h1015l-35 -261h-523l-42 -306h527l-35 -258h-524l-54 -390h527l-34 -256h-795l42 314h-399l-171 -314h-296zM865 572l94 726l-391 -726h297z" />
    <glyph glyph-name="Ccedilla" unicode="&#xc7;" horiz-adv-x="1597" 
d="M1524 1281l-201.002 -186.002c-43.333 50 -96.333 88.5 -159 115.5s-130.667 40.5 -204 40.5c-102.667 0 -201 -26.333 -295 -79s-167.167 -122.334 -219.5 -209.001s-78.5 -179 -78.5 -277c0 -133.333 46 -244.166 138 -332.499s210 -132.5 354 -132.5
c154 0 287.333 44.667 400 134l163 -215c-167.333 -118 -361 -177 -581 -177c-154.667 0 -286.167 29.333 -394.5 88s-195.333 144.834 -261 258.501s-98.5 236.834 -98.5 369.501c0 142 38.833 278.167 116.5 408.5s182.834 233 315.501 308s277.334 112.5 434.001 112.5
c220 0 410.333 -75.667 571 -227zM715.998 13.998h169l-18 -44c40 -10.667 70.333 -28.167 91 -52.5s31 -51.5 31 -81.5c0 -57.333 -25.833 -108 -77.5 -152s-120.5 -66 -206.5 -66c-72 0 -144 15.667 -216 47l54 129c47.333 -16 93.333 -24 138 -24
c35.333 0 62.833 7.66699 82.5 23s29.5 34.333 29.5 57c0 16 -5.5 28 -16.5 36s-31.833 12 -62.5 12l-51 -2z" />
    <glyph glyph-name="Egrave" unicode="&#xc8;" horiz-adv-x="1065" 
d="M245 1471h799l-34 -261h-520l-42 -304h522l-33 -259h-522l-52 -390h525l-35 -257h-801zM378 2006h322l182 -392h-195z" />
    <glyph glyph-name="Eacute" unicode="&#xc9;" horiz-adv-x="1065" 
d="M245 1471h799l-34 -261h-520l-42 -304h522l-33 -259h-522l-52 -390h525l-35 -257h-801zM777 2006h323l-421 -391h-196z" />
    <glyph glyph-name="Ecircumflex" unicode="&#xca;" horiz-adv-x="1065" 
d="M245 1471h799l-34 -261h-520l-42 -304h522l-33 -259h-522l-52 -390h525l-35 -257h-801zM609 1865h218l259 -282h-298l-90 130l-130 -130h-300z" />
    <glyph glyph-name="Edieresis" unicode="&#xcb;" horiz-adv-x="1065" 
d="M245 1471h799l-34 -261h-520l-42 -304h522l-33 -259h-522l-52 -390h525l-35 -257h-801zM446 1865c34.667 0 63.833 -11.667 87.5 -35s35.5 -51.333 35.5 -84c0 -46 -16 -85.333 -48 -118s-71 -49 -117 -49c-37.333 0 -67.333 11.5 -90 34.5s-34 53.167 -34 90.5
c0 42.667 16.5 80.167 49.5 112.5s71.833 48.5 116.5 48.5zM888.999 1865c34.667 0 63.833 -11.667 87.5 -35s35.5 -51.333 35.5 -84c0 -46 -16 -85.333 -48 -118s-71 -49 -117 -49c-37.333 0 -67.333 11.5 -90 34.5s-34 53.167 -34 90.5c0 42.667 16.5 80.167 49.5 112.5
s71.833 48.5 116.5 48.5z" />
    <glyph glyph-name="Igrave" unicode="&#xcc;" horiz-adv-x="573" 
d="M256 1471h270l-203 -1471h-265zM121 2006h322l182 -392h-195z" />
    <glyph glyph-name="Iacute" unicode="&#xcd;" horiz-adv-x="573" 
d="M256 1471h270l-203 -1471h-265zM520 2006h323l-421 -391h-196z" />
    <glyph glyph-name="Icircumflex" unicode="&#xce;" horiz-adv-x="573" 
d="M256 1471h270l-203 -1471h-265zM352 1865h218l259 -282h-298l-90 130l-130 -130h-300z" />
    <glyph glyph-name="Idieresis" unicode="&#xcf;" horiz-adv-x="573" 
d="M256 1471h270l-203 -1471h-265zM212 1865c34.667 0 63.833 -11.667 87.5 -35s35.5 -51.333 35.5 -84c0 -46 -16 -85.333 -48 -118s-71 -49 -117 -49c-37.333 0 -67.333 11.5 -90 34.5s-34 53.167 -34 90.5c0 42.667 16.5 80.167 49.5 112.5s71.833 48.5 116.5 48.5z
M654.999 1865c34.667 0 63.833 -11.667 87.5 -35s35.5 -51.333 35.5 -84c0 -46 -16 -85.333 -48 -118s-71 -49 -117 -49c-37.333 0 -67.333 11.5 -90 34.5s-34 53.167 -34 90.5c0 42.667 16.5 80.167 49.5 112.5s71.833 48.5 116.5 48.5z" />
    <glyph glyph-name="Eth" unicode="&#xd0;" horiz-adv-x="1520" 
d="M230 651l-126 0.00195312l23 166h125l88 654h233c220 0 383.333 -25.833 490 -77.5s193.667 -132.834 261 -243.501s101 -238.334 101 -383.001c0 -148.667 -35.5 -285.167 -106.5 -409.5s-160.5 -215 -268.5 -272s-258.333 -85.5 -451 -85.5h-456zM508 651.002
l-53.001 -394.002h91c140.667 0 242.334 11.667 305.001 35c88 33.333 158.667 90.333 212 171s80 180.334 80 299.001c0 97.333 -19 178.833 -57 244.5s-91.167 116.334 -159.5 152.001s-159.5 53.5 -273.5 53.5h-71l-52 -395h322l-21 -166h-323z" />
    <glyph glyph-name="Ntilde" unicode="&#xd1;" horiz-adv-x="1515" 
d="M266 1471h242l533 -1000l135 1000h269l-198 -1471h-236l-540 1011l-135 -1011h-265zM574 1618l-86 164.999c59.333 38 109.5 63.667 150.5 77s82.167 20 123.5 20c31.333 0 72 -7 122 -21c79.333 -22 135 -33 167 -33c56.667 0 116.334 17 179.001 51l83 -155
c-68 -48 -114.667 -76.667 -140 -86c-40.667 -14.667 -81.334 -22 -122.001 -22s-90 9 -148 27c-47.333 14.667 -77 23.334 -89 26.001c-16 2.66699 -34 4 -54 4c-65.333 0 -127.333 -17.667 -186 -53z" />
    <glyph glyph-name="Ograve" unicode="&#xd2;" horiz-adv-x="1720" 
d="M945 1508c202 0 368.667 -64.999 500 -194.999s197 -295 197 -495c0 -153.333 -38.833 -297.833 -116.5 -433.5s-181 -239.834 -310 -312.501s-277.167 -109 -444.5 -109c-209.333 0 -376.5 62 -501.5 186s-187.5 287.333 -187.5 490c0 230 74.667 427.667 224 593
c166.667 184 379.667 276 639 276zM935 1247c-105.333 0 -201.5 -25.5 -288.5 -76.5s-157.167 -124.333 -210.5 -220s-80 -194.5 -80 -296.5c0 -120.667 37 -223 111 -307s180.333 -126 319 -126c160.667 0 297.167 56.667 409.5 170s168.5 251 168.5 413
c0 134 -39.5 241.333 -118.5 322s-182.5 121 -310.5 121zM707 2006h322l182 -392h-195z" />
    <glyph glyph-name="Oacute" unicode="&#xd3;" horiz-adv-x="1720" 
d="M945 1508c202 0 368.667 -64.999 500 -194.999s197 -295 197 -495c0 -153.333 -38.833 -297.833 -116.5 -433.5s-181 -239.834 -310 -312.501s-277.167 -109 -444.5 -109c-209.333 0 -376.5 62 -501.5 186s-187.5 287.333 -187.5 490c0 230 74.667 427.667 224 593
c166.667 184 379.667 276 639 276zM935 1247c-105.333 0 -201.5 -25.5 -288.5 -76.5s-157.167 -124.333 -210.5 -220s-80 -194.5 -80 -296.5c0 -120.667 37 -223 111 -307s180.333 -126 319 -126c160.667 0 297.167 56.667 409.5 170s168.5 251 168.5 413
c0 134 -39.5 241.333 -118.5 322s-182.5 121 -310.5 121zM1105 2006h323l-421 -391h-196z" />
    <glyph glyph-name="Ocircumflex" unicode="&#xd4;" horiz-adv-x="1720" 
d="M945 1508c202 0 368.667 -64.999 500 -194.999s197 -295 197 -495c0 -153.333 -38.833 -297.833 -116.5 -433.5s-181 -239.834 -310 -312.501s-277.167 -109 -444.5 -109c-209.333 0 -376.5 62 -501.5 186s-187.5 287.333 -187.5 490c0 230 74.667 427.667 224 593
c166.667 184 379.667 276 639 276zM935 1247c-105.333 0 -201.5 -25.5 -288.5 -76.5s-157.167 -124.333 -210.5 -220s-80 -194.5 -80 -296.5c0 -120.667 37 -223 111 -307s180.333 -126 319 -126c160.667 0 297.167 56.667 409.5 170s168.5 251 168.5 413
c0 134 -39.5 241.333 -118.5 322s-182.5 121 -310.5 121zM938 1865h218l259 -282h-298l-90 130l-130 -130h-300z" />
    <glyph glyph-name="Otilde" unicode="&#xd5;" horiz-adv-x="1720" 
d="M945 1508c202 0 368.667 -64.999 500 -194.999s197 -295 197 -495c0 -153.333 -38.833 -297.833 -116.5 -433.5s-181 -239.834 -310 -312.501s-277.167 -109 -444.5 -109c-209.333 0 -376.5 62 -501.5 186s-187.5 287.333 -187.5 490c0 230 74.667 427.667 224 593
c166.667 184 379.667 276 639 276zM935 1247c-105.333 0 -201.5 -25.5 -288.5 -76.5s-157.167 -124.333 -210.5 -220s-80 -194.5 -80 -296.5c0 -120.667 37 -223 111 -307s180.333 -126 319 -126c160.667 0 297.167 56.667 409.5 170s168.5 251 168.5 413
c0 134 -39.5 241.333 -118.5 322s-182.5 121 -310.5 121zM677 1618l-86 164.999c59.333 38 109.5 63.667 150.5 77s82.167 20 123.5 20c31.333 0 72 -7 122 -21c79.333 -22 135 -33 167 -33c56.667 0 116.334 17 179.001 51l83 -155c-68 -48 -114.667 -76.667 -140 -86
c-40.667 -14.667 -81.334 -22 -122.001 -22s-90 9 -148 27c-47.333 14.667 -77 23.334 -89 26.001c-16 2.66699 -34 4 -54 4c-65.333 0 -127.333 -17.667 -186 -53z" />
    <glyph glyph-name="Odieresis" unicode="&#xd6;" horiz-adv-x="1720" 
d="M945 1508c202 0 368.667 -64.999 500 -194.999s197 -295 197 -495c0 -153.333 -38.833 -297.833 -116.5 -433.5s-181 -239.834 -310 -312.501s-277.167 -109 -444.5 -109c-209.333 0 -376.5 62 -501.5 186s-187.5 287.333 -187.5 490c0 230 74.667 427.667 224 593
c166.667 184 379.667 276 639 276zM935 1247c-105.333 0 -201.5 -25.5 -288.5 -76.5s-157.167 -124.333 -210.5 -220s-80 -194.5 -80 -296.5c0 -120.667 37 -223 111 -307s180.333 -126 319 -126c160.667 0 297.167 56.667 409.5 170s168.5 251 168.5 413
c0 134 -39.5 241.333 -118.5 322s-182.5 121 -310.5 121zM774 1865c34.667 0 63.833 -11.667 87.5 -35s35.5 -51.333 35.5 -84c0 -46 -16 -85.333 -48 -118s-71 -49 -117 -49c-37.333 0 -67.333 11.5 -90 34.5s-34 53.167 -34 90.5c0 42.667 16.5 80.167 49.5 112.5
s71.833 48.5 116.5 48.5zM1217 1865c34.667 0 63.833 -11.667 87.5 -35s35.5 -51.333 35.5 -84c0 -46 -16 -85.333 -48 -118s-71 -49 -117 -49c-37.333 0 -67.333 11.5 -90 34.5s-34 53.167 -34 90.5c0 42.667 16.5 80.167 49.5 112.5s71.833 48.5 116.5 48.5z" />
    <glyph glyph-name="multiply" unicode="&#xd7;" 
d="M615 588l-317 -316l-148 147l317 317l-317 317l148 148l317 -317l316 317l148 -148l-317 -317l317 -317l-148 -147z" />
    <glyph glyph-name="Oslash" unicode="&#xd8;" horiz-adv-x="1720" 
d="M1472 1284c113.333 -130 169.999 -285.001 169.999 -465.001c0 -153.333 -38.667 -297.833 -116 -433.5s-180.666 -240 -309.999 -313s-277 -109.5 -443 -109.5c-150 0 -277.333 30.333 -382 91l-135 -154l-121 100l132 151c-123.333 126.667 -185 289.334 -185 488.001
c0 159.333 38 306 114 440s179.333 239 310 315s274 114 430 114c162.667 0 300.667 -39 414 -117l128 147l121 -104zM452.999 363.999l718 822c-70 40.667 -150.333 61 -241 61c-102.667 0 -197.5 -25.667 -284.5 -77s-157 -124.833 -210 -220.5
s-79.5 -194.167 -79.5 -295.5c0 -112 32.333 -208.667 97 -290zM1286 1076l-710 -810.001c60.667 -30 131.667 -45 213 -45c159.333 0 295 56.833 407 170.5s168 250.834 168 411.501c0 104.667 -26 195.667 -78 273z" />
    <glyph glyph-name="Ugrave" unicode="&#xd9;" horiz-adv-x="1311" 
d="M260 1471l275.001 0.000976562l-122 -908c-10.667 -79.333 -16 -135.333 -16 -168c0 -55.333 17.167 -98.5 51.5 -129.5s84.166 -46.5 149.499 -46.5c52.667 0 98.667 11.667 138 35c29.333 17.333 52.833 46.166 70.5 86.499s34.834 120.5 51.501 240.5l123 890h278
l-120 -878c-24.667 -180.667 -57 -310.334 -97 -389.001s-97.833 -138.5 -173.5 -179.5s-167.834 -61.5 -276.501 -61.5c-146.667 0 -261 39 -343 117s-123 184.667 -123 320c0 58.667 8 145.334 24 260.001zM502.001 2006h322l182 -392h-195z" />
    <glyph glyph-name="Uacute" unicode="&#xda;" horiz-adv-x="1311" 
d="M260 1471l275.001 0.000976562l-122 -908c-10.667 -79.333 -16 -135.333 -16 -168c0 -55.333 17.167 -98.5 51.5 -129.5s84.166 -46.5 149.499 -46.5c52.667 0 98.667 11.667 138 35c29.333 17.333 52.833 46.166 70.5 86.499s34.834 120.5 51.501 240.5l123 890h278
l-120 -878c-24.667 -180.667 -57 -310.334 -97 -389.001s-97.833 -138.5 -173.5 -179.5s-167.834 -61.5 -276.501 -61.5c-146.667 0 -261 39 -343 117s-123 184.667 -123 320c0 58.667 8 145.334 24 260.001zM901.001 2006h323l-421 -391h-196z" />
    <glyph glyph-name="Ucircumflex" unicode="&#xdb;" horiz-adv-x="1311" 
d="M260 1471l275.001 0.000976562l-122 -908c-10.667 -79.333 -16 -135.333 -16 -168c0 -55.333 17.167 -98.5 51.5 -129.5s84.166 -46.5 149.499 -46.5c52.667 0 98.667 11.667 138 35c29.333 17.333 52.833 46.166 70.5 86.499s34.834 120.5 51.501 240.5l123 890h278
l-120 -878c-24.667 -180.667 -57 -310.334 -97 -389.001s-97.833 -138.5 -173.5 -179.5s-167.834 -61.5 -276.501 -61.5c-146.667 0 -261 39 -343 117s-123 184.667 -123 320c0 58.667 8 145.334 24 260.001zM733.001 1865h218l259 -282h-298l-90 130l-130 -130h-300z" />
    <glyph glyph-name="Udieresis" unicode="&#xdc;" horiz-adv-x="1311" 
d="M260 1471l275.001 0.000976562l-122 -908c-10.667 -79.333 -16 -135.333 -16 -168c0 -55.333 17.167 -98.5 51.5 -129.5s84.166 -46.5 149.499 -46.5c52.667 0 98.667 11.667 138 35c29.333 17.333 52.833 46.166 70.5 86.499s34.834 120.5 51.501 240.5l123 890h278
l-120 -878c-24.667 -180.667 -57 -310.334 -97 -389.001s-97.833 -138.5 -173.5 -179.5s-167.834 -61.5 -276.501 -61.5c-146.667 0 -261 39 -343 117s-123 184.667 -123 320c0 58.667 8 145.334 24 260.001zM605.001 1865c34.667 0 63.833 -11.667 87.5 -35
s35.5 -51.333 35.5 -84c0 -46 -16 -85.333 -48 -118s-71 -49 -117 -49c-37.333 0 -67.333 11.5 -90 34.5s-34 53.167 -34 90.5c0 42.667 16.5 80.167 49.5 112.5s71.833 48.5 116.5 48.5zM1048 1865c34.667 0 63.833 -11.667 87.5 -35s35.5 -51.333 35.5 -84
c0 -46 -16 -85.333 -48 -118s-71 -49 -117 -49c-37.333 0 -67.333 11.5 -90 34.5s-34 53.167 -34 90.5c0 42.667 16.5 80.167 49.5 112.5s71.833 48.5 116.5 48.5z" />
    <glyph glyph-name="Yacute" unicode="&#xdd;" horiz-adv-x="1270" 
d="M66 1471h279l230 -589l418 589h317l-628 -883l-79 -588h-276l81 588zM879 2006h323l-421 -391h-196z" />
    <glyph glyph-name="Thorn" unicode="&#xde;" horiz-adv-x="1147" 
d="M269 1471h276.999l-39 -311c131.333 -1.33301 223.666 -10.333 276.999 -27c84.667 -26 152.834 -71 204.501 -135s77.5 -142 77.5 -234c0 -88.667 -24.167 -169.167 -72.5 -241.5s-113.166 -125 -194.499 -158s-217 -51.167 -407 -54.5l-44 -310h-277zM425.999 571
c150.667 0 249 15.334 295 46.001s69 76.667 69 138c0 34 -9.16699 62.667 -27.5 86s-45 39.666 -80 48.999s-104.833 14 -209.5 14z" />
    <glyph glyph-name="germandbls" unicode="&#xdf;" 
d="M545 729l30.999 210c58 0 110.333 10.333 157 31s80.834 46.667 102.501 78s32.5 65 32.5 101c0 37.333 -14.833 69.5 -44.5 96.5s-67.834 40.5 -114.501 40.5c-68.667 0 -126.834 -25.167 -174.501 -75.5s-78.167 -131.5 -91.5 -243.5l-7 -59l-124 -908h-265l111 866
c24 188.667 57.833 323.334 101.5 404.001s106.334 145.167 188.001 193.5s173.5 72.5 275.5 72.5c124.667 0 224.334 -34 299.001 -102s112 -153.333 112 -256c0 -84 -24.667 -158 -74 -222s-118 -110 -206 -138c162.667 -81.333 244 -205.333 244 -372
c0 -134 -47.333 -246.5 -142 -337.5s-215.667 -136.5 -363 -136.5c-66 0 -127.333 11.667 -184 35l30 250c44.667 -24.667 91 -37 139 -37c73.333 0 135 24.167 185 72.5s75 108.166 75 179.499c0 74.667 -26.167 136 -78.5 184s-123.833 72.333 -214.5 73z" />
    <glyph glyph-name="agrave" unicode="&#xe0;" horiz-adv-x="1352" 
d="M984 1088l267 0.000976562l-142 -1088h-264l15 117c-58 -54 -112.167 -91.667 -162.5 -113s-106.833 -32 -169.5 -32c-144 0 -258.5 53 -343.5 159s-127.5 229.333 -127.5 370c0 107.333 27 209.5 81 306.5s126.5 172.667 217.5 227s186.167 81.5 285.5 81.5
c66.667 0 128.167 -15.333 184.5 -46s102.833 -75.334 139.5 -134.001zM590 210.001c65.333 0 122.333 14.667 171 44s89.5 75.333 122.5 138s49.5 126.667 49.5 192c0 86 -24.833 155.167 -74.5 207.5s-115.167 78.5 -196.5 78.5c-94.667 0 -175 -35 -241 -105
s-99 -160.333 -99 -271c0 -85.333 25 -154 75 -206s114.333 -78 193 -78zM461 1677h322l182 -392h-195z" />
    <glyph glyph-name="aacute" unicode="&#xe1;" horiz-adv-x="1352" 
d="M984 1088l267 0.000976562l-142 -1088h-264l15 117c-58 -54 -112.167 -91.667 -162.5 -113s-106.833 -32 -169.5 -32c-144 0 -258.5 53 -343.5 159s-127.5 229.333 -127.5 370c0 107.333 27 209.5 81 306.5s126.5 172.667 217.5 227s186.167 81.5 285.5 81.5
c66.667 0 128.167 -15.333 184.5 -46s102.833 -75.334 139.5 -134.001zM590 210.001c65.333 0 122.333 14.667 171 44s89.5 75.333 122.5 138s49.5 126.667 49.5 192c0 86 -24.833 155.167 -74.5 207.5s-115.167 78.5 -196.5 78.5c-94.667 0 -175 -35 -241 -105
s-99 -160.333 -99 -271c0 -85.333 25 -154 75 -206s114.333 -78 193 -78zM860 1677h323l-421 -391h-196z" />
    <glyph glyph-name="acircumflex" unicode="&#xe2;" horiz-adv-x="1352" 
d="M984 1088l267 0.000976562l-142 -1088h-264l15 117c-58 -54 -112.167 -91.667 -162.5 -113s-106.833 -32 -169.5 -32c-144 0 -258.5 53 -343.5 159s-127.5 229.333 -127.5 370c0 107.333 27 209.5 81 306.5s126.5 172.667 217.5 227s186.167 81.5 285.5 81.5
c66.667 0 128.167 -15.333 184.5 -46s102.833 -75.334 139.5 -134.001zM590 210.001c65.333 0 122.333 14.667 171 44s89.5 75.333 122.5 138s49.5 126.667 49.5 192c0 86 -24.833 155.167 -74.5 207.5s-115.167 78.5 -196.5 78.5c-94.667 0 -175 -35 -241 -105
s-99 -160.333 -99 -271c0 -85.333 25 -154 75 -206s114.333 -78 193 -78zM692 1536h218l259 -282h-298l-90 130l-130 -130h-300z" />
    <glyph glyph-name="atilde" unicode="&#xe3;" horiz-adv-x="1352" 
d="M984 1088l267 0.000976562l-142 -1088h-264l15 117c-58 -54 -112.167 -91.667 -162.5 -113s-106.833 -32 -169.5 -32c-144 0 -258.5 53 -343.5 159s-127.5 229.333 -127.5 370c0 107.333 27 209.5 81 306.5s126.5 172.667 217.5 227s186.167 81.5 285.5 81.5
c66.667 0 128.167 -15.333 184.5 -46s102.833 -75.334 139.5 -134.001zM590 210.001c65.333 0 122.333 14.667 171 44s89.5 75.333 122.5 138s49.5 126.667 49.5 192c0 86 -24.833 155.167 -74.5 207.5s-115.167 78.5 -196.5 78.5c-94.667 0 -175 -35 -241 -105
s-99 -160.333 -99 -271c0 -85.333 25 -154 75 -206s114.333 -78 193 -78zM432 1289l-86 164.999c59.333 38 109.5 63.667 150.5 77s82.167 20 123.5 20c31.333 0 72 -7 122 -21c79.333 -22 135 -33 167 -33c56.667 0 116.334 17 179.001 51l83 -155
c-68 -48 -114.667 -76.667 -140 -86c-40.667 -14.667 -81.334 -22 -122.001 -22s-90 9 -148 27c-47.333 14.667 -77 23.334 -89 26.001c-16 2.66699 -34 4 -54 4c-65.333 0 -127.333 -17.667 -186 -53z" />
    <glyph glyph-name="adieresis" unicode="&#xe4;" horiz-adv-x="1352" 
d="M984 1088l267 0.000976562l-142 -1088h-264l15 117c-58 -54 -112.167 -91.667 -162.5 -113s-106.833 -32 -169.5 -32c-144 0 -258.5 53 -343.5 159s-127.5 229.333 -127.5 370c0 107.333 27 209.5 81 306.5s126.5 172.667 217.5 227s186.167 81.5 285.5 81.5
c66.667 0 128.167 -15.333 184.5 -46s102.833 -75.334 139.5 -134.001zM590 210.001c65.333 0 122.333 14.667 171 44s89.5 75.333 122.5 138s49.5 126.667 49.5 192c0 86 -24.833 155.167 -74.5 207.5s-115.167 78.5 -196.5 78.5c-94.667 0 -175 -35 -241 -105
s-99 -160.333 -99 -271c0 -85.333 25 -154 75 -206s114.333 -78 193 -78zM529 1536c34.667 0 63.833 -11.667 87.5 -35s35.5 -51.333 35.5 -84c0 -46 -16 -85.333 -48 -118s-71 -49 -117 -49c-37.333 0 -67.333 11.5 -90 34.5s-34 53.167 -34 90.5
c0 42.667 16.5 80.167 49.5 112.5s71.833 48.5 116.5 48.5zM971.999 1536c34.667 0 63.833 -11.667 87.5 -35s35.5 -51.333 35.5 -84c0 -46 -16 -85.333 -48 -118s-71 -49 -117 -49c-37.333 0 -67.333 11.5 -90 34.5s-34 53.167 -34 90.5c0 42.667 16.5 80.167 49.5 112.5
s71.833 48.5 116.5 48.5z" />
    <glyph glyph-name="aring" unicode="&#xe5;" horiz-adv-x="1352" 
d="M984 1088l267 0.000976562l-142 -1088h-264l15 117c-58 -54 -112.167 -91.667 -162.5 -113s-106.833 -32 -169.5 -32c-144 0 -258.5 53 -343.5 159s-127.5 229.333 -127.5 370c0 107.333 27 209.5 81 306.5s126.5 172.667 217.5 227s186.167 81.5 285.5 81.5
c66.667 0 128.167 -15.333 184.5 -46s102.833 -75.334 139.5 -134.001zM590 210.001c65.333 0 122.333 14.667 171 44s89.5 75.333 122.5 138s49.5 126.667 49.5 192c0 86 -24.833 155.167 -74.5 207.5s-115.167 78.5 -196.5 78.5c-94.667 0 -175 -35 -241 -105
s-99 -160.333 -99 -271c0 -85.333 25 -154 75 -206s114.333 -78 193 -78zM820 1731c54 0 98.501 -17.667 133.501 -53s52.5 -82 52.5 -140c0 -66 -25.667 -124.667 -77 -176s-110 -77 -176 -77c-54.667 0 -99.834 18.333 -135.501 55s-53.5 82.667 -53.5 138
c0 69.333 25.167 128.833 75.5 178.5s110.5 74.5 180.5 74.5zM801.001 1603c-26.667 0 -49.833 -10 -69.5 -30s-29.5 -43.667 -29.5 -71c0 -22.667 6.66699 -41 20 -55s30.333 -21 51 -21c24.667 0 46.667 10 66 30s29 43.333 29 70c0 22.667 -6.5 41.167 -19.5 55.5
s-28.833 21.5 -47.5 21.5z" />
    <glyph glyph-name="ae" unicode="&#xe6;" horiz-adv-x="2212" 
d="M2080 463l-886 -0.000976562c28.667 -164.667 123.334 -247 284.001 -247c104 0 193.667 33.333 269 100l236 -121c-48 -64.667 -116.667 -118 -206 -160s-186.333 -63 -291 -63c-71.333 0 -134.833 9.16699 -190.5 27.5s-114.167 49.833 -175.5 94.5l-12 -94h-244
l15 114c-86.667 -94.667 -197.334 -142 -332.001 -142c-91.333 0 -170.333 20.667 -237 62s-122.5 105 -167.5 191s-67.5 177.667 -67.5 275c0 106.667 27.167 208.5 81.5 305.5s127.5 173 219.5 228s187 82.5 285 82.5c64.667 0 125.5 -15.833 182.5 -47.5
s103.833 -76.5 140.5 -134.5l22 182h243l-16 -121c114 80.667 232.333 121 355 121c137.333 0 255.5 -52.167 354.5 -156.5s148.5 -231.166 148.5 -380.499c0 -32 -3.66699 -70.667 -11 -116zM680 866.999c-94.667 0 -175 -35.501 -241 -106.501s-99 -160.5 -99 -268.5
c0 -86.667 24.833 -156 74.5 -208s114.167 -78 193.5 -78c64 0 121.667 15.167 173 45.5s92.5 75.833 123.5 136.5s46.5 124.334 46.5 191.001c0 86 -25.333 155.5 -76 208.5s-115.667 79.5 -195 79.5zM1816 658.998c-19.333 66 -52 116.501 -98 151.501
s-101.333 52.5 -166 52.5c-65.333 0 -125 -16.333 -179 -49s-101.333 -84.334 -142 -155.001h585z" />
    <glyph glyph-name="ccedilla" unicode="&#xe7;" horiz-adv-x="1311" 
d="M1187 863l-226.001 -122.999c-64 81.333 -150 122 -258 122c-72.667 0 -137 -15.5 -193 -46.5s-100.667 -75.833 -134 -134.5s-50 -120.667 -50 -186c0 -84 26.333 -151.333 79 -202s125 -76 217 -76c127.333 0 225 43 293 129l210 -148
c-59.333 -70.667 -133.166 -126 -221.499 -166s-186.833 -60 -295.5 -60c-169.333 0 -302.833 46.667 -400.5 140s-146.5 216.666 -146.5 369.999c0 175.333 60.333 324.833 181 448.5s276 185.5 466 185.5c214 0 373.667 -84.333 479 -253zM572.999 14.001h169l-18 -44
c40 -10.667 70.333 -28.167 91 -52.5s31 -51.5 31 -81.5c0 -57.333 -25.833 -108 -77.5 -152s-120.5 -66 -206.5 -66c-72 0 -144 15.667 -216 47l54 129c47.333 -16 93.333 -24 138 -24c35.333 0 62.833 7.66699 82.5 23s29.5 34.333 29.5 57c0 16 -5.5 28 -16.5 36
s-31.833 12 -62.5 12l-51 -2z" />
    <glyph glyph-name="egrave" unicode="&#xe8;" horiz-adv-x="1311" 
d="M861 319l235 -122.001c-52.667 -69.333 -122.5 -124.166 -209.5 -164.499s-183.5 -60.5 -289.5 -60.5c-166 0 -296.833 46.667 -392.5 140s-143.5 217.333 -143.5 372c0 176.667 59.833 326.167 179.5 448.5s264.167 183.5 433.5 183.5c102 0 192.833 -22.333 272.5 -67
s142.5 -109.667 188.5 -195s69 -178 69 -278c0 -31.333 -3.33301 -68 -10 -110h-868c2.66699 -75.333 27.5 -135.333 74.5 -180s111.833 -67 194.5 -67c100 0 188.667 33.333 266 100zM929 661.999c-20 66.667 -53.333 117.167 -100 151.5s-103 51.5 -169 51.5
c-65.333 0 -124.333 -17.667 -177 -53s-92.667 -85.333 -120 -150h566zM441 1677h322l182 -392h-195z" />
    <glyph glyph-name="eacute" unicode="&#xe9;" horiz-adv-x="1311" 
d="M861 319l235 -122.001c-52.667 -69.333 -122.5 -124.166 -209.5 -164.499s-183.5 -60.5 -289.5 -60.5c-166 0 -296.833 46.667 -392.5 140s-143.5 217.333 -143.5 372c0 176.667 59.833 326.167 179.5 448.5s264.167 183.5 433.5 183.5c102 0 192.833 -22.333 272.5 -67
s142.5 -109.667 188.5 -195s69 -178 69 -278c0 -31.333 -3.33301 -68 -10 -110h-868c2.66699 -75.333 27.5 -135.333 74.5 -180s111.833 -67 194.5 -67c100 0 188.667 33.333 266 100zM929 661.999c-20 66.667 -53.333 117.167 -100 151.5s-103 51.5 -169 51.5
c-65.333 0 -124.333 -17.667 -177 -53s-92.667 -85.333 -120 -150h566zM840 1677h323l-421 -391h-196z" />
    <glyph glyph-name="ecircumflex" unicode="&#xea;" horiz-adv-x="1311" 
d="M861 319l235 -122.001c-52.667 -69.333 -122.5 -124.166 -209.5 -164.499s-183.5 -60.5 -289.5 -60.5c-166 0 -296.833 46.667 -392.5 140s-143.5 217.333 -143.5 372c0 176.667 59.833 326.167 179.5 448.5s264.167 183.5 433.5 183.5c102 0 192.833 -22.333 272.5 -67
s142.5 -109.667 188.5 -195s69 -178 69 -278c0 -31.333 -3.33301 -68 -10 -110h-868c2.66699 -75.333 27.5 -135.333 74.5 -180s111.833 -67 194.5 -67c100 0 188.667 33.333 266 100zM929 661.999c-20 66.667 -53.333 117.167 -100 151.5s-103 51.5 -169 51.5
c-65.333 0 -124.333 -17.667 -177 -53s-92.667 -85.333 -120 -150h566zM672 1536h218l259 -282h-298l-90 130l-130 -130h-300z" />
    <glyph glyph-name="edieresis" unicode="&#xeb;" horiz-adv-x="1311" 
d="M861 319l235 -122.001c-52.667 -69.333 -122.5 -124.166 -209.5 -164.499s-183.5 -60.5 -289.5 -60.5c-166 0 -296.833 46.667 -392.5 140s-143.5 217.333 -143.5 372c0 176.667 59.833 326.167 179.5 448.5s264.167 183.5 433.5 183.5c102 0 192.833 -22.333 272.5 -67
s142.5 -109.667 188.5 -195s69 -178 69 -278c0 -31.333 -3.33301 -68 -10 -110h-868c2.66699 -75.333 27.5 -135.333 74.5 -180s111.833 -67 194.5 -67c100 0 188.667 33.333 266 100zM929 661.999c-20 66.667 -53.333 117.167 -100 151.5s-103 51.5 -169 51.5
c-65.333 0 -124.333 -17.667 -177 -53s-92.667 -85.333 -120 -150h566zM509 1536c34.667 0 63.833 -11.667 87.5 -35s35.5 -51.333 35.5 -84c0 -46 -16 -85.333 -48 -118s-71 -49 -117 -49c-37.333 0 -67.333 11.5 -90 34.5s-34 53.167 -34 90.5
c0 42.667 16.5 80.167 49.5 112.5s71.833 48.5 116.5 48.5zM951.999 1536c34.667 0 63.833 -11.667 87.5 -35s35.5 -51.333 35.5 -84c0 -46 -16 -85.333 -48 -118s-71 -49 -117 -49c-37.333 0 -67.333 11.5 -90 34.5s-34 53.167 -34 90.5c0 42.667 16.5 80.167 49.5 112.5
s71.833 48.5 116.5 48.5z" />
    <glyph glyph-name="igrave" unicode="&#xec;" horiz-adv-x="491" 
d="M158 1088h264l-146 -1088h-266zM31 1677h322l182 -392h-195z" />
    <glyph glyph-name="iacute" unicode="&#xed;" horiz-adv-x="491" 
d="M158 1088h264l-146 -1088h-266zM430 1677h323l-421 -391h-196z" />
    <glyph glyph-name="icircumflex" unicode="&#xee;" horiz-adv-x="491" 
d="M158 1088h264l-146 -1088h-266zM262 1536h218l259 -282h-298l-90 130l-130 -130h-300z" />
    <glyph glyph-name="idieresis" unicode="&#xef;" horiz-adv-x="491" 
d="M158 1088h264l-146 -1088h-266zM99 1536c34.667 0 63.833 -11.667 87.5 -35s35.5 -51.333 35.5 -84c0 -46 -16 -85.333 -48 -118s-71 -49 -117 -49c-37.333 0 -67.333 11.5 -90 34.5s-34 53.167 -34 90.5c0 42.667 16.5 80.167 49.5 112.5s71.833 48.5 116.5 48.5z
M541.999 1536c34.667 0 63.833 -11.667 87.5 -35s35.5 -51.333 35.5 -84c0 -46 -16 -85.333 -48 -118s-71 -49 -117 -49c-37.333 0 -67.333 11.5 -90 34.5s-34 53.167 -34 90.5c0 42.667 16.5 80.167 49.5 112.5s71.833 48.5 116.5 48.5z" />
    <glyph glyph-name="eth" unicode="&#xf0;" horiz-adv-x="1311" 
d="M989 1508l52 -146.999l-147 -46c96 -100.667 171.5 -214.167 226.5 -340.5s82.5 -247.833 82.5 -364.5c0 -182 -59.5 -333.833 -178.5 -455.5s-265.5 -182.5 -439.5 -182.5c-154 0 -280.333 49.667 -379 149s-148 224.666 -148 375.999c0 163.333 57.667 305 173 425
s249 180 401 180c46 0 96.667 -7.66699 152 -23c-30 59.333 -65.667 115.333 -107 168l-197 -58l-54 145l144 45c-39.333 43.333 -80.333 86.333 -123 129h240c27.333 -21.333 54 -44 80 -68zM666 862.001c-97.333 0 -179.001 -35 -245.001 -105s-99 -157.667 -99 -263
c0 -80.667 25 -146.5 75 -197.5s114.667 -76.5 194 -76.5c102.667 0 185.834 37 249.501 111s95.5 162 95.5 264c0 76 -25.5 139.5 -76.5 190.5s-115.5 76.5 -193.5 76.5z" />
    <glyph glyph-name="ntilde" unicode="&#xf1;" 
d="M193 1088l266.001 0.00195312l-16 -110c102 92 208 138 318 138c94 0 171 -29.833 231 -89.5s90 -134.834 90 -225.501c0 -42.667 -5.66699 -106.334 -17 -191.001l-81 -610h-265l79 595c8 61.333 12 107.333 12 138c0 44 -12.5 77.833 -37.5 101.5
s-60.5 35.5 -106.5 35.5c-44.667 0 -89.334 -15.5 -134.001 -46.5s-79 -74 -103 -129s-46 -158.167 -66 -309.5l-51 -385h-266zM371.001 1289l-86 164.999c59.333 38 109.5 63.667 150.5 77s82.167 20 123.5 20c31.333 0 72 -7 122 -21c79.333 -22 135 -33 167 -33
c56.667 0 116.334 17 179.001 51l83 -155c-68 -48 -114.667 -76.667 -140 -86c-40.667 -14.667 -81.334 -22 -122.001 -22s-90 9 -148 27c-47.333 14.667 -77 23.334 -89 26.001c-16 2.66699 -34 4 -54 4c-65.333 0 -127.333 -17.667 -186 -53z" />
    <glyph glyph-name="ograve" unicode="&#xf2;" horiz-adv-x="1311" 
d="M684 1116c96.667 0 184.5 -22.334 263.5 -67.001s140.5 -108 184.5 -190s66 -174 66 -276c0 -169.333 -60.333 -313.5 -181 -432.5s-270 -178.5 -448 -178.5c-154.667 0 -278 46.833 -370 140.5s-138 216.167 -138 367.5c0 182.667 62.333 334.334 187 455.001
s270 181 436 181zM665 862.999c-109.333 0 -193.167 -39.168 -251.5 -117.501s-87.5 -163.166 -87.5 -254.499c0 -81.333 23.833 -146.833 71.5 -196.5s111.167 -74.5 190.5 -74.5c112.667 0 198.5 37.833 257.5 113.5s88.5 162.167 88.5 259.5c0 80 -25 145 -75 195
s-114.667 75 -194 75zM441.999 1677h322l182 -392h-195z" />
    <glyph glyph-name="oacute" unicode="&#xf3;" horiz-adv-x="1311" 
d="M684 1116c96.667 0 184.5 -22.334 263.5 -67.001s140.5 -108 184.5 -190s66 -174 66 -276c0 -169.333 -60.333 -313.5 -181 -432.5s-270 -178.5 -448 -178.5c-154.667 0 -278 46.833 -370 140.5s-138 216.167 -138 367.5c0 182.667 62.333 334.334 187 455.001
s270 181 436 181zM665 862.999c-109.333 0 -193.167 -39.168 -251.5 -117.501s-87.5 -163.166 -87.5 -254.499c0 -81.333 23.833 -146.833 71.5 -196.5s111.167 -74.5 190.5 -74.5c112.667 0 198.5 37.833 257.5 113.5s88.5 162.167 88.5 259.5c0 80 -25 145 -75 195
s-114.667 75 -194 75zM839.999 1677h323l-421 -391h-196z" />
    <glyph glyph-name="ocircumflex" unicode="&#xf4;" horiz-adv-x="1311" 
d="M684 1116c96.667 0 184.5 -22.334 263.5 -67.001s140.5 -108 184.5 -190s66 -174 66 -276c0 -169.333 -60.333 -313.5 -181 -432.5s-270 -178.5 -448 -178.5c-154.667 0 -278 46.833 -370 140.5s-138 216.167 -138 367.5c0 182.667 62.333 334.334 187 455.001
s270 181 436 181zM665 862.999c-109.333 0 -193.167 -39.168 -251.5 -117.501s-87.5 -163.166 -87.5 -254.499c0 -81.333 23.833 -146.833 71.5 -196.5s111.167 -74.5 190.5 -74.5c112.667 0 198.5 37.833 257.5 113.5s88.5 162.167 88.5 259.5c0 80 -25 145 -75 195
s-114.667 75 -194 75zM671.999 1536h218l259 -282h-298l-90 130l-130 -130h-300z" />
    <glyph glyph-name="otilde" unicode="&#xf5;" horiz-adv-x="1311" 
d="M684 1116c96.667 0 184.5 -22.334 263.5 -67.001s140.5 -108 184.5 -190s66 -174 66 -276c0 -169.333 -60.333 -313.5 -181 -432.5s-270 -178.5 -448 -178.5c-154.667 0 -278 46.833 -370 140.5s-138 216.167 -138 367.5c0 182.667 62.333 334.334 187 455.001
s270 181 436 181zM665 862.999c-109.333 0 -193.167 -39.168 -251.5 -117.501s-87.5 -163.166 -87.5 -254.499c0 -81.333 23.833 -146.833 71.5 -196.5s111.167 -74.5 190.5 -74.5c112.667 0 198.5 37.833 257.5 113.5s88.5 162.167 88.5 259.5c0 80 -25 145 -75 195
s-114.667 75 -194 75zM411.999 1289l-86 164.999c59.333 38 109.5 63.667 150.5 77s82.167 20 123.5 20c31.333 0 72 -7 122 -21c79.333 -22 135 -33 167 -33c56.667 0 116.334 17 179.001 51l83 -155c-68 -48 -114.667 -76.667 -140 -86
c-40.667 -14.667 -81.334 -22 -122.001 -22s-90 9 -148 27c-47.333 14.667 -77 23.334 -89 26.001c-16 2.66699 -34 4 -54 4c-65.333 0 -127.333 -17.667 -186 -53z" />
    <glyph glyph-name="odieresis" unicode="&#xf6;" horiz-adv-x="1311" 
d="M684 1116c96.667 0 184.5 -22.334 263.5 -67.001s140.5 -108 184.5 -190s66 -174 66 -276c0 -169.333 -60.333 -313.5 -181 -432.5s-270 -178.5 -448 -178.5c-154.667 0 -278 46.833 -370 140.5s-138 216.167 -138 367.5c0 182.667 62.333 334.334 187 455.001
s270 181 436 181zM665 862.999c-109.333 0 -193.167 -39.168 -251.5 -117.501s-87.5 -163.166 -87.5 -254.499c0 -81.333 23.833 -146.833 71.5 -196.5s111.167 -74.5 190.5 -74.5c112.667 0 198.5 37.833 257.5 113.5s88.5 162.167 88.5 259.5c0 80 -25 145 -75 195
s-114.667 75 -194 75zM508.999 1536c34.667 0 63.833 -11.667 87.5 -35s35.5 -51.333 35.5 -84c0 -46 -16 -85.333 -48 -118s-71 -49 -117 -49c-37.333 0 -67.333 11.5 -90 34.5s-34 53.167 -34 90.5c0 42.667 16.5 80.167 49.5 112.5s71.833 48.5 116.5 48.5zM951.998 1536
c34.667 0 63.833 -11.667 87.5 -35s35.5 -51.333 35.5 -84c0 -46 -16 -85.333 -48 -118s-71 -49 -117 -49c-37.333 0 -67.333 11.5 -90 34.5s-34 53.167 -34 90.5c0 42.667 16.5 80.167 49.5 112.5s71.833 48.5 116.5 48.5z" />
    <glyph glyph-name="divide" unicode="&#xf7;" horiz-adv-x="1124" 
d="M401 1326h322v-321h-322v321zM62 860h999v-250h-999v250zM401 466h322v-321h-322v321z" />
    <glyph glyph-name="oslash" unicode="&#xf8;" horiz-adv-x="1352" 
d="M1102 937c78 -100 116.999 -217.999 116.999 -353.999c0 -169.333 -60.333 -313.5 -181 -432.5s-269.667 -178.5 -447 -178.5c-109.333 0 -201.666 21.667 -276.999 65l-153 -176l-116 105l151 173c-76.667 95.333 -115 208.666 -115 339.999
c0 116 27.667 222.5 83 319.5s131.5 174.167 228.5 231.5s199.167 86 306.5 86s202 -25 284 -75l163 187l119 -104zM378.999 349.001l427.001 490.001c-36.667 16 -78.334 24 -125.001 24c-107.333 0 -190 -39.5 -248 -118.5s-87 -163.167 -87 -252.5
c0 -52.667 11 -100.334 33 -143.001zM922 731.002l-429.001 -490c34.667 -14 73.334 -21 116.001 -21c111.333 0 196.833 37.5 256.5 112.5s89.5 161.167 89.5 258.5c0 54 -11 100.667 -33 140z" />
    <glyph glyph-name="ugrave" unicode="&#xf9;" 
d="M195 1088h264.001l-73 -556c-8 -61.333 -12 -107.333 -12 -138c0 -48 16.667 -88.333 50 -121s76.666 -49 129.999 -49c68.667 0 121.5 21 158.5 63s64.167 127.333 81.5 256l75 545h264l-79 -585c-18 -132 -48.167 -234.167 -90.5 -306.5s-98.5 -127.833 -168.5 -166.5
s-152.333 -58 -247 -58c-133.333 0 -239.333 38.5 -318 115.5s-118 176.5 -118 298.5c0 74.667 8.33301 170.667 25 288zM400.001 1677h322l182 -392h-195z" />
    <glyph glyph-name="uacute" unicode="&#xfa;" 
d="M195 1088h264.001l-73 -556c-8 -61.333 -12 -107.333 -12 -138c0 -48 16.667 -88.333 50 -121s76.666 -49 129.999 -49c68.667 0 121.5 21 158.5 63s64.167 127.333 81.5 256l75 545h264l-79 -585c-18 -132 -48.167 -234.167 -90.5 -306.5s-98.5 -127.833 -168.5 -166.5
s-152.333 -58 -247 -58c-133.333 0 -239.333 38.5 -318 115.5s-118 176.5 -118 298.5c0 74.667 8.33301 170.667 25 288zM798.001 1677h323l-421 -391h-196z" />
    <glyph glyph-name="ucircumflex" unicode="&#xfb;" 
d="M195 1088h264.001l-73 -556c-8 -61.333 -12 -107.333 -12 -138c0 -48 16.667 -88.333 50 -121s76.666 -49 129.999 -49c68.667 0 121.5 21 158.5 63s64.167 127.333 81.5 256l75 545h264l-79 -585c-18 -132 -48.167 -234.167 -90.5 -306.5s-98.5 -127.833 -168.5 -166.5
s-152.333 -58 -247 -58c-133.333 0 -239.333 38.5 -318 115.5s-118 176.5 -118 298.5c0 74.667 8.33301 170.667 25 288zM631.001 1536h218l259 -282h-298l-90 130l-130 -130h-300z" />
    <glyph glyph-name="udieresis" unicode="&#xfc;" 
d="M195 1088h264.001l-73 -556c-8 -61.333 -12 -107.333 -12 -138c0 -48 16.667 -88.333 50 -121s76.666 -49 129.999 -49c68.667 0 121.5 21 158.5 63s64.167 127.333 81.5 256l75 545h264l-79 -585c-18 -132 -48.167 -234.167 -90.5 -306.5s-98.5 -127.833 -168.5 -166.5
s-152.333 -58 -247 -58c-133.333 0 -239.333 38.5 -318 115.5s-118 176.5 -118 298.5c0 74.667 8.33301 170.667 25 288zM467.001 1536c34.667 0 63.833 -11.667 87.5 -35s35.5 -51.333 35.5 -84c0 -46 -16 -85.333 -48 -118s-71 -49 -117 -49
c-37.333 0 -67.333 11.5 -90 34.5s-34 53.167 -34 90.5c0 42.667 16.5 80.167 49.5 112.5s71.833 48.5 116.5 48.5zM910 1536c34.667 0 63.833 -11.667 87.5 -35s35.5 -51.333 35.5 -84c0 -46 -16 -85.333 -48 -118s-71 -49 -117 -49c-37.333 0 -67.333 11.5 -90 34.5
s-34 53.167 -34 90.5c0 42.667 16.5 80.167 49.5 112.5s71.833 48.5 116.5 48.5z" />
    <glyph glyph-name="yacute" unicode="&#xfd;" horiz-adv-x="1188" 
d="M45 1088h262l212 -646l372 646h288l-855 -1486h-282l309 546zM779 1677h323l-421 -391h-196z" />
    <glyph glyph-name="thorn" unicode="&#xfe;" horiz-adv-x="1352" 
d="M258 -398l-267 -0.00292969l250 1906h267l-74 -537c58 54.667 112.167 92.5 162.5 113.5s106.833 31.5 169.5 31.5c144.667 0 259.334 -53 344.001 -159s127 -229 127 -369c0 -107.333 -27 -209.666 -81 -306.999s-126.5 -173.166 -217.5 -227.499
s-185.833 -81.5 -284.5 -81.5c-66.667 0 -128.334 15.333 -185.001 46s-103 75.334 -139 134.001zM704 878.997c-64.667 0 -121.5 -14.8311 -170.5 -44.498s-90 -75.834 -123 -138.501s-49.5 -126.667 -49.5 -192c0 -86 24.833 -155.167 74.5 -207.5
s115.167 -78.5 196.5 -78.5c94.667 0 175 35 241 105s99 160.333 99 271c0 85.333 -25 154.166 -75 206.499s-114.333 78.5 -193 78.5z" />
    <glyph glyph-name="ydieresis" unicode="&#xff;" horiz-adv-x="1188" 
d="M45 1088h262l212 -646l372 646h288l-855 -1486h-282l309 546zM447 1536c34.667 0 63.833 -11.667 87.5 -35s35.5 -51.333 35.5 -84c0 -46 -16 -85.333 -48 -118s-71 -49 -117 -49c-37.333 0 -67.333 11.5 -90 34.5s-34 53.167 -34 90.5c0 42.667 16.5 80.167 49.5 112.5
s71.833 48.5 116.5 48.5zM889.999 1536c34.667 0 63.833 -11.667 87.5 -35s35.5 -51.333 35.5 -84c0 -46 -16 -85.333 -48 -118s-71 -49 -117 -49c-37.333 0 -67.333 11.5 -90 34.5s-34 53.167 -34 90.5c0 42.667 16.5 80.167 49.5 112.5s71.833 48.5 116.5 48.5z" />
    <glyph glyph-name="Amacron" unicode="&#x100;" horiz-adv-x="1515" 
d="M770 1471h233l366 -1471h-268l-78 313h-581l-169 -313h-297zM956 573l-118 483l-259 -483h377zM598 1616l31 221h569l-31 -221h-569z" />
    <glyph glyph-name="amacron" unicode="&#x101;" horiz-adv-x="1352" 
d="M984 1088l267 0.000976562l-142 -1088h-264l15 117c-58 -54 -112.167 -91.667 -162.5 -113s-106.833 -32 -169.5 -32c-144 0 -258.5 53 -343.5 159s-127.5 229.333 -127.5 370c0 107.333 27 209.5 81 306.5s126.5 172.667 217.5 227s186.167 81.5 285.5 81.5
c66.667 0 128.167 -15.333 184.5 -46s102.833 -75.334 139.5 -134.001zM590 210.001c65.333 0 122.333 14.667 171 44s89.5 75.333 122.5 138s49.5 126.667 49.5 192c0 86 -24.833 155.167 -74.5 207.5s-115.167 78.5 -196.5 78.5c-94.667 0 -175 -35 -241 -105
s-99 -160.333 -99 -271c0 -85.333 25 -154 75 -206s114.333 -78 193 -78zM444 1287l31 221h569l-31 -221h-569z" />
    <glyph glyph-name="Abreve" unicode="&#x102;" horiz-adv-x="1515" 
d="M770 1471h233l366 -1471h-268l-78 313h-581l-169 -313h-297zM956 573l-118 483l-259 -483h377zM568 1896h221.001c11.333 -26.667 28.333 -45.667 51 -57c33.333 -16.667 74.666 -25 123.999 -25c45.333 0 84.5 6.83301 117.5 20.5s59.5 34.167 79.5 61.5h221
c-26 -86 -77.167 -154.167 -153.5 -204.5s-173.5 -75.5 -291.5 -75.5c-123.333 0 -215.833 25.833 -277.5 77.5s-92.167 119.167 -91.5 202.5z" />
    <glyph glyph-name="abreve" unicode="&#x103;" horiz-adv-x="1352" 
d="M984 1088l267 0.000976562l-142 -1088h-264l15 117c-58 -54 -112.167 -91.667 -162.5 -113s-106.833 -32 -169.5 -32c-144 0 -258.5 53 -343.5 159s-127.5 229.333 -127.5 370c0 107.333 27 209.5 81 306.5s126.5 172.667 217.5 227s186.167 81.5 285.5 81.5
c66.667 0 128.167 -15.333 184.5 -46s102.833 -75.334 139.5 -134.001zM590 210.001c65.333 0 122.333 14.667 171 44s89.5 75.333 122.5 138s49.5 126.667 49.5 192c0 86 -24.833 155.167 -74.5 207.5s-115.167 78.5 -196.5 78.5c-94.667 0 -175 -35 -241 -105
s-99 -160.333 -99 -271c0 -85.333 25 -154 75 -206s114.333 -78 193 -78zM364 1567h221.001c11.333 -26.667 28.333 -45.667 51 -57c33.333 -16.667 74.666 -25 123.999 -25c45.333 0 84.5 6.83301 117.5 20.5s59.5 34.167 79.5 61.5h221
c-26 -86 -77.167 -154.167 -153.5 -204.5s-173.5 -75.5 -291.5 -75.5c-123.333 0 -215.833 25.833 -277.5 77.5s-92.167 119.167 -91.5 202.5z" />
    <glyph glyph-name="Aogonek" unicode="&#x104;" horiz-adv-x="1515" 
d="M770 1471h233l366 -1471h-268l-78 313h-581l-169 -313h-297zM956 573l-118 483l-259 -483h377zM1241 0l144 0.000976562c-110 -60 -165 -119.667 -165 -179c0 -23.333 8.5 -42.333 25.5 -57s39.167 -22 66.5 -22c22.667 0 53 9 91 27l-22 -159
c-47.333 -10 -91 -15 -131 -15c-73.333 0 -128.166 15.333 -164.499 46s-54.5 70 -54.5 118c0 44.667 17.667 88.667 53 132s87.666 79.666 156.999 108.999z" />
    <glyph glyph-name="aogonek" unicode="&#x105;" horiz-adv-x="1352" 
d="M984 1088l267 0.000976562l-142 -1088h-264l15 117c-58 -54 -112.167 -91.667 -162.5 -113s-106.833 -32 -169.5 -32c-144 0 -258.5 53 -343.5 159s-127.5 229.333 -127.5 370c0 107.333 27 209.5 81 306.5s126.5 172.667 217.5 227s186.167 81.5 285.5 81.5
c66.667 0 128.167 -15.333 184.5 -46s102.833 -75.334 139.5 -134.001zM590 210.001c65.333 0 122.333 14.667 171 44s89.5 75.333 122.5 138s49.5 126.667 49.5 192c0 86 -24.833 155.167 -74.5 207.5s-115.167 78.5 -196.5 78.5c-94.667 0 -175 -35 -241 -105
s-99 -160.333 -99 -271c0 -85.333 25 -154 75 -206s114.333 -78 193 -78zM941 0.000976562l144 0.000976562c-110 -60 -165 -119.667 -165 -179c0 -23.333 8.5 -42.333 25.5 -57s39.167 -22 66.5 -22c22.667 0 53 9 91 27l-22 -159c-47.333 -10 -91 -15 -131 -15
c-73.333 0 -128.166 15.333 -164.499 46s-54.5 70 -54.5 118c0 44.667 17.667 88.667 53 132s87.666 79.666 156.999 108.999z" />
    <glyph glyph-name="Cacute" unicode="&#x106;" horiz-adv-x="1597" 
d="M1524 1281l-201.002 -186.002c-43.333 50 -96.333 88.5 -159 115.5s-130.667 40.5 -204 40.5c-102.667 0 -201 -26.333 -295 -79s-167.167 -122.334 -219.5 -209.001s-78.5 -179 -78.5 -277c0 -133.333 46 -244.166 138 -332.499s210 -132.5 354 -132.5
c154 0 287.333 44.667 400 134l163 -215c-167.333 -118 -361 -177 -581 -177c-154.667 0 -286.167 29.333 -394.5 88s-195.333 144.834 -261 258.501s-98.5 236.834 -98.5 369.501c0 142 38.833 278.167 116.5 408.5s182.834 233 315.501 308s277.334 112.5 434.001 112.5
c220 0 410.333 -75.667 571 -227zM1056 1974h323l-421 -391h-196z" />
    <glyph glyph-name="cacute" unicode="&#x107;" horiz-adv-x="1311" 
d="M1187 863l-226.001 -122.999c-64 81.333 -150 122 -258 122c-72.667 0 -137 -15.5 -193 -46.5s-100.667 -75.833 -134 -134.5s-50 -120.667 -50 -186c0 -84 26.333 -151.333 79 -202s125 -76 217 -76c127.333 0 225 43 293 129l210 -148
c-59.333 -70.667 -133.166 -126 -221.499 -166s-186.833 -60 -295.5 -60c-169.333 0 -302.833 46.667 -400.5 140s-146.5 216.666 -146.5 369.999c0 175.333 60.333 324.833 181 448.5s276 185.5 466 185.5c214 0 373.667 -84.333 479 -253zM839.999 1677h323l-421 -391
h-196z" />
    <glyph glyph-name="Ccircumflex" unicode="&#x108;" horiz-adv-x="1597" 
d="M1524 1281l-201.002 -186.002c-43.333 50 -96.333 88.5 -159 115.5s-130.667 40.5 -204 40.5c-102.667 0 -201 -26.333 -295 -79s-167.167 -122.334 -219.5 -209.001s-78.5 -179 -78.5 -277c0 -133.333 46 -244.166 138 -332.499s210 -132.5 354 -132.5
c154 0 287.333 44.667 400 134l163 -215c-167.333 -118 -361 -177 -581 -177c-154.667 0 -286.167 29.333 -394.5 88s-195.333 144.834 -261 258.501s-98.5 236.834 -98.5 369.501c0 142 38.833 278.167 116.5 408.5s182.834 233 315.501 308s277.334 112.5 434.001 112.5
c220 0 410.333 -75.667 571 -227zM844.998 1865h218l259 -282h-298l-90 130l-130 -130h-300z" />
    <glyph glyph-name="ccircumflex" unicode="&#x109;" horiz-adv-x="1311" 
d="M1187 863l-226.001 -122.999c-64 81.333 -150 122 -258 122c-72.667 0 -137 -15.5 -193 -46.5s-100.667 -75.833 -134 -134.5s-50 -120.667 -50 -186c0 -84 26.333 -151.333 79 -202s125 -76 217 -76c127.333 0 225 43 293 129l210 -148
c-59.333 -70.667 -133.166 -126 -221.499 -166s-186.833 -60 -295.5 -60c-169.333 0 -302.833 46.667 -400.5 140s-146.5 216.666 -146.5 369.999c0 175.333 60.333 324.833 181 448.5s276 185.5 466 185.5c214 0 373.667 -84.333 479 -253zM630.999 1536h218l259 -282h-298
l-90 130l-130 -130h-300z" />
    <glyph glyph-name="Cdot" unicode="&#x10a;" horiz-adv-x="1597" 
d="M1524 1281l-201.002 -186.002c-43.333 50 -96.333 88.5 -159 115.5s-130.667 40.5 -204 40.5c-102.667 0 -201 -26.333 -295 -79s-167.167 -122.334 -219.5 -209.001s-78.5 -179 -78.5 -277c0 -133.333 46 -244.166 138 -332.499s210 -132.5 354 -132.5
c154 0 287.333 44.667 400 134l163 -215c-167.333 -118 -361 -177 -581 -177c-154.667 0 -286.167 29.333 -394.5 88s-195.333 144.834 -261 258.501s-98.5 236.834 -98.5 369.501c0 142 38.833 278.167 116.5 408.5s182.834 233 315.501 308s277.334 112.5 434.001 112.5
c220 0 410.333 -75.667 571 -227zM983.998 1865c34.667 0 63.833 -11.667 87.5 -35s35.5 -51.333 35.5 -84c0 -46 -16 -85.333 -48 -118s-71 -49 -117 -49c-37.333 0 -67.333 11.5 -90 34.5s-34 53.167 -34 90.5c0 42.667 16.5 80.167 49.5 112.5s71.833 48.5 116.5 48.5z
" />
    <glyph glyph-name="cdot" unicode="&#x10b;" horiz-adv-x="1311" 
d="M1187 863l-226.001 -122.999c-64 81.333 -150 122 -258 122c-72.667 0 -137 -15.5 -193 -46.5s-100.667 -75.833 -134 -134.5s-50 -120.667 -50 -186c0 -84 26.333 -151.333 79 -202s125 -76 217 -76c127.333 0 225 43 293 129l210 -148
c-59.333 -70.667 -133.166 -126 -221.499 -166s-186.833 -60 -295.5 -60c-169.333 0 -302.833 46.667 -400.5 140s-146.5 216.666 -146.5 369.999c0 175.333 60.333 324.833 181 448.5s276 185.5 466 185.5c214 0 373.667 -84.333 479 -253zM729.999 1536
c34.667 0 63.833 -11.667 87.5 -35s35.5 -51.333 35.5 -84c0 -46 -16 -85.333 -48 -118s-71 -49 -117 -49c-37.333 0 -67.333 11.5 -90 34.5s-34 53.167 -34 90.5c0 42.667 16.5 80.167 49.5 112.5s71.833 48.5 116.5 48.5z" />
    <glyph glyph-name="Ccaron" unicode="&#x10c;" horiz-adv-x="1597" 
d="M1524 1281l-201.002 -186.002c-43.333 50 -96.333 88.5 -159 115.5s-130.667 40.5 -204 40.5c-102.667 0 -201 -26.333 -295 -79s-167.167 -122.334 -219.5 -209.001s-78.5 -179 -78.5 -277c0 -133.333 46 -244.166 138 -332.499s210 -132.5 354 -132.5
c154 0 287.333 44.667 400 134l163 -215c-167.333 -118 -361 -177 -581 -177c-154.667 0 -286.167 29.333 -394.5 88s-195.333 144.834 -261 258.501s-98.5 236.834 -98.5 369.501c0 142 38.833 278.167 116.5 408.5s182.834 233 315.501 308s277.334 112.5 434.001 112.5
c220 0 410.333 -75.667 571 -227zM1067 1583h-218l-259 282h298l90 -130l130 130h300z" />
    <glyph glyph-name="ccaron" unicode="&#x10d;" horiz-adv-x="1311" 
d="M1187 863l-226.001 -122.999c-64 81.333 -150 122 -258 122c-72.667 0 -137 -15.5 -193 -46.5s-100.667 -75.833 -134 -134.5s-50 -120.667 -50 -186c0 -84 26.333 -151.333 79 -202s125 -76 217 -76c127.333 0 225 43 293 129l210 -148
c-59.333 -70.667 -133.166 -126 -221.499 -166s-186.833 -60 -295.5 -60c-169.333 0 -302.833 46.667 -400.5 140s-146.5 216.666 -146.5 369.999c0 175.333 60.333 324.833 181 448.5s276 185.5 466 185.5c214 0 373.667 -84.333 479 -253zM826.999 1254h-218l-259 282h298
l90 -130l130 130h300z" />
    <glyph glyph-name="Dcaron" unicode="&#x10e;" horiz-adv-x="1434" 
d="M267 1471l234 0.00195312c219.333 0 382.5 -25.833 489.5 -77.5s194 -132.834 261 -243.501s100.5 -238.334 100.5 -383.001c0 -148.667 -35.5 -285.167 -106.5 -409.5s-160.5 -215 -268.5 -272s-258 -85.5 -450 -85.5h-457zM510 1212l-126.999 -955.002h91
c140 0 241.333 11.667 304 35c88 33.333 158.667 90.333 212 171s80 180.334 80 299.001c0 97.333 -18.833 178.833 -56.5 244.5s-90.834 116.334 -159.501 152.001s-160 53.5 -274 53.5h-70zM875.001 1583h-218l-259 282h298l90 -130l130 130h300z" />
    <glyph glyph-name="dcaron" unicode="&#x10f;" horiz-adv-x="1448" 
d="M1039 1508l267.001 -0.000976562l-197 -1508h-264l15 117c-97.333 -96.667 -208 -145 -332 -145c-144.667 0 -259.334 53.167 -344.001 159.5s-127 229.5 -127 369.5c0 166.667 58 310.834 174 432.501s252.667 182.5 410 182.5c141.333 0 249.333 -60 324 -180z
M590.001 209.999c107.333 0 191.333 38.833 252 116.5s91 163.5 91 257.5c0 82 -24 150.167 -72 204.5s-114.333 81.5 -199 81.5c-94 0 -174.167 -34.833 -240.5 -104.5s-99.5 -160.167 -99.5 -271.5c0 -81.333 24 -149 72 -203s113.333 -81 196 -81zM1381 1508h213
l-14 -106c-8 -58.667 -22.5 -116.5 -43.5 -173.5s-64.833 -122.167 -131.5 -195.5l-73 64c50 64 83 120 99 168h-86z" />
    <glyph glyph-name="Dslash" unicode="&#x110;" horiz-adv-x="1520" 
d="M230 651l-126 0.00195312l23 166h125l88 654h233c220 0 383.333 -25.833 490 -77.5s193.667 -132.834 261 -243.501s101 -238.334 101 -383.001c0 -148.667 -35.5 -285.167 -106.5 -409.5s-160.5 -215 -268.5 -272s-258.333 -85.5 -451 -85.5h-456zM508 651.002
l-53.001 -394.002h91c140.667 0 242.334 11.667 305.001 35c88 33.333 158.667 90.333 212 171s80 180.334 80 299.001c0 97.333 -19 178.833 -57 244.5s-91.167 116.334 -159.5 152.001s-159.5 53.5 -273.5 53.5h-71l-52 -395h322l-21 -166h-323z" />
    <glyph glyph-name="dmacron" unicode="&#x111;" horiz-adv-x="1352" 
d="M1291 1391l180 0.000976562l-19 -158h-182l-161 -1233h-264l15 117c-58 -54 -112.167 -91.667 -162.5 -113s-106.833 -32 -169.5 -32c-144 0 -258.5 53 -343.5 159s-127.5 229.333 -127.5 370c0 107.333 27 209.5 81 306.5s126.5 172.667 217.5 227
s186.167 81.5 285.5 81.5c66.667 0 128.167 -15.333 184.5 -46s102.833 -75.334 139.5 -134.001l38 297h-343l18 158h346l15 117h267zM590 210.001c65.333 0 122.333 14.667 171 44s89.5 75.333 122.5 138s49.5 126.667 49.5 192c0 86 -24.833 155.167 -74.5 207.5
s-115.167 78.5 -196.5 78.5c-94.667 0 -175 -35 -241 -105s-99 -160.333 -99 -271c0 -85.333 25 -154 75 -206s114.333 -78 193 -78z" />
    <glyph glyph-name="Emacron" unicode="&#x112;" horiz-adv-x="1065" 
d="M245 1471h799l-34 -261h-520l-42 -304h522l-33 -259h-522l-52 -390h525l-35 -257h-801zM361 1616l31 221h569l-31 -221h-569z" />
    <glyph glyph-name="emacron" unicode="&#x113;" horiz-adv-x="1311" 
d="M861 319l235 -122.001c-52.667 -69.333 -122.5 -124.166 -209.5 -164.499s-183.5 -60.5 -289.5 -60.5c-166 0 -296.833 46.667 -392.5 140s-143.5 217.333 -143.5 372c0 176.667 59.833 326.167 179.5 448.5s264.167 183.5 433.5 183.5c102 0 192.833 -22.333 272.5 -67
s142.5 -109.667 188.5 -195s69 -178 69 -278c0 -31.333 -3.33301 -68 -10 -110h-868c2.66699 -75.333 27.5 -135.333 74.5 -180s111.833 -67 194.5 -67c100 0 188.667 33.333 266 100zM929 661.999c-20 66.667 -53.333 117.167 -100 151.5s-103 51.5 -169 51.5
c-65.333 0 -124.333 -17.667 -177 -53s-92.667 -85.333 -120 -150h566zM423 1287l31 221h569l-31 -221h-569z" />
    <glyph glyph-name="Ebreve" unicode="&#x114;" horiz-adv-x="1065" 
d="M245 1471h799l-34 -261h-520l-42 -304h522l-33 -259h-522l-52 -390h525l-35 -257h-801zM271 1896h221.001c11.333 -26.667 28.333 -45.667 51 -57c33.333 -16.667 74.666 -25 123.999 -25c45.333 0 84.5 6.83301 117.5 20.5s59.5 34.167 79.5 61.5h221
c-26 -86 -77.167 -154.167 -153.5 -204.5s-173.5 -75.5 -291.5 -75.5c-123.333 0 -215.833 25.833 -277.5 77.5s-92.167 119.167 -91.5 202.5z" />
    <glyph glyph-name="ebreve" unicode="&#x115;" horiz-adv-x="1311" 
d="M861 319l235 -122.001c-52.667 -69.333 -122.5 -124.166 -209.5 -164.499s-183.5 -60.5 -289.5 -60.5c-166 0 -296.833 46.667 -392.5 140s-143.5 217.333 -143.5 372c0 176.667 59.833 326.167 179.5 448.5s264.167 183.5 433.5 183.5c102 0 192.833 -22.333 272.5 -67
s142.5 -109.667 188.5 -195s69 -178 69 -278c0 -31.333 -3.33301 -68 -10 -110h-868c2.66699 -75.333 27.5 -135.333 74.5 -180s111.833 -67 194.5 -67c100 0 188.667 33.333 266 100zM929 661.999c-20 66.667 -53.333 117.167 -100 151.5s-103 51.5 -169 51.5
c-65.333 0 -124.333 -17.667 -177 -53s-92.667 -85.333 -120 -150h566zM338 1567h221.001c11.333 -26.667 28.333 -45.667 51 -57c33.333 -16.667 74.666 -25 123.999 -25c45.333 0 84.5 6.83301 117.5 20.5s59.5 34.167 79.5 61.5h221
c-26 -86 -77.167 -154.167 -153.5 -204.5s-173.5 -75.5 -291.5 -75.5c-123.333 0 -215.833 25.833 -277.5 77.5s-92.167 119.167 -91.5 202.5z" />
    <glyph glyph-name="Edot" unicode="&#x116;" horiz-adv-x="1065" 
d="M245 1471h799l-34 -261h-520l-42 -304h522l-33 -259h-522l-52 -390h525l-35 -257h-801zM689 1865c34.667 0 63.833 -11.667 87.5 -35s35.5 -51.333 35.5 -84c0 -46 -16 -85.333 -48 -118s-71 -49 -117 -49c-37.333 0 -67.333 11.5 -90 34.5s-34 53.167 -34 90.5
c0 42.667 16.5 80.167 49.5 112.5s71.833 48.5 116.5 48.5z" />
    <glyph glyph-name="edot" unicode="&#x117;" horiz-adv-x="1311" 
d="M861 319l235 -122.001c-52.667 -69.333 -122.5 -124.166 -209.5 -164.499s-183.5 -60.5 -289.5 -60.5c-166 0 -296.833 46.667 -392.5 140s-143.5 217.333 -143.5 372c0 176.667 59.833 326.167 179.5 448.5s264.167 183.5 433.5 183.5c102 0 192.833 -22.333 272.5 -67
s142.5 -109.667 188.5 -195s69 -178 69 -278c0 -31.333 -3.33301 -68 -10 -110h-868c2.66699 -75.333 27.5 -135.333 74.5 -180s111.833 -67 194.5 -67c100 0 188.667 33.333 266 100zM929 661.999c-20 66.667 -53.333 117.167 -100 151.5s-103 51.5 -169 51.5
c-65.333 0 -124.333 -17.667 -177 -53s-92.667 -85.333 -120 -150h566zM738 1536c34.667 0 63.833 -11.667 87.5 -35s35.5 -51.333 35.5 -84c0 -46 -16 -85.333 -48 -118s-71 -49 -117 -49c-37.333 0 -67.333 11.5 -90 34.5s-34 53.167 -34 90.5
c0 42.667 16.5 80.167 49.5 112.5s71.833 48.5 116.5 48.5z" />
    <glyph glyph-name="Eogonek" unicode="&#x118;" horiz-adv-x="1065" 
d="M245 1471h799l-34 -261h-520l-42 -304h522l-33 -259h-522l-52 -390h525l-35 -257h-801zM641 0l144 0.000976562c-110 -60 -165 -119.667 -165 -179c0 -23.333 8.5 -42.333 25.5 -57s39.167 -22 66.5 -22c22.667 0 53 9 91 27l-22 -159c-47.333 -10 -91 -15 -131 -15
c-73.333 0 -128.166 15.333 -164.499 46s-54.5 70 -54.5 118c0 44.667 17.667 88.667 53 132s87.666 79.666 156.999 108.999z" />
    <glyph glyph-name="eogonek" unicode="&#x119;" horiz-adv-x="1311" 
d="M861 319l235 -122.001c-52.667 -69.333 -122.5 -124.166 -209.5 -164.499s-183.5 -60.5 -289.5 -60.5c-166 0 -296.833 46.667 -392.5 140s-143.5 217.333 -143.5 372c0 176.667 59.833 326.167 179.5 448.5s264.167 183.5 433.5 183.5c102 0 192.833 -22.333 272.5 -67
s142.5 -109.667 188.5 -195s69 -178 69 -278c0 -31.333 -3.33301 -68 -10 -110h-868c2.66699 -75.333 27.5 -135.333 74.5 -180s111.833 -67 194.5 -67c100 0 188.667 33.333 266 100zM929 661.999c-20 66.667 -53.333 117.167 -100 151.5s-103 51.5 -169 51.5
c-65.333 0 -124.333 -17.667 -177 -53s-92.667 -85.333 -120 -150h566zM641 -0.000976562l144 0.000976562c-110 -60 -165 -119.667 -165 -179c0 -23.333 8.5 -42.333 25.5 -57s39.167 -22 66.5 -22c22.667 0 53 9 91 27l-22 -159c-47.333 -10 -91 -15 -131 -15
c-73.333 0 -128.166 15.333 -164.499 46s-54.5 70 -54.5 118c0 44.667 17.667 88.667 53 132s87.666 79.666 156.999 108.999z" />
    <glyph glyph-name="Ecaron" unicode="&#x11a;" horiz-adv-x="1065" 
d="M245 1471h799l-34 -261h-520l-42 -304h522l-33 -259h-522l-52 -390h525l-35 -257h-801zM764 1583h-218l-259 282h298l90 -130l130 130h300z" />
    <glyph glyph-name="ecaron" unicode="&#x11b;" horiz-adv-x="1311" 
d="M861 319l235 -122.001c-52.667 -69.333 -122.5 -124.166 -209.5 -164.499s-183.5 -60.5 -289.5 -60.5c-166 0 -296.833 46.667 -392.5 140s-143.5 217.333 -143.5 372c0 176.667 59.833 326.167 179.5 448.5s264.167 183.5 433.5 183.5c102 0 192.833 -22.333 272.5 -67
s142.5 -109.667 188.5 -195s69 -178 69 -278c0 -31.333 -3.33301 -68 -10 -110h-868c2.66699 -75.333 27.5 -135.333 74.5 -180s111.833 -67 194.5 -67c100 0 188.667 33.333 266 100zM929 661.999c-20 66.667 -53.333 117.167 -100 151.5s-103 51.5 -169 51.5
c-65.333 0 -124.333 -17.667 -177 -53s-92.667 -85.333 -120 -150h566zM827 1254h-218l-259 282h298l90 -130l130 130h300z" />
    <glyph glyph-name="Gcircumflex" unicode="&#x11c;" horiz-adv-x="1720" 
d="M1541 1197l-230 -148.998c-66.667 76 -131 128.833 -193 158.5s-132.333 44.5 -211 44.5c-170 0 -308.333 -68.333 -415 -205c-84.667 -108.667 -127 -229.334 -127 -362.001c0 -130.667 43.5 -240.334 130.5 -329.001s194.167 -133 321.5 -133
c94.667 0 180.834 22.833 258.501 68.5s141.167 114.167 190.5 205.5h-459l34 261h744c-10.667 -243.333 -86.834 -436.5 -228.501 -579.5s-322.167 -214.5 -541.5 -214.5c-238.667 0 -426.334 82.667 -563.001 248c-110 132.667 -165 290.667 -165 474
c0 223.333 80.5 416.333 241.5 579s352.833 244 575.5 244c82.667 0 163.334 -12 242.001 -36s149.667 -57.667 213 -101s124 -101.333 182 -174zM863 1865h218l259 -282h-298l-90 130l-130 -130h-300z" />
    <glyph glyph-name="gcircumflex" unicode="&#x11d;" horiz-adv-x="1352" 
d="M984 1088l266.999 0.00195312l-119 -871c-23.333 -172 -47.333 -286 -72 -342c-38.667 -86.667 -103.667 -158.5 -195 -215.5s-206 -85.5 -344 -85.5c-114.667 0 -214.5 22.167 -299.5 66.5s-148.5 101.5 -190.5 171.5l229 120c68.667 -72.667 158 -109 268 -109
c64 0 119.333 11.667 166 35s83 54.833 109 94.5s44.333 98.5 55 176.5c-96.667 -86 -206.334 -129 -329.001 -129c-85.333 0 -164.166 21.5 -236.499 64.5s-129.166 103.5 -170.499 181.5s-62 164.667 -62 260c0 107.333 27 208.166 81 302.499
s127.5 169.166 220.5 224.499s190.167 83 291.5 83c61.333 0 117 -12 167 -36s99 -64.333 147 -121zM666.999 864.002c-96.667 0 -178.168 -33.999 -244.501 -101.999s-99.5 -151.667 -99.5 -251c0 -80.667 24.667 -145.334 74 -194.001s115.333 -73 198 -73
c62 0 119.333 15 172 45s94.334 73 125.001 129s46 116.333 46 181c0 76 -25.333 139.167 -76 189.5s-115.667 75.5 -195 75.5zM647.998 1536h218l259 -282h-298l-90 130l-130 -130h-300z" />
    <glyph glyph-name="Gbreve" unicode="&#x11e;" horiz-adv-x="1720" 
d="M1541 1197l-230 -148.998c-66.667 76 -131 128.833 -193 158.5s-132.333 44.5 -211 44.5c-170 0 -308.333 -68.333 -415 -205c-84.667 -108.667 -127 -229.334 -127 -362.001c0 -130.667 43.5 -240.334 130.5 -329.001s194.167 -133 321.5 -133
c94.667 0 180.834 22.833 258.501 68.5s141.167 114.167 190.5 205.5h-459l34 261h744c-10.667 -243.333 -86.834 -436.5 -228.501 -579.5s-322.167 -214.5 -541.5 -214.5c-238.667 0 -426.334 82.667 -563.001 248c-110 132.667 -165 290.667 -165 474
c0 223.333 80.5 416.333 241.5 579s352.833 244 575.5 244c82.667 0 163.334 -12 242.001 -36s149.667 -57.667 213 -101s124 -101.333 182 -174zM548 1864h221.001c11.333 -26.667 28.333 -45.667 51 -57c33.333 -16.667 74.666 -25 123.999 -25
c45.333 0 84.5 6.83301 117.5 20.5s59.5 34.167 79.5 61.5h221c-26 -86 -77.167 -154.167 -153.5 -204.5s-173.5 -75.5 -291.5 -75.5c-123.333 0 -215.833 25.833 -277.5 77.5s-92.167 119.167 -91.5 202.5z" />
    <glyph glyph-name="gbreve" unicode="&#x11f;" horiz-adv-x="1352" 
d="M984 1088l266.999 0.00195312l-119 -871c-23.333 -172 -47.333 -286 -72 -342c-38.667 -86.667 -103.667 -158.5 -195 -215.5s-206 -85.5 -344 -85.5c-114.667 0 -214.5 22.167 -299.5 66.5s-148.5 101.5 -190.5 171.5l229 120c68.667 -72.667 158 -109 268 -109
c64 0 119.333 11.667 166 35s83 54.833 109 94.5s44.333 98.5 55 176.5c-96.667 -86 -206.334 -129 -329.001 -129c-85.333 0 -164.166 21.5 -236.499 64.5s-129.166 103.5 -170.499 181.5s-62 164.667 -62 260c0 107.333 27 208.166 81 302.499
s127.5 169.166 220.5 224.499s190.167 83 291.5 83c61.333 0 117 -12 167 -36s99 -64.333 147 -121zM666.999 864.002c-96.667 0 -178.168 -33.999 -244.501 -101.999s-99.5 -151.667 -99.5 -251c0 -80.667 24.667 -145.334 74 -194.001s115.333 -73 198 -73
c62 0 119.333 15 172 45s94.334 73 125.001 129s46 116.333 46 181c0 76 -25.333 139.167 -76 189.5s-115.667 75.5 -195 75.5zM363.998 1567h221.001c11.333 -26.667 28.333 -45.667 51 -57c33.333 -16.667 74.666 -25 123.999 -25c45.333 0 84.5 6.83301 117.5 20.5
s59.5 34.167 79.5 61.5h221c-26 -86 -77.167 -154.167 -153.5 -204.5s-173.5 -75.5 -291.5 -75.5c-123.333 0 -215.833 25.833 -277.5 77.5s-92.167 119.167 -91.5 202.5z" />
    <glyph glyph-name="Gdot" unicode="&#x120;" horiz-adv-x="1720" 
d="M1541 1197l-230 -148.998c-66.667 76 -131 128.833 -193 158.5s-132.333 44.5 -211 44.5c-170 0 -308.333 -68.333 -415 -205c-84.667 -108.667 -127 -229.334 -127 -362.001c0 -130.667 43.5 -240.334 130.5 -329.001s194.167 -133 321.5 -133
c94.667 0 180.834 22.833 258.501 68.5s141.167 114.167 190.5 205.5h-459l34 261h744c-10.667 -243.333 -86.834 -436.5 -228.501 -579.5s-322.167 -214.5 -541.5 -214.5c-238.667 0 -426.334 82.667 -563.001 248c-110 132.667 -165 290.667 -165 474
c0 223.333 80.5 416.333 241.5 579s352.833 244 575.5 244c82.667 0 163.334 -12 242.001 -36s149.667 -57.667 213 -101s124 -101.333 182 -174zM977 1865c34.667 0 63.833 -11.667 87.5 -35s35.5 -51.333 35.5 -84c0 -46 -16 -85.333 -48 -118s-71 -49 -117 -49
c-37.333 0 -67.333 11.5 -90 34.5s-34 53.167 -34 90.5c0 42.667 16.5 80.167 49.5 112.5s71.833 48.5 116.5 48.5z" />
    <glyph glyph-name="gdot" unicode="&#x121;" horiz-adv-x="1352" 
d="M984 1088l266.999 0.00195312l-119 -871c-23.333 -172 -47.333 -286 -72 -342c-38.667 -86.667 -103.667 -158.5 -195 -215.5s-206 -85.5 -344 -85.5c-114.667 0 -214.5 22.167 -299.5 66.5s-148.5 101.5 -190.5 171.5l229 120c68.667 -72.667 158 -109 268 -109
c64 0 119.333 11.667 166 35s83 54.833 109 94.5s44.333 98.5 55 176.5c-96.667 -86 -206.334 -129 -329.001 -129c-85.333 0 -164.166 21.5 -236.499 64.5s-129.166 103.5 -170.499 181.5s-62 164.667 -62 260c0 107.333 27 208.166 81 302.499
s127.5 169.166 220.5 224.499s190.167 83 291.5 83c61.333 0 117 -12 167 -36s99 -64.333 147 -121zM666.999 864.002c-96.667 0 -178.168 -33.999 -244.501 -101.999s-99.5 -151.667 -99.5 -251c0 -80.667 24.667 -145.334 74 -194.001s115.333 -73 198 -73
c62 0 119.333 15 172 45s94.334 73 125.001 129s46 116.333 46 181c0 76 -25.333 139.167 -76 189.5s-115.667 75.5 -195 75.5zM745.998 1536c34.667 0 63.833 -11.667 87.5 -35s35.5 -51.333 35.5 -84c0 -46 -16 -85.333 -48 -118s-71 -49 -117 -49
c-37.333 0 -67.333 11.5 -90 34.5s-34 53.167 -34 90.5c0 42.667 16.5 80.167 49.5 112.5s71.833 48.5 116.5 48.5z" />
    <glyph glyph-name="Gcedilla" unicode="&#x122;" horiz-adv-x="1720" 
d="M1541 1197l-230 -148.998c-66.667 76 -131 128.833 -193 158.5s-132.333 44.5 -211 44.5c-170 0 -308.333 -68.333 -415 -205c-84.667 -108.667 -127 -229.334 -127 -362.001c0 -130.667 43.5 -240.334 130.5 -329.001s194.167 -133 321.5 -133
c94.667 0 180.834 22.833 258.501 68.5s141.167 114.167 190.5 205.5h-459l34 261h744c-10.667 -243.333 -86.834 -436.5 -228.501 -579.5s-322.167 -214.5 -541.5 -214.5c-238.667 0 -426.334 82.667 -563.001 248c-110 132.667 -165 290.667 -165 474
c0 223.333 80.5 416.333 241.5 579s352.833 244 575.5 244c82.667 0 163.334 -12 242.001 -36s149.667 -57.667 213 -101s124 -101.333 182 -174zM752 14.002h169l-18 -44c40 -10.667 70.333 -28.167 91 -52.5s31 -51.5 31 -81.5c0 -57.333 -25.833 -108 -77.5 -152
s-120.5 -66 -206.5 -66c-72 0 -144 15.667 -216 47l54 129c47.333 -16 93.333 -24 138 -24c35.333 0 62.833 7.66699 82.5 23s29.5 34.333 29.5 57c0 16 -5.5 28 -16.5 36s-31.833 12 -62.5 12l-51 -2z" />
    <glyph glyph-name="gcedilla" unicode="&#x123;" horiz-adv-x="1352" 
d="M984 1088l266.999 0.00195312l-119 -871c-23.333 -172 -47.333 -286 -72 -342c-38.667 -86.667 -103.667 -158.5 -195 -215.5s-206 -85.5 -344 -85.5c-114.667 0 -214.5 22.167 -299.5 66.5s-148.5 101.5 -190.5 171.5l229 120c68.667 -72.667 158 -109 268 -109
c64 0 119.333 11.667 166 35s83 54.833 109 94.5s44.333 98.5 55 176.5c-96.667 -86 -206.334 -129 -329.001 -129c-85.333 0 -164.166 21.5 -236.499 64.5s-129.166 103.5 -170.499 181.5s-62 164.667 -62 260c0 107.333 27 208.166 81 302.499
s127.5 169.166 220.5 224.499s190.167 83 291.5 83c61.333 0 117 -12 167 -36s99 -64.333 147 -121zM666.999 864.002c-96.667 0 -178.168 -33.999 -244.501 -101.999s-99.5 -151.667 -99.5 -251c0 -80.667 24.667 -145.334 74 -194.001s115.333 -73 198 -73
c62 0 119.333 15 172 45s94.334 73 125.001 129s46 116.333 46 181c0 76 -25.333 139.167 -76 189.5s-115.667 75.5 -195 75.5zM820.998 1249h-250.999l17 124c11.333 88.667 30.5 162.667 57.5 222s76.167 130.333 147.5 213l86 -75
c-56.667 -74 -95.334 -140 -116.001 -198h100z" />
    <glyph glyph-name="Hcircumflex" unicode="&#x124;" horiz-adv-x="1393" 
d="M266 1471h277l-74 -555h503l75 555h278l-200 -1471h-276l91 668h-507l-90 -668h-275zM736 1865h218l259 -282h-298l-90 130l-130 -130h-300z" />
    <glyph glyph-name="hcircumflex" unicode="&#x125;" 
d="M250 1508l265.001 0.00195312l-72 -530c102 92 208 138 318 138c94 0 171 -29.833 231 -89.5s90 -134.834 90 -225.501c0 -42.667 -5.66699 -106.334 -17 -191.001l-81 -610h-265l79 595c8 61.333 12 107.333 12 138c0 44 -12.5 77.833 -37.5 101.5
s-60.5 35.5 -106.5 35.5c-44.667 0 -89.334 -15.5 -134.001 -46.5s-79 -74 -103 -129s-46 -158.167 -66 -309.5l-51 -385h-266zM671.001 1865h218l259 -282h-298l-90 130l-130 -130h-300z" />
    <glyph glyph-name="Hbar" unicode="&#x126;" horiz-adv-x="1393" 
d="M519 1292h504l24 179h278l-24 -179h132l-22 -163h-133l-153 -1129h-276l91 668h-507l-90 -668h-275l152 1129h-132l22 163h132l24 179h277zM497 1129l-28 -213h503l29 213h-504z" />
    <glyph glyph-name="hbar" unicode="&#x127;" 
d="M498 1379l318.997 -0.000976562l-18 -158h-323l-33 -243c98 92 204 138 318 138c96.667 0 174.334 -30.5 233.001 -91.5s88 -135.5 88 -223.5c0 -42.667 -5.66699 -106.334 -17 -191.001l-81 -610h-265l79 595c8 60.667 12 106.334 12 137.001
c0 48.667 -14.167 83.834 -42.5 105.501s-62.166 32.5 -101.499 32.5c-48 0 -95 -17.333 -141 -52s-79.667 -80 -101 -136s-41.666 -155 -60.999 -297l-51 -385h-266l165 1221h-138l18 158h141l18 129h265z" />
    <glyph glyph-name="Itilde" unicode="&#x128;" horiz-adv-x="573" 
d="M256 1471h270l-203 -1471h-265zM70 1618l-86 164.999c59.333 38 109.5 63.667 150.5 77s82.167 20 123.5 20c31.333 0 72 -7 122 -21c79.333 -22 135 -33 167 -33c56.667 0 116.334 17 179.001 51l83 -155c-68 -48 -114.667 -76.667 -140 -86
c-40.667 -14.667 -81.334 -22 -122.001 -22s-90 9 -148 27c-47.333 14.667 -77 23.334 -89 26.001c-16 2.66699 -34 4 -54 4c-65.333 0 -127.333 -17.667 -186 -53z" />
    <glyph glyph-name="itilde" unicode="&#x129;" horiz-adv-x="491" 
d="M158 1088h264l-146 -1088h-266zM-4 1289l-86 164.999c59.333 38 109.5 63.667 150.5 77s82.167 20 123.5 20c31.333 0 72 -7 122 -21c79.333 -22 135 -33 167 -33c56.667 0 116.334 17 179.001 51l83 -155c-68 -48 -114.667 -76.667 -140 -86
c-40.667 -14.667 -81.334 -22 -122.001 -22s-90 9 -148 27c-47.333 14.667 -77 23.334 -89 26.001c-16 2.66699 -34 4 -54 4c-65.333 0 -127.333 -17.667 -186 -53z" />
    <glyph glyph-name="Imacron" unicode="&#x12a;" horiz-adv-x="573" 
d="M256 1471h270l-203 -1471h-265zM117 1616l31 221h569l-31 -221h-569z" />
    <glyph glyph-name="imacron" unicode="&#x12b;" horiz-adv-x="491" 
d="M158 1088h264l-146 -1088h-266zM21 1287l31 221h569l-31 -221h-569z" />
    <glyph glyph-name="Ibreve" unicode="&#x12c;" horiz-adv-x="573" 
d="M256 1471h270l-203 -1471h-265zM16 1896h221.001c11.333 -26.667 28.333 -45.667 51 -57c33.333 -16.667 74.666 -25 123.999 -25c45.333 0 84.5 6.83301 117.5 20.5s59.5 34.167 79.5 61.5h221c-26 -86 -77.167 -154.167 -153.5 -204.5s-173.5 -75.5 -291.5 -75.5
c-123.333 0 -215.833 25.833 -277.5 77.5s-92.167 119.167 -91.5 202.5z" />
    <glyph glyph-name="ibreve" unicode="&#x12d;" horiz-adv-x="491" 
d="M158 1088h264l-146 -1088h-266zM-43 1567h221.001c11.333 -26.667 28.333 -45.667 51 -57c33.333 -16.667 74.666 -25 123.999 -25c45.333 0 84.5 6.83301 117.5 20.5s59.5 34.167 79.5 61.5h221c-26 -86 -77.167 -154.167 -153.5 -204.5s-173.5 -75.5 -291.5 -75.5
c-123.333 0 -215.833 25.833 -277.5 77.5s-92.167 119.167 -91.5 202.5z" />
    <glyph glyph-name="Iogonek" unicode="&#x12e;" horiz-adv-x="573" 
d="M256 1471h270l-203 -1471h-265zM179 0l144 0.000976562c-110 -60 -165 -119.667 -165 -179c0 -23.333 8.5 -42.333 25.5 -57s39.167 -22 66.5 -22c22.667 0 53 9 91 27l-22 -159c-47.333 -10 -91 -15 -131 -15c-73.333 0 -128.166 15.333 -164.499 46s-54.5 70 -54.5 118
c0 44.667 17.667 88.667 53 132s87.666 79.666 156.999 108.999z" />
    <glyph glyph-name="iogonek" unicode="&#x12f;" horiz-adv-x="491" 
d="M324 1533c45.333 0 84.166 -16.167 116.499 -48.5s48.5 -71.166 48.5 -116.499s-16.167 -84.166 -48.5 -116.499s-71.166 -48.5 -116.499 -48.5s-84.166 16.167 -116.499 48.5s-48.5 71.166 -48.5 116.499s16.167 84.166 48.5 116.499s71.166 48.5 116.499 48.5z
M158 1088h264l-146 -1088h-266zM132 0l144 0.000976562c-110 -60 -165 -119.667 -165 -179c0 -23.333 8.5 -42.333 25.5 -57s39.167 -22 66.5 -22c22.667 0 53 9 91 27l-22 -159c-47.333 -10 -91 -15 -131 -15c-73.333 0 -128.166 15.333 -164.499 46s-54.5 70 -54.5 118
c0 44.667 17.667 88.667 53 132s87.666 79.666 156.999 108.999z" />
    <glyph glyph-name="Idot" unicode="&#x130;" horiz-adv-x="573" 
d="M256 1471h270l-203 -1471h-265zM441 1833c34.667 0 63.833 -11.667 87.5 -35s35.5 -51.333 35.5 -84c0 -46 -16 -85.333 -48 -118s-71 -49 -117 -49c-37.333 0 -67.333 11.5 -90 34.5s-34 53.167 -34 90.5c0 42.667 16.5 80.167 49.5 112.5s71.833 48.5 116.5 48.5z" />
    <glyph glyph-name="dotlessi" unicode="&#x131;" horiz-adv-x="491" 
d="M158 1088h264l-146 -1088h-266z" />
    <glyph glyph-name="IJ" unicode="&#x132;" horiz-adv-x="1556" 
d="M256 1471h270l-203 -1471h-265zM1216 1471h276.999l-139 -1038c-16 -121.333 -37.167 -214.166 -63.5 -278.499s-68.5 -112.333 -126.5 -144s-120.667 -47.5 -188 -47.5c-95.333 0 -182.333 27.667 -261 83s-141.334 127.666 -188.001 216.999l219 133
c73.333 -114 145.333 -171 216 -171c34.667 0 59.834 13.5 75.501 40.5s27.834 77.833 36.501 152.5z" />
    <glyph glyph-name="ij" unicode="&#x133;" horiz-adv-x="1024" 
d="M324 1533c45.333 0 84.167 -15.999 116.5 -47.999s48.5 -71 48.5 -117c0 -45.333 -16.167 -84.166 -48.5 -116.499s-71.166 -48.5 -116.499 -48.5c-46 0 -85 16.167 -117 48.5s-48 71.166 -48 116.499s16.167 84.166 48.5 116.499s71.166 48.5 116.499 48.5z
M840.001 1533c45.333 0 84.166 -16.001 116.499 -48.001s48.5 -71 48.5 -117c0 -45.333 -16.167 -84.166 -48.5 -116.499s-71.166 -48.5 -116.499 -48.5c-46 0 -85.167 16.167 -117.5 48.5s-48.5 71.166 -48.5 116.499c0 46.667 16.333 85.834 49 117.501
s71.667 47.5 117 47.5zM158.001 1088h264l-146 -1088h-266zM669.001 1088l266.001 0.00195312l-130 -963c-22.667 -170.667 -45.834 -287.834 -69.501 -351.501s-59.5 -112.834 -107.5 -147.501s-104 -52 -168 -52c-48.667 0 -103.334 13 -164.001 39l32 240
c28.667 -19.333 56.334 -29 83.001 -29c32.667 0 58 17.333 76 52s34 106 48 214z" />
    <glyph glyph-name="Jcircumflex" unicode="&#x134;" horiz-adv-x="983" 
d="M643 1471h276l-138 -1038c-18.667 -137.333 -42 -234.5 -70 -291.5s-68.667 -101 -122 -132s-115.666 -46.5 -186.999 -46.5c-88.667 0 -173.167 26 -253.5 78s-145.5 126 -195.5 222l219 133c38.667 -60 77 -103.5 115 -130.5s71.667 -40.5 101 -40.5
c31.333 0 55.666 12 72.999 36s30.333 76.333 39 157zM588 1865h218l259 -282h-298l-90 130l-130 -130h-300z" />
    <glyph glyph-name="jcircumflex" unicode="&#x135;" horiz-adv-x="533" 
d="M255 1536h219l259 -282h-298l-90 130l-130 -130h-300zM178 1088h266l-130 -963c-23.333 -170 -46.5 -286.833 -69.5 -350.5s-58.667 -113 -107 -148s-104.5 -52.5 -168.5 -52.5c-48.667 0 -103.334 13 -164.001 39l32 240c28.667 -19.333 56.334 -29 83.001 -29
c42 0 70.667 26 86 78s28 114.667 38 188z" />
    <glyph glyph-name="Kcedilla" unicode="&#x136;" horiz-adv-x="1270" 
d="M270 1471h277l-68 -500l474 500h342l-641 -673l507 -798h-309l-415 654l-89 -654h-274zM427 -14c41.333 2.66699 72.999 4 94.999 4c78 0 133.167 -15.5 165.5 -46.5s48.5 -67.167 48.5 -108.5c0 -53.333 -25.167 -102.833 -75.5 -148.5s-120.166 -68.5 -209.499 -68.5
c-55.333 0 -118.333 12 -189 36l53 131c45.333 -10.667 81.333 -16 108 -16c76.667 0 115 26.667 115 80c0 32 -24.333 48 -73 48c-16.667 0 -42 -1.66699 -76 -5zM729.999 -30z" />
    <glyph glyph-name="kcedilla" unicode="&#x137;" horiz-adv-x="1188" 
d="M246 1508h263l-107 -799l430 379h366l-550 -485l481 -603h-320l-430 536l-71 -536h-262zM385 -14c41.333 2.66699 72.999 4 94.999 4c78 0 133.167 -15.5 165.5 -46.5s48.5 -67.167 48.5 -108.5c0 -53.333 -25.167 -102.833 -75.5 -148.5s-120.166 -68.5 -209.499 -68.5
c-55.333 0 -118.333 12 -189 36l53 131c45.333 -10.667 81.333 -16 108 -16c76.667 0 115 26.667 115 80c0 32 -24.333 48 -73 48c-16.667 0 -42 -1.66699 -76 -5zM687.999 -30z" />
    <glyph glyph-name="kgreenlandic" unicode="&#x138;" horiz-adv-x="1188" 
d="M190 1088h263l-51 -379l430 379h366l-550 -485l481 -603h-320l-430 536l-71 -536h-262z" />
    <glyph glyph-name="Lacute" unicode="&#x139;" horiz-adv-x="901" 
d="M271 1471h277l-166 -1218h457l-32 -253h-735zM585 2006h323l-421 -391h-196z" />
    <glyph glyph-name="lacute" unicode="&#x13a;" horiz-adv-x="491" 
d="M214 1508h266l-200 -1508h-266zM540 2006h323l-421 -391h-196z" />
    <glyph glyph-name="Lcedilla" unicode="&#x13b;" horiz-adv-x="901" 
d="M271 1471h277l-166 -1218h457l-32 -253h-735zM267 -14c41.333 2.66699 72.999 4 94.999 4c78 0 133.167 -15.5 165.5 -46.5s48.5 -67.167 48.5 -108.5c0 -53.333 -25.167 -102.833 -75.5 -148.5s-120.166 -68.5 -209.499 -68.5c-55.333 0 -118.333 12 -189 36l53 131
c45.333 -10.667 81.333 -16 108 -16c76.667 0 115 26.667 115 80c0 32 -24.333 48 -73 48c-16.667 0 -42 -1.66699 -76 -5zM569.999 -30z" />
    <glyph glyph-name="lcedilla" unicode="&#x13c;" horiz-adv-x="491" 
d="M214 1508h266l-200 -1508h-266zM17 -14c41.333 2.66699 72.999 4 94.999 4c78 0 133.167 -15.5 165.5 -46.5s48.5 -67.167 48.5 -108.5c0 -53.333 -25.167 -102.833 -75.5 -148.5s-120.166 -68.5 -209.499 -68.5c-55.333 0 -118.333 12 -189 36l53 131
c45.333 -10.667 81.333 -16 108 -16c76.667 0 115 26.667 115 80c0 32 -24.333 48 -73 48c-16.667 0 -42 -1.66699 -76 -5zM319.999 -30z" />
    <glyph glyph-name="Lcaron" unicode="&#x13d;" horiz-adv-x="901" 
d="M271 1471h277l-166 -1218h457l-32 -253h-735zM671 1471h249.999l-16 -125c-8.66699 -66 -25.167 -132.833 -49.5 -200.5s-76.166 -145.834 -155.499 -234.501l-87 76c58.667 74.667 97.667 140.334 117 197.001h-101z" />
    <glyph glyph-name="lcaron" unicode="&#x13e;" horiz-adv-x="592" 
d="M213 1508h266l-200 -1508h-266zM554 1508h213l-14 -106c-8 -58.667 -22.5 -116.5 -43.5 -173.5s-64.833 -122.167 -131.5 -195.5l-73 64c50 64 83 120 99 168h-86z" />
    <glyph glyph-name="Ldot" unicode="&#x13f;" horiz-adv-x="901" 
d="M271 1471h277l-166 -1218h457l-32 -253h-735zM713 874c34.667 0 63.833 -11.667 87.5 -35s35.5 -51.333 35.5 -84c0 -46 -16 -85.333 -48 -118s-71 -49 -117 -49c-37.333 0 -67.333 11.5 -90 34.5s-34 53.167 -34 90.5c0 42.667 16.5 80.167 49.5 112.5
s71.833 48.5 116.5 48.5z" />
    <glyph glyph-name="ldot" unicode="&#x140;" horiz-adv-x="702" 
d="M214 1508h266l-200 -1508h-266zM588 874c34.667 0 63.833 -11.667 87.5 -35s35.5 -51.333 35.5 -84c0 -46 -16 -85.333 -48 -118s-71 -49 -117 -49c-37.333 0 -67.333 11.5 -90 34.5s-34 53.167 -34 90.5c0 42.667 16.5 80.167 49.5 112.5s71.833 48.5 116.5 48.5z" />
    <glyph glyph-name="Lslash" unicode="&#x141;" horiz-adv-x="901" 
d="M476 943l260 131l-24 -187l-262 -133l-68 -501h457l-32 -253h-735l81 602l-185 -94l25 192l186 93l92 678h277z" />
    <glyph glyph-name="lslash" unicode="&#x142;" horiz-adv-x="655" 
d="M486 930l174 98l-24 -195l-176 -97l-98 -736h-266l77 577l-174 -96l27 190l172 97l98 740h266z" />
    <glyph glyph-name="Nacute" unicode="&#x143;" horiz-adv-x="1515" 
d="M266 1471h242l533 -1000l135 1000h269l-198 -1471h-236l-540 1011l-135 -1011h-265zM1007 2006h323l-421 -391h-196z" />
    <glyph glyph-name="nacute" unicode="&#x144;" 
d="M193 1088l266.001 0.00195312l-16 -110c102 92 208 138 318 138c94 0 171 -29.833 231 -89.5s90 -134.834 90 -225.501c0 -42.667 -5.66699 -106.334 -17 -191.001l-81 -610h-265l79 595c8 61.333 12 107.333 12 138c0 44 -12.5 77.833 -37.5 101.5
s-60.5 35.5 -106.5 35.5c-44.667 0 -89.334 -15.5 -134.001 -46.5s-79 -74 -103 -129s-46 -158.167 -66 -309.5l-51 -385h-266zM815.001 1677h323l-421 -391h-196z" />
    <glyph glyph-name="Ncedilla" unicode="&#x145;" horiz-adv-x="1515" 
d="M266 1471h242l533 -1000l135 1000h269l-198 -1471h-236l-540 1011l-135 -1011h-265zM529 -14c41.333 2.66699 72.999 4 94.999 4c78 0 133.167 -15.5 165.5 -46.5s48.5 -67.167 48.5 -108.5c0 -53.333 -25.167 -102.833 -75.5 -148.5s-120.166 -68.5 -209.499 -68.5
c-55.333 0 -118.333 12 -189 36l53 131c45.333 -10.667 81.333 -16 108 -16c76.667 0 115 26.667 115 80c0 32 -24.333 48 -73 48c-16.667 0 -42 -1.66699 -76 -5zM831.999 -30z" />
    <glyph glyph-name="ncedilla" unicode="&#x146;" 
d="M193 1088l266.001 0.00195312l-16 -110c102 92 208 138 318 138c94 0 171 -29.833 231 -89.5s90 -134.834 90 -225.501c0 -42.667 -5.66699 -106.334 -17 -191.001l-81 -610h-265l79 595c8 61.333 12 107.333 12 138c0 44 -12.5 77.833 -37.5 101.5
s-60.5 35.5 -106.5 35.5c-44.667 0 -89.334 -15.5 -134.001 -46.5s-79 -74 -103 -129s-46 -158.167 -66 -309.5l-51 -385h-266zM406.001 -13.998c41.333 2.66699 72.999 4 94.999 4c78 0 133.167 -15.5 165.5 -46.5s48.5 -67.167 48.5 -108.5
c0 -53.333 -25.167 -102.833 -75.5 -148.5s-120.166 -68.5 -209.499 -68.5c-55.333 0 -118.333 12 -189 36l53 131c45.333 -10.667 81.333 -16 108 -16c76.667 0 115 26.667 115 80c0 32 -24.333 48 -73 48c-16.667 0 -42 -1.66699 -76 -5zM709 -29.998z" />
    <glyph glyph-name="Ncaron" unicode="&#x147;" horiz-adv-x="1515" 
d="M266 1471h242l533 -1000l135 1000h269l-198 -1471h-236l-540 1011l-135 -1011h-265zM987 1583h-218l-259 282h298l90 -130l130 130h300z" />
    <glyph glyph-name="ncaron" unicode="&#x148;" 
d="M193 1088l266.001 0.00195312l-16 -110c102 92 208 138 318 138c94 0 171 -29.833 231 -89.5s90 -134.834 90 -225.501c0 -42.667 -5.66699 -106.334 -17 -191.001l-81 -610h-265l79 595c8 61.333 12 107.333 12 138c0 44 -12.5 77.833 -37.5 101.5
s-60.5 35.5 -106.5 35.5c-44.667 0 -89.334 -15.5 -134.001 -46.5s-79 -74 -103 -129s-46 -158.167 -66 -309.5l-51 -385h-266zM825.001 1254h-218l-259 282h298l90 -130l130 130h300z" />
    <glyph glyph-name="napostrophe" unicode="&#x149;" horiz-adv-x="1294" 
d="M258 1088l266.001 0.00195312l-16 -110c102 92 208 138 318 138c94 0 171 -29.833 231 -89.5s90 -134.834 90 -225.501c0 -42.667 -5.66699 -106.334 -17 -191.001l-81 -610h-265l79 595c8 61.333 12 107.333 12 138c0 44 -12.5 77.833 -37.5 101.5
s-60.5 35.5 -106.5 35.5c-44.667 0 -89.334 -15.5 -134.001 -46.5s-79 -74 -103 -129s-46 -158.167 -66 -309.5l-51 -385h-266zM33.001 1508h250.999l-17 -125c-11.333 -88 -30.5 -161.667 -57.5 -221s-76.167 -130.333 -147.5 -213l-86 75
c56.667 73.333 95.334 139.333 116.001 198h-100z" />
    <glyph glyph-name="Eng" unicode="&#x14a;" horiz-adv-x="1598" 
d="M520 1302c134.667 137.333 284.667 206 450 206c147.333 0 275.5 -54.833 384.5 -164.5s163.5 -267.167 163.5 -472.5c0 -240.667 -57.167 -452.167 -171.5 -634.5s-275.5 -273.5 -483.5 -273.5c-84 0 -153.833 16.5 -209.5 49.5s-107.167 91.5 -154.5 175.5l210 154
c54.667 -80.667 115 -121 181 -121c96 0 178.333 61 247 183s103 262.667 103 422c0 138 -31.167 242.667 -93.5 314s-142.5 107 -240.5 107c-140.667 0 -284 -91 -430 -273l-133 -974h-275l198 1471h277z" />
    <glyph glyph-name="eng" unicode="&#x14b;" 
d="M490 -387l31.999 240.001c28.667 -19.333 56.334 -29 83.001 -29c38 0 65 20.5 81 61.5s30.667 109.167 44 204.5l68 505c8 59.333 12 104.666 12 135.999c0 50 -14.167 85.667 -42.5 107s-62.166 32 -101.499 32c-49.333 0 -97.166 -17.833 -143.499 -53.5
s-79.833 -82.167 -100.5 -139.5s-40.334 -154.666 -59.001 -291.999l-51 -385h-266l147 1088h266l-16 -110c98 92 204 138 318 138c95.333 0 172.666 -30.5 231.999 -91.5s89 -135.5 89 -223.5c0 -42.667 -5.66699 -106.334 -17 -191.001l-80 -597
c-23.333 -178 -64.166 -295.667 -122.499 -353s-127.833 -86 -208.5 -86c-48.667 0 -103.334 13 -164.001 39z" />
    <glyph glyph-name="Omacron" unicode="&#x14c;" horiz-adv-x="1720" 
d="M945 1508c202 0 368.667 -64.999 500 -194.999s197 -295 197 -495c0 -153.333 -38.833 -297.833 -116.5 -433.5s-181 -239.834 -310 -312.501s-277.167 -109 -444.5 -109c-209.333 0 -376.5 62 -501.5 186s-187.5 287.333 -187.5 490c0 230 74.667 427.667 224 593
c166.667 184 379.667 276 639 276zM935 1247c-105.333 0 -201.5 -25.5 -288.5 -76.5s-157.167 -124.333 -210.5 -220s-80 -194.5 -80 -296.5c0 -120.667 37 -223 111 -307s180.333 -126 319 -126c160.667 0 297.167 56.667 409.5 170s168.5 251 168.5 413
c0 134 -39.5 241.333 -118.5 322s-182.5 121 -310.5 121zM687 1616l31 221h569l-31 -221h-569z" />
    <glyph glyph-name="omacron" unicode="&#x14d;" horiz-adv-x="1311" 
d="M684 1116c96.667 0 184.5 -22.334 263.5 -67.001s140.5 -108 184.5 -190s66 -174 66 -276c0 -169.333 -60.333 -313.5 -181 -432.5s-270 -178.5 -448 -178.5c-154.667 0 -278 46.833 -370 140.5s-138 216.167 -138 367.5c0 182.667 62.333 334.334 187 455.001
s270 181 436 181zM665 862.999c-109.333 0 -193.167 -39.168 -251.5 -117.501s-87.5 -163.166 -87.5 -254.499c0 -81.333 23.833 -146.833 71.5 -196.5s111.167 -74.5 190.5 -74.5c112.667 0 198.5 37.833 257.5 113.5s88.5 162.167 88.5 259.5c0 80 -25 145 -75 195
s-114.667 75 -194 75zM419.999 1287l31 221h569l-31 -221h-569z" />
    <glyph glyph-name="Obreve" unicode="&#x14e;" horiz-adv-x="1720" 
d="M945 1508c202 0 368.667 -64.999 500 -194.999s197 -295 197 -495c0 -153.333 -38.833 -297.833 -116.5 -433.5s-181 -239.834 -310 -312.501s-277.167 -109 -444.5 -109c-209.333 0 -376.5 62 -501.5 186s-187.5 287.333 -187.5 490c0 230 74.667 427.667 224 593
c166.667 184 379.667 276 639 276zM935 1247c-105.333 0 -201.5 -25.5 -288.5 -76.5s-157.167 -124.333 -210.5 -220s-80 -194.5 -80 -296.5c0 -120.667 37 -223 111 -307s180.333 -126 319 -126c160.667 0 297.167 56.667 409.5 170s168.5 251 168.5 413
c0 134 -39.5 241.333 -118.5 322s-182.5 121 -310.5 121zM585 1896h221.001c11.333 -26.667 28.333 -45.667 51 -57c33.333 -16.667 74.666 -25 123.999 -25c45.333 0 84.5 6.83301 117.5 20.5s59.5 34.167 79.5 61.5h221c-26 -86 -77.167 -154.167 -153.5 -204.5
s-173.5 -75.5 -291.5 -75.5c-123.333 0 -215.833 25.833 -277.5 77.5s-92.167 119.167 -91.5 202.5z" />
    <glyph glyph-name="obreve" unicode="&#x14f;" horiz-adv-x="1311" 
d="M684 1116c96.667 0 184.5 -22.334 263.5 -67.001s140.5 -108 184.5 -190s66 -174 66 -276c0 -169.333 -60.333 -313.5 -181 -432.5s-270 -178.5 -448 -178.5c-154.667 0 -278 46.833 -370 140.5s-138 216.167 -138 367.5c0 182.667 62.333 334.334 187 455.001
s270 181 436 181zM665 862.999c-109.333 0 -193.167 -39.168 -251.5 -117.501s-87.5 -163.166 -87.5 -254.499c0 -81.333 23.833 -146.833 71.5 -196.5s111.167 -74.5 190.5 -74.5c112.667 0 198.5 37.833 257.5 113.5s88.5 162.167 88.5 259.5c0 80 -25 145 -75 195
s-114.667 75 -194 75zM335.999 1567h221.001c11.333 -26.667 28.333 -45.667 51 -57c33.333 -16.667 74.666 -25 123.999 -25c45.333 0 84.5 6.83301 117.5 20.5s59.5 34.167 79.5 61.5h221c-26 -86 -77.167 -154.167 -153.5 -204.5s-173.5 -75.5 -291.5 -75.5
c-123.333 0 -215.833 25.833 -277.5 77.5s-92.167 119.167 -91.5 202.5z" />
    <glyph glyph-name="Odblacute" unicode="&#x150;" horiz-adv-x="1720" 
d="M945 1508c202 0 368.667 -64.999 500 -194.999s197 -295 197 -495c0 -153.333 -38.833 -297.833 -116.5 -433.5s-181 -239.834 -310 -312.501s-277.167 -109 -444.5 -109c-209.333 0 -376.5 62 -501.5 186s-187.5 287.333 -187.5 490c0 230 74.667 427.667 224 593
c166.667 184 379.667 276 639 276zM935 1247c-105.333 0 -201.5 -25.5 -288.5 -76.5s-157.167 -124.333 -210.5 -220s-80 -194.5 -80 -296.5c0 -120.667 37 -223 111 -307s180.333 -126 319 -126c160.667 0 297.167 56.667 409.5 170s168.5 251 168.5 413
c0 134 -39.5 241.333 -118.5 322s-182.5 121 -310.5 121zM979 2008h323l-421 -392h-196zM1425 2008h323l-420 -392h-197z" />
    <glyph glyph-name="odblacute" unicode="&#x151;" horiz-adv-x="1311" 
d="M684 1116c96.667 0 184.5 -22.334 263.5 -67.001s140.5 -108 184.5 -190s66 -174 66 -276c0 -169.333 -60.333 -313.5 -181 -432.5s-270 -178.5 -448 -178.5c-154.667 0 -278 46.833 -370 140.5s-138 216.167 -138 367.5c0 182.667 62.333 334.334 187 455.001
s270 181 436 181zM665 862.999c-109.333 0 -193.167 -39.168 -251.5 -117.501s-87.5 -163.166 -87.5 -254.499c0 -81.333 23.833 -146.833 71.5 -196.5s111.167 -74.5 190.5 -74.5c112.667 0 198.5 37.833 257.5 113.5s88.5 162.167 88.5 259.5c0 80 -25 145 -75 195
s-114.667 75 -194 75zM653.999 1679h323l-421 -392h-196zM1100 1679h323l-420 -392h-197z" />
    <glyph glyph-name="OE" unicode="&#x152;" horiz-adv-x="2171" 
d="M1420 1471l742 0.000976562l-34 -259h-471l-39 -306h472l-35 -260h-472l-52 -388h477l-37 -258h-747l17 120c-68.667 -55.333 -141.167 -95.333 -217.5 -120s-164.833 -37 -265.5 -37c-225.333 0 -397 66 -515 198s-177 293.333 -177 484
c0 157.333 38 302.666 114 435.999s180 237.833 312 313.5s276.333 113.5 433 113.5c96.667 0 182.5 -14.833 257.5 -44.5s147.833 -78.167 218.5 -145.5zM919 1247c-102.667 0 -198.166 -25.998 -286.499 -77.998s-158.333 -124.333 -210 -217
s-77.5 -193.334 -77.5 -302.001c0 -128.667 38.667 -232.334 116 -311.001s179.666 -118 306.999 -118c158.667 0 293 56.5 403 169.5s165 252.833 165 419.5c0 130.667 -39 236.167 -117 316.5s-178 120.5 -300 120.5z" />
    <glyph glyph-name="oe" unicode="&#x153;" horiz-adv-x="2212" 
d="M2079 467l-869.003 -0.00390625c0.666992 -62.667 22.834 -119.834 66.501 -171.501s111.834 -77.5 204.501 -77.5c104 0 192 33.667 264 101l236 -121c-56.667 -70.667 -128.334 -126 -215.001 -166s-183 -60 -289 -60c-91.333 0 -171.5 14.833 -240.5 44.5
s-132.833 76.834 -191.5 141.501c-62 -62 -130.5 -108.5 -205.5 -139.5s-156.5 -46.5 -244.5 -46.5c-114.667 0 -207.167 19.333 -277.5 58s-127.833 98.667 -172.5 180s-67 172.333 -67 273c0 172 61.333 320.5 184 445.5s266.334 187.5 431.001 187.5
c86.667 0 165 -16.667 235 -50s131.333 -83.666 184 -150.999c62.667 66.667 133.334 116.834 212.001 150.501s160 50.5 244 50.5c96 0 184.167 -23.167 264.5 -69.5s142.833 -111.666 187.5 -195.999s67 -177.166 67 -278.499c0 -28 -2.66699 -63 -8 -105zM1814 660.996
c-19.333 64.667 -53 115 -101 151s-104.333 54 -169 54c-135.333 0 -235.333 -68.333 -300 -205h570zM676.997 863.996c-90.667 0 -168.834 -35.168 -234.501 -105.501s-98.5 -159.166 -98.5 -266.499c0 -84.667 23.833 -151.5 71.5 -200.5s111.834 -73.5 192.501 -73.5
c98 0 178 34 240 102c70.667 76.667 106 168.667 106 276c0 75.333 -26.167 138.833 -78.5 190.5s-118.5 77.5 -198.5 77.5z" />
    <glyph glyph-name="Racute" unicode="&#x154;" horiz-adv-x="1188" 
d="M281 1471h257c158.667 0 270.334 -13.667 335.001 -41c80.667 -34 141.5 -81.167 182.5 -141.5s61.5 -131.833 61.5 -214.5c0 -102 -30.333 -189.5 -91 -262.5s-152.334 -123.833 -275.001 -152.5l321 -659h-286l-314 642h-26l-85 -642h-276zM478 883
c151.333 0.666992 249.833 16.168 295.5 46.501s68.5 75.833 68.5 136.5c0 34.667 -9.16699 63.667 -27.5 87s-44.833 39.666 -79.5 48.999s-105 14 -211 14zM777 2006h323l-421 -391h-196z" />
    <glyph glyph-name="racute" unicode="&#x155;" horiz-adv-x="655" 
d="M126 1088l237.998 -0.000976562l-19 -148c71.333 117.333 157 176 257 176c24 0 49 -6.33301 75 -19l-96 -241c-20 6 -34.667 9 -44 9c-51.333 0 -97.166 -30.167 -137.499 -90.5s-72.166 -182.166 -95.499 -365.499l-52 -409h-268zM564.998 1677h323l-421 -391h-196z
" />
    <glyph glyph-name="Rcedilla" unicode="&#x156;" horiz-adv-x="1188" 
d="M281 1471h257c158.667 0 270.334 -13.667 335.001 -41c80.667 -34 141.5 -81.167 182.5 -141.5s61.5 -131.833 61.5 -214.5c0 -102 -30.333 -189.5 -91 -262.5s-152.334 -123.833 -275.001 -152.5l321 -659h-286l-314 642h-26l-85 -642h-276zM478 883
c151.333 0.666992 249.833 16.168 295.5 46.501s68.5 75.833 68.5 136.5c0 34.667 -9.16699 63.667 -27.5 87s-44.833 39.666 -79.5 48.999s-105 14 -211 14zM415 -13.999c41.333 2.66699 72.999 4 94.999 4c78 0 133.167 -15.5 165.5 -46.5s48.5 -67.167 48.5 -108.5
c0 -53.333 -25.167 -102.833 -75.5 -148.5s-120.166 -68.5 -209.499 -68.5c-55.333 0 -118.333 12 -189 36l53 131c45.333 -10.667 81.333 -16 108 -16c76.667 0 115 26.667 115 80c0 32 -24.333 48 -73 48c-16.667 0 -42 -1.66699 -76 -5zM717.999 -29.999z" />
    <glyph glyph-name="rcedilla" unicode="&#x157;" horiz-adv-x="655" 
d="M126 1088l237.998 -0.000976562l-19 -148c71.333 117.333 157 176 257 176c24 0 49 -6.33301 75 -19l-96 -241c-20 6 -34.667 9 -44 9c-51.333 0 -97.166 -30.167 -137.499 -90.5s-72.166 -182.166 -95.499 -365.499l-52 -409h-268zM86.998 -14.001
c41.333 2.66699 72.999 4 94.999 4c78 0 133.167 -15.5 165.5 -46.5s48.5 -67.167 48.5 -108.5c0 -53.333 -25.167 -102.833 -75.5 -148.5s-120.166 -68.5 -209.499 -68.5c-55.333 0 -118.333 12 -189 36l53 131c45.333 -10.667 81.333 -16 108 -16
c76.667 0 115 26.667 115 80c0 32 -24.333 48 -73 48c-16.667 0 -42 -1.66699 -76 -5zM389.997 -30.001z" />
    <glyph glyph-name="Rcaron" unicode="&#x158;" horiz-adv-x="1188" 
d="M281 1471h257c158.667 0 270.334 -13.667 335.001 -41c80.667 -34 141.5 -81.167 182.5 -141.5s61.5 -131.833 61.5 -214.5c0 -102 -30.333 -189.5 -91 -262.5s-152.334 -123.833 -275.001 -152.5l321 -659h-286l-314 642h-26l-85 -642h-276zM478 883
c151.333 0.666992 249.833 16.168 295.5 46.501s68.5 75.833 68.5 136.5c0 34.667 -9.16699 63.667 -27.5 87s-44.833 39.666 -79.5 48.999s-105 14 -211 14zM825 1583h-218l-259 282h298l90 -130l130 130h300z" />
    <glyph glyph-name="rcaron" unicode="&#x159;" horiz-adv-x="655" 
d="M126 1088l237.998 -0.000976562l-19 -148c71.333 117.333 157 176 257 176c24 0 49 -6.33301 75 -19l-96 -241c-20 6 -34.667 9 -44 9c-51.333 0 -97.166 -30.167 -137.499 -90.5s-72.166 -182.166 -95.499 -365.499l-52 -409h-268zM564.998 1254h-218l-259 282h298
l90 -130l130 130h300z" />
    <glyph glyph-name="Sacute" unicode="&#x15a;" horiz-adv-x="1065" 
d="M1017 1266l-200.999 -178.001c-82.667 106.667 -159.667 160 -231 160c-35.333 0 -64.666 -10.5 -87.999 -31.5s-35 -46.167 -35 -75.5c0 -27.333 10.667 -57.666 32 -90.999s86 -107 194 -221c57.333 -60.667 95 -103.667 113 -129
c43.333 -58.667 74.5 -113.5 93.5 -164.5s28.5 -102.833 28.5 -155.5c0 -118 -42 -217 -126 -297s-191.667 -120 -323 -120c-200 0 -363 95 -489 285l212 171c85.333 -130 177.666 -195 276.999 -195c47.333 0 87.166 15.333 119.499 46s48.5 67.667 48.5 111
c0 34 -9.83301 68.667 -29.5 104s-75.834 102 -168.501 200c-98 103.333 -162.333 181.333 -193 234c-41.333 71.333 -62 141.333 -62 210c0 90.667 29.667 172 89 244c74.667 90 175.334 135 302.001 135c174 0 319.667 -80.667 437 -242zM777.001 2006h323l-421 -391h-196
z" />
    <glyph glyph-name="sacute" unicode="&#x15b;" horiz-adv-x="901" 
d="M790 936l-126.999 -204.004c-32.667 48.667 -67 84.5 -103 107.5s-69.667 34.5 -101 34.5c-24 0 -44.333 -6.66699 -61 -20s-25 -28.333 -25 -45c0 -16 6.66699 -32 20 -48c12.667 -16 51 -47 115 -93c102 -73.333 169.167 -136.166 201.5 -188.499
s48.5 -109.166 48.5 -170.499c0 -80.667 -33.167 -157 -99.5 -229s-162.5 -108 -288.5 -108c-72.667 0 -138.834 14.667 -198.501 44s-126.167 83 -199.5 161l165 192c74.667 -98.667 156.334 -148 245.001 -148c35.333 0 63.5 8.5 84.5 25.5s31.5 37.167 31.5 60.5
c0 18.667 -8 37.834 -24 57.501s-59.667 54.834 -131 105.501c-82.667 58.667 -139.667 109 -171 151c-44 58.667 -66 120.667 -66 186c0 91.333 34.5 165.666 103.5 222.999s150.5 86 244.5 86c66 0 128.667 -15.667 188 -47s108.666 -75.666 147.999 -132.999z
M590.001 1677h323l-421 -391h-196z" />
    <glyph glyph-name="Scircumflex" unicode="&#x15c;" horiz-adv-x="1065" 
d="M1017 1266l-200.999 -178.001c-82.667 106.667 -159.667 160 -231 160c-35.333 0 -64.666 -10.5 -87.999 -31.5s-35 -46.167 -35 -75.5c0 -27.333 10.667 -57.666 32 -90.999s86 -107 194 -221c57.333 -60.667 95 -103.667 113 -129
c43.333 -58.667 74.5 -113.5 93.5 -164.5s28.5 -102.833 28.5 -155.5c0 -118 -42 -217 -126 -297s-191.667 -120 -323 -120c-200 0 -363 95 -489 285l212 171c85.333 -130 177.666 -195 276.999 -195c47.333 0 87.166 15.333 119.499 46s48.5 67.667 48.5 111
c0 34 -9.83301 68.667 -29.5 104s-75.834 102 -168.501 200c-98 103.333 -162.333 181.333 -193 234c-41.333 71.333 -62 141.333 -62 210c0 90.667 29.667 172 89 244c74.667 90 175.334 135 302.001 135c174 0 319.667 -80.667 437 -242zM541.001 1865h218l259 -282h-298
l-90 130l-130 -130h-300z" />
    <glyph glyph-name="scircumflex" unicode="&#x15d;" horiz-adv-x="901" 
d="M790 936l-126.999 -204.004c-32.667 48.667 -67 84.5 -103 107.5s-69.667 34.5 -101 34.5c-24 0 -44.333 -6.66699 -61 -20s-25 -28.333 -25 -45c0 -16 6.66699 -32 20 -48c12.667 -16 51 -47 115 -93c102 -73.333 169.167 -136.166 201.5 -188.499
s48.5 -109.166 48.5 -170.499c0 -80.667 -33.167 -157 -99.5 -229s-162.5 -108 -288.5 -108c-72.667 0 -138.834 14.667 -198.501 44s-126.167 83 -199.5 161l165 192c74.667 -98.667 156.334 -148 245.001 -148c35.333 0 63.5 8.5 84.5 25.5s31.5 37.167 31.5 60.5
c0 18.667 -8 37.834 -24 57.501s-59.667 54.834 -131 105.501c-82.667 58.667 -139.667 109 -171 151c-44 58.667 -66 120.667 -66 186c0 91.333 34.5 165.666 103.5 222.999s150.5 86 244.5 86c66 0 128.667 -15.667 188 -47s108.666 -75.666 147.999 -132.999z
M388.001 1536h218l259 -282h-298l-90 130l-130 -130h-300z" />
    <glyph glyph-name="Scedilla" unicode="&#x15e;" horiz-adv-x="1065" 
d="M1017 1266l-200.999 -178.001c-82.667 106.667 -159.667 160 -231 160c-35.333 0 -64.666 -10.5 -87.999 -31.5s-35 -46.167 -35 -75.5c0 -27.333 10.667 -57.666 32 -90.999s86 -107 194 -221c57.333 -60.667 95 -103.667 113 -129
c43.333 -58.667 74.5 -113.5 93.5 -164.5s28.5 -102.833 28.5 -155.5c0 -118 -42 -217 -126 -297s-191.667 -120 -323 -120c-200 0 -363 95 -489 285l212 171c85.333 -130 177.666 -195 276.999 -195c47.333 0 87.166 15.333 119.499 46s48.5 67.667 48.5 111
c0 34 -9.83301 68.667 -29.5 104s-75.834 102 -168.501 200c-98 103.333 -162.333 181.333 -193 234c-41.333 71.333 -62 141.333 -62 210c0 90.667 29.667 172 89 244c74.667 90 175.334 135 302.001 135c174 0 319.667 -80.667 437 -242zM388.001 13.999h169l-18 -44
c40 -10.667 70.333 -28.167 91 -52.5s31 -51.5 31 -81.5c0 -57.333 -25.833 -108 -77.5 -152s-120.5 -66 -206.5 -66c-72 0 -144 15.667 -216 47l54 129c47.333 -16 93.333 -24 138 -24c35.333 0 62.833 7.66699 82.5 23s29.5 34.333 29.5 57c0 16 -5.5 28 -16.5 36
s-31.833 12 -62.5 12l-51 -2z" />
    <glyph glyph-name="scedilla" unicode="&#x15f;" horiz-adv-x="901" 
d="M790 936l-126.999 -204.004c-32.667 48.667 -67 84.5 -103 107.5s-69.667 34.5 -101 34.5c-24 0 -44.333 -6.66699 -61 -20s-25 -28.333 -25 -45c0 -16 6.66699 -32 20 -48c12.667 -16 51 -47 115 -93c102 -73.333 169.167 -136.166 201.5 -188.499
s48.5 -109.166 48.5 -170.499c0 -80.667 -33.167 -157 -99.5 -229s-162.5 -108 -288.5 -108c-72.667 0 -138.834 14.667 -198.501 44s-126.167 83 -199.5 161l165 192c74.667 -98.667 156.334 -148 245.001 -148c35.333 0 63.5 8.5 84.5 25.5s31.5 37.167 31.5 60.5
c0 18.667 -8 37.834 -24 57.501s-59.667 54.834 -131 105.501c-82.667 58.667 -139.667 109 -171 151c-44 58.667 -66 120.667 -66 186c0 91.333 34.5 165.666 103.5 222.999s150.5 86 244.5 86c66 0 128.667 -15.667 188 -47s108.666 -75.666 147.999 -132.999z
M271.001 13.9961h169l-18 -44c40 -10.667 70.333 -28.167 91 -52.5s31 -51.5 31 -81.5c0 -57.333 -25.833 -108 -77.5 -152s-120.5 -66 -206.5 -66c-72 0 -144 15.667 -216 47l54 129c47.333 -16 93.333 -24 138 -24c35.333 0 62.833 7.66699 82.5 23s29.5 34.333 29.5 57
c0 16 -5.5 28 -16.5 36s-31.833 12 -62.5 12l-51 -2z" />
    <glyph glyph-name="Scaron" unicode="&#x160;" horiz-adv-x="1065" 
d="M1017 1266l-200.999 -178.001c-82.667 106.667 -159.667 160 -231 160c-35.333 0 -64.666 -10.5 -87.999 -31.5s-35 -46.167 -35 -75.5c0 -27.333 10.667 -57.666 32 -90.999s86 -107 194 -221c57.333 -60.667 95 -103.667 113 -129
c43.333 -58.667 74.5 -113.5 93.5 -164.5s28.5 -102.833 28.5 -155.5c0 -118 -42 -217 -126 -297s-191.667 -120 -323 -120c-200 0 -363 95 -489 285l212 171c85.333 -130 177.666 -195 276.999 -195c47.333 0 87.166 15.333 119.499 46s48.5 67.667 48.5 111
c0 34 -9.83301 68.667 -29.5 104s-75.834 102 -168.501 200c-98 103.333 -162.333 181.333 -193 234c-41.333 71.333 -62 141.333 -62 210c0 90.667 29.667 172 89 244c74.667 90 175.334 135 302.001 135c174 0 319.667 -80.667 437 -242zM764.001 1583h-218l-259 282h298
l90 -130l130 130h300z" />
    <glyph glyph-name="scaron" unicode="&#x161;" horiz-adv-x="901" 
d="M790 936l-126.999 -204.004c-32.667 48.667 -67 84.5 -103 107.5s-69.667 34.5 -101 34.5c-24 0 -44.333 -6.66699 -61 -20s-25 -28.333 -25 -45c0 -16 6.66699 -32 20 -48c12.667 -16 51 -47 115 -93c102 -73.333 169.167 -136.166 201.5 -188.499
s48.5 -109.166 48.5 -170.499c0 -80.667 -33.167 -157 -99.5 -229s-162.5 -108 -288.5 -108c-72.667 0 -138.834 14.667 -198.501 44s-126.167 83 -199.5 161l165 192c74.667 -98.667 156.334 -148 245.001 -148c35.333 0 63.5 8.5 84.5 25.5s31.5 37.167 31.5 60.5
c0 18.667 -8 37.834 -24 57.501s-59.667 54.834 -131 105.501c-82.667 58.667 -139.667 109 -171 151c-44 58.667 -66 120.667 -66 186c0 91.333 34.5 165.666 103.5 222.999s150.5 86 244.5 86c66 0 128.667 -15.667 188 -47s108.666 -75.666 147.999 -132.999z
M622.001 1254h-218l-259 282h298l90 -130l130 130h300z" />
    <glyph glyph-name="Tcedilla" unicode="&#x162;" horiz-adv-x="860" 
d="M79 1471h898l-32 -262h-313l-159 -1209h-274l159 1209h-313zM239 -121l179.001 -0.000976562l-4 -29c-12 -85.333 -26.333 -144.166 -43 -176.499s-48.334 -66.166 -95.001 -101.499l-45 54c34 25.333 58.333 54.666 73 87.999h-89z" />
    <glyph glyph-name="tcedilla" unicode="&#x163;" horiz-adv-x="614" 
d="M249 1492h266l-56 -404h169l-32 -230h-168l-117 -858h-267l118 858h-131l31 230h131zM83 -121l179.001 -0.000976562l-4 -29c-12 -85.333 -26.333 -144.166 -43 -176.499s-48.334 -66.166 -95.001 -101.499l-45 54c34 25.333 58.333 54.666 73 87.999h-89z" />
    <glyph glyph-name="Tcaron" unicode="&#x164;" horiz-adv-x="860" 
d="M79 1471h898l-32 -262h-313l-159 -1209h-274l159 1209h-313zM625 1583h-218l-259 282h298l90 -130l130 130h300z" />
    <glyph glyph-name="tcaron" unicode="&#x165;" horiz-adv-x="742" 
d="M675 1508l213.001 -0.000976562l-5 -32c-11.333 -76 -28.5 -140.167 -51.5 -192.5s-61.5 -108.166 -115.5 -167.499l-74 64c45.333 58 75.666 111 90.999 159h-85zM249.001 1492h266l-56 -404h169l-32 -230h-168l-117 -858h-267l118 858h-131l31 230h131z" />
    <glyph glyph-name="Tbar" unicode="&#x166;" horiz-adv-x="860" 
d="M577 792h241l-21 -163h-241l-82 -629h-274l82 629h-242l22 163h241l55 417h-313l34 262h898l-32 -262h-313z" />
    <glyph glyph-name="tbar" unicode="&#x167;" horiz-adv-x="614" 
d="M394 610h192l-22 -158h-191l-62 -452h-267l62 452h-155l22 158h155l34 248h-131l31 230h131l56 404h265l-55 -404h169l-32 -230h-168z" />
    <glyph glyph-name="Utilde" unicode="&#x168;" horiz-adv-x="1311" 
d="M260 1471l275.001 0.000976562l-122 -908c-10.667 -79.333 -16 -135.333 -16 -168c0 -55.333 17.167 -98.5 51.5 -129.5s84.166 -46.5 149.499 -46.5c52.667 0 98.667 11.667 138 35c29.333 17.333 52.833 46.166 70.5 86.499s34.834 120.5 51.501 240.5l123 890h278
l-120 -878c-24.667 -180.667 -57 -310.334 -97 -389.001s-97.833 -138.5 -173.5 -179.5s-167.834 -61.5 -276.501 -61.5c-146.667 0 -261 39 -343 117s-123 184.667 -123 320c0 58.667 8 145.334 24 260.001zM459.001 1618l-86 164.999c59.333 38 109.5 63.667 150.5 77
s82.167 20 123.5 20c31.333 0 72 -7 122 -21c79.333 -22 135 -33 167 -33c56.667 0 116.334 17 179.001 51l83 -155c-68 -48 -114.667 -76.667 -140 -86c-40.667 -14.667 -81.334 -22 -122.001 -22s-90 9 -148 27c-47.333 14.667 -77 23.334 -89 26.001
c-16 2.66699 -34 4 -54 4c-65.333 0 -127.333 -17.667 -186 -53z" />
    <glyph glyph-name="utilde" unicode="&#x169;" 
d="M195 1088h264.001l-73 -556c-8 -61.333 -12 -107.333 -12 -138c0 -48 16.667 -88.333 50 -121s76.666 -49 129.999 -49c68.667 0 121.5 21 158.5 63s64.167 127.333 81.5 256l75 545h264l-79 -585c-18 -132 -48.167 -234.167 -90.5 -306.5s-98.5 -127.833 -168.5 -166.5
s-152.333 -58 -247 -58c-133.333 0 -239.333 38.5 -318 115.5s-118 176.5 -118 298.5c0 74.667 8.33301 170.667 25 288zM369.001 1289l-86 164.999c59.333 38 109.5 63.667 150.5 77s82.167 20 123.5 20c31.333 0 72 -7 122 -21c79.333 -22 135 -33 167 -33
c56.667 0 116.334 17 179.001 51l83 -155c-68 -48 -114.667 -76.667 -140 -86c-40.667 -14.667 -81.334 -22 -122.001 -22s-90 9 -148 27c-47.333 14.667 -77 23.334 -89 26.001c-16 2.66699 -34 4 -54 4c-65.333 0 -127.333 -17.667 -186 -53z" />
    <glyph glyph-name="Umacron" unicode="&#x16a;" horiz-adv-x="1311" 
d="M260 1471l275.001 0.000976562l-122 -908c-10.667 -79.333 -16 -135.333 -16 -168c0 -55.333 17.167 -98.5 51.5 -129.5s84.166 -46.5 149.499 -46.5c52.667 0 98.667 11.667 138 35c29.333 17.333 52.833 46.166 70.5 86.499s34.834 120.5 51.501 240.5l123 890h278
l-120 -878c-24.667 -180.667 -57 -310.334 -97 -389.001s-97.833 -138.5 -173.5 -179.5s-167.834 -61.5 -276.501 -61.5c-146.667 0 -261 39 -343 117s-123 184.667 -123 320c0 58.667 8 145.334 24 260.001zM493.001 1616l31 221h569l-31 -221h-569z" />
    <glyph glyph-name="umacron" unicode="&#x16b;" 
d="M195 1088h264.001l-73 -556c-8 -61.333 -12 -107.333 -12 -138c0 -48 16.667 -88.333 50 -121s76.666 -49 129.999 -49c68.667 0 121.5 21 158.5 63s64.167 127.333 81.5 256l75 545h264l-79 -585c-18 -132 -48.167 -234.167 -90.5 -306.5s-98.5 -127.833 -168.5 -166.5
s-152.333 -58 -247 -58c-133.333 0 -239.333 38.5 -318 115.5s-118 176.5 -118 298.5c0 74.667 8.33301 170.667 25 288zM400.001 1287l31 221h569l-31 -221h-569z" />
    <glyph glyph-name="Ubreve" unicode="&#x16c;" horiz-adv-x="1311" 
d="M260 1471l275.001 0.000976562l-122 -908c-10.667 -79.333 -16 -135.333 -16 -168c0 -55.333 17.167 -98.5 51.5 -129.5s84.166 -46.5 149.499 -46.5c52.667 0 98.667 11.667 138 35c29.333 17.333 52.833 46.166 70.5 86.499s34.834 120.5 51.501 240.5l123 890h278
l-120 -878c-24.667 -180.667 -57 -310.334 -97 -389.001s-97.833 -138.5 -173.5 -179.5s-167.834 -61.5 -276.501 -61.5c-146.667 0 -261 39 -343 117s-123 184.667 -123 320c0 58.667 8 145.334 24 260.001zM415.001 1896h221.001c11.333 -26.667 28.333 -45.667 51 -57
c33.333 -16.667 74.666 -25 123.999 -25c45.333 0 84.5 6.83301 117.5 20.5s59.5 34.167 79.5 61.5h221c-26 -86 -77.167 -154.167 -153.5 -204.5s-173.5 -75.5 -291.5 -75.5c-123.333 0 -215.833 25.833 -277.5 77.5s-92.167 119.167 -91.5 202.5z" />
    <glyph glyph-name="ubreve" unicode="&#x16d;" 
d="M195 1088h264.001l-73 -556c-8 -61.333 -12 -107.333 -12 -138c0 -48 16.667 -88.333 50 -121s76.666 -49 129.999 -49c68.667 0 121.5 21 158.5 63s64.167 127.333 81.5 256l75 545h264l-79 -585c-18 -132 -48.167 -234.167 -90.5 -306.5s-98.5 -127.833 -168.5 -166.5
s-152.333 -58 -247 -58c-133.333 0 -239.333 38.5 -318 115.5s-118 176.5 -118 298.5c0 74.667 8.33301 170.667 25 288zM316.001 1567h221.001c11.333 -26.667 28.333 -45.667 51 -57c33.333 -16.667 74.666 -25 123.999 -25c45.333 0 84.5 6.83301 117.5 20.5
s59.5 34.167 79.5 61.5h221c-26 -86 -77.167 -154.167 -153.5 -204.5s-173.5 -75.5 -291.5 -75.5c-123.333 0 -215.833 25.833 -277.5 77.5s-92.167 119.167 -91.5 202.5z" />
    <glyph glyph-name="Uring" unicode="&#x16e;" horiz-adv-x="1311" 
d="M260 1471l275.001 0.000976562l-122 -908c-10.667 -79.333 -16 -135.333 -16 -168c0 -55.333 17.167 -98.5 51.5 -129.5s84.166 -46.5 149.499 -46.5c52.667 0 98.667 11.667 138 35c29.333 17.333 52.833 46.166 70.5 86.499s34.834 120.5 51.501 240.5l123 890h278
l-120 -878c-24.667 -180.667 -57 -310.334 -97 -389.001s-97.833 -138.5 -173.5 -179.5s-167.834 -61.5 -276.501 -61.5c-146.667 0 -261 39 -343 117s-123 184.667 -123 320c0 58.667 8 145.334 24 260.001zM794.001 2060c54 0 98.501 -17.667 133.501 -53
s52.5 -82 52.5 -140c0 -66 -25.667 -124.667 -77 -176s-110 -77 -176 -77c-54.667 0 -99.834 18.333 -135.501 55s-53.5 82.667 -53.5 138c0 69.333 25.167 128.833 75.5 178.5s110.5 74.5 180.5 74.5zM775.002 1932c-26.667 0 -49.833 -10 -69.5 -30
s-29.5 -43.667 -29.5 -71c0 -22.667 6.66699 -41 20 -55s30.333 -21 51 -21c24.667 0 46.667 10 66 30s29 43.333 29 70c0 22.667 -6.5 41.167 -19.5 55.5s-28.833 21.5 -47.5 21.5z" />
    <glyph glyph-name="uring" unicode="&#x16f;" 
d="M195 1088h264.001l-73 -556c-8 -61.333 -12 -107.333 -12 -138c0 -48 16.667 -88.333 50 -121s76.666 -49 129.999 -49c68.667 0 121.5 21 158.5 63s64.167 127.333 81.5 256l75 545h264l-79 -585c-18 -132 -48.167 -234.167 -90.5 -306.5s-98.5 -127.833 -168.5 -166.5
s-152.333 -58 -247 -58c-133.333 0 -239.333 38.5 -318 115.5s-118 176.5 -118 298.5c0 74.667 8.33301 170.667 25 288zM688.001 1731c54 0 98.501 -17.667 133.501 -53s52.5 -82 52.5 -140c0 -66 -25.667 -124.667 -77 -176s-110 -77 -176 -77
c-54.667 0 -99.834 18.333 -135.501 55s-53.5 82.667 -53.5 138c0 69.333 25.167 128.833 75.5 178.5s110.5 74.5 180.5 74.5zM669.002 1603c-26.667 0 -49.833 -10 -69.5 -30s-29.5 -43.667 -29.5 -71c0 -22.667 6.66699 -41 20 -55s30.333 -21 51 -21
c24.667 0 46.667 10 66 30s29 43.333 29 70c0 22.667 -6.5 41.167 -19.5 55.5s-28.833 21.5 -47.5 21.5z" />
    <glyph glyph-name="Udblacute" unicode="&#x170;" horiz-adv-x="1311" 
d="M260 1471l275.001 0.000976562l-122 -908c-10.667 -79.333 -16 -135.333 -16 -168c0 -55.333 17.167 -98.5 51.5 -129.5s84.166 -46.5 149.499 -46.5c52.667 0 98.667 11.667 138 35c29.333 17.333 52.833 46.166 70.5 86.499s34.834 120.5 51.501 240.5l123 890h278
l-120 -878c-24.667 -180.667 -57 -310.334 -97 -389.001s-97.833 -138.5 -173.5 -179.5s-167.834 -61.5 -276.501 -61.5c-146.667 0 -261 39 -343 117s-123 184.667 -123 320c0 58.667 8 145.334 24 260.001zM804.001 2008h323l-421 -392h-196zM1250 2008h323l-420 -392
h-197z" />
    <glyph glyph-name="udblacute" unicode="&#x171;" 
d="M195 1088h264.001l-73 -556c-8 -61.333 -12 -107.333 -12 -138c0 -48 16.667 -88.333 50 -121s76.666 -49 129.999 -49c68.667 0 121.5 21 158.5 63s64.167 127.333 81.5 256l75 545h264l-79 -585c-18 -132 -48.167 -234.167 -90.5 -306.5s-98.5 -127.833 -168.5 -166.5
s-152.333 -58 -247 -58c-133.333 0 -239.333 38.5 -318 115.5s-118 176.5 -118 298.5c0 74.667 8.33301 170.667 25 288zM679.001 1679h323l-421 -392h-196zM1125 1679h323l-420 -392h-197z" />
    <glyph glyph-name="Uogonek" unicode="&#x172;" horiz-adv-x="1311" 
d="M260 1471l275.001 0.000976562l-122 -908c-10.667 -79.333 -16 -135.333 -16 -168c0 -55.333 17.167 -98.5 51.5 -129.5s84.166 -46.5 149.499 -46.5c52.667 0 98.667 11.667 138 35c29.333 17.333 52.833 46.166 70.5 86.499s34.834 120.5 51.501 240.5l123 890h278
l-120 -878c-24.667 -180.667 -57 -310.334 -97 -389.001s-97.833 -138.5 -173.5 -179.5s-167.834 -61.5 -276.501 -61.5c-146.667 0 -261 39 -343 117s-123 184.667 -123 320c0 58.667 8 145.334 24 260.001zM585.001 0.000976562l144 0.000976562
c-110 -60 -165 -119.667 -165 -179c0 -23.333 8.5 -42.333 25.5 -57s39.167 -22 66.5 -22c22.667 0 53 9 91 27l-22 -159c-47.333 -10 -91 -15 -131 -15c-73.333 0 -128.166 15.333 -164.499 46s-54.5 70 -54.5 118c0 44.667 17.667 88.667 53 132
s87.666 79.666 156.999 108.999z" />
    <glyph glyph-name="uogonek" unicode="&#x173;" 
d="M195 1088h264.001l-73 -556c-8 -61.333 -12 -107.333 -12 -138c0 -48 16.667 -88.333 50 -121s76.666 -49 129.999 -49c68.667 0 121.5 21 158.5 63s64.167 127.333 81.5 256l75 545h264l-79 -585c-18 -132 -48.167 -234.167 -90.5 -306.5s-98.5 -127.833 -168.5 -166.5
s-152.333 -58 -247 -58c-133.333 0 -239.333 38.5 -318 115.5s-118 176.5 -118 298.5c0 74.667 8.33301 170.667 25 288zM561.001 0l144 0.000976562c-110 -60 -165 -119.667 -165 -179c0 -23.333 8.5 -42.333 25.5 -57s39.167 -22 66.5 -22c22.667 0 53 9 91 27l-22 -159
c-47.333 -10 -91 -15 -131 -15c-73.333 0 -128.166 15.333 -164.499 46s-54.5 70 -54.5 118c0 44.667 17.667 88.667 53 132s87.666 79.666 156.999 108.999z" />
    <glyph glyph-name="Wcircumflex" unicode="&#x174;" horiz-adv-x="1843" 
d="M132 1471h252l84 -953l451 953h208l175 -928l327 928h267l-520 -1471h-226l-185 974l-461 -974h-241zM966 1865h218l259 -282h-298l-90 130l-130 -130h-300z" />
    <glyph glyph-name="wcircumflex" unicode="&#x175;" horiz-adv-x="1638" 
d="M52 1088h257l150 -583l317 583h105l152 -583l315 583h284l-591 -1088h-129l-148 575l-310 -575h-127zM775 1536h218l259 -282h-298l-90 130l-130 -130h-300z" />
    <glyph glyph-name="Ycircumflex" unicode="&#x176;" horiz-adv-x="1270" 
d="M66 1471h279l230 -589l418 589h317l-628 -883l-79 -588h-276l81 588zM603 1865h218l259 -282h-298l-90 130l-130 -130h-300z" />
    <glyph glyph-name="ycircumflex" unicode="&#x177;" horiz-adv-x="1188" 
d="M45 1088h262l212 -646l372 646h288l-855 -1486h-282l309 546zM557 1536h218l259 -282h-298l-90 130l-130 -130h-300z" />
    <glyph glyph-name="Ydieresis" unicode="&#x178;" horiz-adv-x="1270" 
d="M66 1471h279l230 -589l418 589h317l-628 -883l-79 -588h-276l81 588zM548 1865c34.667 0 63.833 -11.667 87.5 -35s35.5 -51.333 35.5 -84c0 -46 -16 -85.333 -48 -118s-71 -49 -117 -49c-37.333 0 -67.333 11.5 -90 34.5s-34 53.167 -34 90.5
c0 42.667 16.5 80.167 49.5 112.5s71.833 48.5 116.5 48.5zM990.999 1865c34.667 0 63.833 -11.667 87.5 -35s35.5 -51.333 35.5 -84c0 -46 -16 -85.333 -48 -118s-71 -49 -117 -49c-37.333 0 -67.333 11.5 -90 34.5s-34 53.167 -34 90.5c0 42.667 16.5 80.167 49.5 112.5
s71.833 48.5 116.5 48.5z" />
    <glyph glyph-name="Zacute" unicode="&#x179;" horiz-adv-x="1024" 
d="M183 1471h831l-584 -1215h463l-34 -256h-841l585 1212h-456zM740 2006h323l-421 -391h-196z" />
    <glyph glyph-name="zacute" unicode="&#x17a;" horiz-adv-x="942" 
d="M87 1088h862l-557 -842h510l-34 -246h-939l555 839h-429zM615 1677h323l-421 -391h-196z" />
    <glyph glyph-name="Zdot" unicode="&#x17b;" horiz-adv-x="1024" 
d="M183 1471h831l-584 -1215h463l-34 -256h-841l585 1212h-456zM592 1865c34.667 0 63.833 -11.667 87.5 -35s35.5 -51.333 35.5 -84c0 -46 -16 -85.333 -48 -118s-71 -49 -117 -49c-37.333 0 -67.333 11.5 -90 34.5s-34 53.167 -34 90.5c0 42.667 16.5 80.167 49.5 112.5
s71.833 48.5 116.5 48.5z" />
    <glyph glyph-name="zdot" unicode="&#x17c;" horiz-adv-x="942" 
d="M87 1088h862l-557 -842h510l-34 -246h-939l555 839h-429zM492 1536c34.667 0 63.833 -11.667 87.5 -35s35.5 -51.333 35.5 -84c0 -46 -16 -85.333 -48 -118s-71 -49 -117 -49c-37.333 0 -67.333 11.5 -90 34.5s-34 53.167 -34 90.5c0 42.667 16.5 80.167 49.5 112.5
s71.833 48.5 116.5 48.5z" />
    <glyph glyph-name="Zcaron" unicode="&#x17d;" horiz-adv-x="1024" 
d="M183 1471h831l-584 -1215h463l-34 -256h-841l585 1212h-456zM744 1583h-218l-259 282h298l90 -130l130 130h300z" />
    <glyph glyph-name="zcaron" unicode="&#x17e;" horiz-adv-x="942" 
d="M87 1088h862l-557 -842h510l-34 -246h-939l555 839h-429zM643 1254h-218l-259 282h298l90 -130l130 130h300z" />
    <glyph glyph-name="longs" unicode="&#x17f;" horiz-adv-x="491" 
d="M671 1471l-29.998 -218.001c-34 32.667 -71 49 -111 49c-32.667 0 -54.834 -13.667 -66.501 -41s-25.5 -97.333 -41.5 -210l-143 -1051h-265l145 1076c18 132.667 35.667 225.834 53 279.501s47.166 97.167 89.499 130.5s95.833 50 160.5 50
c80 0 149.667 -21.667 209 -65z" />
    <glyph glyph-name="florin" unicode="&#x192;" horiz-adv-x="1147" 
d="M1054 1453l-32.998 -239.001c-54.667 39.333 -101 59 -139 59c-27.333 0 -49 -11.333 -65 -34s-29.667 -74.667 -41 -156l-21 -149h224l-34 -234h-226l-106 -756c-13.333 -97.333 -33 -170.333 -59 -219s-60 -86 -102 -112s-87.667 -39 -137 -39
c-38.667 0 -78 6.33301 -118 19s-89.667 36.334 -149 71.001l34 242c63.333 -49.333 116.666 -74 159.999 -74c26 0 46.333 9.66699 61 29s26.667 63.333 36 132l107 707h-227l34 234h227l33 249c17.333 124.667 49.166 214.667 95.499 270s112.5 83 198.5 83
c43.333 0 82.5 -5.5 117.5 -16.5s78.167 -33.167 129.5 -66.5z" />
    <glyph glyph-name="Aringacute" unicode="&#x1fa;" horiz-adv-x="1515" 
d="M770 1471h233l366 -1471h-268l-78 313h-581l-169 -313h-297zM956 573l-118 483l-259 -483h377zM948 1859c54 0 98.501 -17.667 133.501 -53s52.5 -82 52.5 -140c0 -66 -25.667 -124.667 -77 -176s-110 -77 -176 -77c-54.667 0 -99.834 18.333 -135.501 55
s-53.5 82.667 -53.5 138c0 69.333 25.167 128.833 75.5 178.5s110.5 74.5 180.5 74.5zM929.001 1731c-26.667 0 -49.833 -10 -69.5 -30s-29.5 -43.667 -29.5 -71c0 -22.667 6.66699 -41 20 -55s30.333 -21 51 -21c24.667 0 46.667 10 66 30s29 43.333 29 70
c0 22.667 -6.5 41.167 -19.5 55.5s-28.833 21.5 -47.5 21.5zM992.002 2297h323l-421 -391h-196z" />
    <glyph glyph-name="aringacute" unicode="&#x1fb;" horiz-adv-x="1352" 
d="M984 1088l267 0.000976562l-142 -1088h-264l15 117c-58 -54 -112.167 -91.667 -162.5 -113s-106.833 -32 -169.5 -32c-144 0 -258.5 53 -343.5 159s-127.5 229.333 -127.5 370c0 107.333 27 209.5 81 306.5s126.5 172.667 217.5 227s186.167 81.5 285.5 81.5
c66.667 0 128.167 -15.333 184.5 -46s102.833 -75.334 139.5 -134.001zM590 210.001c65.333 0 122.333 14.667 171 44s89.5 75.333 122.5 138s49.5 126.667 49.5 192c0 86 -24.833 155.167 -74.5 207.5s-115.167 78.5 -196.5 78.5c-94.667 0 -175 -35 -241 -105
s-99 -160.333 -99 -271c0 -85.333 25 -154 75 -206s114.333 -78 193 -78zM779 1683c54 0 98.501 -17.667 133.501 -53s52.5 -82 52.5 -140c0 -66 -25.667 -124.667 -77 -176s-110 -77 -176 -77c-54.667 0 -99.834 18.333 -135.501 55s-53.5 82.667 -53.5 138
c0 69.333 25.167 128.833 75.5 178.5s110.5 74.5 180.5 74.5zM760.001 1555c-26.667 0 -49.833 -10 -69.5 -30s-29.5 -43.667 -29.5 -71c0 -22.667 6.66699 -41 20 -55s30.333 -21 51 -21c24.667 0 46.667 10 66 30s29 43.333 29 70c0 22.667 -6.5 41.167 -19.5 55.5
s-28.833 21.5 -47.5 21.5zM868.002 2165h323l-421 -391h-196z" />
    <glyph glyph-name="AEacute" unicode="&#x1fc;" horiz-adv-x="1843" 
d="M761 1471h1015l-35 -261h-523l-42 -306h527l-35 -258h-524l-54 -390h527l-34 -256h-795l42 314h-399l-171 -314h-296zM865 572l94 726l-391 -726h297zM1265 2006h323l-421 -391h-196z" />
    <glyph glyph-name="aeacute" unicode="&#x1fd;" horiz-adv-x="2212" 
d="M2080 463l-886 -0.000976562c28.667 -164.667 123.334 -247 284.001 -247c104 0 193.667 33.333 269 100l236 -121c-48 -64.667 -116.667 -118 -206 -160s-186.333 -63 -291 -63c-71.333 0 -134.833 9.16699 -190.5 27.5s-114.167 49.833 -175.5 94.5l-12 -94h-244
l15 114c-86.667 -94.667 -197.334 -142 -332.001 -142c-91.333 0 -170.333 20.667 -237 62s-122.5 105 -167.5 191s-67.5 177.667 -67.5 275c0 106.667 27.167 208.5 81.5 305.5s127.5 173 219.5 228s187 82.5 285 82.5c64.667 0 125.5 -15.833 182.5 -47.5
s103.833 -76.5 140.5 -134.5l22 182h243l-16 -121c114 80.667 232.333 121 355 121c137.333 0 255.5 -52.167 354.5 -156.5s148.5 -231.166 148.5 -380.499c0 -32 -3.66699 -70.667 -11 -116zM680 866.999c-94.667 0 -175 -35.501 -241 -106.501s-99 -160.5 -99 -268.5
c0 -86.667 24.833 -156 74.5 -208s114.167 -78 193.5 -78c64 0 121.667 15.167 173 45.5s92.5 75.833 123.5 136.5s46.5 124.334 46.5 191.001c0 86 -25.333 155.5 -76 208.5s-115.667 79.5 -195 79.5zM1816 658.998c-19.333 66 -52 116.501 -98 151.501
s-101.333 52.5 -166 52.5c-65.333 0 -125 -16.333 -179 -49s-101.333 -84.334 -142 -155.001h585zM1267 1677h323l-421 -391h-196z" />
    <glyph glyph-name="Oslashacute" unicode="&#x1fe;" horiz-adv-x="1720" 
d="M1472 1284c113.333 -130 169.999 -285.001 169.999 -465.001c0 -153.333 -38.667 -297.833 -116 -433.5s-180.666 -240 -309.999 -313s-277 -109.5 -443 -109.5c-150 0 -277.333 30.333 -382 91l-135 -154l-121 100l132 151c-123.333 126.667 -185 289.334 -185 488.001
c0 159.333 38 306 114 440s179.333 239 310 315s274 114 430 114c162.667 0 300.667 -39 414 -117l128 147l121 -104zM452.999 363.999l718 822c-70 40.667 -150.333 61 -241 61c-102.667 0 -197.5 -25.667 -284.5 -77s-157 -124.833 -210 -220.5
s-79.5 -194.167 -79.5 -295.5c0 -112 32.333 -208.667 97 -290zM1286 1076l-710 -810.001c60.667 -30 131.667 -45 213 -45c159.333 0 295 56.833 407 170.5s168 250.834 168 411.501c0 104.667 -26 195.667 -78 273zM1107 2006h323l-421 -391h-196z" />
    <glyph glyph-name="oslashacute" unicode="&#x1ff;" horiz-adv-x="1352" 
d="M1102 937c78 -100 116.999 -217.999 116.999 -353.999c0 -169.333 -60.333 -313.5 -181 -432.5s-269.667 -178.5 -447 -178.5c-109.333 0 -201.666 21.667 -276.999 65l-153 -176l-116 105l151 173c-76.667 95.333 -115 208.666 -115 339.999
c0 116 27.667 222.5 83 319.5s131.5 174.167 228.5 231.5s199.167 86 306.5 86s202 -25 284 -75l163 187l119 -104zM378.999 349.001l427.001 490.001c-36.667 16 -78.334 24 -125.001 24c-107.333 0 -190 -39.5 -248 -118.5s-87 -163.167 -87 -252.5
c0 -52.667 11 -100.334 33 -143.001zM922 731.002l-429.001 -490c34.667 -14 73.334 -21 116.001 -21c111.333 0 196.833 37.5 256.5 112.5s89.5 161.167 89.5 258.5c0 54 -11 100.667 -33 140zM860.999 1677h323l-421 -391h-196z" />
    <glyph glyph-name="circumflex" unicode="&#x2c6;" horiz-adv-x="1106" 
d="M570 1536h218l259 -282h-298l-90 130l-130 -130h-300z" />
    <glyph glyph-name="caron" unicode="&#x2c7;" horiz-adv-x="1106" 
d="M725 1254h-218l-259 282h298l90 -130l130 130h300z" />
    <glyph glyph-name="macron" unicode="&#x2c9;" horiz-adv-x="860" 
d="M326 1287l31 221h569l-31 -221h-569z" />
    <glyph glyph-name="breve" unicode="&#x2d8;" horiz-adv-x="983" 
d="M180 1567h221.001c11.333 -26.667 28.333 -45.667 51 -57c33.333 -16.667 74.666 -25 123.999 -25c45.333 0 84.5 6.83301 117.5 20.5s59.5 34.167 79.5 61.5h221c-26 -86 -77.167 -154.167 -153.5 -204.5s-173.5 -75.5 -291.5 -75.5
c-123.333 0 -215.833 25.833 -277.5 77.5s-92.167 119.167 -91.5 202.5z" />
    <glyph glyph-name="dotaccent" unicode="&#x2d9;" horiz-adv-x="573" 
d="M392 1536c34.667 0 63.833 -11.667 87.5 -35s35.5 -51.333 35.5 -84c0 -46 -16 -85.333 -48 -118s-71 -49 -117 -49c-37.333 0 -67.333 11.5 -90 34.5s-34 53.167 -34 90.5c0 42.667 16.5 80.167 49.5 112.5s71.833 48.5 116.5 48.5z" />
    <glyph glyph-name="ring" unicode="&#x2da;" horiz-adv-x="737" 
d="M513 1731c54 0 98.501 -17.667 133.501 -53s52.5 -82 52.5 -140c0 -66 -25.667 -124.667 -77 -176s-110 -77 -176 -77c-54.667 0 -99.834 18.333 -135.501 55s-53.5 82.667 -53.5 138c0 69.333 25.167 128.833 75.5 178.5s110.5 74.5 180.5 74.5zM494.001 1603
c-26.667 0 -49.833 -10 -69.5 -30s-29.5 -43.667 -29.5 -71c0 -22.667 6.66699 -41 20 -55s30.333 -21 51 -21c24.667 0 46.667 10 66 30s29 43.333 29 70c0 22.667 -6.5 41.167 -19.5 55.5s-28.833 21.5 -47.5 21.5z" />
    <glyph glyph-name="ogonek" unicode="&#x2db;" horiz-adv-x="696" 
d="M341 0l144 0.000976562c-110 -60 -165 -119.667 -165 -179c0 -23.333 8.5 -42.333 25.5 -57s39.167 -22 66.5 -22c22.667 0 53 9 91 27l-22 -159c-47.333 -10 -91 -15 -131 -15c-73.333 0 -128.166 15.333 -164.499 46s-54.5 70 -54.5 118c0 44.667 17.667 88.667 53 132
s87.666 79.666 156.999 108.999z" />
    <glyph glyph-name="tilde" unicode="&#x2dc;" horiz-adv-x="983" 
d="M248 1289l-86 164.999c59.333 38 109.5 63.667 150.5 77s82.167 20 123.5 20c31.333 0 72 -7 122 -21c79.333 -22 135 -33 167 -33c56.667 0 116.334 17 179.001 51l83 -155c-68 -48 -114.667 -76.667 -140 -86c-40.667 -14.667 -81.334 -22 -122.001 -22s-90 9 -148 27
c-47.333 14.667 -77 23.334 -89 26.001c-16 2.66699 -34 4 -54 4c-65.333 0 -127.333 -17.667 -186 -53z" />
    <glyph glyph-name="hungarumlaut" unicode="&#x2dd;" horiz-adv-x="1434" 
d="M804 1679h323l-421 -392h-196zM1250 1679h323l-420 -392h-197z" />
    <glyph glyph-name="tonos" unicode="&#x384;" horiz-adv-x="860" 
d="M692 1639l-95 -382h-196l8 382h283z" />
    <glyph glyph-name="dieresistonos" unicode="&#x385;" horiz-adv-x="860" 
d="M686 1639l-95 -382h-196l8 382h283zM342 1406c0 -39.333 -14.834 -73.834 -44.501 -103.501s-64.5 -44.5 -104.5 -44.5c-33.333 0 -60.333 10.833 -81 32.5s-31 47.834 -31 78.501c0 39.333 14.833 73.833 44.5 103.5s63.834 44.167 102.501 43.5
c34 0 61.5 -10.833 82.5 -32.5s31.5 -47.5 31.5 -77.5zM940.999 1406c0 -40 -14.833 -74.667 -44.5 -104s-64.5 -44 -104.5 -44c-32.667 0 -59.667 10.833 -81 32.5s-32 47.5 -32 77.5c0 40 15 74.667 45 104s64.333 44 103 44c34 0 61.5 -10.833 82.5 -32.5
s31.5 -47.5 31.5 -77.5z" />
    <glyph glyph-name="Alphatonos" unicode="&#x386;" horiz-adv-x="1515" 
d="M770 1471h233l366 -1471h-268l-78 313h-581l-169 -313h-297zM956 573l-118 483l-259 -483h377zM487 1508l-95 -382h-196l8 382h283z" />
    <glyph glyph-name="anoteleia" unicode="&#x387;" horiz-adv-x="573" 
d="M487 949c0 -46.667 -16.3311 -86.167 -48.998 -118.5s-72.334 -48.5 -119.001 -48.5s-86.334 16.167 -119.001 48.5s-49 71.833 -49 118.5c0 47.333 16.167 87 48.5 119s72.166 48 119.499 48c46.667 0 86.334 -16.167 119.001 -48.5s49 -71.833 49 -118.5z" />
    <glyph glyph-name="Epsilontonos" unicode="&#x388;" horiz-adv-x="1228" 
d="M408 1471h799l-34 -261h-520l-42 -304h522l-33 -259h-522l-52 -390h525l-35 -257h-801zM286 1508l-95 -382h-196l8 382h283z" />
    <glyph glyph-name="Etatonos" unicode="&#x389;" horiz-adv-x="1556" 
d="M429 1471h277l-74 -555h503l75 555h278l-200 -1471h-276l91 668h-507l-90 -668h-275zM286 1508l-95 -382h-196l8 382h283z" />
    <glyph glyph-name="Iotatonos" unicode="&#x38a;" horiz-adv-x="736" 
d="M419 1471h270l-203 -1471h-265zM286 1508l-95 -382h-196l8 382h283z" />
    <glyph glyph-name="Omicrontonos" unicode="&#x38c;" horiz-adv-x="1793" 
d="M1018 1508c202 0 368.667 -64.999 500 -194.999s197 -295 197 -495c0 -153.333 -38.833 -297.833 -116.5 -433.5s-181 -239.834 -310 -312.501s-277.167 -109 -444.5 -109c-209.333 0 -376.5 62 -501.5 186s-187.5 287.333 -187.5 490c0 230 74.667 427.667 224 593
c166.667 184 379.667 276 639 276zM1008 1247c-105.333 0 -201.5 -25.5 -288.5 -76.5s-157.167 -124.333 -210.5 -220s-80 -194.5 -80 -296.5c0 -120.667 37 -223 111 -307s180.333 -126 319 -126c160.667 0 297.167 56.667 409.5 170s168.5 251 168.5 413
c0 134 -39.5 241.333 -118.5 322s-182.5 121 -310.5 121zM286 1508l-95 -382h-196l8 382h283z" />
    <glyph glyph-name="Upsilontonos" unicode="&#x38e;" horiz-adv-x="1507" 
d="M336 1471h279l230 -589l418 589h317l-628 -883l-79 -588h-276l81 588zM286 1508l-95 -382h-196l8 382h283z" />
    <glyph glyph-name="Omegatonos" unicode="&#x38f;" horiz-adv-x="1824" 
d="M1274 257l382.999 0.00195312l-35 -257h-683l42 313c304 138.667 456 333 456 583c0 106.667 -37.5 192.167 -112.5 256.5s-177.5 96.5 -307.5 96.5c-152.667 0 -280 -46.833 -382 -140.5s-153 -213.5 -153 -359.5c0 -176.667 100.667 -322 302 -436l-42 -313h-671
l35 257h383c-184 129.333 -276 299.666 -276 510.999c0.666992 216 80.834 393.167 240.501 531.5s354.167 207.5 583.5 207.5c202.667 0 365.167 -55.833 487.5 -167.5s183.5 -253.834 183.5 -426.501c0 -270 -144.667 -488.667 -434 -656zM285.999 1508l-95 -382h-196
l8 382h283z" />
    <glyph glyph-name="iotadieresistonos" unicode="&#x390;" horiz-adv-x="491" 
d="M158 1088h264l-146 -1088h-266zM502 1639l-95 -382h-196l8 382h283zM158 1406c0 -39.333 -14.834 -73.834 -44.501 -103.501s-64.5 -44.5 -104.5 -44.5c-33.333 0 -60.333 10.833 -81 32.5s-31 47.834 -31 78.501c0 39.333 14.833 73.833 44.5 103.5
s63.834 44.167 102.501 43.5c34 0 61.5 -10.833 82.5 -32.5s31.5 -47.5 31.5 -77.5zM756.999 1406c0 -40 -14.833 -74.667 -44.5 -104s-64.5 -44 -104.5 -44c-32.667 0 -59.667 10.833 -81 32.5s-32 47.5 -32 77.5c0 40 15 74.667 45 104s64.333 44 103 44
c34 0 61.5 -10.833 82.5 -32.5s31.5 -47.5 31.5 -77.5z" />
    <glyph glyph-name="Alpha" unicode="&#x391;" horiz-adv-x="1515" 
d="M770 1471h233l366 -1471h-268l-78 313h-581l-169 -313h-297zM956 573l-118 483l-259 -483h377z" />
    <glyph glyph-name="Beta" unicode="&#x392;" horiz-adv-x="1188" 
d="M266 1471l229.999 -0.00292969c140 0 244 -15 312 -45s122.833 -76.667 164.5 -140s62.5 -131.666 62.5 -204.999c0 -61.333 -14.667 -119.166 -44 -173.499s-71.666 -99.833 -126.999 -136.5c131.333 -91.333 197 -212.666 197 -363.999
c0 -78.667 -20.833 -150.667 -62.5 -216s-93.167 -113.5 -154.5 -144.5s-150 -46.5 -266 -46.5h-508zM464.999 886.997l49.998 -0.000976562c74.667 0 125.334 5.5 152.001 16.5s49.334 31.5 68.001 61.5s28 63.333 28 100c0 34 -8.33301 63.333 -25 88
s-38.5 41.334 -65.5 50.001s-81.833 13 -164.5 13zM382.997 260.996l165.999 -6.00098c83.333 0 144 16.333 182 49s57 77.334 57 134.001c0 41.333 -11.833 78.333 -35.5 111s-55.167 55.667 -94.5 69s-114.666 20.333 -225.999 21z" />
    <glyph glyph-name="Gamma" unicode="&#x393;" horiz-adv-x="948" 
d="M265 1471h730l-35 -260h-455l-165 -1211h-275z" />
    <glyph glyph-name="Delta" unicode="&#x394;" horiz-adv-x="1515" 
d="M1338 0h-1360l32 235l725 1236h243l392 -1236zM1077 257l-260 841l-485 -841h745z" />
    <glyph glyph-name="Epsilon" unicode="&#x395;" horiz-adv-x="1065" 
d="M245 1471h799l-34 -261h-520l-42 -304h522l-33 -259h-522l-52 -390h525l-35 -257h-801z" />
    <glyph glyph-name="Zeta" unicode="&#x396;" horiz-adv-x="1024" 
d="M183 1471h831l-584 -1215h463l-34 -256h-841l585 1212h-456z" />
    <glyph glyph-name="Eta" unicode="&#x397;" horiz-adv-x="1393" 
d="M266 1471h277l-74 -555h503l75 555h278l-200 -1471h-276l91 668h-507l-90 -668h-275z" />
    <glyph glyph-name="Theta" unicode="&#x398;" horiz-adv-x="1720" 
d="M1642 818c0 -228 -79.667 -427.5 -239 -598.5s-370 -256.5 -632 -256.5c-209.333 0 -376.5 61.667 -501.5 185s-187.5 287 -187.5 491c0 240.667 81.5 445.667 244.5 615s369.167 254 618.5 254c202.667 0 369.5 -64.5 500.5 -193.5s196.5 -294.5 196.5 -496.5zM356 654
c0 -130.667 38.998 -235.5 116.998 -314.5s182.333 -118.5 313 -118.5c162.667 0 299.667 56.5 411 169.5s167 250.833 167 413.5c0 133.333 -39.167 240.5 -117.5 321.5s-182.166 121.5 -311.499 121.5c-179.333 0 -320.666 -62.667 -423.999 -188s-155 -260.333 -155 -405
zM613.998 876h525l-36 -269h-525z" />
    <glyph glyph-name="Iota" unicode="&#x399;" horiz-adv-x="573" 
d="M256 1471h270l-203 -1471h-265z" />
    <glyph glyph-name="Kappa" unicode="&#x39a;" horiz-adv-x="1270" 
d="M270 1471h277l-68 -500l474 500h342l-641 -673l507 -798h-309l-415 654l-89 -654h-274z" />
    <glyph glyph-name="Lambda" unicode="&#x39b;" horiz-adv-x="1434" 
d="M1306 0h-270l-263 1062l-569 -1062h-297l787 1471h247z" />
    <glyph glyph-name="Mu" unicode="&#x39c;" horiz-adv-x="1843" 
d="M376 1471h250l249 -1025l508 1025h238l20 -1471h-258l-12 880l-436 -880h-211l-224 924l-235 -924h-264z" />
    <glyph glyph-name="Nu" unicode="&#x39d;" horiz-adv-x="1515" 
d="M266 1471h242l533 -1000l135 1000h269l-198 -1471h-236l-540 1011l-135 -1011h-265z" />
    <glyph glyph-name="Xi" unicode="&#x39e;" horiz-adv-x="1083" 
d="M1033 1211h-863l35 260h863zM960 661h-863l34 260h863zM871 0h-863l35 260h863z" />
    <glyph glyph-name="Omicron" unicode="&#x39f;" horiz-adv-x="1720" 
d="M945 1508c202 0 368.667 -64.999 500 -194.999s197 -295 197 -495c0 -153.333 -38.833 -297.833 -116.5 -433.5s-181 -239.834 -310 -312.501s-277.167 -109 -444.5 -109c-209.333 0 -376.5 62 -501.5 186s-187.5 287.333 -187.5 490c0 230 74.667 427.667 224 593
c166.667 184 379.667 276 639 276zM935 1247c-105.333 0 -201.5 -25.5 -288.5 -76.5s-157.167 -124.333 -210.5 -220s-80 -194.5 -80 -296.5c0 -120.667 37 -223 111 -307s180.333 -126 319 -126c160.667 0 297.167 56.667 409.5 170s168.5 251 168.5 413
c0 134 -39.5 241.333 -118.5 322s-182.5 121 -310.5 121z" />
    <glyph glyph-name="Pi" unicode="&#x3a0;" horiz-adv-x="1393" 
d="M265 1471h1059l-200 -1471h-275l165 1211h-509l-165 -1211h-275z" />
    <glyph glyph-name="Rho" unicode="&#x3a1;" horiz-adv-x="1147" 
d="M269 1471l258.998 -0.000976562c157.333 0 268.333 -13.667 333 -41c80 -34 140.667 -81.333 182 -142s62 -131.667 62 -213c0 -89.333 -24.167 -170.166 -72.5 -242.499s-113.166 -125 -194.499 -158s-216.666 -50.833 -405.999 -53.5l-84 -621h-277zM464.998 880.999
c150.667 0.666992 249 16.333 295 47s69 76.334 69 137.001c0 34 -9 62.667 -27 86s-44.667 39.666 -80 48.999s-105.333 14 -210 14z" />
    <glyph glyph-name="Sigma" unicode="&#x3a3;" horiz-adv-x="1027" 
d="M-76 0l488 734l-282 737h902l-35 -260h-480l197 -504l-301 -447h467l-35 -260h-921z" />
    <glyph glyph-name="Tau" unicode="&#x3a4;" horiz-adv-x="860" 
d="M79 1471h898l-32 -262h-313l-159 -1209h-274l159 1209h-313z" />
    <glyph glyph-name="Upsilon" unicode="&#x3a5;" horiz-adv-x="1270" 
d="M99 1471h279l230 -589l418 589h317l-628 -883l-79 -588h-276l81 588z" />
    <glyph glyph-name="Phi" unicode="&#x3a6;" horiz-adv-x="1760" 
d="M932 148l-20.002 -148.002h-274l20 148c-182 18 -325.167 72.833 -429.5 164.5s-156.5 211.834 -156.5 360.501c0.666992 193.333 69.834 349.5 207.501 468.5s317.834 185.167 540.501 198.5l18 131h274l-18 -131c164.667 -12 304.667 -59.5 420 -142.5
s173 -208.833 173 -377.5c0 -200 -67.667 -359.167 -203 -477.5s-319.333 -183.166 -552 -194.499zM786.998 1094c-134.667 -6.66699 -242.667 -47 -324 -121s-122 -172 -122 -294c0 -166 117 -260.667 351 -284zM1061 1094l-95 -699.001c298.667 18 448 155.333 448 412
c0 168.667 -117.667 264.334 -353 287.001z" />
    <glyph glyph-name="Chi" unicode="&#x3a7;" horiz-adv-x="1393" 
d="M250 1471h284l207 -455l321 455h320l-518 -728l338 -743h-286l-224 499l-354 -499h-322l552 772z" />
    <glyph glyph-name="Psi" unicode="&#x3a8;" horiz-adv-x="1682" 
d="M1650 1471l-72.002 -529c-47.333 -350 -264.666 -541 -651.999 -573l-50 -369h-275l50 369c-330.667 46 -496 215.667 -496 509c0 36 2.66699 73.667 8 113l65 480h275l-65 -477c-6 -44.667 -9 -82.667 -9 -114c0.666992 -80 20.334 -140 59.001 -180
s104.334 -67 197.001 -81l116 852h275l-116 -853c112 18 194.167 54.667 246.5 110s87.166 147.333 104.499 276l64 467h275z" />
    <glyph glyph-name="Omega" unicode="&#x3a9;" horiz-adv-x="1751" 
d="M1201 257l382.999 0.00195312l-35 -257h-683l42 313c304 138.667 456 333 456 583c0 106.667 -37.5 192.167 -112.5 256.5s-177.5 96.5 -307.5 96.5c-152.667 0 -280 -46.833 -382 -140.5s-153 -213.5 -153 -359.5c0 -176.667 100.667 -322 302 -436l-42 -313h-671
l35 257h383c-184 129.333 -276 299.666 -276 510.999c0.666992 216 80.834 393.167 240.501 531.5s354.167 207.5 583.5 207.5c202.667 0 365.167 -55.833 487.5 -167.5s183.5 -253.834 183.5 -426.501c0 -270 -144.667 -488.667 -434 -656z" />
    <glyph glyph-name="Iotadieresis" unicode="&#x3aa;" horiz-adv-x="573" 
d="M256 1471h270l-203 -1471h-265zM212 1865c34.667 0 63.833 -11.667 87.5 -35s35.5 -51.333 35.5 -84c0 -46 -16 -85.333 -48 -118s-71 -49 -117 -49c-37.333 0 -67.333 11.5 -90 34.5s-34 53.167 -34 90.5c0 42.667 16.5 80.167 49.5 112.5s71.833 48.5 116.5 48.5z
M654.999 1865c34.667 0 63.833 -11.667 87.5 -35s35.5 -51.333 35.5 -84c0 -46 -16 -85.333 -48 -118s-71 -49 -117 -49c-37.333 0 -67.333 11.5 -90 34.5s-34 53.167 -34 90.5c0 42.667 16.5 80.167 49.5 112.5s71.833 48.5 116.5 48.5z" />
    <glyph glyph-name="Upsilondieresis" unicode="&#x3ab;" horiz-adv-x="1270" 
d="M98 1471h279l230 -589l418 589h317l-628 -883l-79 -588h-276l81 588zM580 1865c34.667 0 63.833 -11.667 87.5 -35s35.5 -51.333 35.5 -84c0 -46 -16 -85.333 -48 -118s-71 -49 -117 -49c-37.333 0 -67.333 11.5 -90 34.5s-34 53.167 -34 90.5
c0 42.667 16.5 80.167 49.5 112.5s71.833 48.5 116.5 48.5zM1023 1865c34.667 0 63.833 -11.667 87.5 -35s35.5 -51.333 35.5 -84c0 -46 -16 -85.333 -48 -118s-71 -49 -117 -49c-37.333 0 -67.333 11.5 -90 34.5s-34 53.167 -34 90.5c0 42.667 16.5 80.167 49.5 112.5
s71.833 48.5 116.5 48.5z" />
    <glyph glyph-name="alphatonos" unicode="&#x3ac;" horiz-adv-x="1352" 
d="M984 1088l267 0.000976562l-142 -1088h-264l15 117c-58 -54 -112.167 -91.667 -162.5 -113s-106.833 -32 -169.5 -32c-144 0 -258.5 53 -343.5 159s-127.5 229.333 -127.5 370c0 107.333 27 209.5 81 306.5s126.5 172.667 217.5 227s186.167 81.5 285.5 81.5
c66.667 0 128.167 -15.333 184.5 -46s102.833 -75.334 139.5 -134.001zM590 210.001c65.333 0 122.333 14.667 171 44s89.5 75.333 122.5 138s49.5 126.667 49.5 192c0 86 -24.833 155.167 -74.5 207.5s-115.167 78.5 -196.5 78.5c-94.667 0 -175 -35 -241 -105
s-99 -160.333 -99 -271c0 -85.333 25 -154 75 -206s114.333 -78 193 -78zM933 1639l-95 -382h-196l8 382h283z" />
    <glyph glyph-name="epsilontonos" unicode="&#x3ad;" horiz-adv-x="897" 
d="M790 96c-106.667 -82.667 -233.669 -124.002 -381.002 -124.002c-100.667 0 -190.167 24.833 -268.5 74.5s-117.5 124.834 -117.5 225.501c0 149.333 80.333 252.333 241 309c-82 51.333 -123 120 -123 206c0.666992 100 40.334 179.833 119.001 239.5
s175.667 89.5 291 89.5s215 -37.333 299 -112l-133 -188c-61.333 43.333 -117.666 65 -168.999 65c-41.333 0 -76.833 -10.833 -106.5 -32.5s-44.5 -50.5 -44.5 -86.5c0 -31.333 14 -56.833 42 -76.5s61.333 -29.5 100 -29.5h54l-26 -195h-71
c-44 0 -85.167 -11.5 -123.5 -34.5s-57.5 -55.833 -57.5 -98.5c0 -33.333 14.5 -60.666 43.5 -81.999s63.167 -32 102.5 -32c72 0 150.333 30.333 235 91zM705.998 1639l-95 -382h-196l8 382h283z" />
    <glyph glyph-name="etatonos" unicode="&#x3ae;" 
d="M935 -398l-269.999 0.000976562l133 993c8 60 12 106 12 138c0 91.333 -48 137 -144 137c-46.667 0 -92.334 -16 -137.001 -48s-78.667 -75.667 -102 -131s-44.666 -157.333 -63.999 -306l-51 -385h-266l147 1088h266l-16 -110c102 92 208 138 318 138
c93.333 0 170.166 -29.333 230.499 -88s90.5 -134.334 90.5 -227.001c0 -39.333 -5.66699 -103 -17 -191zM872.001 1639l-95 -382h-196l8 382h283z" />
    <glyph glyph-name="iotatonos" unicode="&#x3af;" horiz-adv-x="491" 
d="M158 1088h264l-146 -1088h-266zM503 1639l-95 -382h-196l8 382h283z" />
    <glyph glyph-name="upsilondieresistonos" unicode="&#x3b0;" 
d="M152 1089l266.001 0.00195312l-70 -532c-6.66699 -48 -10 -88.333 -10 -121c0 -140 70 -210 210 -210c91.333 0 164.666 33.667 219.999 101s83 150.666 83 249.999c0 121.333 -74.333 229.666 -223 324.999l170 218c211.333 -126 317 -302 317 -528
c0 -180 -55.833 -328.333 -167.5 -445s-256.167 -175 -433.5 -175c-294.667 0 -442 147 -442 441c0 48.667 4 101.667 12 159zM872.001 1639l-95 -382h-196l8 382h283zM528.001 1406c0 -39.333 -14.834 -73.834 -44.501 -103.501s-64.5 -44.5 -104.5 -44.5
c-33.333 0 -60.333 10.833 -81 32.5s-31 47.834 -31 78.501c0 39.333 14.833 73.833 44.5 103.5s63.834 44.167 102.501 43.5c34 0 61.5 -10.833 82.5 -32.5s31.5 -47.5 31.5 -77.5zM1127 1406c0 -40 -14.833 -74.667 -44.5 -104s-64.5 -44 -104.5 -44
c-32.667 0 -59.667 10.833 -81 32.5s-32 47.5 -32 77.5c0 40 15 74.667 45 104s64.333 44 103 44c34 0 61.5 -10.833 82.5 -32.5s31.5 -47.5 31.5 -77.5z" />
    <glyph glyph-name="alpha" unicode="&#x3b1;" horiz-adv-x="1352" 
d="M984 1088l267 0.000976562l-142 -1088h-264l15 117c-58 -54 -112.167 -91.667 -162.5 -113s-106.833 -32 -169.5 -32c-144 0 -258.5 53 -343.5 159s-127.5 229.333 -127.5 370c0 107.333 27 209.5 81 306.5s126.5 172.667 217.5 227s186.167 81.5 285.5 81.5
c66.667 0 128.167 -15.333 184.5 -46s102.833 -75.334 139.5 -134.001zM590 210.001c65.333 0 122.333 14.667 171 44s89.5 75.333 122.5 138s49.5 126.667 49.5 192c0 86 -24.833 155.167 -74.5 207.5s-115.167 78.5 -196.5 78.5c-94.667 0 -175 -35 -241 -105
s-99 -160.333 -99 -271c0 -85.333 25 -154 75 -206s114.333 -78 193 -78z" />
    <glyph glyph-name="beta" unicode="&#x3b2;" horiz-adv-x="1267" 
d="M307 102l-65.998 -500.001h-266l198 1490c18.667 138.667 73.667 247.334 165 326.001s206.666 118 345.999 118c111.333 0 202 -31.167 272 -93.5s105 -142.833 105 -241.5c0 -132.667 -66.333 -234.667 -199 -306c188 -67.333 282 -193.333 282 -378
c0 -160 -52.667 -290.833 -158 -392.5s-240 -152.5 -404 -152.5c-110.667 0 -202.334 43.333 -275.001 130zM521.002 715.999l29.999 231c160 18.667 240 89.667 240 213c0.666992 38 -10.833 68.5 -34.5 91.5s-55.5 34.5 -95.5 34.5
c-131.333 0 -208.666 -88.333 -231.999 -265l-67 -505c-3.33301 -24.667 -5 -48 -5 -70c0 -149.333 74.667 -224 224 -224c87.333 0 158.333 24.5 213 73.5s82 113.833 82 194.5c0 150.667 -116 226 -348 226h-7z" />
    <glyph glyph-name="gamma" unicode="&#x3b3;" horiz-adv-x="1147" 
d="M585 156l-74 -554h-266l76 555l-266 931h262l170 -605l349 605h290z" />
    <glyph glyph-name="delta" unicode="&#x3b4;" horiz-adv-x="1228" 
d="M412 898c-72 62.667 -107.998 141.333 -107.998 236c0 122 48.333 219.5 145 292.5s216 109.5 358 109.5c86.667 0 187.334 -14.333 302.001 -43l-102 -241c-86.667 22.667 -160.667 34 -222 34c-144 0 -216 -47.333 -216 -142c0 -32 15.5 -60 46.5 -84
s92.5 -55 184.5 -93c202 -82.667 303 -225 303 -427c0 -168 -55.833 -304.667 -167.5 -410s-252.834 -158 -423.501 -158c-134.667 0 -246.334 43.167 -335.001 129.5s-133.334 191.5 -134.001 315.5c0 224.667 123 385 369 481zM310.002 436.999
c0 -63.333 21.666 -115.499 64.999 -156.499s98.333 -61.5 165 -61.5c80.667 0 150.334 29.167 209.001 87.5s88 127.5 88 207.5c0 65.333 -21.167 119.166 -63.5 161.499s-97.5 63.5 -165.5 63.5c-78 0 -147 -30.667 -207 -92s-90.333 -131.333 -91 -210zM608.001 986z" />
    <glyph glyph-name="epsilon" unicode="&#x3b5;" horiz-adv-x="897" 
d="M790 96c-106.667 -82.667 -233.669 -124.002 -381.002 -124.002c-100.667 0 -190.167 24.833 -268.5 74.5s-117.5 124.834 -117.5 225.501c0 149.333 80.333 252.333 241 309c-82 51.333 -123 120 -123 206c0.666992 100 40.334 179.833 119.001 239.5
s175.667 89.5 291 89.5s215 -37.333 299 -112l-133 -188c-61.333 43.333 -117.666 65 -168.999 65c-41.333 0 -76.833 -10.833 -106.5 -32.5s-44.5 -50.5 -44.5 -86.5c0 -31.333 14 -56.833 42 -76.5s61.333 -29.5 100 -29.5h54l-26 -195h-71
c-44 0 -85.167 -11.5 -123.5 -34.5s-57.5 -55.833 -57.5 -98.5c0 -33.333 14.5 -60.666 43.5 -81.999s63.167 -32 102.5 -32c72 0 150.333 30.333 235 91z" />
    <glyph glyph-name="zeta" unicode="&#x3b6;" horiz-adv-x="974" 
d="M186 -393l90.001 241.002c48 -20.667 104.333 -31 169 -31c99.333 0 149 33 149 99c0 37.333 -19.333 62.333 -58 75c-92 22 -174.833 46.5 -248.5 73.5s-133.334 73.167 -179.001 138.5s-68.5 148.333 -68.5 249c0 139.333 44.5 272.5 133.5 399.5
s244.5 262.5 466.5 406.5h-409l33 250h785l-30 -227c-270.667 -174 -456 -322.333 -556 -445s-150 -240.334 -150 -353.001c0 -52 13.833 -94.5 41.5 -127.5s92.167 -63.5 193.5 -91.5c210 -58 315 -159 315 -303c0.666992 -124.667 -38.833 -220.334 -118.5 -287.001
s-190.5 -100 -332.5 -100c-64.667 0 -140 11 -226 33z" />
    <glyph glyph-name="eta" unicode="&#x3b7;" 
d="M935 -398l-269.999 0.000976562l133 993c8 60 12 106 12 138c0 91.333 -48 137 -144 137c-46.667 0 -92.334 -16 -137.001 -48s-78.667 -75.667 -102 -131s-44.666 -157.333 -63.999 -306l-51 -385h-266l147 1088h266l-16 -110c102 92 208 138 318 138
c93.333 0 170.166 -29.333 230.499 -88s90.5 -134.334 90.5 -227.001c0 -39.333 -5.66699 -103 -17 -191z" />
    <glyph glyph-name="theta" unicode="&#x3b8;" horiz-adv-x="1341" 
d="M559 -28c-168 0 -290.668 57.501 -368.001 172.501s-116 260.167 -116 435.5c0 260 61.167 484.333 183.5 673s292.833 283 511.5 283c158 0 279.5 -53.833 364.5 -161.5s127.167 -256.834 126.5 -447.501c0 -258 -58.167 -481.667 -174.5 -671
s-292.166 -284 -527.499 -284zM366.999 880.001h636c0.666992 164.667 -23.5 274 -72.5 328s-113.5 81 -193.5 81c-180.667 0 -304 -136.333 -370 -409zM967.999 625.001h-634.001c0 -156 23.167 -262.667 69.5 -320s109.833 -86 190.5 -86
c182.667 0 307.334 135.333 374.001 406z" />
    <glyph glyph-name="iota" unicode="&#x3b9;" horiz-adv-x="491" 
d="M158 1088h264l-146 -1088h-266z" />
    <glyph glyph-name="kappa" unicode="&#x3ba;" horiz-adv-x="1188" 
d="M190 1089h263l-51 -380l430 379h366l-550 -485l481 -603h-320l-430 536l-71 -536h-262z" />
    <glyph glyph-name="lambda" unicode="&#x3bb;" horiz-adv-x="1188" 
d="M1069 0h-277l-214 675l-364 -675h-299l552 1014l-166 494h276z" />
    <glyph glyph-name="mu" unicode="&#x3bc;" 
d="M979 0h-266l16 110c-94.667 -85.333 -188 -128 -280 -128c-54 0 -98 21.667 -132 65l-60 -445h-267l197 1486h267l-89 -670c-2 -17.333 -3 -38.333 -3 -63c0 -91.333 48 -137 144 -137c46.667 0 92.334 16 137.001 48s78.667 75.667 102 131s44.666 157.333 63.999 306
l51 385h266z" />
    <glyph glyph-name="nu" unicode="&#x3bd;" horiz-adv-x="1147" 
d="M55 1088h262l170 -605l349 605h290l-631 -1088h-129z" />
    <glyph glyph-name="xi" unicode="&#x3be;" horiz-adv-x="974" 
d="M186 -392l89.9971 240.001c54.667 -20.667 111.334 -31 170.001 -31c98 0 147 30.667 147 92c0 26.667 -10.167 45.834 -30.5 57.501s-77.166 29.5 -170.499 53.5c-237.333 58 -356 188.667 -356 392c0 202 101.333 355 304 459c-90 60.667 -135 146.667 -135 258
c0 130 46.667 230.333 140 301s218.333 106 375 106c104.667 0 209.334 -15.333 314.001 -46l-105 -238c-81.333 22.667 -164.666 34 -249.999 34c-58.667 0 -108.834 -16.5 -150.501 -49.5s-62.5 -75.833 -62.5 -128.5c0 -94.667 90 -142 270 -142h147l-33 -249h-196
c-124.667 0 -214.167 -27.333 -268.5 -82s-81.5 -118.334 -81.5 -191.001c0 -48.667 16.167 -85.334 48.5 -110.001s105.5 -53 219.5 -85c194 -54 291 -149.667 291 -287c0 -126 -39.667 -222.167 -119 -288.5s-191.666 -99.5 -336.999 -99.5
c-66.667 0 -140.334 11.333 -221.001 34z" />
    <glyph glyph-name="omicron" unicode="&#x3bf;" horiz-adv-x="1311" 
d="M684 1116c96.667 0 184.5 -22.334 263.5 -67.001s140.5 -108 184.5 -190s66 -174 66 -276c0 -169.333 -60.333 -313.5 -181 -432.5s-270 -178.5 -448 -178.5c-154.667 0 -278 46.833 -370 140.5s-138 216.167 -138 367.5c0 182.667 62.333 334.334 187 455.001
s270 181 436 181zM665 862.999c-109.333 0 -193.167 -39.168 -251.5 -117.501s-87.5 -163.166 -87.5 -254.499c0 -81.333 23.833 -146.833 71.5 -196.5s111.167 -74.5 190.5 -74.5c112.667 0 198.5 37.833 257.5 113.5s88.5 162.167 88.5 259.5c0 80 -25 145 -75 195
s-114.667 75 -194 75z" />
    <glyph glyph-name="pi" unicode="&#x3c0;" horiz-adv-x="1382" 
d="M1331 838h-183l-111 -838h-266l111 838h-374l-111 -838h-266l111 838h-173l33 250h1262z" />
    <glyph glyph-name="rho" unicode="&#x3c1;" horiz-adv-x="1336" 
d="M302 147l-76.999 -545h-265l124 933c24.667 184 96.667 326.833 216 428.5s254.333 152.5 405 152.5c162 0 288.167 -52.167 378.5 -156.5s135.5 -229.833 135.5 -376.5c0 -174 -59.333 -319.333 -178 -436s-264.334 -175 -437.001 -175c-125.333 0 -226 58.333 -302 175
zM347.001 491c0 -82 23.832 -147.666 71.499 -196.999s111.167 -74 190.5 -74c101.333 0 184.333 34.333 249 103s97 158.667 97 270c0 80 -24.833 145 -74.5 195s-114.5 75 -194.5 75c-99.333 0 -180.666 -35.833 -243.999 -107.5s-95 -159.834 -95 -264.501z" />
    <glyph glyph-name="sigma1" unicode="&#x3c2;" horiz-adv-x="1199" 
d="M1184 868l-244 -125c-74 82 -159.667 123 -257 123c-100.667 0 -185.167 -32 -253.5 -96s-102.833 -145.333 -103.5 -244c0 -62 21.667 -113.5 65 -154.5s121.333 -78.5 234 -112.5c210.667 -63.333 316 -164.333 316 -303c0 -121.333 -40.667 -215.333 -122 -282
s-191 -100 -329 -100c-64.667 0 -140 11 -226 33l90 241c46.667 -20.667 103 -31 169 -31c98.667 0 148 31.667 148 95c0 39.333 -45.667 70 -137 92c-317.333 76 -476 237 -476 483c0 192.667 61.167 345.667 183.5 459s283.833 170 484.5 170
c94.667 0 184 -22.167 268 -66.5s147.333 -104.833 190 -181.5z" />
    <glyph glyph-name="sigma" unicode="&#x3c3;" horiz-adv-x="1468" 
d="M860 1088l590 -0.00195312l-33 -250h-285c44 -73.333 66 -161.666 66 -264.999c0 -176.667 -59.333 -321 -178 -433s-269 -168 -451 -168c-154 0 -277.167 46.167 -369.5 138.5s-138.5 215.5 -138.5 369.5c0 176.667 60.167 326.834 180.5 450.501
s267.833 185.5 442.5 185.5c62 0 120.667 -9.33301 176 -28zM326 490.998c0 -82 23.832 -147.666 71.499 -196.999s111.167 -74 190.5 -74c101.333 0 184.333 34.333 249 103s97 158.667 97 270c0 80 -24.833 145 -74.5 195s-114.5 75 -194.5 75
c-99.333 0 -180.666 -35.833 -243.999 -107.5s-95 -159.834 -95 -264.501z" />
    <glyph glyph-name="tau" unicode="&#x3c4;" horiz-adv-x="852" 
d="M801 838h-233l-111 -838h-266l111 838h-233l33 250h732z" />
    <glyph glyph-name="upsilon" unicode="&#x3c5;" 
d="M152 1089l266.001 0.00195312l-70 -532c-6.66699 -48 -10 -88.333 -10 -121c0 -140 70 -210 210 -210c91.333 0 164.666 33.667 219.999 101s83 150.666 83 249.999c0 121.333 -74.333 229.666 -223 324.999l170 218c211.333 -126 317 -302 317 -528
c0 -180 -55.833 -328.333 -167.5 -445s-256.167 -175 -433.5 -175c-294.667 0 -442 147 -442 441c0 48.667 4 101.667 12 159z" />
    <glyph glyph-name="phi" unicode="&#x3c6;" horiz-adv-x="1632" 
d="M839 -23l-50 -374.998h-266l50 376c-164 16 -291.5 67.667 -382.5 155s-136.5 203 -136.5 347c0 273.333 161.667 482.666 485 627.999l41 -265c-174.667 -90.667 -262 -210.334 -262 -359.001c0 -145.333 96.333 -229.333 289 -252l116 877c52 4.66699 97.667 7 137 7
c202 0 362 -45.667 480 -137s177 -216.333 177 -375c0 -378.667 -226 -587.667 -678 -627zM955 857.002l-82 -625c251.333 22.667 377 142 377 358c0 170 -98.333 259 -295 267z" />
    <glyph glyph-name="chi" unicode="&#x3c7;" horiz-adv-x="1147" 
d="M1142 1088l-474 -721l323 -765h-282l-210 524l-335 -524h-318l526 799l-290 687h282l177 -445l282 445h319z" />
    <glyph glyph-name="psi" unicode="&#x3c8;" horiz-adv-x="1560" 
d="M812 -22l-50.001 -375.999h-266l50 376c-308.667 36 -463 196 -463 480c0 37.333 2.66699 76.666 8 117.999l68 512h266l-64 -480c-8 -62.667 -12 -110.667 -12 -144c0 -71.333 18.167 -123.333 54.5 -156s95.5 -54.667 177.5 -66l112 846h266l-112 -847
c86 11.333 155.833 42 209.5 92s90.834 155 111.501 315l59 440h266l-75 -561c-22.667 -170.667 -81.5 -299.5 -176.5 -386.5s-238.167 -141.167 -429.5 -162.5z" />
    <glyph glyph-name="omega" unicode="&#x3c9;" horiz-adv-x="1756" 
d="M793 133c-80.667 -107.333 -187.667 -161.002 -321 -161.002c-134 0 -238.667 38.667 -314 116s-113 186 -113 326c0 203.333 62.833 366 188.5 488s301.5 194.333 527.5 217l-12 -250c-292.667 -36 -439 -186.667 -439 -452c0 -132.667 61.333 -199 184 -199
c120.667 0 193 92 217 276l18 131h261l-18 -131c-4 -30 -6 -59 -6 -87c0 -126 50 -189 150 -189c170 0 255 110.333 255 331c0 181.333 -112.667 288 -338 320l54 250c176.667 -19.333 312.834 -76.666 408.501 -171.999s143.5 -218.666 143.5 -369.999
c0.666992 -190.667 -47.333 -339.167 -144 -445.5s-234.334 -159.5 -413.001 -159.5c-138.667 0 -235 53.667 -289 161z" />
    <glyph glyph-name="iotadieresis" unicode="&#x3ca;" horiz-adv-x="491" 
d="M158 1088h264l-146 -1088h-266zM99 1536c34.667 0 63.833 -11.667 87.5 -35s35.5 -51.333 35.5 -84c0 -46 -16 -85.333 -48 -118s-71 -49 -117 -49c-37.333 0 -67.333 11.5 -90 34.5s-34 53.167 -34 90.5c0 42.667 16.5 80.167 49.5 112.5s71.833 48.5 116.5 48.5z
M541.999 1536c34.667 0 63.833 -11.667 87.5 -35s35.5 -51.333 35.5 -84c0 -46 -16 -85.333 -48 -118s-71 -49 -117 -49c-37.333 0 -67.333 11.5 -90 34.5s-34 53.167 -34 90.5c0 42.667 16.5 80.167 49.5 112.5s71.833 48.5 116.5 48.5z" />
    <glyph glyph-name="upsilondieresis" unicode="&#x3cb;" 
d="M152 1089l266.001 0.00195312l-70 -532c-6.66699 -48 -10 -88.333 -10 -121c0 -140 70 -210 210 -210c91.333 0 164.666 33.667 219.999 101s83 150.666 83 249.999c0 121.333 -74.333 229.666 -223 324.999l170 218c211.333 -126 317 -302 317 -528
c0 -180 -55.833 -328.333 -167.5 -445s-256.167 -175 -433.5 -175c-294.667 0 -442 147 -442 441c0 48.667 4 101.667 12 159zM499.001 1536c34.667 0 63.833 -11.667 87.5 -35s35.5 -51.333 35.5 -84c0 -46 -16 -85.333 -48 -118s-71 -49 -117 -49
c-37.333 0 -67.333 11.5 -90 34.5s-34 53.167 -34 90.5c0 42.667 16.5 80.167 49.5 112.5s71.833 48.5 116.5 48.5zM942 1536c34.667 0 63.833 -11.667 87.5 -35s35.5 -51.333 35.5 -84c0 -46 -16 -85.333 -48 -118s-71 -49 -117 -49c-37.333 0 -67.333 11.5 -90 34.5
s-34 53.167 -34 90.5c0 42.667 16.5 80.167 49.5 112.5s71.833 48.5 116.5 48.5z" />
    <glyph glyph-name="omicrontonos" unicode="&#x3cc;" horiz-adv-x="1311" 
d="M684 1116c96.667 0 184.5 -22.334 263.5 -67.001s140.5 -108 184.5 -190s66 -174 66 -276c0 -169.333 -60.333 -313.5 -181 -432.5s-270 -178.5 -448 -178.5c-154.667 0 -278 46.833 -370 140.5s-138 216.167 -138 367.5c0 182.667 62.333 334.334 187 455.001
s270 181 436 181zM665 862.999c-109.333 0 -193.167 -39.168 -251.5 -117.501s-87.5 -163.166 -87.5 -254.499c0 -81.333 23.833 -146.833 71.5 -196.5s111.167 -74.5 190.5 -74.5c112.667 0 198.5 37.833 257.5 113.5s88.5 162.167 88.5 259.5c0 80 -25 145 -75 195
s-114.667 75 -194 75zM912.999 1639l-95 -382h-196l8 382h283z" />
    <glyph glyph-name="upsilontonos" unicode="&#x3cd;" 
d="M152 1089l266.001 0.00195312l-70 -532c-6.66699 -48 -10 -88.333 -10 -121c0 -140 70 -210 210 -210c91.333 0 164.666 33.667 219.999 101s83 150.666 83 249.999c0 121.333 -74.333 229.666 -223 324.999l170 218c211.333 -126 317 -302 317 -528
c0 -180 -55.833 -328.333 -167.5 -445s-256.167 -175 -433.5 -175c-294.667 0 -442 147 -442 441c0 48.667 4 101.667 12 159zM872.001 1639l-95 -382h-196l8 382h283z" />
    <glyph glyph-name="omegatonos" unicode="&#x3ce;" horiz-adv-x="1756" 
d="M793 133c-80.667 -107.333 -187.667 -161.002 -321 -161.002c-134 0 -238.667 38.667 -314 116s-113 186 -113 326c0 203.333 62.833 366 188.5 488s301.5 194.333 527.5 217l-12 -250c-292.667 -36 -439 -186.667 -439 -452c0 -132.667 61.333 -199 184 -199
c120.667 0 193 92 217 276l18 131h261l-18 -131c-4 -30 -6 -59 -6 -87c0 -126 50 -189 150 -189c170 0 255 110.333 255 331c0 181.333 -112.667 288 -338 320l54 250c176.667 -19.333 312.834 -76.666 408.501 -171.999s143.5 -218.666 143.5 -369.999
c0.666992 -190.667 -47.333 -339.167 -144 -445.5s-234.334 -159.5 -413.001 -159.5c-138.667 0 -235 53.667 -289 161zM1135 1639l-95 -382h-196l8 382h283z" />
    <glyph glyph-name="afii10023" unicode="&#x401;" horiz-adv-x="1065" 
d="M245 1471h799l-34 -261h-520l-42 -304h522l-33 -259h-522l-52 -390h525l-35 -257h-801zM446 1865c34.667 0 63.833 -11.667 87.5 -35s35.5 -51.333 35.5 -84c0 -46 -16 -85.333 -48 -118s-71 -49 -117 -49c-37.333 0 -67.333 11.5 -90 34.5s-34 53.167 -34 90.5
c0 42.667 16.5 80.167 49.5 112.5s71.833 48.5 116.5 48.5zM888.999 1865c34.667 0 63.833 -11.667 87.5 -35s35.5 -51.333 35.5 -84c0 -46 -16 -85.333 -48 -118s-71 -49 -117 -49c-37.333 0 -67.333 11.5 -90 34.5s-34 53.167 -34 90.5c0 42.667 16.5 80.167 49.5 112.5
s71.833 48.5 116.5 48.5z" />
    <glyph glyph-name="afii10051" unicode="&#x402;" horiz-adv-x="1366" 
d="M429 0l-285.001 0.000976562l162 1195h-261l37 276h814l-38 -276h-268l-37 -279h93c153.333 0 268 -11.333 344 -34s138.833 -67.834 188.5 -135.501s74.5 -157.5 74.5 -269.5c0 -152.667 -36.667 -276.167 -110 -370.5s-172.333 -141.5 -297 -141.5
c-72.667 0 -154.667 19.667 -246 59l121 225c32 -13.333 62.667 -20 92 -20c98.667 0 148 72.333 148 217c0 76 -20.667 128.667 -62 158s-129.666 44 -264.999 44h-118z" />
    <glyph glyph-name="afii10052" unicode="&#x403;" horiz-adv-x="950" 
d="M268 1471h730l-37 -274h-453l-162 -1197h-277zM690 1976h323l-421 -391h-196z" />
    <glyph glyph-name="afii10053" unicode="&#x404;" horiz-adv-x="1593" 
d="M1279 443l163 -198.002c-131.333 -114 -249.5 -189.5 -354.5 -226.5s-212.833 -55.5 -323.5 -55.5c-208 0 -373.833 60.333 -497.5 181s-185.5 279.334 -185.5 476.001c0 252.667 90.333 463.834 271 633.501s391.334 254.5 632.001 254.5
c244.667 0 442.667 -98.667 594 -296l-221 -187c-112 140.667 -252.667 211 -422 211c-115.333 0 -224.5 -35 -327.5 -105s-172.5 -163.333 -208.5 -280h563l-34 -255h-564c16 -120.667 66 -211.5 150 -272.5s181 -91.5 291 -91.5c83.333 0 161.166 15.833 233.499 47.5
s152.5 86.167 240.5 163.5zM355 719.998z" />
    <glyph glyph-name="afii10054" unicode="&#x405;" horiz-adv-x="1065" 
d="M1017 1266l-200.999 -178.001c-82.667 106.667 -159.667 160 -231 160c-35.333 0 -64.666 -10.5 -87.999 -31.5s-35 -46.167 -35 -75.5c0 -27.333 10.667 -57.666 32 -90.999s86 -107 194 -221c57.333 -60.667 95 -103.667 113 -129
c43.333 -58.667 74.5 -113.5 93.5 -164.5s28.5 -102.833 28.5 -155.5c0 -118 -42 -217 -126 -297s-191.667 -120 -323 -120c-200 0 -363 95 -489 285l212 171c85.333 -130 177.666 -195 276.999 -195c47.333 0 87.166 15.333 119.499 46s48.5 67.667 48.5 111
c0 34 -9.83301 68.667 -29.5 104s-75.834 102 -168.501 200c-98 103.333 -162.333 181.333 -193 234c-41.333 71.333 -62 141.333 -62 210c0 90.667 29.667 172 89 244c74.667 90 175.334 135 302.001 135c174 0 319.667 -80.667 437 -242z" />
    <glyph glyph-name="afii10055" unicode="&#x406;" horiz-adv-x="573" 
d="M256 1471h270l-203 -1471h-265z" />
    <glyph glyph-name="afii10056" unicode="&#x407;" horiz-adv-x="573" 
d="M256 1471h270l-203 -1471h-265zM212 1865c34.667 0 63.833 -11.667 87.5 -35s35.5 -51.333 35.5 -84c0 -46 -16 -85.333 -48 -118s-71 -49 -117 -49c-37.333 0 -67.333 11.5 -90 34.5s-34 53.167 -34 90.5c0 42.667 16.5 80.167 49.5 112.5s71.833 48.5 116.5 48.5z
M654.999 1865c34.667 0 63.833 -11.667 87.5 -35s35.5 -51.333 35.5 -84c0 -46 -16 -85.333 -48 -118s-71 -49 -117 -49c-37.333 0 -67.333 11.5 -90 34.5s-34 53.167 -34 90.5c0 42.667 16.5 80.167 49.5 112.5s71.833 48.5 116.5 48.5z" />
    </font>
</defs>
</svg>
