<?xml version="1.0" standalone="no"?>
<!DOCTYPE svg PUBLIC "-//W3C//DTD SVG 1.1//EN" "http://www.w3.org/Graphics/SVG/1.1/DTD/svg11.dtd" >
<svg>
<metadata>
Created by FontForge 20090914 at Tue Dec 13 12:37:37 2011
 By www-data
Typeface &#194;&#169; The Monotype Corporation plc. Data &#194;&#169; The Monotype Corporation plc / Type Solutions Inc. 1990-91 All Rights Reserved
</metadata>
<defs>
<font id="webfont-italic" horiz-adv-x="1460" >
  <font-face 
    font-family="Century Gothic"
    font-weight="400"
    font-style="italic"
    font-stretch="normal"
    units-per-em="2048"
    panose-1="2 11 5 2 2 2 2 9 2 4"
    ascent="1638"
    descent="-410"
    x-height="1088"
    cap-height="1471"
    bbox="-394 -628 2401 2170"
    underline-thickness="119"
    underline-position="-138"
    slope="-7.59999"
    unicode-range="U+0020-U+F108"
  />
<missing-glyph horiz-adv-x="1536" 
d="M256 0v1280h1024v-1280h-1024zM288 32h960v1216h-960v-1216z" />
    <glyph glyph-name=".notdef" horiz-adv-x="1536" 
d="M256 0v1280h1024v-1280h-1024zM288 32h960v1216h-960v-1216z" />
    <glyph glyph-name="space" unicode=" " horiz-adv-x="567" 
 />
    <glyph glyph-name="exclam" unicode="!" horiz-adv-x="604" 
d="M317 1508h138l-151 -1141h-140zM205 216c34 0 62.833 -12 86.5 -36s35.5 -52.667 35.5 -86s-11.833 -62 -35.5 -86s-52.5 -36 -86.5 -36s-62.833 12 -86.5 36s-35.5 52.667 -35.5 86s11.833 62 35.5 86s52.5 36 86.5 36z" />
    <glyph glyph-name="quotedbl" unicode="&#x22;" horiz-adv-x="633" 
d="M616 1045h-103l-22 463h148zM228 1045h-104l-22 463h148z" />
    <glyph glyph-name="numbersign" unicode="#" horiz-adv-x="1475" 
d="M1233 602v-108h-248l-72 -494h-112l72 494h-333l-76 -494h-110l76 494h-246v108h263l51 334h-253v109h269l70 468h107l-68 -468h332l68 468h112l-69 -468h224v-109h-240l-48 -334h231zM940 936h-334l-49 -334h332z" />
    <glyph glyph-name="dollar" unicode="$" horiz-adv-x="1135" 
d="M1032 1255l-114 -83.002c-40 48.667 -72.833 82.667 -98.5 102s-56.167 35.333 -91.5 48l-75 -504c132.667 -74 222.334 -143.167 269.001 -207.5s70 -137.5 70 -219.5c0 -112 -42.167 -209.333 -126.5 -292s-196.166 -128.667 -335.499 -138l-45 -311h-132l48 320
c-94.667 18 -173.334 52.333 -236.001 103s-111.334 115.667 -146.001 195l129 65c31.333 -64 68.166 -113.667 110.499 -149s96.166 -61.666 161.499 -78.999l90 623c-102 55.333 -173.333 107 -214 155c-60 70 -90 144.333 -90 223c0 58.667 17.333 115.834 52 171.501
s84.5 101.167 149.5 136.5s134.833 54.333 209.5 57l17 109h131l-19 -120c60.667 -17.333 112.334 -41 155.001 -71s86.334 -74.667 131.001 -134zM596 1336c-76 -11.333 -136.167 -39.332 -180.5 -83.999s-66.5 -95 -66.5 -151c0 -39.333 14.833 -78.333 44.5 -117
s75.5 -73.334 137.5 -104.001zM552 97.999c99.333 17.333 171.334 50.666 216.001 99.999c53.333 58.667 80 123 80 193c0 44.667 -14.333 87.834 -43 129.501s-86.334 89.167 -173.001 142.5z" />
    <glyph glyph-name="percent" unicode="%" horiz-adv-x="1587" 
d="M1491 1536l-1307 -1638h-116l1202 1510c-59.333 -14.667 -121.333 -25.667 -186 -33s-131.667 -11 -201 -11c-33.333 0 -75.666 1.66699 -126.999 5c32 -52 48 -106.667 48 -164c0 -112 -37.167 -205.667 -111.5 -281s-167.5 -113 -279.5 -113
c-91.333 0 -165.5 28.5 -222.5 85.5s-85.5 129.5 -85.5 217.5c0 110 40 203.167 120 279.5s168 114.5 264 114.5c26 0 67 -5.66699 123 -17c106 -22 196.333 -33 271 -33c82 0 165 6.5 249 19.5s169 32.5 255 58.5h104zM491.999 1399c-72 0 -134.501 -27.333 -187.501 -82
s-79.5 -118.667 -79.5 -192c0 -60 18.667 -109.667 56 -149s85 -59 143 -59c76.667 0 139.334 28.5 188.001 85.5s73 122.833 73 197.5c0 58 -18.167 105.667 -54.5 143s-82.5 56 -138.5 56zM1186 659c86.667 0 159.833 -29.1689 219.5 -87.502s89.5 -130.166 89.5 -215.499
c0 -103.333 -35.333 -194.666 -106 -273.999s-166 -119 -286 -119c-90.667 0 -164.5 28.5 -221.5 85.5s-85.5 129.167 -85.5 216.5c0 106 39 198.167 117 276.5s169 117.5 273 117.5zM1182 550.998c-72 0 -134.5 -27.333 -187.5 -82s-79.5 -119 -79.5 -193
c0 -60 18.833 -109.667 56.5 -149s85.167 -59 142.5 -59c77.333 0 140.333 28.5 189 85.5s73 122.833 73 197.5c0 58 -18.333 105.833 -55 143.5s-83 56.5 -139 56.5z" />
    <glyph glyph-name="ampersand" unicode="&#x26;" horiz-adv-x="1550" 
d="M1270 551l91.999 -112c-75.333 -62 -141.666 -113 -198.999 -153c64.667 -82 151.334 -177.333 260.001 -286h-200l-126 132c-17.333 19.333 -36 41.333 -56 66c-208.667 -156.667 -395.334 -235 -560.001 -235c-77.333 0 -141.5 14 -192.5 42s-92.667 69.5 -125 124.5
s-48.5 113.167 -48.5 174.5c0 53.333 9.66699 101 29 143c26 55.333 63.167 106.333 111.5 153s144.833 118 289.5 214c-85.333 124 -128 228 -128 312c0 82 32.333 151.167 97 207.5s147 84.5 247 84.5c86.667 0 157.667 -24.333 213 -73s83 -106 83 -172
c0 -60 -20 -120.167 -60 -180.5s-120.333 -133.5 -241 -219.5c66.667 -88 141 -179.333 223 -274l87 -103l112 83zM671.999 891c98.667 70 162.334 124.501 191.001 163.501s43 75.167 43 108.5c0 30 -14.167 56.333 -42.5 79s-66.833 34 -115.5 34
c-54.667 0 -98.334 -14.333 -131.001 -43s-49 -62.334 -49 -101.001c0 -54 34.667 -134.333 104 -241zM630.999 694.001c-151.333 -91.333 -253.667 -169.335 -307 -234.002c-40 -48 -60 -99.333 -60 -154c0 -63.333 22 -113.166 66 -149.499s92.667 -54.5 146 -54.5
c51.333 0 117.333 17.333 198 52c60 26 151 77.333 273 154c-22.667 22.667 -45 47.334 -67 74.001z" />
    <glyph glyph-name="quotesingle" unicode="'" horiz-adv-x="405" 
d="M308 1045h-103l-22 463h148z" />
    <glyph glyph-name="parenleft" unicode="(" horiz-adv-x="756" 
d="M553 1536l162 -0.00195312c-120 -191.333 -214.667 -410.833 -284 -658.5s-104 -506.167 -104 -775.5c0 -200 21 -376 63 -528h-154c-41.333 148 -62 316.667 -62 506c0 254.667 33.5 509.834 100.5 765.501s159.833 485.834 278.5 690.501z" />
    <glyph glyph-name="parenright" unicode=")" horiz-adv-x="756" 
d="M93 -426l-162 0.00292969c120 190.667 214.833 410.834 284.5 660.501s104.5 505.167 104.5 766.5c0 203.333 -21.333 381.666 -64 534.999h154c40 -144.667 60 -315.334 60 -512.001c0 -254.667 -33.167 -508.834 -99.5 -762.501s-158.833 -482.834 -277.5 -687.501z
" />
    <glyph glyph-name="asterisk" unicode="*" horiz-adv-x="870" 
d="M399 1508h130l-29 -297l246 176l66 -112l-277 -125l277 -123l-66 -113l-246 174l29 -297h-130l31 297l-246 -174l-66 113l281 123l-281 125l66 112l246 -176z" />
    <glyph glyph-name="plus" unicode="+" horiz-adv-x="1241" 
d="M552 804v434h137v-434h438v-137h-438v-434h-137v434h-437v137h437z" />
    <glyph glyph-name="comma" unicode="," horiz-adv-x="567" 
d="M187 270l127 -64l-256 -376l-94 41z" />
    <glyph glyph-name="hyphen" unicode="-" horiz-adv-x="680" 
d="M21 614h551l-18 -122h-550z" />
    <glyph glyph-name="hyphen" unicode="&#xad;" horiz-adv-x="680" 
d="M21 614h551l-18 -122h-550z" />
    <glyph glyph-name="period" unicode="." horiz-adv-x="567" 
d="M182 216c34 0 62.833 -12 86.5 -36s35.5 -52.667 35.5 -86s-11.833 -62 -35.5 -86s-52.5 -36 -86.5 -36s-62.833 12 -86.5 36s-35.5 52.667 -35.5 86s11.833 62 35.5 86s52.5 36 86.5 36z" />
    <glyph glyph-name="slash" unicode="/" horiz-adv-x="895" 
d="M836 1508l-611 -1708h-153l610 1708h154z" />
    <glyph glyph-name="zero" unicode="0" horiz-adv-x="1135" 
d="M633 1508c111.333 0 204.835 -48.167 280.502 -144.5s113.5 -233.166 113.5 -410.499c0 -202.667 -31 -384.5 -93 -545.5s-136.333 -275.333 -223 -343s-179.334 -101.5 -278.001 -101.5c-74.667 0 -140.5 19.833 -197.5 59.5s-103 99.667 -138 180
s-52.5 184.166 -52.5 311.499c0 211.333 29.667 395.833 89 553.5s133.166 270.5 221.499 338.5s180.833 102 277.5 102zM619.002 1368c-60 0 -123.499 -29.1699 -190.499 -87.5029s-122.833 -155.666 -167.5 -291.999s-67 -298.833 -67 -487.5
c0 -135.333 23.667 -235.666 71 -300.999s106 -98 176 -98c71.333 0 140.166 32.833 206.499 98.5s118.833 159.834 157.5 282.501c48.667 153.333 73 317 73 491c0 131.333 -24.667 229.833 -74 295.5s-111 98.5 -185 98.5z" />
    <glyph glyph-name="one" unicode="1" horiz-adv-x="1135" 
d="M451 1471h307l-195 -1471h-144l177 1329h-198z" />
    <glyph glyph-name="two" unicode="2" horiz-adv-x="1135" 
d="M275 1026l-148.999 0.00195312c8 153.333 53.667 272 137 356s191.333 126 324 126c112.667 0 206.667 -36.833 282 -110.5s113 -164.834 113 -273.501c0 -76 -19.333 -151.333 -58 -226s-138.334 -199.334 -299.001 -374.001l-343 -379h631l-17 -145h-936l485 539
c185.333 206 296.166 341 332.499 405s54.5 125.333 54.5 184c0 68 -24.667 125.5 -74 172.5s-111.666 70.5 -186.999 70.5c-84 0 -153.167 -30 -207.5 -90s-83.833 -145 -88.5 -255z" />
    <glyph glyph-name="three" unicode="3" horiz-adv-x="1135" 
d="M344 1155h-149.003c15.333 105.333 61.333 190.5 138 255.5s167.334 97.5 272.001 97.5c111.333 0 203 -35.833 275 -107.5s108 -163.5 108 -275.5c0 -74 -17.833 -137 -53.5 -189s-97.5 -99.333 -185.5 -142c138.667 -80.667 208 -195 208 -343
c0 -87.333 -22.167 -168.5 -66.5 -243.5s-106 -134.5 -185 -178.5s-164.167 -66 -255.5 -66c-116.667 0 -215.334 37.667 -296.001 113s-129 179.666 -145 312.999h147c10.667 -70 27.834 -123.167 51.501 -159.5s58.334 -66.166 104.001 -89.499s93.5 -35 143.5 -35
c90 0 171.167 34.833 243.5 104.5s108.5 147.167 108.5 232.5c0 55.333 -14.167 106.166 -42.5 152.499s-69 81.5 -122 105.5s-122.5 36 -208.5 36l16 130l38 -1c105.333 0 190.5 26.333 255.5 79s97.5 115.667 97.5 189c0 64.667 -23.667 119.334 -71 164.001
s-105.666 67 -174.999 67c-64 0 -119.167 -19 -165.5 -57s-74.833 -88.667 -85.5 -152z" />
    <glyph glyph-name="four" unicode="4" horiz-adv-x="1135" 
d="M893 1508l-140 -1050h206l-19 -146h-205l-41 -312h-142l41 312h-645l914 1196h31zM691 1043l-448 -585h369z" />
    <glyph glyph-name="five" unicode="5" horiz-adv-x="1135" 
d="M455 1471h595.001l-19 -145h-472l-104 -355c32.667 3.33301 59 5 79 5c71.333 0 139.333 -20.333 204 -61s116.167 -97.834 154.5 -171.501s57.5 -154.167 57.5 -241.5c0 -98 -23.333 -189.833 -70 -275.5s-107.834 -151 -183.501 -196s-160.5 -67.5 -254.5 -67.5
c-99.333 0 -187 25.833 -263 77.5s-139.333 132.834 -190 243.501l136 59c34 -78.667 79.333 -138 136 -178s118.334 -60 185.001 -60c89.333 0 170.666 35.5 243.999 106.5s110 166.833 110 287.5c0 102 -29.667 185 -89 249s-135 96 -227 96c-72 0 -149.667 -17 -233 -51z
" />
    <glyph glyph-name="six" unicode="6" horiz-adv-x="1135" 
d="M713 1508l105 -86.001l-395 -469c46.667 14.667 88.667 22 126 22c112.667 0 212 -40.333 298 -121c101.333 -94.667 152 -217.334 152 -368.001c0 -148 -48.333 -272.167 -145 -372.5s-216 -150.5 -358 -150.5c-135.333 0 -248.5 46 -339.5 138
s-136.5 206.333 -136.5 343c0 88.667 19 174.334 57 257.001s119.333 197.334 244 344.001zM517 841.999c-97.333 0 -180.334 -37 -249.001 -111s-103 -165.333 -103 -274c0 -100.667 31.833 -184.167 95.5 -250.5s140.5 -99.5 230.5 -99.5c91.333 0 174.5 34.5 249.5 103.5
s112.5 161.167 112.5 276.5c0 100.667 -32.667 185 -98 253s-144.666 102 -237.999 102z" />
    <glyph glyph-name="seven" unicode="7" horiz-adv-x="1135" 
d="M177 1471h932l-954 -1508l-116 73l819 1296h-703z" />
    <glyph glyph-name="eight" unicode="8" horiz-adv-x="1135" 
d="M746 794c71.333 -36.667 124.002 -78.334 158.002 -125.001c47.333 -65.333 71 -139.666 71 -222.999c0 -86 -22.5 -166.667 -67.5 -242s-107.5 -134.333 -187.5 -177s-169 -64 -267 -64c-128.667 0 -235.334 40 -320.001 120s-127 175.667 -127 287
c0 92 26.833 176 80.5 252s136.5 139.667 248.5 191c-61.333 41.333 -104.833 84.5 -130.5 129.5s-38.5 94.5 -38.5 148.5c0 110 45 207 135 291s197.667 126 323 126c109.333 0 200.166 -34.833 272.499 -104.5s108.5 -153.834 108.5 -252.501
c0 -75.333 -21.5 -142.666 -64.5 -201.999s-107.833 -111 -194.5 -155zM620.002 1364c-86 0 -158.667 -27.1689 -218 -81.502s-89 -117.166 -89 -188.499c0 -64 23 -116.833 69 -158.5s106.667 -62.5 182 -62.5c81.333 0 150.333 27.167 207 81.5s85 117.833 85 190.5
c0 60.667 -22.5 112.334 -67.5 155.001s-101.167 64 -168.5 64zM542.002 726.998c-102 0 -192.001 -32.668 -270.001 -98.001s-117 -150.666 -117 -255.999c0 -79.333 28 -144.833 84 -196.5s129 -77.5 219 -77.5c68 0 131.333 15.167 190 45.5s104.334 72.5 137.001 126.5
s49 109.667 49 167c0 81.333 -27.833 149.833 -83.5 205.5s-125.167 83.5 -208.5 83.5z" />
    <glyph glyph-name="nine" unicode="9" horiz-adv-x="1135" 
d="M351 -37l-104.998 86l395 468c-46 -14.667 -87.667 -22 -125 -22c-112.667 0 -212.334 40.667 -299.001 122c-100.667 94 -151 216.667 -151 368c0 148 48.333 272.167 145 372.5s215.667 150.5 357 150.5c135.333 0 248.666 -46.167 339.999 -138.5
s137 -206.833 137 -343.5c0 -88.667 -19.167 -174.167 -57.5 -256.5s-119.5 -196.833 -243.5 -343.5zM548.002 629c97.333 0 180.334 36.832 249.001 110.499s103 165.167 103 274.5c0 100 -32 183.333 -96 250s-141 100 -231 100c-91.333 0 -174.333 -34.667 -249 -104
s-112 -161.666 -112 -276.999c0 -100 32.667 -184 98 -252s144.666 -102 237.999 -102z" />
    <glyph glyph-name="colon" unicode=":" horiz-adv-x="567" 
d="M305 1116c34 0 62.833 -12 86.5 -36s35.5 -52.667 35.5 -86c0 -34 -11.833 -62.833 -35.5 -86.5s-52.5 -35.5 -86.5 -35.5s-62.833 11.833 -86.5 35.5s-35.5 52.5 -35.5 86.5c0 33.333 12 62 36 86s52.667 36 86 36zM182 216c34 0 62.833 -12 86.5 -36
s35.5 -52.667 35.5 -86s-11.833 -62 -35.5 -86s-52.5 -36 -86.5 -36s-62.833 12 -86.5 36s-35.5 52.667 -35.5 86s11.833 62 35.5 86s52.5 36 86.5 36z" />
    <glyph glyph-name="semicolon" unicode=";" horiz-adv-x="567" 
d="M306 1116c34 0 62.833 -12 86.5 -36s35.5 -52.667 35.5 -86c0 -34 -11.833 -62.833 -35.5 -86.5s-52.5 -35.5 -86.5 -35.5s-62.833 11.833 -86.5 35.5s-35.5 52.5 -35.5 86.5c0 33.333 11.833 62 35.5 86s52.5 36 86.5 36zM187 270l127 -64l-256 -376l-94 41z" />
    <glyph glyph-name="semicolon" unicode="&#x37e;" horiz-adv-x="567" 
d="M306 1116c34 0 62.833 -12 86.5 -36s35.5 -52.667 35.5 -86c0 -34 -11.833 -62.833 -35.5 -86.5s-52.5 -35.5 -86.5 -35.5s-62.833 11.833 -86.5 35.5s-35.5 52.5 -35.5 86.5c0 33.333 11.833 62 35.5 86s52.5 36 86.5 36zM187 270l127 -64l-256 -376l-94 41z" />
    <glyph glyph-name="less" unicode="&#x3c;" horiz-adv-x="1241" 
d="M1137 347v-146l-1033 469v130l1033 471v-147l-839 -390z" />
    <glyph glyph-name="equal" unicode="=" horiz-adv-x="1241" 
d="M1127 1024v-137h-1012v137h1012zM1127 584v-137h-1012v137h1012z" />
    <glyph glyph-name="greater" unicode="&#x3e;" horiz-adv-x="1241" 
d="M104 347l839 387l-839 390v147l1033 -471v-130l-1033 -469v146z" />
    <glyph glyph-name="question" unicode="?" horiz-adv-x="1210" 
d="M353 1100l-136.004 0.00292969c15.333 143.333 65.333 251.833 150 325.5s192 110.5 322 110.5c113.333 0 204.833 -30.333 274.5 -91s104.5 -135.667 104.5 -225c0 -66 -15.667 -123.833 -47 -173.5s-78 -91.834 -140 -126.501
c-29.333 -16.667 -106.666 -46.667 -231.999 -90c-105.333 -36.667 -176.666 -73.334 -213.999 -110.001c-38 -37.333 -57 -75.333 -57 -114c0 -33.333 17 -63 51 -89s78.333 -39 133 -39c66.667 0 121.334 18.167 164.001 54.5s70.667 91.166 84 164.499h136
c-10 -112 -48.5 -198.667 -115.5 -260s-157.167 -92 -270.5 -92c-95.333 0 -171.666 26 -228.999 78s-86 116 -86 192c0 72 25.667 134.333 77 187c50.667 52 171.334 112.333 362.001 181c93.333 34 154.666 63.333 183.999 88c41.333 36 62 84 62 144
c0 56 -21.667 101 -65 135s-107 51 -191 51c-188.667 0 -295.667 -100.333 -321 -301zM504.996 216.003c33.333 0 62 -12 86 -36s36 -52.667 36 -86c0 -34 -11.833 -62.833 -35.5 -86.5s-52.5 -35.5 -86.5 -35.5s-62.833 12 -86.5 36s-35.5 52.667 -35.5 86
s11.833 62 35.5 86s52.5 36 86.5 36z" />
    <glyph glyph-name="at" unicode="@" horiz-adv-x="1776" 
d="M1444 301l106.001 0.00292969c-89.333 -111.333 -172 -189.333 -248 -234c-108 -62.667 -231 -94 -369 -94c-146 0 -280.667 34.5 -404 103.5s-219.5 163.167 -288.5 282.5s-103.5 249.666 -103.5 390.999c0 143.333 34.833 276.666 104.5 399.999
s164.5 219.166 284.5 287.499s251.333 102.5 394 102.5c201.333 0 371.333 -64.5 510 -193.5s208 -279.167 208 -450.5c0 -124.667 -28.833 -232.167 -86.5 -322.5s-135.834 -160.5 -234.501 -210.5c-75.333 -38.667 -139.666 -58 -192.999 -58
c-38.667 0 -69.334 10.333 -92.001 31c-17.333 15.333 -26.333 42 -27 80c-22.667 -28.667 -53.834 -52.667 -93.501 -72s-80.834 -29 -123.501 -29c-96 0 -175.333 33.167 -238 99.5s-94 154.166 -94 263.499c0 118 38 225.667 114 323s180.667 146 314 146
c58.667 0 107.834 -11 147.501 -33s77.167 -60.333 112.5 -115l26 138h108l-116 -654c-3.33301 -21.333 -5 -35 -5 -41c0 -15.333 4.66699 -27.333 14 -36s21.333 -13 36 -13c39.333 0 90.5 22.833 153.5 68.5s112 104.334 147 176.001s52.5 151.167 52.5 238.5
c0 169.333 -65.667 309.666 -197 420.999c-122.667 103.333 -272 155 -448 155c-130.667 0 -249.167 -29.833 -355.5 -89.5s-190.333 -143.667 -252 -252s-92.5 -225.5 -92.5 -351.5c0 -127.333 31 -244.833 93 -352.5s147.833 -192.167 257.5 -253.5s230.5 -92 362.5 -92
c96.667 0 184.334 17.333 263.001 52s163 97.334 253 188.001zM838.001 428.003c44 0 85.332 13.833 123.999 41.5s69.334 69.167 92.001 124.5c29.333 72.667 44 145.667 44 219c0 67.333 -18.833 122 -56.5 164s-86.5 63 -146.5 63c-80 0 -149.167 -32.833 -207.5 -98.5
s-87.5 -147.5 -87.5 -245.5c0 -82 22.167 -147.167 66.5 -195.5s101.5 -72.5 171.5 -72.5z" />
    <glyph glyph-name="A" unicode="A" horiz-adv-x="1515" 
d="M852 1471l493 -1471h-151l-161 481h-623l-275 -481h-164l847 1471h34zM805 1163l-314 -542h496z" />
    <glyph glyph-name="B" unicode="B" horiz-adv-x="1176" 
d="M246 1471l189.001 -0.000976562c185.333 0 310.666 -11.167 375.999 -33.5s118.166 -61.166 158.499 -116.499s60.5 -120.666 60.5 -195.999c0 -78.667 -21.333 -149 -64 -211s-100 -106.667 -172 -134c86.667 -26.667 154.667 -72.167 204 -136.5s74 -140.5 74 -228.5
c0 -90 -21.167 -167.333 -63.5 -232s-99.166 -111.334 -170.499 -140.001s-194.333 -43 -369 -43h-419zM373.001 1331l-65.999 -488c28.667 -2.66699 62 -4 100 -4c133.333 0 229.5 10.667 288.5 32s104.833 54.833 137.5 100.5s49 96.167 49 151.5
c0 72 -25.5 125.167 -76.5 159.5s-159.5 51.5 -325.5 51.5c-28.667 0 -64.334 -1 -107.001 -3zM289.002 698.999l-74 -560.002h199c138.667 0 234 5.66699 286 17c73.333 16.667 128.833 46.834 166.5 90.501s56.5 99.834 56.5 168.501c0 61.333 -15.333 112.5 -46 153.5
s-81 73 -151 96s-174.667 34.5 -314 34.5h-123z" />
    <glyph glyph-name="C" unicode="C" horiz-adv-x="1665" 
d="M1576 1268l-89 -123.003c-156 146.667 -333.667 220 -533 220c-130 0 -251.5 -31.667 -364.5 -95s-201.333 -148.666 -265 -255.999s-95.5 -222.666 -95.5 -345.999c0 -110 24.5 -207.667 73.5 -293s119.833 -152.166 212.5 -200.499s198.667 -72.5 318 -72.5
c182 0 351.667 57.667 509 173l82 -117c-116.667 -76.667 -217 -128.334 -301 -155.001s-181 -40 -291 -40c-203.333 0 -369 51 -497 153c-170 136.667 -255 319 -255 547c0 235.333 85 435 255 599s381.333 246 634 246c115.333 0 220.333 -18.167 315 -54.5
s192 -98.166 292 -185.499z" />
    <glyph glyph-name="D" unicode="D" horiz-adv-x="1524" 
d="M241 1471l316.001 0.000976562c200 0 353.333 -26.167 460 -78.5s192.667 -133.333 258 -243s98 -234.834 98 -375.501c0 -150 -36.833 -288.667 -110.5 -416s-164.334 -218.833 -272.001 -274.5s-268.167 -83.5 -481.5 -83.5h-463zM368.001 1329l-157.001 -1186h129
c198.667 0 330.334 5.33301 395.001 16c98.667 16 181.667 47.5 249 94.5s125 117.333 173 211s72 195.834 72 306.501c0 116.667 -27.167 218.667 -81.5 306s-128.833 152.666 -223.5 195.999c-80.667 37.333 -217 56 -409 56h-147z" />
    <glyph glyph-name="E" unicode="E" horiz-adv-x="1098" 
d="M1056 1471l-21 -143h-662l-65 -482h662l-19 -141h-662l-75 -564h662l-17 -141h-811l197 1471h811z" />
    <glyph glyph-name="F" unicode="F" horiz-adv-x="993" 
d="M955 1471l-18 -144h-565l-65 -481h565l-18 -141h-565l-97 -705h-145l198 1471h710z" />
    <glyph glyph-name="G" unicode="G" horiz-adv-x="1786" 
d="M1597 1155l-117.998 -87.0029c-74 96.667 -160.833 170.834 -260.5 222.501s-201.834 77.5 -306.501 77.5c-117.333 0 -230 -31.5 -338 -94.5s-192.833 -146.667 -254.5 -251s-92.5 -216.166 -92.5 -335.499c0 -162 57.833 -299.833 173.5 -413.5
s256.5 -170.5 422.5 -170.5c99.333 0 194.666 20.333 285.999 61s165.333 94.667 222 162s98 150.666 124 249.999h-539v145h716c-14.667 -225.333 -95.5 -408 -242.5 -548s-330.167 -210 -549.5 -210c-225.333 0 -408.333 68.333 -549 205s-211 308.334 -211 515.001
c0 147.333 37 284.833 111 412.5s175.833 228.334 305.5 302.001s269.5 110.5 419.5 110.5c271.333 0 498.333 -117.667 681 -353z" />
    <glyph glyph-name="H" unicode="H" horiz-adv-x="1399" 
d="M245 1471h145l-79 -598h753l80 598h143l-193 -1471h-144l97 734h-757l-96 -734h-146z" />
    <glyph glyph-name="I" unicode="I" horiz-adv-x="463" 
d="M238 1471h148l-199 -1471h-148z" />
    <glyph glyph-name="J" unicode="J" horiz-adv-x="987" 
d="M680 1471l145 0.000976562l-133 -1014c-20 -152.667 -43.167 -257.5 -69.5 -314.5s-65 -101.167 -116 -132.5s-110.167 -47 -177.5 -47c-62 0 -121.667 13.5 -179 40.5s-115.666 72.5 -174.999 136.5l113 80c83.333 -80.667 164.666 -121 243.999 -121
c60 0 108.333 27.333 145 82c28 41.333 51 129.666 69 264.999z" />
    <glyph glyph-name="K" unicode="K" horiz-adv-x="1210" 
d="M243 1471h145l-79 -597l689 597h211l-797 -688l690 -783h-188l-625 710l-98 -710h-144z" />
    <glyph glyph-name="L" unicode="L" horiz-adv-x="946" 
d="M246 1471h148l-177 -1333h636l-17 -138h-784z" />
    <glyph glyph-name="M" unicode="M" horiz-adv-x="1882" 
d="M1642 1471v-1471h-138v1014l-638 -1014h-37l-381 1050l-302 -1050h-149l425 1471h24l430 -1195l743 1195h23z" />
    <glyph glyph-name="N" unicode="N" horiz-adv-x="1515" 
d="M1265 1471h144l-199 -1471h-32l-828 1140l-154 -1140h-146l198 1471h32l830 -1142z" />
    <glyph glyph-name="O" unicode="O" horiz-adv-x="1780" 
d="M956 1508c198 0 362.833 -65.001 494.5 -195.001s197.5 -294.333 197.5 -493c0 -242 -83.5 -445.333 -250.5 -610s-375.167 -247 -624.5 -247c-212 0 -381.667 63.333 -509 190s-191 292.334 -191 497.001c0 158 38.167 303 114.5 435s182 235.5 317 310.5
s285.5 112.5 451.5 112.5zM953 1369c-140.667 0 -266.167 -30.667 -376.5 -92s-197.666 -148.333 -261.999 -261s-96.5 -232.667 -96.5 -360c0 -108 23.333 -204.833 70 -290.5s111.167 -151.167 193.5 -196.5s179.166 -68 290.499 -68c132 0 254.333 31.833 367 95.5
s201.167 152 265.5 265s96.5 235.167 96.5 366.5c0 174 -61 312 -183 414c-101.333 84.667 -223 127 -365 127z" />
    <glyph glyph-name="P" unicode="P" horiz-adv-x="1212" 
d="M262 1471l400.998 0.000976562c132.667 0 227.834 -12.333 285.501 -37s103.834 -64.167 138.501 -118.5s52 -118.5 52 -192.5c0 -96.667 -27.333 -180.834 -82 -252.501s-123.667 -120.5 -207 -146.5c-60.667 -19.333 -167.667 -29 -321 -29h-223l-94 -695h-147z
M391.998 1329l-68 -489.001h205c138 0 233.5 9.5 286.5 28.5s95.667 51.667 128 98s48.5 97.833 48.5 154.5c0 46.667 -11 86.334 -33 119.001s-52.333 55.667 -91 69s-109.667 20 -213 20h-263z" />
    <glyph glyph-name="Q" unicode="Q" horiz-adv-x="1784" 
d="M1399 209l252 -268.002h-187l-170 180c-149.333 -105.333 -322.333 -158 -519 -158c-212 0 -381.667 63.333 -509 190s-191 292.334 -191 497.001c0 157.333 37.833 301.833 113.5 433.5s181 235.334 316 311.001s282.167 113.5 441.5 113.5
c204.667 0 373.167 -64.833 505.5 -194.5s198.5 -294.167 198.5 -493.5c0 -240 -83.667 -443.667 -251 -611zM1298 314.998c64.667 66.667 115 144.835 151 234.502s54 182.5 54 278.5c0 158.667 -52 288.5 -156 389.5s-239.667 151.5 -407 151.5
c-131.333 0 -252.5 -31.333 -363.5 -94s-198.167 -149.834 -261.5 -261.501s-95 -230.834 -95 -357.501c0 -108 23.333 -204.833 70 -290.5s111.167 -151.167 193.5 -196.5s178.833 -68 289.5 -68c153.333 0 293.333 42.333 420 127l-247 261h189z" />
    <glyph glyph-name="R" unicode="R" horiz-adv-x="1243" 
d="M278 1471h369c131.333 0 225.333 -12.5 282 -37.5s102.667 -65 138 -120s53 -118.833 53 -191.5c0 -79.333 -20.833 -153 -62.5 -221s-98.5 -119.167 -170.5 -153.5s-166.667 -51.5 -284 -51.5l444 -696h-167l-443 696h-116l-95 -696h-148zM407 1330l-66 -490.001h169
c125.333 0 207.333 5 246 15c64.667 16 116.834 47.5 156.501 94.5s59.5 104.5 59.5 172.5c0 76.667 -27.667 132.334 -83 167.001c-42.667 27.333 -119.334 41 -230.001 41h-252z" />
    <glyph glyph-name="S" unicode="S" horiz-adv-x="1020" 
d="M927 1199l-138.999 -35.002c-18.667 62 -49.334 111 -92.001 147s-88.667 54 -138 54c-54.667 0 -99.167 -18.5 -133.5 -55.5s-51.5 -86.5 -51.5 -148.5c0 -54.667 18.333 -111.667 55 -171c22.667 -37.333 77.334 -95.333 164.001 -174
c90 -81.333 152.833 -157.166 188.5 -227.499s53.5 -139.166 53.5 -206.499c0 -71.333 -19.5 -140 -58.5 -206s-91.5 -118 -157.5 -156s-136 -57 -210 -57c-94 0 -175.5 30 -244.5 90s-118.5 148 -148.5 264l136 46c21.333 -88 56 -153.333 104 -196s103.333 -64 166 -64
c71.333 0 132.666 26.333 183.999 79s77 117.667 77 195c0 56.667 -14.5 112 -43.5 166s-85.833 119 -170.5 195c-90.667 82.667 -149.667 146 -177 190c-44.667 73.333 -67 150.666 -67 231.999c0 100.667 32.833 183.834 98.5 249.501s147.167 98.5 244.5 98.5
c82 0 155 -26 219 -78s111 -129 141 -231z" />
    <glyph glyph-name="T" unicode="T" horiz-adv-x="872" 
d="M73 1471h879l-19 -140h-375l-177 -1331h-147l177 1331h-357z" />
    <glyph glyph-name="U" unicode="U" horiz-adv-x="1341" 
d="M233 1471l145.001 0.000976562l-111 -842c-14.667 -112 -22 -191.667 -22 -239c0 -92 26.333 -162.833 79 -212.5s127 -74.5 223 -74.5c67.333 0 127 11.333 179 34s96.167 55.667 132.5 99s62.166 93.333 77.499 150c26.667 98.667 49.667 223.334 69 374.001l92 711
h145l-98 -743l-24 -182c-14 -84.667 -30.667 -156.834 -50 -216.501s-44.666 -112.5 -75.999 -158.5s-67 -83.667 -107 -113s-88.5 -52.5 -145.5 -69.5s-120.833 -25.5 -191.5 -25.5c-144.667 0 -256.334 36.667 -335.001 110s-118 170.666 -118 291.999c0 34 2 72 6 114
l22 172z" />
    <glyph glyph-name="V" unicode="V" horiz-adv-x="1438" 
d="M122 1471h148l365 -1165l683 1165h163l-862 -1471h-34z" />
    <glyph glyph-name="W" unicode="W" horiz-adv-x="1966" 
d="M126 1471h143l204 -1093l569 1093h28l257 -1093l520 1093h155l-702 -1471h-27l-259 1108l-586 -1108h-27z" />
    <glyph glyph-name="X" unicode="X" horiz-adv-x="1247" 
d="M217 1471h156l260 -572l433 572h172l-540 -713l348 -758h-155l-288 627l-476 -627h-173l584 771z" />
    <glyph glyph-name="Y" unicode="Y" horiz-adv-x="1212" 
d="M83 1471h154l315 -668l531 668h178l-652 -819l-89 -652h-144l89 660z" />
    <glyph glyph-name="Z" unicode="Z" horiz-adv-x="983" 
d="M217 1471h756l-722 -1331h551l-19 -140h-770l725 1329h-540z" />
    <glyph glyph-name="bracketleft" unicode="[" horiz-adv-x="719" 
d="M370 1508h336l-20 -142h-196l-228 -1627h195l-19 -137h-336z" />
    <glyph glyph-name="backslash" unicode="\" horiz-adv-x="1239" 
d="M220 1508l952 -1708h-153l-953 1708h154z" />
    <glyph glyph-name="bracketright" unicode="]" horiz-adv-x="719" 
d="M240 -398h-336l20 142h195l229 1627h-195l19 137h336z" />
    <glyph glyph-name="asciicircum" unicode="^" horiz-adv-x="1376" 
d="M629 1471h118l510 -1106h-133l-439 952l-436 -952h-129z" />
    <glyph glyph-name="underscore" unicode="_" horiz-adv-x="1024" 
d="M-12 -154h1048v-102h-1048v102z" />
    <glyph glyph-name="grave" unicode="`" horiz-adv-x="774" 
d="M430 1598l175 -308h-138l-252 308h215z" />
    <glyph glyph-name="a" unicode="a" horiz-adv-x="1399" 
d="M1121 0l-141 0.000976562l21 164c-126 -128 -270.333 -192 -433 -192c-148 0 -269.667 47.667 -365 143s-143 218 -143 368c0 173.333 61.833 322.166 185.5 446.499s269.167 186.5 436.5 186.5c90.667 0 170.167 -19 238.5 -57s126.833 -97.333 175.5 -178l25 207h145z
M583 100.001c90 0 172 21.1689 246 63.502s132.667 103.166 176 182.499s65 165.666 65 258.999c0 112.667 -35.667 204.334 -107 275.001s-164 106 -278 106c-134 0 -248.667 -48.333 -344 -145s-143 -215.334 -143 -356.001c0 -115.333 35.667 -208.333 107 -279
s164 -106 278 -106z" />
    <glyph glyph-name="b" unicode="b" horiz-adv-x="1397" 
d="M260 1508l142.001 -0.000976562l-77 -583c126 127.333 270 191 432 191c148.667 0 270.5 -47.667 365.5 -143s142.5 -218 142.5 -368c0 -173.333 -61.667 -322.166 -185 -446.499s-268.666 -186.5 -435.999 -186.5c-90.667 0 -170.334 19.167 -239.001 57.5
s-127.334 97.833 -176.001 178.5l-25 -208h-145zM742.001 987.999c-89.333 0 -171.168 -21.1689 -245.501 -63.502s-133.166 -103.166 -176.499 -182.499s-65 -165.666 -65 -258.999c0 -112.667 35.833 -204.334 107.5 -275.001s164.167 -106 277.5 -106
c134 0 248.667 48.333 344 145s143 215.334 143 356.001c0 115.333 -35.5 208.333 -106.5 279s-163.833 106 -278.5 106z" />
    <glyph glyph-name="c" unicode="c" horiz-adv-x="1325" 
d="M1198 853l-114.999 -66.998c-80.667 130.667 -204 196 -370 196c-96 0 -183.667 -21.333 -263 -64s-141.333 -102 -186 -178s-67 -157.333 -67 -244c0 -76.667 16.667 -145.334 50 -206.001s80.166 -107.334 140.499 -140.001s131.5 -49 213.5 -49
c84 0 164.167 16.667 240.5 50s135.833 76.333 178.5 129l115 -81c-72 -78.667 -150.167 -136.167 -234.5 -172.5s-182.166 -54.5 -293.499 -54.5c-172 0 -306.167 46.833 -402.5 140.5s-144.5 218.5 -144.5 374.5c0 173.333 63.167 321.5 189.5 444.5
s281.166 184.5 464.499 184.5c110 0 207 -23.167 291 -69.5s148.333 -110.833 193 -193.5z" />
    <glyph glyph-name="d" unicode="d" horiz-adv-x="1403" 
d="M1123 0l-141 0.000976562l21 164c-126 -128 -270.333 -192 -433 -192c-148 0 -269.667 47.667 -365 143s-143 218 -143 368c0 173.333 61.833 322.166 185.5 446.499s269.167 186.5 436.5 186.5c90.667 0 170.167 -19 238.5 -57s126.833 -97.333 175.5 -178l81 627h145z
M585 100.001c90 0 172 21.1689 246 63.502s132.667 103.166 176 182.499s65 165.666 65 258.999c0 112.667 -35.667 204.334 -107 275.001s-164 106 -278 106c-134 0 -248.667 -48.333 -344 -145s-143 -215.334 -143 -356.001c0 -115.333 35.667 -208.333 107 -279
s164 -106 278 -106z" />
    <glyph glyph-name="e" unicode="e" horiz-adv-x="1331" 
d="M1166 516h-969.999c-2 -129.333 31.667 -231 101 -305s161.666 -111 276.999 -111c76.667 0 147.667 15.667 213 47s119.333 75.333 162 132l104 -85c-52.667 -67.333 -121.5 -121.166 -206.5 -161.499s-176.833 -60.5 -275.5 -60.5
c-170.667 0 -298.834 52.833 -384.501 158.5s-128.5 224.5 -128.5 356.5c0 108 28.833 212 86.5 312s134.834 177.833 231.501 233.5s201.334 83.5 314.001 83.5c139.333 0 254.666 -47.167 345.999 -141.5s137 -214.5 137 -360.5c0 -26.667 -2.33301 -59.334 -7 -98.001z
M1038 637c-4 102.667 -39 185.832 -105 249.499s-149 95.5 -249 95.5c-108.667 0 -204.5 -30.667 -287.5 -92s-141.833 -145.666 -176.5 -252.999h818z" />
    <glyph glyph-name="f" unicode="f" horiz-adv-x="643" 
d="M666 1471l-19 -132.001c-50 48 -97 72 -141 72c-28 0 -52 -13.667 -72 -41s-35.667 -82.666 -47 -165.999l-17 -116h224l-15 -123h-224l-136 -965h-137l137 965h-137l15 123h138l13 96c16 112.667 33 188 51 226s44.667 68.5 80 91.5s74.333 34.5 117 34.5
c56 0 112.667 -21.667 170 -65z" />
    <glyph glyph-name="g" unicode="g" horiz-adv-x="1378" 
d="M1113 1088l136.997 -0.00292969l-125 -921c-20 -148.667 -44.333 -252.667 -73 -312c-39.333 -82 -104.666 -149.333 -195.999 -202s-199.333 -79 -324 -79c-122.667 0 -227.167 25 -313.5 75s-151.833 122.333 -196.5 217l125 45c76 -138 204.333 -207 385 -207
c95.333 0 177.833 19.333 247.5 58s119.5 88.334 149.5 149.001c18 36.667 36.333 116.334 55 239.001l6 43c-118 -128.667 -261.667 -193 -431 -193c-150 0 -270.667 45.833 -362 137.5s-137 210.834 -137 357.501c0 108 27.833 209.5 83.5 304.5
s132.334 171.5 230.001 229.5s196.834 87 297.501 87c84 0 160.667 -18.833 230 -56.5s131 -97.167 185 -178.5zM697.997 982.997c-91.333 0 -176.168 -21.8311 -254.501 -65.498s-139 -102.834 -182 -177.501s-64.5 -158.334 -64.5 -251.001
c0 -106.667 34 -192.667 102 -258s159.333 -98 274 -98c138.667 0 253.834 45.333 345.501 136s137.5 205 137.5 343c0 121.333 -37.333 213.5 -112 276.5s-156.667 94.5 -246 94.5z" />
    <glyph glyph-name="h" unicode="h" horiz-adv-x="1249" 
d="M248 1508l135.999 0.00195312l-80 -585c112 128.667 240 193 384 193c110 0 199.833 -34.333 269.5 -103s104.5 -158 104.5 -268c0 -60.667 -7.33301 -142.334 -22 -245.001l-68 -500h-138l68 500c14 100.667 21 180.667 21 240c0 74.667 -23.333 135 -70 181
s-108 69 -184 69c-70.667 0 -137.5 -19 -200.5 -57s-111.667 -89.333 -146 -154s-61.166 -167.334 -80.499 -308.001l-65 -471h-136z" />
    <glyph glyph-name="i" unicode="i" horiz-adv-x="410" 
d="M274 1536c30.667 0 57 -11 79 -33s33 -48.333 33 -79c0 -31.333 -11 -57.833 -33 -79.5s-48.333 -32.5 -79 -32.5c-31.333 0 -57.833 10.833 -79.5 32.5s-32.5 48.167 -32.5 79.5c0 30.667 10.833 57 32.5 79s48.167 33 79.5 33zM164 1088h133l-145 -1088h-138z" />
    <glyph glyph-name="j" unicode="j" horiz-adv-x="416" 
d="M281 1536c30.667 0 57 -11 79 -33s33 -48.333 33 -79c0 -31.333 -11 -57.833 -33 -79.5s-48.333 -32.5 -79 -32.5c-31.333 0 -58 10.833 -80 32.5s-33 48.167 -33 79.5c0 30.667 11 57 33 79s48.667 33 80 33zM170 1088h136.999l-159 -1158
c-20 -143.333 -48.167 -238.5 -84.5 -285.5s-82.833 -70.5 -139.5 -70.5c-35.333 0 -75.666 9.33301 -120.999 28l17 119c24.667 -14.667 48.334 -22 71.001 -22c27.333 0 48.666 10.667 63.999 32c22 32 38 84 48 156z" />
    <glyph glyph-name="k" unicode="k" horiz-adv-x="1028" 
d="M252 1508h136l-115 -823l524 403h218l-632 -486l557 -602h-186l-502 540l-73 -540h-140z" />
    <glyph glyph-name="l" unicode="l" horiz-adv-x="410" 
d="M225 1508h137l-210 -1508h-138z" />
    <glyph glyph-name="m" unicode="m" horiz-adv-x="1921" 
d="M191 1088l137 0.00195312l-22 -154c42 56.667 95.667 101.167 161 133.5s131 48.5 197 48.5c82 0 154.667 -24.333 218 -73c48.667 -38 85 -94.667 109 -170c49.333 77.333 110.166 137.166 182.499 179.499s145.833 63.5 220.5 63.5
c100.667 0 183.334 -32.333 248.001 -97s97 -148.334 97 -251.001c0 -46.667 -4.33301 -103.667 -13 -171l-81 -597h-136l73 522c15.333 109.333 23 189.333 23 240c0 63.333 -20.833 115.666 -62.5 156.999s-96.5 62 -164.5 62c-72 0 -139 -22.5 -201 -67.5
s-106 -98.167 -132 -159.5s-45.667 -138.666 -59 -231.999l-74 -522h-139l82 597c9.33301 63.333 14 115.333 14 156c0 70 -20.667 126 -62 168s-95.333 63 -162 63c-56 0 -109.667 -13.167 -161 -39.5s-93.333 -60.833 -126 -103.5s-57.5 -95.5 -74.5 -158.5
s-29.167 -119.833 -36.5 -170.5l-72 -512h-139z" />
    <glyph glyph-name="n" unicode="n" horiz-adv-x="1249" 
d="M192 1088l134.001 -0.000976562l-21 -167c110 130 238 195 384 195c112 0 202.333 -34.5 271 -103.5s103 -161.833 103 -278.5c0 -46.667 -7.33301 -125 -22 -235l-68 -499h-138l67 499c14.667 106.667 22 185.334 22 236.001c0 76 -23 137.333 -69 184
s-106.333 70 -181 70c-73.333 0 -141.5 -18.833 -204.5 -56.5s-111.833 -89 -146.5 -154s-61.334 -167.833 -80.001 -308.5l-65 -470h-137z" />
    <glyph glyph-name="o" unicode="o" horiz-adv-x="1341" 
d="M680 1116c92.667 0 177.668 -22.167 255.001 -66.5s137.666 -106 180.999 -185s65 -168.5 65 -268.5c0 -114 -27.667 -219.833 -83 -317.5s-129.666 -173.167 -222.999 -226.5s-199 -80 -317 -80c-146 0 -266.167 47.833 -360.5 143.5s-141.5 217.5 -141.5 365.5
c0 116 27.667 223 83 321s131.166 174.833 227.499 230.5s200.833 83.5 313.5 83.5zM677.001 983c-86.667 0 -168.168 -21.665 -244.501 -64.998s-135 -102.833 -176 -178.5s-61.5 -159.167 -61.5 -250.5c0 -114.667 35.333 -207.834 106 -279.501s162 -107.5 274 -107.5
c87.333 0 166.5 20.833 237.5 62.5s127.5 101.834 169.5 180.501s63 163 63 253c0 75.333 -15.667 142.166 -47 200.499s-75.666 103.666 -132.999 135.999s-120 48.5 -188 48.5z" />
    <glyph glyph-name="p" unicode="p" horiz-adv-x="1397" 
d="M204 1088l142 -0.000976562l-21 -163c126 127.333 270 191 432 191c148.667 0 270.5 -47.667 365.5 -143s142.5 -218 142.5 -368c0 -173.333 -61.667 -322.166 -185 -446.499s-268.666 -186.5 -435.999 -186.5c-90.667 0 -170.334 19.167 -239.001 57.5
s-127 97.833 -175 178.5l-79 -606h-145zM742 987.999c-89.333 0 -171.168 -21.1689 -245.501 -63.502s-133.166 -103.166 -176.499 -182.499s-65 -165.666 -65 -258.999c0 -112.667 35.833 -204.334 107.5 -275.001s164.167 -106 277.5 -106c134 0 248.667 48.333 344 145
s143 215.334 143 356.001c0 115.333 -35.5 208.333 -106.5 279s-163.833 106 -278.5 106z" />
    <glyph glyph-name="q" unicode="q" horiz-adv-x="1397" 
d="M1067 -398l-142 0.000976562l75 562c-126 -128 -270.333 -192 -433 -192c-148 0 -269.667 47.667 -365 143s-143 218 -143 368c0 173.333 61.833 322.166 185.5 446.499s269.167 186.5 436.5 186.5c90.667 0 170.167 -19 238.5 -57s126.833 -97.333 175.5 -178l25 207
h145zM582 100.001c90 0 172 21.1689 246 63.502s132.667 103.166 176 182.499s65 165.666 65 258.999c0 112.667 -35.667 204.334 -107 275.001s-164 106 -278 106c-134 0 -248.667 -48.333 -344 -145s-143 -215.334 -143 -356.001c0 -115.333 35.667 -208.333 107 -279
s164 -106 278 -106z" />
    <glyph glyph-name="r" unicode="r" horiz-adv-x="616" 
d="M133 1088h139.003l-18 -137c37.333 52 82.333 92.5 135 121.5s106.667 43.5 162 43.5c39.333 0 80.333 -9.33301 123 -28l-66 -128c-34.667 14 -63.667 21 -87 21c-48.667 0 -96.834 -17 -144.501 -51s-86.334 -83.5 -116.001 -148.5s-54.834 -171.833 -75.501 -320.5
l-64 -461h-136z" />
    <glyph glyph-name="s" unicode="s" horiz-adv-x="795" 
d="M694 966l-76.001 -113.001c-61.333 87.333 -134 131 -218 131c-48 0 -89 -15.667 -123 -47s-51 -66 -51 -104c0 -29.333 10.333 -57.333 31 -84c20 -26.667 65.667 -63 137 -109c104 -67.333 172.667 -126 206 -176c32.667 -50.667 49 -109 49 -175
c0 -91.333 -31.833 -167 -95.5 -227s-146.5 -90 -248.5 -90c-134.667 0 -248 59.667 -340 179l85 99c80.667 -98 168.334 -147 263.001 -147c54 0 101 19 141 57s60 82 60 132c0 40.667 -15 79.667 -45 117c-19.333 24 -71.333 64.667 -156 122
c-91.333 62.667 -151.333 114.667 -180 156c-28.667 40.667 -43 86.667 -43 138c0 80.667 30.333 149.334 91 206.001s137.334 85 230.001 85c54.667 0 104.167 -11 148.5 -33s89.166 -61 134.499 -117z" />
    <glyph glyph-name="t" unicode="t" horiz-adv-x="694" 
d="M363 1495h137l-54 -407h216l-16 -122h-216l-132 -966h-140l131 966h-187l17 122h186z" />
    <glyph glyph-name="u" unicode="u" horiz-adv-x="1245" 
d="M188 1088l140 0.000976562l-63 -455c-17.333 -128.667 -26 -211.334 -26 -248.001c0 -83.333 27.833 -151.333 83.5 -204s129.167 -79 220.5 -79c76 0 142 20 198 60s96 92.333 120 157c12 32.667 26.333 107.667 43 225l78 544h137l-56 -412
c-26.667 -196.667 -55 -336.5 -85 -419.5s-83.5 -151.167 -160.5 -204.5s-170.833 -80 -281.5 -80c-126 0 -229.167 38.5 -309.5 115.5s-120.5 173.167 -120.5 288.5c0 46 3.66699 99.667 11 161l10 96l5 41z" />
    <glyph glyph-name="v" unicode="v" horiz-adv-x="1135" 
d="M56 1088h143l275 -796l458 796h152l-627 -1088h-26z" />
    <glyph glyph-name="w" unicode="w" horiz-adv-x="1702" 
d="M70 1088h139l224 -768l409 768h24l248 -776l400 776h150l-562 -1088h-28l-252 768l-409 -768h-26z" />
    <glyph glyph-name="x" unicode="x" horiz-adv-x="983" 
d="M36 1088h158l265 -425l311 425h168l-403 -548l329 -540h-159l-258 418l-307 -418h-168l399 540z" />
    <glyph glyph-name="y" unicode="y" horiz-adv-x="1098" 
d="M47 1088h144l282 -803l466 803h155l-862 -1486h-157l308 531z" />
    <glyph glyph-name="z" unicode="z" horiz-adv-x="870" 
d="M92 1088h748l-650 -964h591l-16 -124h-822l653 965h-520z" />
    <glyph glyph-name="braceleft" unicode="{" horiz-adv-x="719" 
d="M62 591c40.667 1.33301 74.665 9.33496 101.998 24.002c36.667 19.333 65.667 46.333 87 81s38 82.667 50 144c5.33301 29.333 16.166 98.833 32.499 208.5s34.333 188.167 54 235.5s45.334 85.166 77.001 113.499s70.167 48.833 115.5 61.5c28 8 71 12 129 12h55
l-22 -157h-31c-56 0 -95.333 -6.5 -118 -19.5s-40.167 -33.333 -52.5 -61s-25.833 -94.167 -40.5 -199.5c-19.333 -140 -39.333 -238.333 -60 -295s-47.167 -102 -79.5 -136s-80.166 -65 -143.499 -93c54.667 -24.667 95.167 -58.834 121.5 -102.501
s39.5 -102.5 39.5 -176.5c0 -46.667 -8.33301 -128.667 -25 -246c-12 -86 -18 -143 -18 -171c0 -40 10 -68 30 -84s60 -24 120 -24h31l-22 -157h-55c-62 0 -106 4 -132 12c-44.667 14.667 -79.5 40.834 -104.5 78.501s-37.5 86.167 -37.5 145.5
c0 41.333 9 126.666 27 255.999c12 92 18 157 18 195c0 62.667 -14.667 110 -44 142s-71.666 48.667 -126.999 50z" />
    <glyph glyph-name="bar" unicode="|" horiz-adv-x="1376" 
d="M616 1508h143v-1906h-143v1906z" />
    <glyph glyph-name="braceright" unicode="}" horiz-adv-x="719" 
d="M535 428c-40.667 -0.666992 -74.666 -8.33301 -101.999 -23c-36 -20 -64.667 -47.167 -86 -81.5s-38 -82.5 -50 -144.5c-5.33301 -29.333 -16.333 -98.666 -33 -207.999s-34.667 -187.666 -54 -234.999s-45 -85.333 -77 -114s-70.667 -49.334 -116 -62.001
c-27.333 -7.33301 -70 -11 -128 -11h-56l22 157h31c56 0 95.5 6.33301 118.5 19s40.5 32.834 52.5 60.501s25.333 94.167 40 199.5c20 140 40.333 238.333 61 295s47.167 102 79.5 136s79.833 65.333 142.5 94c-54 24 -94.167 57.833 -120.5 101.5
s-39.5 102.834 -39.5 177.501c0 46 8.33301 127.667 25 245c12 86.667 18 144 18 172c0 39.333 -10.167 67.166 -30.5 83.499s-60.5 24.5 -120.5 24.5h-31l22 157h56c62 0 105.667 -4.33301 131 -13c44.667 -14.667 79.5 -40.834 104.5 -78.501s37.5 -85.834 37.5 -144.501
c0 -42 -8.66699 -127.333 -26 -256c-12.667 -92.667 -19 -157.667 -19 -195c0 -63.333 14.667 -111 44 -143s71.666 -48.667 126.999 -50z" />
    <glyph glyph-name="asciitilde" unicode="~" horiz-adv-x="1241" 
d="M1128 837l-0.00390625 -161.998c-74.667 -42 -128.167 -68.5 -160.5 -79.5s-62.833 -16.5 -91.5 -16.5c-63.333 0 -151.666 25.667 -264.999 77c-88 40 -144.167 63.833 -168.5 71.5s-47.166 11.5 -68.499 11.5c-29.333 0 -61.666 -6.33301 -96.999 -19
s-90.333 -41.334 -165 -86.001v160c73.333 41.333 126.333 67.666 159 78.999s64.334 17 95.001 17c64.667 0 154 -27 268 -81c78.667 -37.333 132.5 -60.5 161.5 -69.5s55.167 -13.5 78.5 -13.5c28 0 56.333 5.5 85 16.5s85 42.5 169 94.5z" />
    <glyph glyph-name="nbspace" unicode="&#xa0;" horiz-adv-x="573" 
 />
    <glyph glyph-name="exclamdown" unicode="&#xa1;" horiz-adv-x="604" 
d="M308 867c-33.333 0 -62 11.833 -86 35.5s-36 52.167 -36 85.5c0 34 12 62.833 36 86.5s52.667 35.5 86 35.5c34 0 63 -11.833 87 -35.5s36 -52.5 36 -86.5c0 -33.333 -12 -61.833 -36 -85.5s-53 -35.5 -87 -35.5zM197 -426h-138l150 1141h140z" />
    <glyph glyph-name="cent" unicode="&#xa2;" horiz-adv-x="1135" 
d="M1022 1352l102.998 -68l-168 -260c33.333 -22 64.333 -46.667 93 -74l-86 -110c-25.333 23.333 -52.666 46 -81.999 68l-500 -770c53.333 -21.333 107.333 -32 162 -32c133.333 0 253 47 359 141l78 -109c-126 -110.667 -275.667 -166 -449 -166
c-80.667 0 -156 17 -226 51l-198 -307l-109 69l204 310c-56 60 -96.333 120 -121 180s-37 126.333 -37 199c0 111.333 28.333 217 85 317s133.834 179.167 231.501 237.5s197.5 87.5 299.5 87.5c56 0 118 -11.333 186 -34zM767.998 964c-38 12 -71.333 17.999 -100 17.999
c-82 0 -161 -22.667 -237 -68s-136.333 -107.166 -181 -185.499s-67 -161.5 -67 -249.5c0 -104.667 32 -193.667 96 -267z" />
    <glyph glyph-name="sterling" unicode="&#xa3;" horiz-adv-x="1135" 
d="M128 844l254.004 0.000976562c-20.667 136.667 -31 224.334 -31 263.001c0 122 36.833 219.333 110.5 292s168.834 109 285.501 109c99.333 0 178.666 -30.833 237.999 -92.5s89 -147.167 89 -256.5l-1 -35h-144c-3.33301 90 -20.333 152.833 -51 188.5
s-76.334 53.5 -137.001 53.5c-70.667 0 -128.834 -22.5 -174.501 -67.5s-68.5 -102.833 -68.5 -173.5c0 -62.667 11.667 -156.334 35 -281.001h318l-18 -137h-284c2 -42.667 3 -79.667 3 -111c0 -128.667 -18.333 -241.334 -55 -338.001
c101.333 -75.333 159.333 -117 174 -125c25.333 -12.667 48.666 -19 69.999 -19c35.333 0 66 21 92 63s43.333 97.333 52 166h146c-8 -98.667 -38.5 -186.667 -91.5 -264s-120.5 -116 -202.5 -116c-42.667 0 -83.667 9.33301 -123 28c-56 27.333 -117.333 71 -184 131
c-76 -106 -160.333 -159 -253 -159c-56.667 0 -102.667 17.667 -138 53s-53 81 -53 137c0 62 22.833 116 68.5 162s100.167 69 163.5 69c53.333 0 104.666 -13.667 153.999 -41c21.333 75.333 32 141.333 32 198l-7 166h-288zM317.004 211.001
c-38.667 24.667 -71.999 37 -99.999 37c-27.333 0 -50 -7.83301 -68 -23.5s-27 -34.5 -27 -56.5c0 -20 6.16699 -36.333 18.5 -49s27.833 -19 46.5 -19c43.333 0 86.666 37 129.999 111z" />
    <glyph glyph-name="currency" unicode="&#xa4;" horiz-adv-x="1135" 
d="M42 192l116.001 113.998c-40.667 54.667 -68.834 105.834 -84.501 153.501s-23.5 99.167 -23.5 154.5c0 59.333 9.33301 116.333 28 171c14 42 41.667 88.667 83 140l-120 117l90 91l120 -119c50.667 39.333 102.834 67.833 156.501 85.5s108.5 26.5 164.5 26.5
c54 0 106 -8 156 -24s102 -43.333 156 -82l117 113l88 -91l-116 -112c42.667 -52.667 72.5 -103.667 89.5 -153s25.5 -103.333 25.5 -162c0 -57.333 -8.16699 -110.166 -24.5 -158.499s-44.5 -98.5 -84.5 -150.5l116 -114l-89 -90l-116 115
c-52.667 -41.333 -104.834 -70.833 -156.501 -88.5s-106.5 -26.5 -164.5 -26.5c-57.333 0 -111.5 8.66699 -162.5 26s-103.833 47 -158.5 89l-117 -115zM193.001 611.998c0 -102.667 36.833 -190.332 110.5 -262.999s162.167 -109 265.5 -109c104 0 192.667 36.667 266 110
s110 161.666 110 264.999s-36.5 191.5 -109.5 264.5s-161.5 109.5 -265.5 109.5s-192.833 -36.833 -266.5 -110.5s-110.5 -162.5 -110.5 -266.5z" />
    <glyph glyph-name="yen" unicode="&#xa5;" horiz-adv-x="1135" 
d="M145 1471h153l253 -603l411 603h168l-516 -766h367l-18 -115h-366l-22 -155h366l-17 -117h-367l-44 -318h-145l45 318h-368l16 117h369l21 155h-368l15 115h368z" />
    <glyph glyph-name="brokenbar" unicode="&#xa6;" horiz-adv-x="1376" 
d="M616 686v822h143v-767zM616 -398v957l143 54v-1011h-143z" />
    <glyph glyph-name="section" unicode="&#xa7;" horiz-adv-x="1259" 
d="M1045 1195l-138.999 0.000976562c-17.333 133.333 -86.333 200 -207 200c-74 0 -134.833 -21 -182.5 -63s-71.5 -90.667 -71.5 -146c0 -44 19.333 -87 58 -129s108.334 -94.667 209.001 -158c110.667 -70 185.334 -131.833 224.001 -185.5s58 -106.5 58 -158.5
c0 -46 -13.167 -92.167 -39.5 -138.5s-64.833 -86.333 -115.5 -120s-112 -57.834 -184 -72.501c70.667 -56.667 119 -108.5 145 -155.5s39 -96.167 39 -147.5c0 -58.667 -17 -115.167 -51 -169.5s-83 -97.5 -147 -129.5s-135 -48 -213 -48c-102 0 -183.833 24.5 -245.5 73.5
s-100.834 120.167 -117.501 213.5h141c18 -53.333 45.333 -92.333 82 -117s85 -37 145 -37c76.667 0 139.5 20.667 188.5 62s73.5 90.666 73.5 147.999c0 20 -3.83301 40 -11.5 60s-19.5 39.667 -35.5 59c-31.333 38.667 -116.333 107 -255 205
c-102.667 72.667 -169.834 133.167 -201.501 181.5s-47.5 103.5 -47.5 165.5c0 72.667 27.167 139.167 81.5 199.5s130.166 101.833 227.499 124.5c-52.667 41.333 -90.5 84 -113.5 128s-34.5 91.333 -34.5 142c0 96.667 37 179.834 111 249.501s168 104.5 282 104.5
c100.667 0 182.667 -30.667 246 -92s97 -144.333 101 -249zM553.001 839.001c-84 -12 -150.332 -40.666 -198.999 -85.999s-73 -95 -73 -149c0 -32 8.83301 -63.167 26.5 -93.5s48.5 -62.833 92.5 -97.5l153 -107c89.333 8 161.166 36.167 215.499 84.5
s81.5 99.166 81.5 152.499c0 25.333 -6.16699 49.833 -18.5 73.5s-36.5 49.5 -72.5 77.5z" />
    <glyph glyph-name="dieresis" unicode="&#xa8;" horiz-adv-x="756" 
d="M279 1518c28.667 0 52.667 -9.66699 72 -29s29 -43 29 -71c0 -34.667 -13.5 -65.334 -40.5 -92.001s-58.5 -40 -94.5 -40c-28 0 -51.5 9.5 -70.5 28.5s-28.5 42.833 -28.5 71.5c0 34.667 13.333 65.334 40 92.001s57.667 40 93 40zM687 1518
c29.333 0 53.5 -9.66699 72.5 -29s28.5 -43 28.5 -71c0 -34.667 -13.5 -65.334 -40.5 -92.001s-58.167 -40 -93.5 -40c-28.667 0 -52.5 9.5 -71.5 28.5s-28.5 42.833 -28.5 71.5c0 34.667 13.333 65.334 40 92.001s57.667 40 93 40z" />
    <glyph glyph-name="copyright" unicode="&#xa9;" horiz-adv-x="1530" 
d="M1551 757c0 -140.667 -35.001 -271.333 -105.001 -392s-165.833 -216.167 -287.5 -286.5s-252.5 -105.5 -392.5 -105.5s-271 35.167 -393 105.5s-218 166 -288 287s-105 251.5 -105 391.5s35 270.5 105 391.5s165.833 216.5 287.5 286.5s252.834 105 393.501 105
c140 0 270.833 -35 392.5 -105s217.5 -165.5 287.5 -286.5s105 -251.5 105 -391.5zM1442 757.001c0 121.333 -30.167 234.169 -90.5 338.502s-142.833 186.833 -247.5 247.5s-217.667 91 -339 91c-120.667 0 -233.334 -30.333 -338.001 -91
s-187.167 -143.334 -247.5 -248.001s-90.5 -217.334 -90.5 -338.001c0 -121.333 30.167 -234.333 90.5 -339s143 -187.167 248 -247.5s217.833 -90.5 338.5 -90.5s233.334 30.167 338.001 90.5s187.167 142.833 247.5 247.5s90.5 217.667 90.5 339zM1150 924.004
l-136 0.000976562c-14 59.333 -40.5 103.833 -79.5 133.5s-90.833 44.5 -155.5 44.5c-84.667 0 -152.667 -29.833 -204 -89.5s-77 -146.834 -77 -261.501c0 -112 24.667 -197.333 74 -256s113.666 -88 192.999 -88c66.667 0 121.834 20.5 165.501 61.5
s71.5 102.5 83.5 184.5h136c-12.667 -109.333 -54 -196.333 -124 -261s-155.333 -97 -256 -97c-126 0 -226.667 40.5 -302 121.5s-113 193.167 -113 336.5c0 150.667 39.167 268 117.5 352s177.833 126 298.5 126c111.333 0 200.333 -27.833 267 -83.5
s104 -130.167 112 -223.5z" />
    <glyph glyph-name="ordfeminine" unicode="&#xaa;" horiz-adv-x="756" 
d="M628 810l-116.001 -0.000976562l11 80c-38 -37.333 -72 -62.666 -102 -75.999s-62 -20 -96 -20c-72 0 -132.667 29 -182 87s-74 135.667 -74 233c0 112.667 31.833 206.5 95.5 281.5s135.834 112.5 216.501 112.5c34.667 0 67.167 -7.83301 97.5 -23.5
s68.833 -48.167 115.5 -97.5l13 104h119zM353.999 898.999c60.667 0 112.167 26.168 154.5 78.501s63.5 122.166 63.5 209.499c0 66.667 -16.333 119.167 -49 157.5s-73.334 57.5 -122.001 57.5c-56.667 0 -107.167 -26.667 -151.5 -80s-66.5 -122 -66.5 -206
c0 -68 16.333 -121.167 49 -159.5s73.334 -57.5 122.001 -57.5z" />
    <glyph glyph-name="guillemotleft" unicode="&#xab;" horiz-adv-x="870" 
d="M292 1088h152l-302 -550l142 -538h-136l-149 557zM752 1088h152l-302 -550l142 -538h-136l-149 557z" />
    <glyph glyph-name="logicalnot" unicode="&#xac;" horiz-adv-x="1241" 
d="M1127 1024v-577h-137l-1 440h-874v137h1012z" />
    <glyph glyph-name="registered" unicode="&#xae;" horiz-adv-x="1530" 
d="M1551 760c0 -141.333 -35 -272.498 -105 -393.498s-166 -216.833 -288 -287.5s-252.667 -106 -392 -106s-270 35.167 -392 105.5s-218.167 166.166 -288.5 287.499s-105.5 251.333 -105.5 390c0 140 35.167 271.333 105.5 394s166.333 219 288 289s252.5 105 392.5 105
s270.5 -34.833 391.5 -104.5s216.833 -165.834 287.5 -288.501s106 -253 106 -391zM1442 759.002c0 120 -30.332 232.835 -90.999 338.502s-143 188.834 -247 249.501s-216 91 -336 91c-120.667 0 -233.834 -30.333 -339.501 -91s-188.667 -143.834 -249 -249.501
s-90.5 -219.167 -90.5 -340.5c0 -120.667 30.167 -233.334 90.5 -338.001s143.5 -187.334 249.5 -248.001s219 -91 339 -91c119.333 0 231.333 30.5 336 91.5s187.167 143.667 247.5 248s90.5 217.5 90.5 339.5zM439.001 1217h377c88 0 151.333 -8.83301 190 -26.5
s70.167 -46.5 94.5 -86.5s36.5 -86.667 36.5 -140c0 -46 -8.66699 -85.667 -26 -119c-13.333 -24.667 -42.333 -51.667 -87 -81c40.667 -20 68 -43.167 82 -69.5s21 -71.5 21 -135.5v-102c0 -48 10.667 -88 32 -120l15 -24h-160c-10 37.333 -17 81.666 -21 132.999l-7 111
c-2.66699 40.667 -9.16699 69.334 -19.5 86.001s-25 28.667 -44 36s-56.833 11 -113.5 11h-227v-377h-143v904zM582.001 1087v-268h222c67.333 0 113 7.66699 137 23c35.333 22 53 59.333 53 112c0 46 -12.667 79.667 -38 101s-73 32 -143 32h-231z" />
    <glyph glyph-name="overscore" unicode="&#xaf;" horiz-adv-x="1024" 
d="M72 1685h1048v-102h-1048v102z" />
    <glyph glyph-name="degree" unicode="&#xb0;" horiz-adv-x="819" 
d="M797 1164c0 -96.667 -33.667 -178.167 -101 -244.5s-149 -99.5 -245 -99.5s-177.333 33.333 -244 100s-100 149 -100 247c0 94 34.167 174.333 102.5 241s149.833 100 244.5 100s175.5 -33.333 242.5 -100s100.5 -148 100.5 -244zM678 1162c0 68 -21.666 125 -64.999 171
s-96 69 -158 69c-62.667 0 -116.5 -23.167 -161.5 -69.5s-67.5 -102.5 -67.5 -168.5c0 -64.667 22.667 -120.5 68 -167.5s98.666 -70.5 159.999 -70.5s114 23 158 69s66 101.667 66 167z" />
    <glyph glyph-name="plusminus" unicode="&#xb1;" horiz-adv-x="1124" 
d="M493 913v434h137v-434h438v-137h-438v-434h-137v434h-437v137h437zM1068 161v-137h-1012v137h1012z" />
    <glyph glyph-name="twosuperior" unicode="&#xb2;" horiz-adv-x="680" 
d="M248 1241l-111.999 0.000976562c4.66699 85.333 31.834 151.166 81.501 197.499s117.167 69.5 202.5 69.5c74 0 133.5 -19.833 178.5 -59.5s67.5 -88.167 67.5 -145.5c0 -38.667 -11.167 -76.667 -33.5 -114s-82.5 -101.333 -180.5 -192l-176 -164h352l-15 -100h-596
l311 291c109.333 102 174.333 168 195 198s31 58 31 84c0 28 -13.167 52.667 -39.5 74s-60.833 32 -103.5 32c-48.667 0 -87.334 -14.5 -116.001 -43.5s-44.334 -71.5 -47.001 -127.5z" />
    <glyph glyph-name="threesuperior" unicode="&#xb3;" horiz-adv-x="680" 
d="M274 1305l-111.999 -0.000976562c6.66699 44 20.5 79.833 41.5 107.5s51 50.5 90 68.5s80.833 27 125.5 27c71.333 0 128.833 -19.333 172.5 -58s65.5 -87 65.5 -145c0 -36 -9 -67.167 -27 -93.5s-49.667 -50.5 -95 -72.5c39.333 -27.333 66.333 -54 81 -80
s22 -55.333 22 -88c0 -69.333 -29.167 -129.333 -87.5 -180s-132.833 -76 -223.5 -76c-75.333 0 -137.5 21 -186.5 63s-78.167 100.667 -87.5 176h111c7.33301 -48.667 23 -82.667 47 -102c32.667 -26 72.667 -39 120 -39c51.333 0 96.666 16.5 135.999 49.5
s59 67.167 59 102.5c0 40 -17 72.167 -51 96.5s-91 36.5 -171 36.5l13 93l31 -1c61.333 0 112.333 13.667 153 41c30 20.667 45 46.334 45 77.001c0 27.333 -12.5 51 -37.5 71s-56.833 30 -95.5 30c-37.333 0 -68.333 -9.16699 -93 -27.5s-40 -43.833 -46 -76.5z" />
    <glyph glyph-name="acute" unicode="&#xb4;" horiz-adv-x="768" 
d="M581 1598h215l-339 -308h-138z" />
    <glyph glyph-name="mu1" unicode="&#xb5;" horiz-adv-x="1180" 
d="M-24 -398l204 1486h140l-81 -574c-7.33301 -54.667 -11 -98 -11 -130c0 -76.667 24.833 -138.667 74.5 -186s113.834 -71 192.501 -71c66 0 127.167 19.667 183.5 59s97.5 87.333 123.5 144c16.667 36.667 31.667 103.667 45 201l78 557h140l-150 -1088h-140l16 118
c-46.667 -49.333 -96.334 -85.5 -149.001 -108.5s-110 -34.5 -172 -34.5c-63.333 0 -118.5 11.5 -165.5 34.5s-86.5 58.167 -118.5 105.5l-70 -513h-140z" />
    <glyph glyph-name="paragraph" unicode="&#xb6;" horiz-adv-x="1155" 
d="M483 -231l-0.000976562 937.001c-50 0 -87 2.66699 -111 8c-52 11.333 -99 33.833 -141 67.5s-75.333 78.667 -100 135s-37 119.166 -37 188.499c0 126 38.667 228.667 116 308c64.667 66.667 164.334 100 299.001 100h513v-75h-84v-1669h-119v1669h-217v-1669h-119z" />
    <glyph glyph-name="middot" unicode="&#xb7;" horiz-adv-x="682" 
d="M600 870c28.667 0 52.667 -9.5 72 -28.5s29 -42.833 29 -71.5c0 -34.667 -13.5 -65.334 -40.5 -92.001s-58.5 -40 -94.5 -40c-28 0 -51.5 9.66699 -70.5 29s-28.5 43 -28.5 71c0 34.667 13.333 65.334 40 92.001s57.667 40 93 40z" />
    <glyph glyph-name="cedilla" unicode="&#xb8;" horiz-adv-x="664" 
d="M178 0l88.001 -0.000976562l-34 -118c16 2 29 3 39 3c29.333 0 53.5 -8.66699 72.5 -26s28.5 -39 28.5 -65c0 -46.667 -22.667 -87.334 -68 -122.001s-107 -52 -185 -52c-58.667 0 -112.667 10 -162 30l31 69c41.333 -13.333 80.666 -20 117.999 -20
c52 0 89 6.83301 111 20.5s33 29.834 33 48.501c0 10.667 -5 19.834 -15 27.501s-23.667 11.5 -41 11.5c-16 0 -40 -3 -72 -9z" />
    <glyph glyph-name="onesuperior" unicode="&#xb9;" horiz-adv-x="680" 
d="M295 1489h203l-120 -756h-109l104 658h-122z" />
    <glyph glyph-name="ordmasculine" unicode="&#xba;" horiz-adv-x="756" 
d="M420 1508c80 0 147.5 -30 202.5 -90s82.5 -138.667 82.5 -236c0 -112.667 -33.833 -205.5 -101.5 -278.5s-151.167 -109.5 -250.5 -109.5c-81.333 0 -149.333 29.5 -204 88.5s-82 135.833 -82 230.5c0 113.333 34.667 207.5 104 282.5s152.333 112.5 249 112.5zM416 1401
c-40.667 0 -79.501 -11.8311 -116.501 -35.498s-66 -57.334 -87 -101.001s-31.5 -92.834 -31.5 -147.501c0 -66 17.333 -118.833 52 -158.5s78.334 -59.5 131.001 -59.5c68.667 0 124 27.833 166 83.5s63 122.5 63 200.5c0 67.333 -17 120.5 -51 159.5s-76 58.5 -126 58.5z
" />
    <glyph glyph-name="guillemotright" unicode="&#xbb;" horiz-adv-x="870" 
d="M533 0h-152l302 550l-141 538h135l149 -557zM73 0h-152l302 550l-141 538h135l149 -557z" />
    <glyph glyph-name="onequarter" unicode="&#xbc;" horiz-adv-x="1702" 
d="M224 1489h203l-120 -756h-109l104 658h-122zM227 -37l932 1545h112l-933 -1545h-111zM1490 790l-87 -544h122l-16 -100h-121l-24 -155h-108l24 155h-397l607 644v0zM1332 472l-213 -226h177z" />
    <glyph glyph-name="onehalf" unicode="&#xbd;" horiz-adv-x="1702" 
d="M224 1489h203l-120 -756h-109l104 658h-122zM204 -37l932 1545h112l-933 -1545h-111zM1118 508l-111.999 0.000976562c4.66699 85.333 31.834 151.166 81.501 197.499s117.167 69.5 202.5 69.5c74 0 133.5 -19.833 178.5 -59.5s67.5 -88.167 67.5 -145.5
c0 -38.667 -11.167 -76.667 -33.5 -114s-82.5 -101.333 -180.5 -192l-176 -164h352l-15 -100h-596l311 291c109.333 102 174.333 168 195 198s31 58 31 84c0 28 -13.167 52.667 -39.5 74s-60.833 32 -103.5 32c-48.667 0 -87.334 -14.5 -116.001 -43.5
s-44.334 -71.5 -47.001 -127.5z" />
    <glyph glyph-name="threequarters" unicode="&#xbe;" horiz-adv-x="1702" 
d="M257 1305l-111.999 -0.000976562c6.66699 44 20.5 79.833 41.5 107.5s51 50.5 90 68.5s80.833 27 125.5 27c71.333 0 128.833 -19.333 172.5 -58s65.5 -87 65.5 -145c0 -36 -9 -67.167 -27 -93.5s-49.667 -50.5 -95 -72.5c39.333 -27.333 66.333 -54 81 -80
s22 -55.333 22 -88c0 -69.333 -29.167 -129.333 -87.5 -180s-132.833 -76 -223.5 -76c-75.333 0 -137.5 21 -186.5 63s-78.167 100.667 -87.5 176h111c7.33301 -48.667 23 -82.667 47 -102c32.667 -26 72.667 -39 120 -39c51.333 0 96.666 16.5 135.999 49.5
s59 67.167 59 102.5c0 40 -17 72.167 -51 96.5s-91 36.5 -171 36.5l13 93l31 -1c61.333 0 112.333 13.667 153 41c30 20.667 45 46.334 45 77.001c0 27.333 -12.5 51 -37.5 71s-56.833 30 -95.5 30c-37.333 0 -68.333 -9.16699 -93 -27.5s-40 -43.833 -46 -76.5z
M376.001 -37.001l932 1545h112l-933 -1545h-111zM1575 789.999l-87 -544h122l-16 -100h-121l-24 -155h-108l24 155h-397l607 644v0zM1417 471.999l-213 -226h177z" />
    <glyph glyph-name="questiondown" unicode="&#xbf;" horiz-adv-x="1210" 
d="M648 894c-34 0 -63 11.833 -87 35.5s-36 52.5 -36 86.5c0 33.333 12 62 36 86s53 36 87 36c33.333 0 62 -12 86 -36s36 -52.667 36 -86s-12 -62 -36 -86s-52.667 -36 -86 -36zM799 10l136.002 -0.00292969c-15.333 -143.333 -65.333 -251.833 -150 -325.5
s-191.667 -110.5 -321 -110.5c-114 0 -205.833 30.333 -275.5 91s-104.5 135.667 -104.5 225c0 66 15.667 123.833 47 173.5s78 91.834 140 126.501c30 16.667 107.333 46.667 232 90c105.333 36.667 177 73.667 215 111c37.333 36.667 56 74.334 56 113.001
c0 33.333 -16.833 63 -50.5 89s-77.834 39 -132.501 39c-67.333 0 -122.333 -18.167 -165 -54.5s-70.334 -91.166 -83.001 -164.499h-136c9.33301 111.333 47.5 197.833 114.5 259.5s157.167 92.5 270.5 92.5c96 0 172.667 -26.167 230 -78.5s86 -116.166 86 -191.499
c0 -72 -25.667 -134 -77 -186c-51.333 -52.667 -172.333 -113.334 -363 -182.001c-93.333 -34 -154.333 -63.333 -183 -88c-42 -36 -63 -84 -63 -144c0 -56 21.667 -101 65 -135s107 -51 191 -51c188.667 0 295.667 100.333 321 301z" />
    <glyph glyph-name="Agrave" unicode="&#xc0;" horiz-adv-x="1515" 
d="M852 1471l493 -1471h-151l-161 481h-623l-275 -481h-164l847 1471h34zM805 1163l-314 -542h496zM801 1895l175 -308h-138l-252 308h215z" />
    <glyph glyph-name="Aacute" unicode="&#xc1;" horiz-adv-x="1515" 
d="M852 1471l493 -1471h-151l-161 481h-623l-275 -481h-164l847 1471h34zM805 1163l-314 -542h496zM954 1895h215l-339 -308h-138z" />
    <glyph glyph-name="Acircumflex" unicode="&#xc2;" horiz-adv-x="1515" 
d="M852 1471l493 -1471h-151l-161 481h-623l-275 -481h-164l847 1471h34zM805 1163l-314 -542h496zM799 1840h139l254 -257h-180l-155 152l-205 -152h-186z" />
    <glyph glyph-name="Atilde" unicode="&#xc3;" horiz-adv-x="1515" 
d="M852 1471l493 -1471h-151l-161 481h-623l-275 -481h-164l847 1471h34zM805 1163l-314 -542h496zM1143 1789l56.999 -97c-53.333 -34.667 -97.5 -58 -132.5 -70s-70.5 -18 -106.5 -18c-48 0 -95.667 12.333 -143 37c-40 21.333 -65.667 33.666 -77 36.999
c-16 4.66699 -32.667 7 -50 7c-24.667 0 -48 -4.16699 -70 -12.5s-55 -27.166 -99 -56.499l-52 102c70 64.667 149.333 97 238 97c42.667 0 92 -13.333 148 -40c53.333 -26 95.333 -39 126 -39c38.667 0 92.334 17.667 161.001 53z" />
    <glyph glyph-name="Adieresis" unicode="&#xc4;" horiz-adv-x="1515" 
d="M852 1471l493 -1471h-151l-161 481h-623l-275 -481h-164l847 1471h34zM805 1163l-314 -542h496zM658 1816c28.667 0 52.667 -9.66699 72 -29s29 -43 29 -71c0 -34.667 -13.5 -65.334 -40.5 -92.001s-58.5 -40 -94.5 -40c-28 0 -51.5 9.5 -70.5 28.5
s-28.5 42.833 -28.5 71.5c0 34.667 13.333 65.334 40 92.001s57.667 40 93 40zM1066 1816c29.333 0 53.5 -9.66699 72.5 -29s28.5 -43 28.5 -71c0 -34.667 -13.5 -65.334 -40.5 -92.001s-58.167 -40 -93.5 -40c-28.667 0 -52.5 9.5 -71.5 28.5s-28.5 42.833 -28.5 71.5
c0 34.667 13.333 65.334 40 92.001s57.667 40 93 40z" />
    <glyph glyph-name="Aring" unicode="&#xc5;" horiz-adv-x="1515" 
d="M852 1471l493 -1471h-151l-161 481h-623l-275 -481h-164l847 1471h34zM805 1163l-314 -542h496zM886 1989c53.333 0 97.667 -17.5 133 -52.5s53 -78.833 53 -131.5c0 -64 -24.833 -120.5 -74.5 -169.5s-107.5 -73.5 -173.5 -73.5c-52 0 -95.5 17.667 -130.5 53
s-52.5 79 -52.5 131c0 64 24.667 120.5 74 169.5s106.333 73.5 171 73.5zM870.001 1888c-33.333 0 -62.668 -12.667 -88.001 -38s-38 -54.333 -38 -87c0 -27.333 9 -50 27 -68s40.667 -27 68 -27c34 0 63.667 12.667 89 38s38 54.333 38 87c0 27.333 -9.16699 50 -27.5 68
s-41.166 27 -68.499 27z" />
    <glyph glyph-name="AE" unicode="&#xc6;" horiz-adv-x="2032" 
d="M1743 0h-832l65 478h-504l-346 -478h-159l1059 1471h895l-21 -143h-661l-65 -482h661l-19 -141h-662l-75 -564h680zM1092 1344l-519 -723h423z" />
    <glyph glyph-name="Ccedilla" unicode="&#xc7;" horiz-adv-x="1665" 
d="M1576 1268l-89 -123.003c-156 146.667 -333.667 220 -533 220c-130 0 -251.5 -31.667 -364.5 -95s-201.333 -148.666 -265 -255.999s-95.5 -222.666 -95.5 -345.999c0 -110 24.5 -207.667 73.5 -293s119.833 -152.166 212.5 -200.499s198.667 -72.5 318 -72.5
c182 0 351.667 57.667 509 173l82 -117c-116.667 -76.667 -217 -128.334 -301 -155.001s-181 -40 -291 -40c-203.333 0 -369 51 -497 153c-170 136.667 -255 319 -255 547c0 235.333 85 435 255 599s381.333 246 634 246c115.333 0 220.333 -18.167 315 -54.5
s192 -98.166 292 -185.499zM715 -0.00292969l88.001 -0.000976562l-34 -118c16 2 29 3 39 3c29.333 0 53.5 -8.66699 72.5 -26s28.5 -39 28.5 -65c0 -46.667 -22.667 -87.334 -68 -122.001s-107 -52 -185 -52c-58.667 0 -112.667 10 -162 30l31 69
c41.333 -13.333 80.666 -20 117.999 -20c52 0 89 6.83301 111 20.5s33 29.834 33 48.501c0 10.667 -5 19.834 -15 27.501s-23.667 11.5 -41 11.5c-16 0 -40 -3 -72 -9z" />
    <glyph glyph-name="Egrave" unicode="&#xc8;" horiz-adv-x="1098" 
d="M1056 1471l-21 -143h-662l-65 -482h662l-19 -141h-662l-75 -564h662l-17 -141h-811l197 1471h811zM628 1895l175 -308h-138l-252 308h215z" />
    <glyph glyph-name="Eacute" unicode="&#xc9;" horiz-adv-x="1098" 
d="M1056 1471l-21 -143h-662l-65 -482h662l-19 -141h-662l-75 -564h662l-17 -141h-811l197 1471h811zM781 1895h215l-339 -308h-138z" />
    <glyph glyph-name="Ecircumflex" unicode="&#xca;" horiz-adv-x="1098" 
d="M1056 1471l-21 -143h-662l-65 -482h662l-19 -141h-662l-75 -564h662l-17 -141h-811l197 1471h811zM627 1840h139l254 -257h-180l-155 152l-205 -152h-186z" />
    <glyph glyph-name="Edieresis" unicode="&#xcb;" horiz-adv-x="1098" 
d="M1056 1471l-21 -143h-662l-65 -482h662l-19 -141h-662l-75 -564h662l-17 -141h-811l197 1471h811zM485 1816c28.667 0 52.667 -9.66699 72 -29s29 -43 29 -71c0 -34.667 -13.5 -65.334 -40.5 -92.001s-58.5 -40 -94.5 -40c-28 0 -51.5 9.5 -70.5 28.5
s-28.5 42.833 -28.5 71.5c0 34.667 13.333 65.334 40 92.001s57.667 40 93 40zM893 1816c29.333 0 53.5 -9.66699 72.5 -29s28.5 -43 28.5 -71c0 -34.667 -13.5 -65.334 -40.5 -92.001s-58.167 -40 -93.5 -40c-28.667 0 -52.5 9.5 -71.5 28.5s-28.5 42.833 -28.5 71.5
c0 34.667 13.333 65.334 40 92.001s57.667 40 93 40z" />
    <glyph glyph-name="Igrave" unicode="&#xcc;" horiz-adv-x="463" 
d="M238 1471h148l-199 -1471h-148zM274 1895l175 -308h-138l-252 308h215z" />
    <glyph glyph-name="Iacute" unicode="&#xcd;" horiz-adv-x="463" 
d="M238 1471h148l-199 -1471h-148zM464 1895h215l-339 -308h-138z" />
    <glyph glyph-name="Icircumflex" unicode="&#xce;" horiz-adv-x="463" 
d="M238 1471h148l-199 -1471h-148zM310 1840h139l254 -257h-180l-155 152l-205 -152h-186z" />
    <glyph glyph-name="Idieresis" unicode="&#xcf;" horiz-adv-x="463" 
d="M238 1471h148l-199 -1471h-148zM169 1816c28.667 0 52.667 -9.66699 72 -29s29 -43 29 -71c0 -34.667 -13.5 -65.334 -40.5 -92.001s-58.5 -40 -94.5 -40c-28 0 -51.5 9.5 -70.5 28.5s-28.5 42.833 -28.5 71.5c0 34.667 13.333 65.334 40 92.001s57.667 40 93 40z
M577 1816c29.333 0 53.5 -9.66699 72.5 -29s28.5 -43 28.5 -71c0 -34.667 -13.5 -65.334 -40.5 -92.001s-58.167 -40 -93.5 -40c-28.667 0 -52.5 9.5 -71.5 28.5s-28.5 42.833 -28.5 71.5c0 34.667 13.333 65.334 40 92.001s57.667 40 93 40z" />
    <glyph glyph-name="Eth" unicode="&#xd0;" horiz-adv-x="1618" 
d="M230 669l-185.999 0.000976562l18 132h185l89 670h316c199.333 0 352.5 -26.167 459.5 -78.5s193.167 -133.333 258.5 -243s98 -234.834 98 -375.501c0 -150 -36.833 -288.667 -110.5 -416s-164.334 -218.833 -272.001 -274.5s-268.167 -83.5 -481.5 -83.5h-463z
M375.001 669.001l-70 -526h129c199.333 0 331.333 5.33301 396 16c98 16 180.833 47.5 248.5 94.5s125.5 117.333 173.5 211s72 195.834 72 306.501c0 116.667 -27.333 218.667 -82 306s-129 152.666 -223 195.999c-81.333 37.333 -218 56 -410 56h-146l-70 -528h358
l-18 -132h-358z" />
    <glyph glyph-name="Ntilde" unicode="&#xd1;" horiz-adv-x="1515" 
d="M1265 1471h144l-199 -1471h-32l-828 1140l-154 -1140h-146l198 1471h32l830 -1142zM1143 1789l56.999 -97c-53.333 -34.667 -97.5 -58 -132.5 -70s-70.5 -18 -106.5 -18c-48 0 -95.667 12.333 -143 37c-40 21.333 -65.667 33.666 -77 36.999c-16 4.66699 -32.667 7 -50 7
c-24.667 0 -48 -4.16699 -70 -12.5s-55 -27.166 -99 -56.499l-52 102c70 64.667 149.333 97 238 97c42.667 0 92 -13.333 148 -40c53.333 -26 95.333 -39 126 -39c38.667 0 92.334 17.667 161.001 53z" />
    <glyph glyph-name="Ograve" unicode="&#xd2;" horiz-adv-x="1780" 
d="M956 1508c198 0 362.833 -65.001 494.5 -195.001s197.5 -294.333 197.5 -493c0 -242 -83.5 -445.333 -250.5 -610s-375.167 -247 -624.5 -247c-212 0 -381.667 63.333 -509 190s-191 292.334 -191 497.001c0 158 38.167 303 114.5 435s182 235.5 317 310.5
s285.5 112.5 451.5 112.5zM953 1369c-140.667 0 -266.167 -30.667 -376.5 -92s-197.666 -148.333 -261.999 -261s-96.5 -232.667 -96.5 -360c0 -108 23.333 -204.833 70 -290.5s111.167 -151.167 193.5 -196.5s179.166 -68 290.499 -68c132 0 254.333 31.833 367 95.5
s201.167 152 265.5 265s96.5 235.167 96.5 366.5c0 174 -61 312 -183 414c-101.333 84.667 -223 127 -365 127zM934 1895l175 -308h-138l-252 308h215z" />
    <glyph glyph-name="Oacute" unicode="&#xd3;" horiz-adv-x="1780" 
d="M956 1508c198 0 362.833 -65.001 494.5 -195.001s197.5 -294.333 197.5 -493c0 -242 -83.5 -445.333 -250.5 -610s-375.167 -247 -624.5 -247c-212 0 -381.667 63.333 -509 190s-191 292.334 -191 497.001c0 158 38.167 303 114.5 435s182 235.5 317 310.5
s285.5 112.5 451.5 112.5zM953 1369c-140.667 0 -266.167 -30.667 -376.5 -92s-197.666 -148.333 -261.999 -261s-96.5 -232.667 -96.5 -360c0 -108 23.333 -204.833 70 -290.5s111.167 -151.167 193.5 -196.5s179.166 -68 290.499 -68c132 0 254.333 31.833 367 95.5
s201.167 152 265.5 265s96.5 235.167 96.5 366.5c0 174 -61 312 -183 414c-101.333 84.667 -223 127 -365 127zM1087 1895h215l-339 -308h-138z" />
    <glyph glyph-name="Ocircumflex" unicode="&#xd4;" horiz-adv-x="1780" 
d="M956 1508c198 0 362.833 -65.001 494.5 -195.001s197.5 -294.333 197.5 -493c0 -242 -83.5 -445.333 -250.5 -610s-375.167 -247 -624.5 -247c-212 0 -381.667 63.333 -509 190s-191 292.334 -191 497.001c0 158 38.167 303 114.5 435s182 235.5 317 310.5
s285.5 112.5 451.5 112.5zM953 1369c-140.667 0 -266.167 -30.667 -376.5 -92s-197.666 -148.333 -261.999 -261s-96.5 -232.667 -96.5 -360c0 -108 23.333 -204.833 70 -290.5s111.167 -151.167 193.5 -196.5s179.166 -68 290.499 -68c132 0 254.333 31.833 367 95.5
s201.167 152 265.5 265s96.5 235.167 96.5 366.5c0 174 -61 312 -183 414c-101.333 84.667 -223 127 -365 127zM932 1840h139l254 -257h-180l-155 152l-205 -152h-186z" />
    <glyph glyph-name="Otilde" unicode="&#xd5;" horiz-adv-x="1780" 
d="M956 1508c198 0 362.833 -65.001 494.5 -195.001s197.5 -294.333 197.5 -493c0 -242 -83.5 -445.333 -250.5 -610s-375.167 -247 -624.5 -247c-212 0 -381.667 63.333 -509 190s-191 292.334 -191 497.001c0 158 38.167 303 114.5 435s182 235.5 317 310.5
s285.5 112.5 451.5 112.5zM953 1369c-140.667 0 -266.167 -30.667 -376.5 -92s-197.666 -148.333 -261.999 -261s-96.5 -232.667 -96.5 -360c0 -108 23.333 -204.833 70 -290.5s111.167 -151.167 193.5 -196.5s179.166 -68 290.499 -68c132 0 254.333 31.833 367 95.5
s201.167 152 265.5 265s96.5 235.167 96.5 366.5c0 174 -61 312 -183 414c-101.333 84.667 -223 127 -365 127zM1276 1789l56.999 -97c-53.333 -34.667 -97.5 -58 -132.5 -70s-70.5 -18 -106.5 -18c-48 0 -95.667 12.333 -143 37c-40 21.333 -65.667 33.666 -77 36.999
c-16 4.66699 -32.667 7 -50 7c-24.667 0 -48 -4.16699 -70 -12.5s-55 -27.166 -99 -56.499l-52 102c70 64.667 149.333 97 238 97c42.667 0 92 -13.333 148 -40c53.333 -26 95.333 -39 126 -39c38.667 0 92.334 17.667 161.001 53z" />
    <glyph glyph-name="Odieresis" unicode="&#xd6;" horiz-adv-x="1780" 
d="M956 1508c198 0 362.833 -65.001 494.5 -195.001s197.5 -294.333 197.5 -493c0 -242 -83.5 -445.333 -250.5 -610s-375.167 -247 -624.5 -247c-212 0 -381.667 63.333 -509 190s-191 292.334 -191 497.001c0 158 38.167 303 114.5 435s182 235.5 317 310.5
s285.5 112.5 451.5 112.5zM953 1369c-140.667 0 -266.167 -30.667 -376.5 -92s-197.666 -148.333 -261.999 -261s-96.5 -232.667 -96.5 -360c0 -108 23.333 -204.833 70 -290.5s111.167 -151.167 193.5 -196.5s179.166 -68 290.499 -68c132 0 254.333 31.833 367 95.5
s201.167 152 265.5 265s96.5 235.167 96.5 366.5c0 174 -61 312 -183 414c-101.333 84.667 -223 127 -365 127zM791 1816c28.667 0 52.667 -9.66699 72 -29s29 -43 29 -71c0 -34.667 -13.5 -65.334 -40.5 -92.001s-58.5 -40 -94.5 -40c-28 0 -51.5 9.5 -70.5 28.5
s-28.5 42.833 -28.5 71.5c0 34.667 13.333 65.334 40 92.001s57.667 40 93 40zM1199 1816c29.333 0 53.5 -9.66699 72.5 -29s28.5 -43 28.5 -71c0 -34.667 -13.5 -65.334 -40.5 -92.001s-58.167 -40 -93.5 -40c-28.667 0 -52.5 9.5 -71.5 28.5s-28.5 42.833 -28.5 71.5
c0 34.667 13.333 65.334 40 92.001s57.667 40 93 40z" />
    <glyph glyph-name="multiply" unicode="&#xd7;" horiz-adv-x="1241" 
d="M712 735l332 -331l-92 -92l-331 331l-332 -331l-92 92l331 331l-331 332l92 92l332 -332l331 332l92 -92z" />
    <glyph glyph-name="Oslash" unicode="&#xd8;" horiz-adv-x="1778" 
d="M1460 1301c124 -127.333 185.999 -287.666 185.999 -480.999c0 -241.333 -83.5 -444.5 -250.5 -609.5s-374.5 -247.5 -622.5 -247.5c-155.333 0 -288 33.333 -398 100l-132 -151l-98 88l126 144c-133.333 129.333 -200 298 -200 506
c0 157.333 37.833 301.666 113.5 432.999s181 235 316 311s282.167 114 441.5 114c156.667 0 295.334 -40.333 416.001 -121l121 139l102 -87zM365.999 254l897.999 1027c-91.333 58.667 -201.333 88 -330 88c-130 0 -250.5 -31.333 -361.5 -94
s-198.167 -149.834 -261.5 -261.501s-95 -230.834 -95 -357.501c0 -78.667 13.333 -153 40 -223s63.334 -129.667 110.001 -179zM1366 1194l-894 -1021c88 -48 187.667 -72 299 -72c131.333 0 253.5 31.833 366.5 95.5s201.5 152 265.5 265s96 235.167 96 366.5
c0 144.667 -44.333 266.667 -133 366z" />
    <glyph glyph-name="Ugrave" unicode="&#xd9;" horiz-adv-x="1341" 
d="M233 1471l145.001 0.000976562l-111 -842c-14.667 -112 -22 -191.667 -22 -239c0 -92 26.333 -162.833 79 -212.5s127 -74.5 223 -74.5c67.333 0 127 11.333 179 34s96.167 55.667 132.5 99s62.166 93.333 77.499 150c26.667 98.667 49.667 223.334 69 374.001l92 711
h145l-98 -743l-24 -182c-14 -84.667 -30.667 -156.834 -50 -216.501s-44.666 -112.5 -75.999 -158.5s-67 -83.667 -107 -113s-88.5 -52.5 -145.5 -69.5s-120.833 -25.5 -191.5 -25.5c-144.667 0 -256.334 36.667 -335.001 110s-118 170.666 -118 291.999c0 34 2 72 6 114
l22 172zM714.001 1895l175 -308h-138l-252 308h215z" />
    <glyph glyph-name="Uacute" unicode="&#xda;" horiz-adv-x="1341" 
d="M233 1471l145.001 0.000976562l-111 -842c-14.667 -112 -22 -191.667 -22 -239c0 -92 26.333 -162.833 79 -212.5s127 -74.5 223 -74.5c67.333 0 127 11.333 179 34s96.167 55.667 132.5 99s62.166 93.333 77.499 150c26.667 98.667 49.667 223.334 69 374.001l92 711
h145l-98 -743l-24 -182c-14 -84.667 -30.667 -156.834 -50 -216.501s-44.666 -112.5 -75.999 -158.5s-67 -83.667 -107 -113s-88.5 -52.5 -145.5 -69.5s-120.833 -25.5 -191.5 -25.5c-144.667 0 -256.334 36.667 -335.001 110s-118 170.666 -118 291.999c0 34 2 72 6 114
l22 172zM868.001 1895h215l-339 -308h-138z" />
    <glyph glyph-name="Ucircumflex" unicode="&#xdb;" horiz-adv-x="1341" 
d="M233 1471l145.001 0.000976562l-111 -842c-14.667 -112 -22 -191.667 -22 -239c0 -92 26.333 -162.833 79 -212.5s127 -74.5 223 -74.5c67.333 0 127 11.333 179 34s96.167 55.667 132.5 99s62.166 93.333 77.499 150c26.667 98.667 49.667 223.334 69 374.001l92 711
h145l-98 -743l-24 -182c-14 -84.667 -30.667 -156.834 -50 -216.501s-44.666 -112.5 -75.999 -158.5s-67 -83.667 -107 -113s-88.5 -52.5 -145.5 -69.5s-120.833 -25.5 -191.5 -25.5c-144.667 0 -256.334 36.667 -335.001 110s-118 170.666 -118 291.999c0 34 2 72 6 114
l22 172zM713.001 1840h139l254 -257h-180l-155 152l-205 -152h-186z" />
    <glyph glyph-name="Udieresis" unicode="&#xdc;" horiz-adv-x="1341" 
d="M233 1471l145.001 0.000976562l-111 -842c-14.667 -112 -22 -191.667 -22 -239c0 -92 26.333 -162.833 79 -212.5s127 -74.5 223 -74.5c67.333 0 127 11.333 179 34s96.167 55.667 132.5 99s62.166 93.333 77.499 150c26.667 98.667 49.667 223.334 69 374.001l92 711
h145l-98 -743l-24 -182c-14 -84.667 -30.667 -156.834 -50 -216.501s-44.666 -112.5 -75.999 -158.5s-67 -83.667 -107 -113s-88.5 -52.5 -145.5 -69.5s-120.833 -25.5 -191.5 -25.5c-144.667 0 -256.334 36.667 -335.001 110s-118 170.666 -118 291.999c0 34 2 72 6 114
l22 172zM571.001 1816c28.667 0 52.667 -9.66699 72 -29s29 -43 29 -71c0 -34.667 -13.5 -65.334 -40.5 -92.001s-58.5 -40 -94.5 -40c-28 0 -51.5 9.5 -70.5 28.5s-28.5 42.833 -28.5 71.5c0 34.667 13.333 65.334 40 92.001s57.667 40 93 40zM979.001 1816
c29.333 0 53.5 -9.66699 72.5 -29s28.5 -43 28.5 -71c0 -34.667 -13.5 -65.334 -40.5 -92.001s-58.167 -40 -93.5 -40c-28.667 0 -52.5 9.5 -71.5 28.5s-28.5 42.833 -28.5 71.5c0 34.667 13.333 65.334 40 92.001s57.667 40 93 40z" />
    <glyph glyph-name="Yacute" unicode="&#xdd;" horiz-adv-x="1212" 
d="M83 1471h154l315 -668l531 668h178l-652 -819l-89 -652h-144l89 660zM803 1895h215l-339 -308h-138z" />
    <glyph glyph-name="Thorn" unicode="&#xde;" horiz-adv-x="1212" 
d="M262 1471h147l-47 -348h254c132.667 0 227.667 -12.333 285 -37s103.5 -64 138.5 -118s52.5 -118 52.5 -192c0 -97.333 -27.5 -181.833 -82.5 -253.5s-123.833 -120.5 -206.5 -146.5c-60.667 -18.667 -167.667 -28 -321 -28h-223l-47 -348h-147zM345 981
l-67.999 -488.999h204c138.667 0 234.5 9.5 287.5 28.5s95.667 51.667 128 98s48.5 98.166 48.5 155.499c0 46 -11.167 85.333 -33.5 118s-52.833 55.667 -91.5 69s-109.334 20 -212.001 20h-263z" />
    <glyph glyph-name="germandbls" unicode="&#xdf;" horiz-adv-x="1135" 
d="M185 0l-141.002 -0.00292969l141 993c20.667 144 50.834 250.5 90.501 319.5s94.334 123.5 164.001 163.5s146.167 60 229.5 60c98 0 178.5 -30.5 241.5 -91.5s94.5 -137.5 94.5 -229.5c0 -94 -23.833 -174.167 -71.5 -240.5s-118.5 -116.166 -212.5 -149.499
c83.333 -39.333 145.666 -90.5 186.999 -153.5s62 -133.5 62 -211.5c0 -128 -41.333 -241.333 -124 -340s-194.334 -148 -335.001 -148c-83.333 0 -153.666 17.667 -210.999 53l19 136c69.333 -36.667 131.333 -55 186 -55c77.333 0 150.833 30.333 220.5 91
s104.5 143 104.5 247c0 174 -115 279.667 -345 317l22 151c74 0 138.833 13.167 194.5 39.5s98 62.333 127 108s43.5 94.834 43.5 147.501c0 54.667 -19 100.167 -57 136.5s-88 54.5 -150 54.5c-66 0 -125.167 -18.333 -177.5 -55s-91.166 -84 -116.499 -142
c-16 -37.333 -31.333 -106.666 -46 -207.999z" />
    <glyph glyph-name="agrave" unicode="&#xe0;" horiz-adv-x="1399" 
d="M1121 0l-141 0.000976562l21 164c-126 -128 -270.333 -192 -433 -192c-148 0 -269.667 47.667 -365 143s-143 218 -143 368c0 173.333 61.833 322.166 185.5 446.499s269.167 186.5 436.5 186.5c90.667 0 170.167 -19 238.5 -57s126.833 -97.333 175.5 -178l25 207h145z
M583 100.001c90 0 172 21.1689 246 63.502s132.667 103.166 176 182.499s65 165.666 65 258.999c0 112.667 -35.667 204.334 -107 275.001s-164 106 -278 106c-134 0 -248.667 -48.333 -344 -145s-143 -215.334 -143 -356.001c0 -115.333 35.667 -208.333 107 -279
s164 -106 278 -106zM743 1598l175 -308h-138l-252 308h215z" />
    <glyph glyph-name="aacute" unicode="&#xe1;" horiz-adv-x="1399" 
d="M1121 0l-141 0.000976562l21 164c-126 -128 -270.333 -192 -433 -192c-148 0 -269.667 47.667 -365 143s-143 218 -143 368c0 173.333 61.833 322.166 185.5 446.499s269.167 186.5 436.5 186.5c90.667 0 170.167 -19 238.5 -57s126.833 -97.333 175.5 -178l25 207h145z
M583 100.001c90 0 172 21.1689 246 63.502s132.667 103.166 176 182.499s65 165.666 65 258.999c0 112.667 -35.667 204.334 -107 275.001s-164 106 -278 106c-134 0 -248.667 -48.333 -344 -145s-143 -215.334 -143 -356.001c0 -115.333 35.667 -208.333 107 -279
s164 -106 278 -106zM896 1598h215l-339 -308h-138z" />
    <glyph glyph-name="acircumflex" unicode="&#xe2;" horiz-adv-x="1399" 
d="M1121 0l-141 0.000976562l21 164c-126 -128 -270.333 -192 -433 -192c-148 0 -269.667 47.667 -365 143s-143 218 -143 368c0 173.333 61.833 322.166 185.5 446.499s269.167 186.5 436.5 186.5c90.667 0 170.167 -19 238.5 -57s126.833 -97.333 175.5 -178l25 207h145z
M583 100.001c90 0 172 21.1689 246 63.502s132.667 103.166 176 182.499s65 165.666 65 258.999c0 112.667 -35.667 204.334 -107 275.001s-164 106 -278 106c-134 0 -248.667 -48.333 -344 -145s-143 -215.334 -143 -356.001c0 -115.333 35.667 -208.333 107 -279
s164 -106 278 -106zM742 1542h139l254 -257h-180l-155 152l-205 -152h-186z" />
    <glyph glyph-name="atilde" unicode="&#xe3;" horiz-adv-x="1399" 
d="M1121 0l-141 0.000976562l21 164c-126 -128 -270.333 -192 -433 -192c-148 0 -269.667 47.667 -365 143s-143 218 -143 368c0 173.333 61.833 322.166 185.5 446.499s269.167 186.5 436.5 186.5c90.667 0 170.167 -19 238.5 -57s126.833 -97.333 175.5 -178l25 207h145z
M583 100.001c90 0 172 21.1689 246 63.502s132.667 103.166 176 182.499s65 165.666 65 258.999c0 112.667 -35.667 204.334 -107 275.001s-164 106 -278 106c-134 0 -248.667 -48.333 -344 -145s-143 -215.334 -143 -356.001c0 -115.333 35.667 -208.333 107 -279
s164 -106 278 -106zM1085 1492l56.999 -97c-53.333 -34.667 -97.5 -58 -132.5 -70s-70.5 -18 -106.5 -18c-48 0 -95.667 12.333 -143 37c-40 21.333 -65.667 33.666 -77 36.999c-16 4.66699 -32.667 7 -50 7c-24.667 0 -48 -4.16699 -70 -12.5s-55 -27.166 -99 -56.499
l-52 102c70 64.667 149.333 97 238 97c42.667 0 92 -13.333 148 -40c53.333 -26 95.333 -39 126 -39c38.667 0 92.334 17.667 161.001 53z" />
    <glyph glyph-name="adieresis" unicode="&#xe4;" horiz-adv-x="1399" 
d="M1121 0l-141 0.000976562l21 164c-126 -128 -270.333 -192 -433 -192c-148 0 -269.667 47.667 -365 143s-143 218 -143 368c0 173.333 61.833 322.166 185.5 446.499s269.167 186.5 436.5 186.5c90.667 0 170.167 -19 238.5 -57s126.833 -97.333 175.5 -178l25 207h145z
M583 100.001c90 0 172 21.1689 246 63.502s132.667 103.166 176 182.499s65 165.666 65 258.999c0 112.667 -35.667 204.334 -107 275.001s-164 106 -278 106c-134 0 -248.667 -48.333 -344 -145s-143 -215.334 -143 -356.001c0 -115.333 35.667 -208.333 107 -279
s164 -106 278 -106zM600 1518c28.667 0 52.667 -9.66699 72 -29s29 -43 29 -71c0 -34.667 -13.5 -65.334 -40.5 -92.001s-58.5 -40 -94.5 -40c-28 0 -51.5 9.5 -70.5 28.5s-28.5 42.833 -28.5 71.5c0 34.667 13.333 65.334 40 92.001s57.667 40 93 40zM1008 1518
c29.333 0 53.5 -9.66699 72.5 -29s28.5 -43 28.5 -71c0 -34.667 -13.5 -65.334 -40.5 -92.001s-58.167 -40 -93.5 -40c-28.667 0 -52.5 9.5 -71.5 28.5s-28.5 42.833 -28.5 71.5c0 34.667 13.333 65.334 40 92.001s57.667 40 93 40z" />
    <glyph glyph-name="aring" unicode="&#xe5;" horiz-adv-x="1399" 
d="M1121 0l-141 0.000976562l21 164c-126 -128 -270.333 -192 -433 -192c-148 0 -269.667 47.667 -365 143s-143 218 -143 368c0 173.333 61.833 322.166 185.5 446.499s269.167 186.5 436.5 186.5c90.667 0 170.167 -19 238.5 -57s126.833 -97.333 175.5 -178l25 207h145z
M583 100.001c90 0 172 21.1689 246 63.502s132.667 103.166 176 182.499s65 165.666 65 258.999c0 112.667 -35.667 204.334 -107 275.001s-164 106 -278 106c-134 0 -248.667 -48.333 -344 -145s-143 -215.334 -143 -356.001c0 -115.333 35.667 -208.333 107 -279
s164 -106 278 -106zM828 1691c53.333 0 97.667 -17.5 133 -52.5s53 -78.833 53 -131.5c0 -64 -24.833 -120.5 -74.5 -169.5s-107.5 -73.5 -173.5 -73.5c-52 0 -95.5 17.667 -130.5 53s-52.5 79 -52.5 131c0 64 24.667 120.5 74 169.5s106.333 73.5 171 73.5zM812.001 1590
c-33.333 0 -62.668 -12.667 -88.001 -38s-38 -54.333 -38 -87c0 -27.333 9 -50 27 -68s40.667 -27 68 -27c34 0 63.667 12.667 89 38s38 54.333 38 87c0 27.333 -9.16699 50 -27.5 68s-41.166 27 -68.499 27z" />
    <glyph glyph-name="ae" unicode="&#xe6;" horiz-adv-x="2370" 
d="M1149 1088l125.001 -0.000976562l-22 -178c60.667 68.667 129.5 120.167 206.5 154.5s159.5 51.5 247.5 51.5c148.667 0 270.334 -46.833 365.001 -140.5s142 -214.834 142 -363.501c0 -30 -2.66699 -62 -8 -96h-985l-3 -47c0 -65.333 17 -127.333 51 -186
s80.333 -103.667 139 -135s127 -47 205 -47c148.667 0 274 58 376 174l107 -79c-120 -149.333 -286 -224 -498 -224c-104 0 -191.333 18.833 -262 56.5s-130.667 94.834 -180 171.501l-27 -200h-124l21 170c-68.667 -69.333 -139.834 -119.666 -213.501 -150.999
s-154.834 -47 -243.501 -47c-152.667 0 -273.334 46.333 -362.001 139c-98.667 102 -148 229.333 -148 382c0 170 61.5 316.333 184.5 439s268.5 184 436.5 184c106.667 0 198.334 -23.333 275.001 -70c57.333 -35.333 112.333 -94.333 165 -177zM683.001 986.999
c-152 0 -274.668 -56.335 -368.001 -169.002c-80 -95.333 -120 -205.666 -120 -330.999c0 -114.667 36.333 -207.5 109 -278.5s169 -106.5 289 -106.5c89.333 0 171.833 21.333 247.5 64s135.334 102.834 179.001 180.501s65.5 158.167 65.5 241.5
c0 72 -17.667 139.667 -53 203s-82.833 111.833 -142.5 145.5s-128.5 50.5 -206.5 50.5zM2081 634.997c-3.33301 99.333 -37.498 182.5 -102.498 249.5s-155.167 100.5 -270.5 100.5c-110.667 0 -207.334 -31.167 -290.001 -93.5s-140.334 -147.833 -173.001 -256.5h836z
" />
    <glyph glyph-name="ccedilla" unicode="&#xe7;" horiz-adv-x="1325" 
d="M1198 853l-114.999 -66.998c-80.667 130.667 -204 196 -370 196c-96 0 -183.667 -21.333 -263 -64s-141.333 -102 -186 -178s-67 -157.333 -67 -244c0 -76.667 16.667 -145.334 50 -206.001s80.166 -107.334 140.499 -140.001s131.5 -49 213.5 -49
c84 0 164.167 16.667 240.5 50s135.833 76.333 178.5 129l115 -81c-72 -78.667 -150.167 -136.167 -234.5 -172.5s-182.166 -54.5 -293.499 -54.5c-172 0 -306.167 46.833 -402.5 140.5s-144.5 218.5 -144.5 374.5c0 173.333 63.167 321.5 189.5 444.5
s281.166 184.5 464.499 184.5c110 0 207 -23.167 291 -69.5s148.333 -110.833 193 -193.5zM533.001 0.00195312l88.001 -0.000976562l-34 -118c16 2 29 3 39 3c29.333 0 53.5 -8.66699 72.5 -26s28.5 -39 28.5 -65c0 -46.667 -22.667 -87.334 -68 -122.001
s-107 -52 -185 -52c-58.667 0 -112.667 10 -162 30l31 69c41.333 -13.333 80.666 -20 117.999 -20c52 0 89 6.83301 111 20.5s33 29.834 33 48.501c0 10.667 -5 19.834 -15 27.501s-23.667 11.5 -41 11.5c-16 0 -40 -3 -72 -9z" />
    <glyph glyph-name="egrave" unicode="&#xe8;" horiz-adv-x="1331" 
d="M1166 516h-969.999c-2 -129.333 31.667 -231 101 -305s161.666 -111 276.999 -111c76.667 0 147.667 15.667 213 47s119.333 75.333 162 132l104 -85c-52.667 -67.333 -121.5 -121.166 -206.5 -161.499s-176.833 -60.5 -275.5 -60.5
c-170.667 0 -298.834 52.833 -384.501 158.5s-128.5 224.5 -128.5 356.5c0 108 28.833 212 86.5 312s134.834 177.833 231.501 233.5s201.334 83.5 314.001 83.5c139.333 0 254.666 -47.167 345.999 -141.5s137 -214.5 137 -360.5c0 -26.667 -2.33301 -59.334 -7 -98.001z
M1038 637c-4 102.667 -39 185.832 -105 249.499s-149 95.5 -249 95.5c-108.667 0 -204.5 -30.667 -287.5 -92s-141.833 -145.666 -176.5 -252.999h818zM709.001 1598l175 -308h-138l-252 308h215z" />
    <glyph glyph-name="eacute" unicode="&#xe9;" horiz-adv-x="1331" 
d="M1166 516h-969.999c-2 -129.333 31.667 -231 101 -305s161.666 -111 276.999 -111c76.667 0 147.667 15.667 213 47s119.333 75.333 162 132l104 -85c-52.667 -67.333 -121.5 -121.166 -206.5 -161.499s-176.833 -60.5 -275.5 -60.5
c-170.667 0 -298.834 52.833 -384.501 158.5s-128.5 224.5 -128.5 356.5c0 108 28.833 212 86.5 312s134.834 177.833 231.501 233.5s201.334 83.5 314.001 83.5c139.333 0 254.666 -47.167 345.999 -141.5s137 -214.5 137 -360.5c0 -26.667 -2.33301 -59.334 -7 -98.001z
M1038 637c-4 102.667 -39 185.832 -105 249.499s-149 95.5 -249 95.5c-108.667 0 -204.5 -30.667 -287.5 -92s-141.833 -145.666 -176.5 -252.999h818zM862.001 1598h215l-339 -308h-138z" />
    <glyph glyph-name="ecircumflex" unicode="&#xea;" horiz-adv-x="1331" 
d="M1166 516h-969.999c-2 -129.333 31.667 -231 101 -305s161.666 -111 276.999 -111c76.667 0 147.667 15.667 213 47s119.333 75.333 162 132l104 -85c-52.667 -67.333 -121.5 -121.166 -206.5 -161.499s-176.833 -60.5 -275.5 -60.5
c-170.667 0 -298.834 52.833 -384.501 158.5s-128.5 224.5 -128.5 356.5c0 108 28.833 212 86.5 312s134.834 177.833 231.501 233.5s201.334 83.5 314.001 83.5c139.333 0 254.666 -47.167 345.999 -141.5s137 -214.5 137 -360.5c0 -26.667 -2.33301 -59.334 -7 -98.001z
M1038 637c-4 102.667 -39 185.832 -105 249.499s-149 95.5 -249 95.5c-108.667 0 -204.5 -30.667 -287.5 -92s-141.833 -145.666 -176.5 -252.999h818zM707.001 1542h139l254 -257h-180l-155 152l-205 -152h-186z" />
    <glyph glyph-name="edieresis" unicode="&#xeb;" horiz-adv-x="1331" 
d="M1166 516h-969.999c-2 -129.333 31.667 -231 101 -305s161.666 -111 276.999 -111c76.667 0 147.667 15.667 213 47s119.333 75.333 162 132l104 -85c-52.667 -67.333 -121.5 -121.166 -206.5 -161.499s-176.833 -60.5 -275.5 -60.5
c-170.667 0 -298.834 52.833 -384.501 158.5s-128.5 224.5 -128.5 356.5c0 108 28.833 212 86.5 312s134.834 177.833 231.501 233.5s201.334 83.5 314.001 83.5c139.333 0 254.666 -47.167 345.999 -141.5s137 -214.5 137 -360.5c0 -26.667 -2.33301 -59.334 -7 -98.001z
M1038 637c-4 102.667 -39 185.832 -105 249.499s-149 95.5 -249 95.5c-108.667 0 -204.5 -30.667 -287.5 -92s-141.833 -145.666 -176.5 -252.999h818zM566.001 1518c28.667 0 52.667 -9.66699 72 -29s29 -43 29 -71c0 -34.667 -13.5 -65.334 -40.5 -92.001
s-58.5 -40 -94.5 -40c-28 0 -51.5 9.5 -70.5 28.5s-28.5 42.833 -28.5 71.5c0 34.667 13.333 65.334 40 92.001s57.667 40 93 40zM974.001 1518c29.333 0 53.5 -9.66699 72.5 -29s28.5 -43 28.5 -71c0 -34.667 -13.5 -65.334 -40.5 -92.001s-58.167 -40 -93.5 -40
c-28.667 0 -52.5 9.5 -71.5 28.5s-28.5 42.833 -28.5 71.5c0 34.667 13.333 65.334 40 92.001s57.667 40 93 40z" />
    <glyph glyph-name="igrave" unicode="&#xec;" horiz-adv-x="410" 
d="M164 1088h133l-145 -1088h-138zM248 1598l175 -308h-138l-252 308h215z" />
    <glyph glyph-name="iacute" unicode="&#xed;" horiz-adv-x="410" 
d="M164 1088h133l-145 -1088h-138zM402 1598h215l-339 -308h-138z" />
    <glyph glyph-name="icircumflex" unicode="&#xee;" horiz-adv-x="410" 
d="M164 1088h133l-145 -1088h-138zM247 1542h139l254 -257h-180l-155 152l-205 -152h-186z" />
    <glyph glyph-name="idieresis" unicode="&#xef;" horiz-adv-x="410" 
d="M164 1088h133l-145 -1088h-138zM106 1518c28.667 0 52.667 -9.66699 72 -29s29 -43 29 -71c0 -34.667 -13.5 -65.334 -40.5 -92.001s-58.5 -40 -94.5 -40c-28 0 -51.5 9.5 -70.5 28.5s-28.5 42.833 -28.5 71.5c0 34.667 13.333 65.334 40 92.001s57.667 40 93 40z
M514 1518c29.333 0 53.5 -9.66699 72.5 -29s28.5 -43 28.5 -71c0 -34.667 -13.5 -65.334 -40.5 -92.001s-58.167 -40 -93.5 -40c-28.667 0 -52.5 9.5 -71.5 28.5s-28.5 42.833 -28.5 71.5c0 34.667 13.333 65.334 40 92.001s57.667 40 93 40z" />
    <glyph glyph-name="eth" unicode="&#xf0;" horiz-adv-x="1341" 
d="M471 1508h188.999c48.667 -26.667 92.667 -56.334 132 -89.001l183 68l35 -100l-126 -47c94.667 -93.333 168.334 -200 221.001 -320s79 -243.333 79 -370c0 -130 -27.833 -245.333 -83.5 -346s-133.5 -181.167 -233.5 -241.5s-204.333 -90.5 -313 -90.5
c-92 0 -175 21.5 -249 64.5s-133.333 105.5 -178 187.5s-67 169.667 -67 263c0 102.667 29 203.834 87 303.501s135.333 178.834 232 237.501s194 88 292 88c112 0 206.333 -34.667 283 -104c-50 104 -115 197.333 -195 280l-228 -86l-39 101l177 65
c-62 47.333 -128 92.666 -198 135.999zM693.999 975c-84.667 0 -166.167 -22.502 -244.5 -67.502s-140 -105.667 -185 -182s-67.5 -156.166 -67.5 -239.499c0 -71.333 16.167 -136.833 48.5 -196.5s75.833 -105.167 130.5 -136.5s116 -47 184 -47
c77.333 0 154.5 23.167 231.5 69.5s137.667 108.833 182 187.5s66.5 162.334 66.5 251.001c0 107.333 -32.833 194.333 -98.5 261s-148.167 100 -247.5 100z" />
    <glyph glyph-name="ntilde" unicode="&#xf1;" horiz-adv-x="1249" 
d="M192 1088l134.001 -0.000976562l-21 -167c110 130 238 195 384 195c112 0 202.333 -34.5 271 -103.5s103 -161.833 103 -278.5c0 -46.667 -7.33301 -125 -22 -235l-68 -499h-138l67 499c14.667 106.667 22 185.334 22 236.001c0 76 -23 137.333 -69 184
s-106.333 70 -181 70c-73.333 0 -141.5 -18.833 -204.5 -56.5s-111.833 -89 -146.5 -154s-61.334 -167.833 -80.001 -308.5l-65 -470h-137zM1011 1492l56.999 -97c-53.333 -34.667 -97.5 -58 -132.5 -70s-70.5 -18 -106.5 -18c-48 0 -95.667 12.333 -143 37
c-40 21.333 -65.667 33.666 -77 36.999c-16 4.66699 -32.667 7 -50 7c-24.667 0 -48 -4.16699 -70 -12.5s-55 -27.166 -99 -56.499l-52 102c70 64.667 149.333 97 238 97c42.667 0 92 -13.333 148 -40c53.333 -26 95.333 -39 126 -39c38.667 0 92.334 17.667 161.001 53z
" />
    <glyph glyph-name="ograve" unicode="&#xf2;" horiz-adv-x="1341" 
d="M680 1116c92.667 0 177.668 -22.167 255.001 -66.5s137.666 -106 180.999 -185s65 -168.5 65 -268.5c0 -114 -27.667 -219.833 -83 -317.5s-129.666 -173.167 -222.999 -226.5s-199 -80 -317 -80c-146 0 -266.167 47.833 -360.5 143.5s-141.5 217.5 -141.5 365.5
c0 116 27.667 223 83 321s131.166 174.833 227.499 230.5s200.833 83.5 313.5 83.5zM677.001 983c-86.667 0 -168.168 -21.665 -244.501 -64.998s-135 -102.833 -176 -178.5s-61.5 -159.167 -61.5 -250.5c0 -114.667 35.333 -207.834 106 -279.501s162 -107.5 274 -107.5
c87.333 0 166.5 20.833 237.5 62.5s127.5 101.834 169.5 180.501s63 163 63 253c0 75.333 -15.667 142.166 -47 200.499s-75.666 103.666 -132.999 135.999s-120 48.5 -188 48.5zM714 1598l175 -308h-138l-252 308h215z" />
    <glyph glyph-name="oacute" unicode="&#xf3;" horiz-adv-x="1341" 
d="M680 1116c92.667 0 177.668 -22.167 255.001 -66.5s137.666 -106 180.999 -185s65 -168.5 65 -268.5c0 -114 -27.667 -219.833 -83 -317.5s-129.666 -173.167 -222.999 -226.5s-199 -80 -317 -80c-146 0 -266.167 47.833 -360.5 143.5s-141.5 217.5 -141.5 365.5
c0 116 27.667 223 83 321s131.166 174.833 227.499 230.5s200.833 83.5 313.5 83.5zM677.001 983c-86.667 0 -168.168 -21.665 -244.501 -64.998s-135 -102.833 -176 -178.5s-61.5 -159.167 -61.5 -250.5c0 -114.667 35.333 -207.834 106 -279.501s162 -107.5 274 -107.5
c87.333 0 166.5 20.833 237.5 62.5s127.5 101.834 169.5 180.501s63 163 63 253c0 75.333 -15.667 142.166 -47 200.499s-75.666 103.666 -132.999 135.999s-120 48.5 -188 48.5zM868 1598h215l-339 -308h-138z" />
    <glyph glyph-name="ocircumflex" unicode="&#xf4;" horiz-adv-x="1341" 
d="M680 1116c92.667 0 177.668 -22.167 255.001 -66.5s137.666 -106 180.999 -185s65 -168.5 65 -268.5c0 -114 -27.667 -219.833 -83 -317.5s-129.666 -173.167 -222.999 -226.5s-199 -80 -317 -80c-146 0 -266.167 47.833 -360.5 143.5s-141.5 217.5 -141.5 365.5
c0 116 27.667 223 83 321s131.166 174.833 227.499 230.5s200.833 83.5 313.5 83.5zM677.001 983c-86.667 0 -168.168 -21.665 -244.501 -64.998s-135 -102.833 -176 -178.5s-61.5 -159.167 -61.5 -250.5c0 -114.667 35.333 -207.834 106 -279.501s162 -107.5 274 -107.5
c87.333 0 166.5 20.833 237.5 62.5s127.5 101.834 169.5 180.501s63 163 63 253c0 75.333 -15.667 142.166 -47 200.499s-75.666 103.666 -132.999 135.999s-120 48.5 -188 48.5zM713 1542h139l254 -257h-180l-155 152l-205 -152h-186z" />
    <glyph glyph-name="otilde" unicode="&#xf5;" horiz-adv-x="1341" 
d="M680 1116c92.667 0 177.668 -22.167 255.001 -66.5s137.666 -106 180.999 -185s65 -168.5 65 -268.5c0 -114 -27.667 -219.833 -83 -317.5s-129.666 -173.167 -222.999 -226.5s-199 -80 -317 -80c-146 0 -266.167 47.833 -360.5 143.5s-141.5 217.5 -141.5 365.5
c0 116 27.667 223 83 321s131.166 174.833 227.499 230.5s200.833 83.5 313.5 83.5zM677.001 983c-86.667 0 -168.168 -21.665 -244.501 -64.998s-135 -102.833 -176 -178.5s-61.5 -159.167 -61.5 -250.5c0 -114.667 35.333 -207.834 106 -279.501s162 -107.5 274 -107.5
c87.333 0 166.5 20.833 237.5 62.5s127.5 101.834 169.5 180.501s63 163 63 253c0 75.333 -15.667 142.166 -47 200.499s-75.666 103.666 -132.999 135.999s-120 48.5 -188 48.5zM1056 1492l56.999 -97c-53.333 -34.667 -97.5 -58 -132.5 -70s-70.5 -18 -106.5 -18
c-48 0 -95.667 12.333 -143 37c-40 21.333 -65.667 33.666 -77 36.999c-16 4.66699 -32.667 7 -50 7c-24.667 0 -48 -4.16699 -70 -12.5s-55 -27.166 -99 -56.499l-52 102c70 64.667 149.333 97 238 97c42.667 0 92 -13.333 148 -40c53.333 -26 95.333 -39 126 -39
c38.667 0 92.334 17.667 161.001 53z" />
    <glyph glyph-name="odieresis" unicode="&#xf6;" horiz-adv-x="1341" 
d="M680 1116c92.667 0 177.668 -22.167 255.001 -66.5s137.666 -106 180.999 -185s65 -168.5 65 -268.5c0 -114 -27.667 -219.833 -83 -317.5s-129.666 -173.167 -222.999 -226.5s-199 -80 -317 -80c-146 0 -266.167 47.833 -360.5 143.5s-141.5 217.5 -141.5 365.5
c0 116 27.667 223 83 321s131.166 174.833 227.499 230.5s200.833 83.5 313.5 83.5zM677.001 983c-86.667 0 -168.168 -21.665 -244.501 -64.998s-135 -102.833 -176 -178.5s-61.5 -159.167 -61.5 -250.5c0 -114.667 35.333 -207.834 106 -279.501s162 -107.5 274 -107.5
c87.333 0 166.5 20.833 237.5 62.5s127.5 101.834 169.5 180.501s63 163 63 253c0 75.333 -15.667 142.166 -47 200.499s-75.666 103.666 -132.999 135.999s-120 48.5 -188 48.5zM571 1518c28.667 0 52.667 -9.66699 72 -29s29 -43 29 -71
c0 -34.667 -13.5 -65.334 -40.5 -92.001s-58.5 -40 -94.5 -40c-28 0 -51.5 9.5 -70.5 28.5s-28.5 42.833 -28.5 71.5c0 34.667 13.333 65.334 40 92.001s57.667 40 93 40zM979 1518c29.333 0 53.5 -9.66699 72.5 -29s28.5 -43 28.5 -71
c0 -34.667 -13.5 -65.334 -40.5 -92.001s-58.167 -40 -93.5 -40c-28.667 0 -52.5 9.5 -71.5 28.5s-28.5 42.833 -28.5 71.5c0 34.667 13.333 65.334 40 92.001s57.667 40 93 40z" />
    <glyph glyph-name="divide" unicode="&#xf7;" horiz-adv-x="1124" 
d="M461 1207h201v-202h-201v202zM56 804h1012v-137h-1012v137zM461 466h201v-205h-201v205z" />
    <glyph glyph-name="oslash" unicode="&#xf8;" horiz-adv-x="1337" 
d="M1071 931c72 -95.333 107.999 -207 107.999 -335c0 -114 -27.5 -219.833 -82.5 -317.5s-129.333 -173.167 -223 -226.5s-199.167 -80 -316.5 -80c-104 0 -192 22 -264 66l-129 -149l-101 87l127 146c-90.667 97.333 -136 217 -136 359c0 115.333 27.5 221.833 82.5 319.5
s130.5 174.667 226.5 231s198.333 84.5 307 84.5c118.667 0 220.334 -30.667 305.001 -92l121 139l103 -84zM281.999 228l604 694c-63.333 40.667 -136.333 61 -219 61s-162 -22 -238 -66s-134.333 -103.667 -175 -179s-61 -158.333 -61 -249c0 -102 29.667 -189 89 -261z
M979.999 827l-594 -682.001c56.667 -28.667 119 -43 187 -43c87.333 0 166.5 20.833 237.5 62.5s127.5 101.834 169.5 180.501s63 162.667 63 252c0 85.333 -21 162 -63 230z" />
    <glyph glyph-name="ugrave" unicode="&#xf9;" horiz-adv-x="1245" 
d="M188 1088l140 0.000976562l-63 -455c-17.333 -128.667 -26 -211.334 -26 -248.001c0 -83.333 27.833 -151.333 83.5 -204s129.167 -79 220.5 -79c76 0 142 20 198 60s96 92.333 120 157c12 32.667 26.333 107.667 43 225l78 544h137l-56 -412
c-26.667 -196.667 -55 -336.5 -85 -419.5s-83.5 -151.167 -160.5 -204.5s-170.833 -80 -281.5 -80c-126 0 -229.167 38.5 -309.5 115.5s-120.5 173.167 -120.5 288.5c0 46 3.66699 99.667 11 161l10 96l5 41zM666 1598l175 -308h-138l-252 308h215z" />
    <glyph glyph-name="uacute" unicode="&#xfa;" horiz-adv-x="1245" 
d="M188 1088l140 0.000976562l-63 -455c-17.333 -128.667 -26 -211.334 -26 -248.001c0 -83.333 27.833 -151.333 83.5 -204s129.167 -79 220.5 -79c76 0 142 20 198 60s96 92.333 120 157c12 32.667 26.333 107.667 43 225l78 544h137l-56 -412
c-26.667 -196.667 -55 -336.5 -85 -419.5s-83.5 -151.167 -160.5 -204.5s-170.833 -80 -281.5 -80c-126 0 -229.167 38.5 -309.5 115.5s-120.5 173.167 -120.5 288.5c0 46 3.66699 99.667 11 161l10 96l5 41zM820 1598h215l-339 -308h-138z" />
    <glyph glyph-name="ucircumflex" unicode="&#xfb;" horiz-adv-x="1245" 
d="M188 1088l140 0.000976562l-63 -455c-17.333 -128.667 -26 -211.334 -26 -248.001c0 -83.333 27.833 -151.333 83.5 -204s129.167 -79 220.5 -79c76 0 142 20 198 60s96 92.333 120 157c12 32.667 26.333 107.667 43 225l78 544h137l-56 -412
c-26.667 -196.667 -55 -336.5 -85 -419.5s-83.5 -151.167 -160.5 -204.5s-170.833 -80 -281.5 -80c-126 0 -229.167 38.5 -309.5 115.5s-120.5 173.167 -120.5 288.5c0 46 3.66699 99.667 11 161l10 96l5 41zM665 1542h139l254 -257h-180l-155 152l-205 -152h-186z" />
    <glyph glyph-name="udieresis" unicode="&#xfc;" horiz-adv-x="1245" 
d="M188 1088l140 0.000976562l-63 -455c-17.333 -128.667 -26 -211.334 -26 -248.001c0 -83.333 27.833 -151.333 83.5 -204s129.167 -79 220.5 -79c76 0 142 20 198 60s96 92.333 120 157c12 32.667 26.333 107.667 43 225l78 544h137l-56 -412
c-26.667 -196.667 -55 -336.5 -85 -419.5s-83.5 -151.167 -160.5 -204.5s-170.833 -80 -281.5 -80c-126 0 -229.167 38.5 -309.5 115.5s-120.5 173.167 -120.5 288.5c0 46 3.66699 99.667 11 161l10 96l5 41zM523 1518c28.667 0 52.667 -9.66699 72 -29s29 -43 29 -71
c0 -34.667 -13.5 -65.334 -40.5 -92.001s-58.5 -40 -94.5 -40c-28 0 -51.5 9.5 -70.5 28.5s-28.5 42.833 -28.5 71.5c0 34.667 13.333 65.334 40 92.001s57.667 40 93 40zM931 1518c29.333 0 53.5 -9.66699 72.5 -29s28.5 -43 28.5 -71
c0 -34.667 -13.5 -65.334 -40.5 -92.001s-58.167 -40 -93.5 -40c-28.667 0 -52.5 9.5 -71.5 28.5s-28.5 42.833 -28.5 71.5c0 34.667 13.333 65.334 40 92.001s57.667 40 93 40z" />
    <glyph glyph-name="yacute" unicode="&#xfd;" horiz-adv-x="1098" 
d="M47 1088h144l282 -803l466 803h155l-862 -1486h-157l308 531zM746 1598h215l-339 -308h-138z" />
    <glyph glyph-name="thorn" unicode="&#xfe;" horiz-adv-x="1397" 
d="M260 1508l142 -0.000976562l-77 -583c126 127.333 270 191 432 191c148.667 0 270.5 -47.667 365.5 -143s142.5 -218 142.5 -368c0 -173.333 -61.667 -322.166 -185 -446.499s-268.666 -186.5 -435.999 -186.5c-90.667 0 -170.334 19.167 -239.001 57.5
s-127 97.833 -175 178.5l-79 -606h-145zM742 987.999c-89.333 0 -171.168 -21.1689 -245.501 -63.502s-133.166 -103.166 -176.499 -182.499s-65 -165.666 -65 -258.999c0 -112.667 35.833 -204.334 107.5 -275.001s164.167 -106 277.5 -106c134 0 248.667 48.333 344 145
s143 215.334 143 356.001c0 115.333 -35.5 208.333 -106.5 279s-163.833 106 -278.5 106z" />
    <glyph glyph-name="ydieresis" unicode="&#xff;" horiz-adv-x="1098" 
d="M47 1088h144l282 -803l466 803h155l-862 -1486h-157l308 531zM450 1518c28.667 0 52.667 -9.66699 72 -29s29 -43 29 -71c0 -34.667 -13.5 -65.334 -40.5 -92.001s-58.5 -40 -94.5 -40c-28 0 -51.5 9.5 -70.5 28.5s-28.5 42.833 -28.5 71.5
c0 34.667 13.333 65.334 40 92.001s57.667 40 93 40zM858 1518c29.333 0 53.5 -9.66699 72.5 -29s28.5 -43 28.5 -71c0 -34.667 -13.5 -65.334 -40.5 -92.001s-58.167 -40 -93.5 -40c-28.667 0 -52.5 9.5 -71.5 28.5s-28.5 42.833 -28.5 71.5
c0 34.667 13.333 65.334 40 92.001s57.667 40 93 40z" />
    <glyph glyph-name="Amacron" unicode="&#x100;" horiz-adv-x="1515" 
d="M852 1471l493 -1471h-151l-161 481h-623l-275 -481h-164l847 1471h34zM805 1163l-314 -542h496zM488 1776h690l-17 -119h-690z" />
    <glyph glyph-name="amacron" unicode="&#x101;" horiz-adv-x="1399" 
d="M1121 0l-141 0.000976562l21 164c-126 -128 -270.333 -192 -433 -192c-148 0 -269.667 47.667 -365 143s-143 218 -143 368c0 173.333 61.833 322.166 185.5 446.499s269.167 186.5 436.5 186.5c90.667 0 170.167 -19 238.5 -57s126.833 -97.333 175.5 -178l25 207h145z
M583 100.001c90 0 172 21.1689 246 63.502s132.667 103.166 176 182.499s65 165.666 65 258.999c0 112.667 -35.667 204.334 -107 275.001s-164 106 -278 106c-134 0 -248.667 -48.333 -344 -145s-143 -215.334 -143 -356.001c0 -115.333 35.667 -208.333 107 -279
s164 -106 278 -106zM418 1479h690l-17 -119h-690z" />
    <glyph glyph-name="Abreve" unicode="&#x102;" horiz-adv-x="1515" 
d="M852 1471l493 -1471h-151l-161 481h-623l-275 -481h-164l847 1471h34zM805 1163l-314 -542h496zM525 1822h131.999c35.333 -69.333 105 -104 209 -104c54.667 0 99.667 7.5 135 22.5s70.333 42.167 105 81.5h128c-23.333 -60 -68.166 -110.167 -134.499 -150.5
s-148.833 -60.5 -247.5 -60.5c-98 0 -175 20 -231 60s-88 90.333 -96 151z" />
    <glyph glyph-name="abreve" unicode="&#x103;" horiz-adv-x="1399" 
d="M1121 0l-141 0.000976562l21 164c-126 -128 -270.333 -192 -433 -192c-148 0 -269.667 47.667 -365 143s-143 218 -143 368c0 173.333 61.833 322.166 185.5 446.499s269.167 186.5 436.5 186.5c90.667 0 170.167 -19 238.5 -57s126.833 -97.333 175.5 -178l25 207h145z
M583 100.001c90 0 172 21.1689 246 63.502s132.667 103.166 176 182.499s65 165.666 65 258.999c0 112.667 -35.667 204.334 -107 275.001s-164 106 -278 106c-134 0 -248.667 -48.333 -344 -145s-143 -215.334 -143 -356.001c0 -115.333 35.667 -208.333 107 -279
s164 -106 278 -106zM430 1525h131.999c35.333 -69.333 105 -104 209 -104c54.667 0 99.667 7.5 135 22.5s70.333 42.167 105 81.5h128c-23.333 -60 -68.166 -110.167 -134.499 -150.5s-148.833 -60.5 -247.5 -60.5c-98 0 -175 20 -231 60s-88 90.333 -96 151z" />
    <glyph glyph-name="Aogonek" unicode="&#x104;" horiz-adv-x="1515" 
d="M852 1471l493 -1471h-151l-161 481h-623l-275 -481h-164l847 1471h34zM805 1163l-314 -542h496zM1251 0l109.001 -0.00195312c-99.333 -75.333 -149 -143.333 -149 -204c0 -29.333 10.667 -53.166 32 -71.499s54.333 -27.5 99 -27.5c20 0 43.333 1.66699 70 5l-21 -85
c-28.667 -6.66699 -57.334 -10 -86.001 -10c-69.333 0 -120.833 15 -154.5 45s-50.5 68 -50.5 114c0 38.667 13.333 79.834 40 123.501s63.667 80.5 111 110.5z" />
    <glyph glyph-name="aogonek" unicode="&#x105;" horiz-adv-x="1399" 
d="M1121 0l-141 0.000976562l21 164c-126 -128 -270.333 -192 -433 -192c-148 0 -269.667 47.667 -365 143s-143 218 -143 368c0 173.333 61.833 322.166 185.5 446.499s269.167 186.5 436.5 186.5c90.667 0 170.167 -19 238.5 -57s126.833 -97.333 175.5 -178l25 207h145z
M583 100.001c90 0 172 21.1689 246 63.502s132.667 103.166 176 182.499s65 165.666 65 258.999c0 112.667 -35.667 204.334 -107 275.001s-164 106 -278 106c-134 0 -248.667 -48.333 -344 -145s-143 -215.334 -143 -356.001c0 -115.333 35.667 -208.333 107 -279
s164 -106 278 -106zM986 0.00292969l109.001 -0.00195312c-99.333 -75.333 -149 -143.333 -149 -204c0 -29.333 10.667 -53.166 32 -71.499s54.333 -27.5 99 -27.5c20 0 43.333 1.66699 70 5l-21 -85c-28.667 -6.66699 -57.334 -10 -86.001 -10
c-69.333 0 -120.833 15 -154.5 45s-50.5 68 -50.5 114c0 38.667 13.333 79.834 40 123.501s63.667 80.5 111 110.5z" />
    <glyph glyph-name="Cacute" unicode="&#x106;" horiz-adv-x="1665" 
d="M1576 1268l-89 -123.003c-156 146.667 -333.667 220 -533 220c-130 0 -251.5 -31.667 -364.5 -95s-201.333 -148.666 -265 -255.999s-95.5 -222.666 -95.5 -345.999c0 -110 24.5 -207.667 73.5 -293s119.833 -152.166 212.5 -200.499s198.667 -72.5 318 -72.5
c182 0 351.667 57.667 509 173l82 -117c-116.667 -76.667 -217 -128.334 -301 -155.001s-181 -40 -291 -40c-203.333 0 -369 51 -497 153c-170 136.667 -255 319 -255 547c0 235.333 85 435 255 599s381.333 246 634 246c115.333 0 220.333 -18.167 315 -54.5
s192 -98.166 292 -185.499zM1066 1891h215l-339 -308h-138z" />
    <glyph glyph-name="cacute" unicode="&#x107;" horiz-adv-x="1325" 
d="M1198 853l-114.999 -66.998c-80.667 130.667 -204 196 -370 196c-96 0 -183.667 -21.333 -263 -64s-141.333 -102 -186 -178s-67 -157.333 -67 -244c0 -76.667 16.667 -145.334 50 -206.001s80.166 -107.334 140.499 -140.001s131.5 -49 213.5 -49
c84 0 164.167 16.667 240.5 50s135.833 76.333 178.5 129l115 -81c-72 -78.667 -150.167 -136.167 -234.5 -172.5s-182.166 -54.5 -293.499 -54.5c-172 0 -306.167 46.833 -402.5 140.5s-144.5 218.5 -144.5 374.5c0 173.333 63.167 321.5 189.5 444.5
s281.166 184.5 464.499 184.5c110 0 207 -23.167 291 -69.5s148.333 -110.833 193 -193.5zM859.001 1598h215l-339 -308h-138z" />
    <glyph glyph-name="Ccircumflex" unicode="&#x108;" horiz-adv-x="1665" 
d="M1576 1268l-89 -123.003c-156 146.667 -333.667 220 -533 220c-130 0 -251.5 -31.667 -364.5 -95s-201.333 -148.666 -265 -255.999s-95.5 -222.666 -95.5 -345.999c0 -110 24.5 -207.667 73.5 -293s119.833 -152.166 212.5 -200.499s198.667 -72.5 318 -72.5
c182 0 351.667 57.667 509 173l82 -117c-116.667 -76.667 -217 -128.334 -301 -155.001s-181 -40 -291 -40c-203.333 0 -369 51 -497 153c-170 136.667 -255 319 -255 547c0 235.333 85 435 255 599s381.333 246 634 246c115.333 0 220.333 -18.167 315 -54.5
s192 -98.166 292 -185.499zM908 1840h139l254 -257h-180l-155 152l-205 -152h-186z" />
    <glyph glyph-name="ccircumflex" unicode="&#x109;" horiz-adv-x="1325" 
d="M1198 853l-114.999 -66.998c-80.667 130.667 -204 196 -370 196c-96 0 -183.667 -21.333 -263 -64s-141.333 -102 -186 -178s-67 -157.333 -67 -244c0 -76.667 16.667 -145.334 50 -206.001s80.166 -107.334 140.499 -140.001s131.5 -49 213.5 -49
c84 0 164.167 16.667 240.5 50s135.833 76.333 178.5 129l115 -81c-72 -78.667 -150.167 -136.167 -234.5 -172.5s-182.166 -54.5 -293.499 -54.5c-172 0 -306.167 46.833 -402.5 140.5s-144.5 218.5 -144.5 374.5c0 173.333 63.167 321.5 189.5 444.5
s281.166 184.5 464.499 184.5c110 0 207 -23.167 291 -69.5s148.333 -110.833 193 -193.5zM671.001 1542h139l254 -257h-180l-155 152l-205 -152h-186z" />
    <glyph glyph-name="Cdot" unicode="&#x10a;" horiz-adv-x="1665" 
d="M1576 1268l-89 -123.003c-156 146.667 -333.667 220 -533 220c-130 0 -251.5 -31.667 -364.5 -95s-201.333 -148.666 -265 -255.999s-95.5 -222.666 -95.5 -345.999c0 -110 24.5 -207.667 73.5 -293s119.833 -152.166 212.5 -200.499s198.667 -72.5 318 -72.5
c182 0 351.667 57.667 509 173l82 -117c-116.667 -76.667 -217 -128.334 -301 -155.001s-181 -40 -291 -40c-203.333 0 -369 51 -497 153c-170 136.667 -255 319 -255 547c0 235.333 85 435 255 599s381.333 246 634 246c115.333 0 220.333 -18.167 315 -54.5
s192 -98.166 292 -185.499zM983 1816c28.667 0 52.667 -9.66699 72 -29s29 -43 29 -71c0 -34.667 -13.5 -65.334 -40.5 -92.001s-58.5 -40 -94.5 -40c-28 0 -51.5 9.5 -70.5 28.5s-28.5 42.833 -28.5 71.5c0 34.667 13.333 65.334 40 92.001s57.667 40 93 40z" />
    <glyph glyph-name="cdot" unicode="&#x10b;" horiz-adv-x="1325" 
d="M1198 853l-114.999 -66.998c-80.667 130.667 -204 196 -370 196c-96 0 -183.667 -21.333 -263 -64s-141.333 -102 -186 -178s-67 -157.333 -67 -244c0 -76.667 16.667 -145.334 50 -206.001s80.166 -107.334 140.499 -140.001s131.5 -49 213.5 -49
c84 0 164.167 16.667 240.5 50s135.833 76.333 178.5 129l115 -81c-72 -78.667 -150.167 -136.167 -234.5 -172.5s-182.166 -54.5 -293.499 -54.5c-172 0 -306.167 46.833 -402.5 140.5s-144.5 218.5 -144.5 374.5c0 173.333 63.167 321.5 189.5 444.5
s281.166 184.5 464.499 184.5c110 0 207 -23.167 291 -69.5s148.333 -110.833 193 -193.5zM746.001 1518c28.667 0 52.667 -9.66699 72 -29s29 -43 29 -71c0 -34.667 -13.5 -65.334 -40.5 -92.001s-58.5 -40 -94.5 -40c-28 0 -51.5 9.5 -70.5 28.5s-28.5 42.833 -28.5 71.5
c0 34.667 13.333 65.334 40 92.001s57.667 40 93 40z" />
    <glyph glyph-name="Ccaron" unicode="&#x10c;" horiz-adv-x="1665" 
d="M1576 1268l-89 -123.003c-156 146.667 -333.667 220 -533 220c-130 0 -251.5 -31.667 -364.5 -95s-201.333 -148.666 -265 -255.999s-95.5 -222.666 -95.5 -345.999c0 -110 24.5 -207.667 73.5 -293s119.833 -152.166 212.5 -200.499s198.667 -72.5 318 -72.5
c182 0 351.667 57.667 509 173l82 -117c-116.667 -76.667 -217 -128.334 -301 -155.001s-181 -40 -291 -40c-203.333 0 -369 51 -497 153c-170 136.667 -255 319 -255 547c0 235.333 85 435 255 599s381.333 246 634 246c115.333 0 220.333 -18.167 315 -54.5
s192 -98.166 292 -185.499zM1044 1578h-139l-254 257h180l155 -152l205 152h186z" />
    <glyph glyph-name="ccaron" unicode="&#x10d;" horiz-adv-x="1325" 
d="M1198 853l-114.999 -66.998c-80.667 130.667 -204 196 -370 196c-96 0 -183.667 -21.333 -263 -64s-141.333 -102 -186 -178s-67 -157.333 -67 -244c0 -76.667 16.667 -145.334 50 -206.001s80.166 -107.334 140.499 -140.001s131.5 -49 213.5 -49
c84 0 164.167 16.667 240.5 50s135.833 76.333 178.5 129l115 -81c-72 -78.667 -150.167 -136.167 -234.5 -172.5s-182.166 -54.5 -293.499 -54.5c-172 0 -306.167 46.833 -402.5 140.5s-144.5 218.5 -144.5 374.5c0 173.333 63.167 321.5 189.5 444.5
s281.166 184.5 464.499 184.5c110 0 207 -23.167 291 -69.5s148.333 -110.833 193 -193.5zM801.001 1285h-139l-254 257h180l155 -152l205 152h186z" />
    <glyph glyph-name="Dcaron" unicode="&#x10e;" horiz-adv-x="1524" 
d="M241 1471l316.001 0.000976562c200 0 353.333 -26.167 460 -78.5s192.667 -133.333 258 -243s98 -234.834 98 -375.501c0 -150 -36.833 -288.667 -110.5 -416s-164.334 -218.833 -272.001 -274.5s-268.167 -83.5 -481.5 -83.5h-463zM368.001 1329l-157.001 -1186h129
c198.667 0 330.334 5.33301 395.001 16c98.667 16 181.667 47.5 249 94.5s125 117.333 173 211s72 195.834 72 306.501c0 116.667 -27.167 218.667 -81.5 306s-128.833 152.666 -223.5 195.999c-80.667 37.333 -217 56 -409 56h-147zM823 1583h-139l-254 257h180l155 -152
l205 152h186z" />
    <glyph glyph-name="dcaron" unicode="&#x10f;" horiz-adv-x="1411" 
d="M1123 0l-141 0.000976562l21 164c-126 -128 -270.333 -192 -433 -192c-138 0 -257.167 45.167 -357.5 135.5s-150.5 215.5 -150.5 375.5c0 118.667 29 225.667 87 321s135 171.166 231 227.499s197.333 84.5 304 84.5c188.667 0 326.667 -78.333 414 -235l81 627h145z
M585 100.001c142.667 0 259.5 48.668 350.5 146.001s136.5 216.666 136.5 357.999c0 116.667 -36.667 209.5 -110 278.5s-165 103.5 -275 103.5c-130 0 -243.667 -47.5 -341 -142.5s-146 -214.5 -146 -358.5c0 -118.667 36.667 -212.5 110 -281.5s165 -103.5 275 -103.5z
M1416 1040l-61 36.999c47.333 76 76 141.333 86 196h-74l32 235h150l-10 -105c-9.33301 -91.333 -23.5 -162.666 -42.5 -213.999s-45.833 -101 -80.5 -149z" />
    <glyph glyph-name="Dslash" unicode="&#x110;" horiz-adv-x="1618" 
d="M230 669l-185.999 0.000976562l18 132h185l89 670h316c199.333 0 352.5 -26.167 459.5 -78.5s193.167 -133.333 258.5 -243s98 -234.834 98 -375.501c0 -150 -36.833 -288.667 -110.5 -416s-164.334 -218.833 -272.001 -274.5s-268.167 -83.5 -481.5 -83.5h-463z
M375.001 669.001l-70 -526h129c199.333 0 331.333 5.33301 396 16c98 16 180.833 47.5 248.5 94.5s125.5 117.333 173.5 211s72 195.834 72 306.501c0 116.667 -27.333 218.667 -82 306s-129 152.666 -223 195.999c-81.333 37.333 -218 56 -410 56h-146l-70 -528h358
l-18 -132h-358z" />
    <glyph glyph-name="dmacron" unicode="&#x111;" horiz-adv-x="1403" 
d="M1145 1246l-411 0.000976562l19 132h409l17 130h145l-17 -130h143l-18 -132h-143l-166 -1246h-141l21 164c-126 -128 -270.333 -192 -433 -192c-148 0 -269.667 47.667 -365 143s-143 218 -143 368c0 173.333 61.833 322.166 185.5 446.499s269.167 186.5 436.5 186.5
c90.667 0 170.167 -19 238.5 -57s126.833 -97.333 175.5 -178zM585 100.001c90 0 172 21.1689 246 63.502s132.667 103.166 176 182.499s65 165.666 65 258.999c0 112.667 -35.667 204.334 -107 275.001s-164 106 -278 106c-134 0 -248.667 -48.333 -344 -145
s-143 -215.334 -143 -356.001c0 -115.333 35.667 -208.333 107 -279s164 -106 278 -106z" />
    <glyph glyph-name="Emacron" unicode="&#x112;" horiz-adv-x="1098" 
d="M1056 1471l-21 -143h-662l-65 -482h662l-19 -141h-662l-75 -564h662l-17 -141h-811l197 1471h811zM319 1776h690l-17 -119h-690z" />
    <glyph glyph-name="emacron" unicode="&#x113;" horiz-adv-x="1331" 
d="M1166 516h-969.999c-2 -129.333 31.667 -231 101 -305s161.666 -111 276.999 -111c76.667 0 147.667 15.667 213 47s119.333 75.333 162 132l104 -85c-52.667 -67.333 -121.5 -121.166 -206.5 -161.499s-176.833 -60.5 -275.5 -60.5
c-170.667 0 -298.834 52.833 -384.501 158.5s-128.5 224.5 -128.5 356.5c0 108 28.833 212 86.5 312s134.834 177.833 231.501 233.5s201.334 83.5 314.001 83.5c139.333 0 254.666 -47.167 345.999 -141.5s137 -214.5 137 -360.5c0 -26.667 -2.33301 -59.334 -7 -98.001z
M1038 637c-4 102.667 -39 185.832 -105 249.499s-149 95.5 -249 95.5c-108.667 0 -204.5 -30.667 -287.5 -92s-141.833 -145.666 -176.5 -252.999h818zM370.001 1479h690l-17 -119h-690z" />
    <glyph glyph-name="Ebreve" unicode="&#x114;" horiz-adv-x="1098" 
d="M1056 1471l-21 -143h-662l-65 -482h662l-19 -141h-662l-75 -564h662l-17 -141h-811l197 1471h811zM316 1823h131.999c35.333 -69.333 105 -104 209 -104c54.667 0 99.667 7.5 135 22.5s70.333 42.167 105 81.5h128c-23.333 -60 -68.166 -110.167 -134.499 -150.5
s-148.833 -60.5 -247.5 -60.5c-98 0 -175 20 -231 60s-88 90.333 -96 151z" />
    <glyph glyph-name="ebreve" unicode="&#x115;" horiz-adv-x="1331" 
d="M1166 516h-969.999c-2 -129.333 31.667 -231 101 -305s161.666 -111 276.999 -111c76.667 0 147.667 15.667 213 47s119.333 75.333 162 132l104 -85c-52.667 -67.333 -121.5 -121.166 -206.5 -161.499s-176.833 -60.5 -275.5 -60.5
c-170.667 0 -298.834 52.833 -384.501 158.5s-128.5 224.5 -128.5 356.5c0 108 28.833 212 86.5 312s134.834 177.833 231.501 233.5s201.334 83.5 314.001 83.5c139.333 0 254.666 -47.167 345.999 -141.5s137 -214.5 137 -360.5c0 -26.667 -2.33301 -59.334 -7 -98.001z
M1038 637c-4 102.667 -39 185.832 -105 249.499s-149 95.5 -249 95.5c-108.667 0 -204.5 -30.667 -287.5 -92s-141.833 -145.666 -176.5 -252.999h818zM380.001 1525h131.999c35.333 -69.333 105 -104 209 -104c54.667 0 99.667 7.5 135 22.5s70.333 42.167 105 81.5h128
c-23.333 -60 -68.166 -110.167 -134.499 -150.5s-148.833 -60.5 -247.5 -60.5c-98 0 -175 20 -231 60s-88 90.333 -96 151z" />
    <glyph glyph-name="Edot" unicode="&#x116;" horiz-adv-x="1098" 
d="M1056 1471l-21 -143h-662l-65 -482h662l-19 -141h-662l-75 -564h662l-17 -141h-811l197 1471h811zM682 1816c28.667 0 52.667 -9.66699 72 -29s29 -43 29 -71c0 -34.667 -13.5 -65.334 -40.5 -92.001s-58.5 -40 -94.5 -40c-28 0 -51.5 9.5 -70.5 28.5
s-28.5 42.833 -28.5 71.5c0 34.667 13.333 65.334 40 92.001s57.667 40 93 40z" />
    <glyph glyph-name="edot" unicode="&#x117;" horiz-adv-x="1331" 
d="M1166 516h-969.999c-2 -129.333 31.667 -231 101 -305s161.666 -111 276.999 -111c76.667 0 147.667 15.667 213 47s119.333 75.333 162 132l104 -85c-52.667 -67.333 -121.5 -121.166 -206.5 -161.499s-176.833 -60.5 -275.5 -60.5
c-170.667 0 -298.834 52.833 -384.501 158.5s-128.5 224.5 -128.5 356.5c0 108 28.833 212 86.5 312s134.834 177.833 231.501 233.5s201.334 83.5 314.001 83.5c139.333 0 254.666 -47.167 345.999 -141.5s137 -214.5 137 -360.5c0 -26.667 -2.33301 -59.334 -7 -98.001z
M1038 637c-4 102.667 -39 185.832 -105 249.499s-149 95.5 -249 95.5c-108.667 0 -204.5 -30.667 -287.5 -92s-141.833 -145.666 -176.5 -252.999h818zM733.001 1518c28.667 0 52.667 -9.66699 72 -29s29 -43 29 -71c0 -34.667 -13.5 -65.334 -40.5 -92.001
s-58.5 -40 -94.5 -40c-28 0 -51.5 9.5 -70.5 28.5s-28.5 42.833 -28.5 71.5c0 34.667 13.333 65.334 40 92.001s57.667 40 93 40z" />
    <glyph glyph-name="Eogonek" unicode="&#x118;" horiz-adv-x="1098" 
d="M1056 1471l-21 -143h-662l-65 -482h662l-19 -141h-662l-75 -564h662l-17 -141h-811l197 1471h811zM661 0l109.001 -0.00195312c-99.333 -75.333 -149 -143.333 -149 -204c0 -29.333 10.667 -53.166 32 -71.499s54.333 -27.5 99 -27.5c20 0 43.333 1.66699 70 5l-21 -85
c-28.667 -6.66699 -57.334 -10 -86.001 -10c-69.333 0 -120.833 15 -154.5 45s-50.5 68 -50.5 114c0 38.667 13.333 79.834 40 123.501s63.667 80.5 111 110.5z" />
    <glyph glyph-name="eogonek" unicode="&#x119;" horiz-adv-x="1331" 
d="M1166 516h-969.999c-2 -129.333 31.667 -231 101 -305s161.666 -111 276.999 -111c76.667 0 147.667 15.667 213 47s119.333 75.333 162 132l104 -85c-52.667 -67.333 -121.5 -121.166 -206.5 -161.499s-176.833 -60.5 -275.5 -60.5
c-170.667 0 -298.834 52.833 -384.501 158.5s-128.5 224.5 -128.5 356.5c0 108 28.833 212 86.5 312s134.834 177.833 231.501 233.5s201.334 83.5 314.001 83.5c139.333 0 254.666 -47.167 345.999 -141.5s137 -214.5 137 -360.5c0 -26.667 -2.33301 -59.334 -7 -98.001z
M1038 637c-4 102.667 -39 185.832 -105 249.499s-149 95.5 -249 95.5c-108.667 0 -204.5 -30.667 -287.5 -92s-141.833 -145.666 -176.5 -252.999h818zM611.001 -0.00195312l109.001 -0.00195312c-99.333 -75.333 -149 -143.333 -149 -204
c0 -29.333 10.667 -53.166 32 -71.499s54.333 -27.5 99 -27.5c20 0 43.333 1.66699 70 5l-21 -85c-28.667 -6.66699 -57.334 -10 -86.001 -10c-69.333 0 -120.833 15 -154.5 45s-50.5 68 -50.5 114c0 38.667 13.333 79.834 40 123.501s63.667 80.5 111 110.5z" />
    <glyph glyph-name="Ecaron" unicode="&#x11a;" horiz-adv-x="1098" 
d="M1056 1471l-21 -143h-662l-65 -482h662l-19 -141h-662l-75 -564h662l-17 -141h-811l197 1471h811zM723 1583h-139l-254 257h180l155 -152l205 152h186z" />
    <glyph glyph-name="ecaron" unicode="&#x11b;" horiz-adv-x="1331" 
d="M1166 516h-969.999c-2 -129.333 31.667 -231 101 -305s161.666 -111 276.999 -111c76.667 0 147.667 15.667 213 47s119.333 75.333 162 132l104 -85c-52.667 -67.333 -121.5 -121.166 -206.5 -161.499s-176.833 -60.5 -275.5 -60.5
c-170.667 0 -298.834 52.833 -384.501 158.5s-128.5 224.5 -128.5 356.5c0 108 28.833 212 86.5 312s134.834 177.833 231.501 233.5s201.334 83.5 314.001 83.5c139.333 0 254.666 -47.167 345.999 -141.5s137 -214.5 137 -360.5c0 -26.667 -2.33301 -59.334 -7 -98.001z
M1038 637c-4 102.667 -39 185.832 -105 249.499s-149 95.5 -249 95.5c-108.667 0 -204.5 -30.667 -287.5 -92s-141.833 -145.666 -176.5 -252.999h818zM803.001 1285h-139l-254 257h180l155 -152l205 152h186z" />
    <glyph glyph-name="Gcircumflex" unicode="&#x11c;" horiz-adv-x="1786" 
d="M1597 1155l-117.998 -87.0029c-74 96.667 -160.833 170.834 -260.5 222.501s-201.834 77.5 -306.501 77.5c-117.333 0 -230 -31.5 -338 -94.5s-192.833 -146.667 -254.5 -251s-92.5 -216.166 -92.5 -335.499c0 -162 57.833 -299.833 173.5 -413.5
s256.5 -170.5 422.5 -170.5c99.333 0 194.666 20.333 285.999 61s165.333 94.667 222 162s98 150.666 124 249.999h-539v145h716c-14.667 -225.333 -95.5 -408 -242.5 -548s-330.167 -210 -549.5 -210c-225.333 0 -408.333 68.333 -549 205s-211 308.334 -211 515.001
c0 147.333 37 284.833 111 412.5s175.833 228.334 305.5 302.001s269.5 110.5 419.5 110.5c271.333 0 498.333 -117.667 681 -353zM898.002 1840h139l254 -257h-180l-155 152l-205 -152h-186z" />
    <glyph glyph-name="gcircumflex" unicode="&#x11d;" horiz-adv-x="1378" 
d="M1113 1088l136.997 -0.00292969l-125 -921c-20 -148.667 -44.333 -252.667 -73 -312c-39.333 -82 -104.666 -149.333 -195.999 -202s-199.333 -79 -324 -79c-122.667 0 -227.167 25 -313.5 75s-151.833 122.333 -196.5 217l125 45c76 -138 204.333 -207 385 -207
c95.333 0 177.833 19.333 247.5 58s119.5 88.334 149.5 149.001c18 36.667 36.333 116.334 55 239.001l6 43c-118 -128.667 -261.667 -193 -431 -193c-150 0 -270.667 45.833 -362 137.5s-137 210.834 -137 357.501c0 108 27.833 209.5 83.5 304.5
s132.334 171.5 230.001 229.5s196.834 87 297.501 87c84 0 160.667 -18.833 230 -56.5s131 -97.167 185 -178.5zM697.997 982.997c-91.333 0 -176.168 -21.8311 -254.501 -65.498s-139 -102.834 -182 -177.501s-64.5 -158.334 -64.5 -251.001
c0 -106.667 34 -192.667 102 -258s159.333 -98 274 -98c138.667 0 253.834 45.333 345.501 136s137.5 205 137.5 343c0 121.333 -37.333 213.5 -112 276.5s-156.667 94.5 -246 94.5zM677.995 1542h139l254 -257h-180l-155 152l-205 -152h-186z" />
    <glyph glyph-name="Gbreve" unicode="&#x11e;" horiz-adv-x="1786" 
d="M1597 1155l-117.998 -87.0029c-74 96.667 -160.833 170.834 -260.5 222.501s-201.834 77.5 -306.501 77.5c-117.333 0 -230 -31.5 -338 -94.5s-192.833 -146.667 -254.5 -251s-92.5 -216.166 -92.5 -335.499c0 -162 57.833 -299.833 173.5 -413.5
s256.5 -170.5 422.5 -170.5c99.333 0 194.666 20.333 285.999 61s165.333 94.667 222 162s98 150.666 124 249.999h-539v145h716c-14.667 -225.333 -95.5 -408 -242.5 -548s-330.167 -210 -549.5 -210c-225.333 0 -408.333 68.333 -549 205s-211 308.334 -211 515.001
c0 147.333 37 284.833 111 412.5s175.833 228.334 305.5 302.001s269.5 110.5 419.5 110.5c271.333 0 498.333 -117.667 681 -353zM608.002 1818h131.999c35.333 -69.333 105 -104 209 -104c54.667 0 99.667 7.5 135 22.5s70.333 42.167 105 81.5h128
c-23.333 -60 -68.166 -110.167 -134.499 -150.5s-148.833 -60.5 -247.5 -60.5c-98 0 -175 20 -231 60s-88 90.333 -96 151z" />
    <glyph glyph-name="gbreve" unicode="&#x11f;" horiz-adv-x="1378" 
d="M1113 1088l136.997 -0.00292969l-125 -921c-20 -148.667 -44.333 -252.667 -73 -312c-39.333 -82 -104.666 -149.333 -195.999 -202s-199.333 -79 -324 -79c-122.667 0 -227.167 25 -313.5 75s-151.833 122.333 -196.5 217l125 45c76 -138 204.333 -207 385 -207
c95.333 0 177.833 19.333 247.5 58s119.5 88.334 149.5 149.001c18 36.667 36.333 116.334 55 239.001l6 43c-118 -128.667 -261.667 -193 -431 -193c-150 0 -270.667 45.833 -362 137.5s-137 210.834 -137 357.501c0 108 27.833 209.5 83.5 304.5
s132.334 171.5 230.001 229.5s196.834 87 297.501 87c84 0 160.667 -18.833 230 -56.5s131 -97.167 185 -178.5zM697.997 982.997c-91.333 0 -176.168 -21.8311 -254.501 -65.498s-139 -102.834 -182 -177.501s-64.5 -158.334 -64.5 -251.001
c0 -106.667 34 -192.667 102 -258s159.333 -98 274 -98c138.667 0 253.834 45.333 345.501 136s137.5 205 137.5 343c0 121.333 -37.333 213.5 -112 276.5s-156.667 94.5 -246 94.5zM440.995 1525h131.999c35.333 -69.333 105 -104 209 -104c54.667 0 99.667 7.5 135 22.5
s70.333 42.167 105 81.5h128c-23.333 -60 -68.166 -110.167 -134.499 -150.5s-148.833 -60.5 -247.5 -60.5c-98 0 -175 20 -231 60s-88 90.333 -96 151z" />
    <glyph glyph-name="Gdot" unicode="&#x120;" horiz-adv-x="1786" 
d="M1597 1155l-117.998 -87.0029c-74 96.667 -160.833 170.834 -260.5 222.501s-201.834 77.5 -306.501 77.5c-117.333 0 -230 -31.5 -338 -94.5s-192.833 -146.667 -254.5 -251s-92.5 -216.166 -92.5 -335.499c0 -162 57.833 -299.833 173.5 -413.5
s256.5 -170.5 422.5 -170.5c99.333 0 194.666 20.333 285.999 61s165.333 94.667 222 162s98 150.666 124 249.999h-539v145h716c-14.667 -225.333 -95.5 -408 -242.5 -548s-330.167 -210 -549.5 -210c-225.333 0 -408.333 68.333 -549 205s-211 308.334 -211 515.001
c0 147.333 37 284.833 111 412.5s175.833 228.334 305.5 302.001s269.5 110.5 419.5 110.5c271.333 0 498.333 -117.667 681 -353zM967.002 1816c28.667 0 52.667 -9.66699 72 -29s29 -43 29 -71c0 -34.667 -13.5 -65.334 -40.5 -92.001s-58.5 -40 -94.5 -40
c-28 0 -51.5 9.5 -70.5 28.5s-28.5 42.833 -28.5 71.5c0 34.667 13.333 65.334 40 92.001s57.667 40 93 40z" />
    <glyph glyph-name="gdot" unicode="&#x121;" horiz-adv-x="1378" 
d="M1113 1088l136.997 -0.00292969l-125 -921c-20 -148.667 -44.333 -252.667 -73 -312c-39.333 -82 -104.666 -149.333 -195.999 -202s-199.333 -79 -324 -79c-122.667 0 -227.167 25 -313.5 75s-151.833 122.333 -196.5 217l125 45c76 -138 204.333 -207 385 -207
c95.333 0 177.833 19.333 247.5 58s119.5 88.334 149.5 149.001c18 36.667 36.333 116.334 55 239.001l6 43c-118 -128.667 -261.667 -193 -431 -193c-150 0 -270.667 45.833 -362 137.5s-137 210.834 -137 357.501c0 108 27.833 209.5 83.5 304.5
s132.334 171.5 230.001 229.5s196.834 87 297.501 87c84 0 160.667 -18.833 230 -56.5s131 -97.167 185 -178.5zM697.997 982.997c-91.333 0 -176.168 -21.8311 -254.501 -65.498s-139 -102.834 -182 -177.501s-64.5 -158.334 -64.5 -251.001
c0 -106.667 34 -192.667 102 -258s159.333 -98 274 -98c138.667 0 253.834 45.333 345.501 136s137.5 205 137.5 343c0 121.333 -37.333 213.5 -112 276.5s-156.667 94.5 -246 94.5zM752.995 1518c28.667 0 52.667 -9.66699 72 -29s29 -43 29 -71
c0 -34.667 -13.5 -65.334 -40.5 -92.001s-58.5 -40 -94.5 -40c-28 0 -51.5 9.5 -70.5 28.5s-28.5 42.833 -28.5 71.5c0 34.667 13.333 65.334 40 92.001s57.667 40 93 40z" />
    <glyph glyph-name="Gcedilla" unicode="&#x122;" horiz-adv-x="1786" 
d="M1597 1155l-117.998 -87.0029c-74 96.667 -160.833 170.834 -260.5 222.501s-201.834 77.5 -306.501 77.5c-117.333 0 -230 -31.5 -338 -94.5s-192.833 -146.667 -254.5 -251s-92.5 -216.166 -92.5 -335.499c0 -162 57.833 -299.833 173.5 -413.5
s256.5 -170.5 422.5 -170.5c99.333 0 194.666 20.333 285.999 61s165.333 94.667 222 162s98 150.666 124 249.999h-539v145h716c-14.667 -225.333 -95.5 -408 -242.5 -548s-330.167 -210 -549.5 -210c-225.333 0 -408.333 68.333 -549 205s-211 308.334 -211 515.001
c0 147.333 37 284.833 111 412.5s175.833 228.334 305.5 302.001s269.5 110.5 419.5 110.5c271.333 0 498.333 -117.667 681 -353zM764.002 -0.00292969l88.001 -0.000976562l-34 -118c16 2 29 3 39 3c29.333 0 53.5 -8.66699 72.5 -26s28.5 -39 28.5 -65
c0 -46.667 -22.667 -87.334 -68 -122.001s-107 -52 -185 -52c-58.667 0 -112.667 10 -162 30l31 69c41.333 -13.333 80.666 -20 117.999 -20c52 0 89 6.83301 111 20.5s33 29.834 33 48.501c0 10.667 -5 19.834 -15 27.501s-23.667 11.5 -41 11.5c-16 0 -40 -3 -72 -9z" />
    <glyph glyph-name="gcedilla" unicode="&#x123;" horiz-adv-x="1378" 
d="M1113 1088l136.997 -0.00292969l-125 -921c-20 -148.667 -44.333 -252.667 -73 -312c-39.333 -82 -104.666 -149.333 -195.999 -202s-199.333 -79 -324 -79c-122.667 0 -227.167 25 -313.5 75s-151.833 122.333 -196.5 217l125 45c76 -138 204.333 -207 385 -207
c95.333 0 177.833 19.333 247.5 58s119.5 88.334 149.5 149.001c18 36.667 36.333 116.334 55 239.001l6 43c-118 -128.667 -261.667 -193 -431 -193c-150 0 -270.667 45.833 -362 137.5s-137 210.834 -137 357.501c0 108 27.833 209.5 83.5 304.5
s132.334 171.5 230.001 229.5s196.834 87 297.501 87c84 0 160.667 -18.833 230 -56.5s131 -97.167 185 -178.5zM697.997 982.997c-91.333 0 -176.168 -21.8311 -254.501 -65.498s-139 -102.834 -182 -177.501s-64.5 -158.334 -64.5 -251.001
c0 -106.667 34 -192.667 102 -258s159.333 -98 274 -98c138.667 0 253.834 45.333 345.501 136s137.5 205 137.5 343c0 121.333 -37.333 213.5 -112 276.5s-156.667 94.5 -246 94.5zM793.995 1818l72.001 -43.999c-36.667 -60.667 -60.667 -104.334 -72 -131.001
s-21.333 -59.667 -30 -99h88l-39 -277h-176l13 123c10 103.333 25.667 185 47 245s53.666 121 96.999 183z" />
    <glyph glyph-name="Hcircumflex" unicode="&#x124;" horiz-adv-x="1399" 
d="M245 1471h145l-79 -598h753l80 598h143l-193 -1471h-144l97 734h-757l-96 -734h-146zM747 1840h139l254 -257h-180l-155 152l-205 -152h-186z" />
    <glyph glyph-name="hcircumflex" unicode="&#x125;" horiz-adv-x="1249" 
d="M248 1508l135.999 0.00195312l-80 -585c112 128.667 240 193 384 193c110 0 199.833 -34.333 269.5 -103s104.5 -158 104.5 -268c0 -60.667 -7.33301 -142.334 -22 -245.001l-68 -500h-138l68 500c14 100.667 21 180.667 21 240c0 74.667 -23.333 135 -70 181
s-108 69 -184 69c-70.667 0 -137.5 -19 -200.5 -57s-111.667 -89.333 -146 -154s-61.166 -167.334 -80.499 -308.001l-65 -471h-136zM655.999 1840h139l254 -257h-180l-155 152l-205 -152h-186z" />
    <glyph glyph-name="Hbar" unicode="&#x126;" horiz-adv-x="1399" 
d="M1239 1101l-145 -1101h-144l97 734h-757l-96 -734h-146l147 1101h-133l19 138h133l31 232h145l-31 -232h754l31 232h143l-30 -232h133l-18 -138h-133zM1095 1101h-754l-30 -228h753z" />
    <glyph glyph-name="hbar" unicode="&#x127;" horiz-adv-x="1249" 
d="M211 1240h-154.998l16 116h155l21 152h136l-21 -152h374l-15 -116h-375l-43 -317c112 128.667 240 193 384 193c103.333 0 191.5 -32.667 264.5 -98s109.5 -154 109.5 -266c0 -62.667 -7.33301 -146.667 -22 -252l-68 -500h-138l68 500c14 100.667 21 180.667 21 240
c0 73.333 -23 133.333 -69 180s-107.333 70 -184 70c-68 0 -132.833 -17.5 -194.5 -52.5s-110.834 -84.5 -147.501 -148.5s-65.334 -170 -86.001 -318l-65 -471h-136z" />
    <glyph glyph-name="Itilde" unicode="&#x128;" horiz-adv-x="463" 
d="M239 1471h148l-199 -1471h-148zM642 1789l56.999 -97c-53.333 -34.667 -97.5 -58 -132.5 -70s-70.5 -18 -106.5 -18c-48 0 -95.667 12.333 -143 37c-40 21.333 -65.667 33.666 -77 36.999c-16 4.66699 -32.667 7 -50 7c-24.667 0 -48 -4.16699 -70 -12.5
s-55 -27.166 -99 -56.499l-52 102c70 64.667 149.333 97 238 97c42.667 0 92 -13.333 148 -40c53.333 -26 95.333 -39 126 -39c38.667 0 92.334 17.667 161.001 53z" />
    <glyph glyph-name="itilde" unicode="&#x129;" horiz-adv-x="410" 
d="M164 1088h133l-145 -1088h-138zM548 1492l56.999 -97c-53.333 -34.667 -97.5 -58 -132.5 -70s-70.5 -18 -106.5 -18c-48 0 -95.667 12.333 -143 37c-40 21.333 -65.667 33.666 -77 36.999c-16 4.66699 -32.667 7 -50 7c-24.667 0 -48 -4.16699 -70 -12.5
s-55 -27.166 -99 -56.499l-52 102c70 64.667 149.333 97 238 97c42.667 0 92 -13.333 148 -40c53.333 -26 95.333 -39 126 -39c38.667 0 92.334 17.667 161.001 53z" />
    <glyph glyph-name="Imacron" unicode="&#x12a;" horiz-adv-x="463" 
d="M239 1471h148l-199 -1471h-148zM-1 1776h690l-17 -119h-690z" />
    <glyph glyph-name="imacron" unicode="&#x12b;" horiz-adv-x="410" 
d="M163 1088h133l-145 -1088h-138zM-71 1479h690l-17 -119h-690z" />
    <glyph glyph-name="Ibreve" unicode="&#x12c;" horiz-adv-x="463" 
d="M238 1471h148l-199 -1471h-148zM-11 1823h131.999c35.333 -69.333 105 -104 209 -104c54.667 0 99.667 7.5 135 22.5s70.333 42.167 105 81.5h128c-23.333 -60 -68.166 -110.167 -134.499 -150.5s-148.833 -60.5 -247.5 -60.5c-98 0 -175 20 -231 60s-88 90.333 -96 151z
" />
    <glyph glyph-name="ibreve" unicode="&#x12d;" horiz-adv-x="410" 
d="M163 1088h133l-145 -1088h-138zM-74 1525h131.999c35.333 -69.333 105 -104 209 -104c54.667 0 99.667 7.5 135 22.5s70.333 42.167 105 81.5h128c-23.333 -60 -68.166 -110.167 -134.499 -150.5s-148.833 -60.5 -247.5 -60.5c-98 0 -175 20 -231 60s-88 90.333 -96 151z
" />
    <glyph glyph-name="Iogonek" unicode="&#x12e;" horiz-adv-x="463" 
d="M238 1471h148l-199 -1471h-148zM78 0l109.001 -0.00195312c-99.333 -75.333 -149 -143.333 -149 -204c0 -29.333 10.667 -53.166 32 -71.499s54.333 -27.5 99 -27.5c20 0 43.333 1.66699 70 5l-21 -85c-28.667 -6.66699 -57.334 -10 -86.001 -10
c-69.333 0 -120.833 15 -154.5 45s-50.5 68 -50.5 114c0 38.667 13.333 79.834 40 123.501s63.667 80.5 111 110.5z" />
    <glyph glyph-name="iogonek" unicode="&#x12f;" horiz-adv-x="410" 
d="M274 1536c30.667 0 57 -11 79 -33s33 -48.333 33 -79c0 -31.333 -11 -57.833 -33 -79.5s-48.333 -32.5 -79 -32.5c-31.333 0 -57.833 10.833 -79.5 32.5s-32.5 48.167 -32.5 79.5c0 30.667 10.833 57 32.5 79s48.167 33 79.5 33zM164 1088h133l-145 -1088h-138zM43 0
l109.001 -0.00195312c-99.333 -75.333 -149 -143.333 -149 -204c0 -29.333 10.667 -53.166 32 -71.499s54.333 -27.5 99 -27.5c20 0 43.333 1.66699 70 5l-21 -85c-28.667 -6.66699 -57.334 -10 -86.001 -10c-69.333 0 -120.833 15 -154.5 45s-50.5 68 -50.5 114
c0 38.667 13.333 79.834 40 123.501s63.667 80.5 111 110.5z" />
    <glyph glyph-name="Idot" unicode="&#x130;" horiz-adv-x="463" 
d="M238 1471h148l-199 -1471h-148zM360 1811c28.667 0 52.667 -9.66699 72 -29s29 -43 29 -71c0 -34.667 -13.5 -65.334 -40.5 -92.001s-58.5 -40 -94.5 -40c-28 0 -51.5 9.5 -70.5 28.5s-28.5 42.833 -28.5 71.5c0 34.667 13.333 65.334 40 92.001s57.667 40 93 40z" />
    <glyph glyph-name="dotlessi" unicode="&#x131;" horiz-adv-x="410" 
d="M164 1088h133l-145 -1088h-138z" />
    <glyph glyph-name="IJ" unicode="&#x132;" horiz-adv-x="1450" 
d="M238 1471h148l-199 -1471h-148zM1142 1471h146.001l-133 -1014c-16.667 -128 -36 -223.5 -58 -286.5s-60 -113.333 -114 -151s-118 -56.5 -192 -56.5c-130 0 -248 59 -354 177l114 80c80 -80.667 161 -121 243 -121c45.333 0 87.166 18.5 125.499 55.5
s67.833 134.167 88.5 291.5z" />
    <glyph glyph-name="ij" unicode="&#x133;" horiz-adv-x="825" 
d="M274 1536c30.667 0 57 -11 79 -33s33 -48.333 33 -79c0 -31.333 -11 -57.833 -33 -79.5s-48.333 -32.5 -79 -32.5s-57 11 -79 33s-33 48.333 -33 79c0 31.333 10.833 57.833 32.5 79.5s48.167 32.5 79.5 32.5zM691 1536c30 0 56.167 -10.667 78.5 -32s33.5 -48 33.5 -80
c0 -31.333 -11 -57.833 -33 -79.5s-48.333 -32.5 -79 -32.5s-57 11 -79 33s-33 48.333 -33 79c0 31.333 10.833 57.833 32.5 79.5s48.167 32.5 79.5 32.5zM164 1088h133l-145 -1088h-138zM580 1088h136.999l-159 -1158c-22 -158.667 -53.333 -257.667 -94 -297
s-84 -59 -130 -59c-35.333 0 -75.666 9.33301 -120.999 28l17 119c23.333 -14.667 47 -22 71 -22c58 0 95.667 62.667 113 188z" />
    <glyph glyph-name="Jcircumflex" unicode="&#x134;" horiz-adv-x="987" 
d="M680 1471l145 0.000976562l-133 -1014c-20 -152.667 -43.167 -257.5 -69.5 -314.5s-65 -101.167 -116 -132.5s-110.167 -47 -177.5 -47c-62 0 -121.667 13.5 -179 40.5s-115.666 72.5 -174.999 136.5l113 80c83.333 -80.667 164.666 -121 243.999 -121
c60 0 108.333 27.333 145 82c28 41.333 51 129.666 69 264.999zM623 1840h139l254 -257h-180l-155 152l-205 -152h-186z" />
    <glyph glyph-name="jcircumflex" unicode="&#x135;" horiz-adv-x="416" 
d="M212 1542h140l254 -257h-181l-155 152l-205 -152h-186zM170 1088h137l-159 -1158c-22 -160 -53.167 -259.333 -93.5 -298s-83.833 -58 -130.5 -58c-37.333 0 -77.666 9.33301 -120.999 28l17 119c23.333 -14.667 47 -22 71 -22c57.333 0 94.666 62.667 111.999 188z" />
    <glyph glyph-name="Kcedilla" unicode="&#x136;" horiz-adv-x="1210" 
d="M243 1471h145l-79 -597l689 597h211l-797 -688l690 -783h-188l-625 710l-98 -710h-144zM406 -120c26.667 6.66699 54.667 10 84 10c92 0 138 -31.667 138 -95c0 -46.667 -23 -87.5 -69 -122.5s-107.333 -52.5 -184 -52.5c-42 0 -88 7 -138 21l32 70
c37.333 -8 69.666 -12 96.999 -12c92.667 0 139 23.333 139 70c0 25.333 -20.667 38 -62 38c-17.333 0 -37.666 -2.33301 -60.999 -7z" />
    <glyph glyph-name="kcedilla" unicode="&#x137;" horiz-adv-x="1028" 
d="M252 1508h136l-115 -823l524 403h218l-632 -486l557 -602h-186l-502 540l-73 -540h-140zM320 -120c26.667 6.66699 54.667 10 84 10c92 0 138 -31.667 138 -95c0 -46.667 -23 -87.5 -69 -122.5s-107.333 -52.5 -184 -52.5c-42 0 -88 7 -138 21l32 70
c37.333 -8 69.666 -12 96.999 -12c92.667 0 139 23.333 139 70c0 25.333 -20.667 38 -62 38c-17.333 0 -37.666 -2.33301 -60.999 -7z" />
    <glyph glyph-name="kgreenlandic" unicode="&#x138;" horiz-adv-x="1028" 
d="M192 1088h137l-56 -403l524 403h218l-632 -486l557 -602h-186l-502 540l-73 -540h-140z" />
    <glyph glyph-name="Lacute" unicode="&#x139;" horiz-adv-x="946" 
d="M246 1471h148l-177 -1333h636l-17 -138h-784zM556 1895h215l-339 -308h-138z" />
    <glyph glyph-name="lacute" unicode="&#x13a;" horiz-adv-x="410" 
d="M225 1508h137l-210 -1508h-138zM454 1895h215l-339 -308h-138z" />
    <glyph glyph-name="Lcedilla" unicode="&#x13b;" horiz-adv-x="946" 
d="M246 1471h148l-177 -1333h636l-17 -138h-784zM310 -120c26.667 6.66699 54.667 10 84 10c92 0 138 -31.667 138 -95c0 -46.667 -23 -87.5 -69 -122.5s-107.333 -52.5 -184 -52.5c-42 0 -88 7 -138 21l32 70c37.333 -8 69.666 -12 96.999 -12c92.667 0 139 23.333 139 70
c0 25.333 -20.667 38 -62 38c-17.333 0 -37.666 -2.33301 -60.999 -7z" />
    <glyph glyph-name="lcedilla" unicode="&#x13c;" horiz-adv-x="410" 
d="M225 1508h137l-210 -1508h-138zM-14 -120c26.667 6.66699 54.667 10 84 10c92 0 138 -31.667 138 -95c0 -46.667 -23 -87.5 -69 -122.5s-107.333 -52.5 -184 -52.5c-42 0 -88 7 -138 21l32 70c37.333 -8 69.666 -12 96.999 -12c92.667 0 139 23.333 139 70
c0 25.333 -20.667 38 -62 38c-17.333 0 -37.666 -2.33301 -60.999 -7z" />
    <glyph glyph-name="Lcaron" unicode="&#x13d;" horiz-adv-x="946" 
d="M246 1471h148l-177 -1333h636l-17 -138h-784zM556 920l-72 43.999c36.667 60.667 60.667 104.334 72 131.001s21.333 59.667 30 99h-88l38 277h177l-13 -123c-10.667 -104 -26.5 -185.833 -47.5 -245.5s-53.167 -120.5 -96.5 -182.5z" />
    <glyph glyph-name="lcaron" unicode="&#x13e;" horiz-adv-x="414" 
d="M225 1508h137l-210 -1508h-138zM453 1040l-61 36.999c48 76 77 141.333 87 196h-75l33 235h150l-11 -105c-9.33301 -91.333 -23.5 -162.666 -42.5 -213.999s-45.833 -101 -80.5 -149z" />
    <glyph glyph-name="Ldot" unicode="&#x13f;" horiz-adv-x="946" 
d="M246 1471h148l-177 -1333h636l-17 -138h-784zM600 870c28.667 0 52.667 -9.5 72 -28.5s29 -42.833 29 -71.5c0 -34.667 -13.5 -65.334 -40.5 -92.001s-58.5 -40 -94.5 -40c-28 0 -51.5 9.66699 -70.5 29s-28.5 43 -28.5 71c0 34.667 13.333 65.334 40 92.001
s57.667 40 93 40z" />
    <glyph glyph-name="ldot" unicode="&#x140;" horiz-adv-x="540" 
d="M225 1508h137l-210 -1508h-138zM472 870c28.667 0 52.667 -9.5 72 -28.5s29 -42.833 29 -71.5c0 -34.667 -13.5 -65.334 -40.5 -92.001s-58.5 -40 -94.5 -40c-28 0 -51.5 9.66699 -70.5 29s-28.5 43 -28.5 71c0 34.667 13.333 65.334 40 92.001s57.667 40 93 40z" />
    <glyph glyph-name="Lslash" unicode="&#x141;" horiz-adv-x="1059" 
d="M366 834l283 141l-22 -160l-282 -141l-71 -536h636l-17 -138h-784l78 595l-179 -90l22 161l179 89l94 716h148z" />
    <glyph glyph-name="lslash" unicode="&#x142;" horiz-adv-x="614" 
d="M381 914l224 127l-22 -160l-224 -127l-105 -754h-138l94 669l-200 -113l22 159l200 114l95 679h137z" />
    <glyph glyph-name="Nacute" unicode="&#x143;" horiz-adv-x="1515" 
d="M1265 1471h144l-199 -1471h-32l-828 1140l-154 -1140h-146l198 1471h32l830 -1142zM951 1895h215l-339 -308h-138z" />
    <glyph glyph-name="nacute" unicode="&#x144;" horiz-adv-x="1249" 
d="M192 1088l134.001 -0.000976562l-21 -167c110 130 238 195 384 195c112 0 202.333 -34.5 271 -103.5s103 -161.833 103 -278.5c0 -46.667 -7.33301 -125 -22 -235l-68 -499h-138l67 499c14.667 106.667 22 185.334 22 236.001c0 76 -23 137.333 -69 184
s-106.333 70 -181 70c-73.333 0 -141.5 -18.833 -204.5 -56.5s-111.833 -89 -146.5 -154s-61.334 -167.833 -80.001 -308.5l-65 -470h-137zM820.001 1598h215l-339 -308h-138z" />
    <glyph glyph-name="Ncedilla" unicode="&#x145;" horiz-adv-x="1515" 
d="M1265 1471h144l-199 -1471h-32l-828 1140l-154 -1140h-146l198 1471h32l830 -1142zM558 -120c26.667 6.66699 54.667 10 84 10c92 0 138 -31.667 138 -95c0 -46.667 -23 -87.5 -69 -122.5s-107.333 -52.5 -184 -52.5c-42 0 -88 7 -138 21l32 70
c37.333 -8 69.666 -12 96.999 -12c92.667 0 139 23.333 139 70c0 25.333 -20.667 38 -62 38c-17.333 0 -37.666 -2.33301 -60.999 -7z" />
    <glyph glyph-name="ncedilla" unicode="&#x146;" horiz-adv-x="1249" 
d="M192 1088l134.001 -0.000976562l-21 -167c110 130 238 195 384 195c112 0 202.333 -34.5 271 -103.5s103 -161.833 103 -278.5c0 -46.667 -7.33301 -125 -22 -235l-68 -499h-138l67 499c14.667 106.667 22 185.334 22 236.001c0 76 -23 137.333 -69 184
s-106.333 70 -181 70c-73.333 0 -141.5 -18.833 -204.5 -56.5s-111.833 -89 -146.5 -154s-61.334 -167.833 -80.001 -308.5l-65 -470h-137zM419.001 -120.001c26.667 6.66699 54.667 10 84 10c92 0 138 -31.667 138 -95c0 -46.667 -23 -87.5 -69 -122.5
s-107.333 -52.5 -184 -52.5c-42 0 -88 7 -138 21l32 70c37.333 -8 69.666 -12 96.999 -12c92.667 0 139 23.333 139 70c0 25.333 -20.667 38 -62 38c-17.333 0 -37.666 -2.33301 -60.999 -7z" />
    <glyph glyph-name="Ncaron" unicode="&#x147;" horiz-adv-x="1515" 
d="M1265 1471h144l-199 -1471h-32l-828 1140l-154 -1140h-146l198 1471h32l830 -1142zM902 1582h-139l-254 257h180l155 -152l205 152h186z" />
    <glyph glyph-name="ncaron" unicode="&#x148;" horiz-adv-x="1249" 
d="M192 1088l134.001 -0.000976562l-21 -167c110 130 238 195 384 195c112 0 202.333 -34.5 271 -103.5s103 -161.833 103 -278.5c0 -46.667 -7.33301 -125 -22 -235l-68 -499h-138l67 499c14.667 106.667 22 185.334 22 236.001c0 76 -23 137.333 -69 184
s-106.333 70 -181 70c-73.333 0 -141.5 -18.833 -204.5 -56.5s-111.833 -89 -146.5 -154s-61.334 -167.833 -80.001 -308.5l-65 -470h-137zM791.001 1285h-139l-254 257h180l155 -152l205 152h186z" />
    <glyph glyph-name="napostrophe" unicode="&#x149;" horiz-adv-x="1249" 
d="M186 1088l134.001 -0.000976562l-21 -167c110 130 238 195 384 195c112 0 202.333 -34.5 271 -103.5s103 -161.833 103 -278.5c0 -46.667 -7.33301 -125 -22 -235l-68 -499h-138l67 499c14.667 106.667 22 185.334 22 236.001c0 76 -23 137.333 -69 184
s-106.333 70 -181 70c-73.333 0 -141.5 -18.833 -204.5 -56.5s-111.833 -89 -146.5 -154s-61.334 -167.833 -80.001 -308.5l-65 -470h-137zM24.001 956.999l-72 43.999c36.667 60.667 60.667 104.334 72 131.001s21.333 59.667 30 99h-88l38 277h177l-13 -123
c-10.667 -104 -26.5 -185.833 -47.5 -245.5s-53.167 -120.5 -96.5 -182.5z" />
    <glyph glyph-name="Eng" unicode="&#x14a;" horiz-adv-x="1591" 
d="M343 1120l-148.999 -1120h-146l197 1471h145l-24 -177c151.333 142.667 319 214 503 214c176 0 316.667 -59.667 422 -179s158 -277 158 -473c0 -235.333 -67.5 -443 -202.5 -623s-298.5 -270 -490.5 -270c-76 0 -140.833 13.167 -194.5 39.5
s-100.5 77.166 -140.5 152.499l112 87c53.333 -93.333 134.666 -140 243.999 -140c142.667 0 265.5 77.5 368.5 232.5s154.5 322.5 154.5 502.5c0 159.333 -42.833 287.833 -128.5 385.5s-198.5 146.5 -338.5 146.5c-178.667 0 -342 -83 -490 -249z" />
    <glyph glyph-name="eng" unicode="&#x14b;" horiz-adv-x="1249" 
d="M618 -398l17.001 118.999c23.333 -14.667 47 -22 71 -22c58 0 95.667 62.667 113 188l81 598c16 115.333 24 198.666 24 249.999c0 74 -22.5 134.833 -67.5 182.5s-105.833 71.5 -182.5 71.5c-84 0 -158.333 -22.667 -223 -68s-111.334 -101 -140.001 -167
s-51.334 -160.667 -68.001 -284l-65 -470h-137l151 1088h134l-21 -167c110 130 238 195 384 195c106 0 194.833 -33.167 266.5 -99.5s107.5 -158.166 107.5 -275.499c0 -57.333 -8.33301 -144.666 -25 -261.999l-75 -549c-22 -160 -53.167 -259.333 -93.5 -298
s-83.833 -58 -130.5 -58c-37.333 0 -77.666 9.33301 -120.999 28z" />
    <glyph glyph-name="Omacron" unicode="&#x14c;" horiz-adv-x="1780" 
d="M956 1508c198 0 362.833 -65.001 494.5 -195.001s197.5 -294.333 197.5 -493c0 -242 -83.5 -445.333 -250.5 -610s-375.167 -247 -624.5 -247c-212 0 -381.667 63.333 -509 190s-191 292.334 -191 497.001c0 158 38.167 303 114.5 435s182 235.5 317 310.5
s285.5 112.5 451.5 112.5zM953 1369c-140.667 0 -266.167 -30.667 -376.5 -92s-197.666 -148.333 -261.999 -261s-96.5 -232.667 -96.5 -360c0 -108 23.333 -204.833 70 -290.5s111.167 -151.167 193.5 -196.5s179.166 -68 290.499 -68c132 0 254.333 31.833 367 95.5
s201.167 152 265.5 265s96.5 235.167 96.5 366.5c0 174 -61 312 -183 414c-101.333 84.667 -223 127 -365 127zM615 1776h690l-17 -119h-690z" />
    <glyph glyph-name="omacron" unicode="&#x14d;" horiz-adv-x="1341" 
d="M680 1116c92.667 0 177.668 -22.167 255.001 -66.5s137.666 -106 180.999 -185s65 -168.5 65 -268.5c0 -114 -27.667 -219.833 -83 -317.5s-129.666 -173.167 -222.999 -226.5s-199 -80 -317 -80c-146 0 -266.167 47.833 -360.5 143.5s-141.5 217.5 -141.5 365.5
c0 116 27.667 223 83 321s131.166 174.833 227.499 230.5s200.833 83.5 313.5 83.5zM677.001 983c-86.667 0 -168.168 -21.665 -244.501 -64.998s-135 -102.833 -176 -178.5s-61.5 -159.167 -61.5 -250.5c0 -114.667 35.333 -207.834 106 -279.501s162 -107.5 274 -107.5
c87.333 0 166.5 20.833 237.5 62.5s127.5 101.834 169.5 180.501s63 163 63 253c0 75.333 -15.667 142.166 -47 200.499s-75.666 103.666 -132.999 135.999s-120 48.5 -188 48.5zM373 1479h690l-17 -119h-690z" />
    <glyph glyph-name="Obreve" unicode="&#x14e;" horiz-adv-x="1780" 
d="M956 1508c198 0 362.833 -65.001 494.5 -195.001s197.5 -294.333 197.5 -493c0 -242 -83.5 -445.333 -250.5 -610s-375.167 -247 -624.5 -247c-212 0 -381.667 63.333 -509 190s-191 292.334 -191 497.001c0 158 38.167 303 114.5 435s182 235.5 317 310.5
s285.5 112.5 451.5 112.5zM953 1369c-140.667 0 -266.167 -30.667 -376.5 -92s-197.666 -148.333 -261.999 -261s-96.5 -232.667 -96.5 -360c0 -108 23.333 -204.833 70 -290.5s111.167 -151.167 193.5 -196.5s179.166 -68 290.499 -68c132 0 254.333 31.833 367 95.5
s201.167 152 265.5 265s96.5 235.167 96.5 366.5c0 174 -61 312 -183 414c-101.333 84.667 -223 127 -365 127zM612 1823h131.999c35.333 -69.333 105 -104 209 -104c54.667 0 99.667 7.5 135 22.5s70.333 42.167 105 81.5h128
c-23.333 -60 -68.166 -110.167 -134.499 -150.5s-148.833 -60.5 -247.5 -60.5c-98 0 -175 20 -231 60s-88 90.333 -96 151z" />
    <glyph glyph-name="obreve" unicode="&#x14f;" horiz-adv-x="1341" 
d="M680 1116c92.667 0 177.668 -22.167 255.001 -66.5s137.666 -106 180.999 -185s65 -168.5 65 -268.5c0 -114 -27.667 -219.833 -83 -317.5s-129.666 -173.167 -222.999 -226.5s-199 -80 -317 -80c-146 0 -266.167 47.833 -360.5 143.5s-141.5 217.5 -141.5 365.5
c0 116 27.667 223 83 321s131.166 174.833 227.499 230.5s200.833 83.5 313.5 83.5zM677.001 983c-86.667 0 -168.168 -21.665 -244.501 -64.998s-135 -102.833 -176 -178.5s-61.5 -159.167 -61.5 -250.5c0 -114.667 35.333 -207.834 106 -279.501s162 -107.5 274 -107.5
c87.333 0 166.5 20.833 237.5 62.5s127.5 101.834 169.5 180.501s63 163 63 253c0 75.333 -15.667 142.166 -47 200.499s-75.666 103.666 -132.999 135.999s-120 48.5 -188 48.5zM370 1525h131.999c35.333 -69.333 105 -104 209 -104c54.667 0 99.667 7.5 135 22.5
s70.333 42.167 105 81.5h128c-23.333 -60 -68.166 -110.167 -134.499 -150.5s-148.833 -60.5 -247.5 -60.5c-98 0 -175 20 -231 60s-88 90.333 -96 151z" />
    <glyph glyph-name="Odblacute" unicode="&#x150;" horiz-adv-x="1780" 
d="M956 1508c198 0 362.833 -65.001 494.5 -195.001s197.5 -294.333 197.5 -493c0 -242 -83.5 -445.333 -250.5 -610s-375.167 -247 -624.5 -247c-212 0 -381.667 63.333 -509 190s-191 292.334 -191 497.001c0 158 38.167 303 114.5 435s182 235.5 317 310.5
s285.5 112.5 451.5 112.5zM953 1369c-140.667 0 -266.167 -30.667 -376.5 -92s-197.666 -148.333 -261.999 -261s-96.5 -232.667 -96.5 -360c0 -108 23.333 -204.833 70 -290.5s111.167 -151.167 193.5 -196.5s179.166 -68 290.499 -68c132 0 254.333 31.833 367 95.5
s201.167 152 265.5 265s96.5 235.167 96.5 366.5c0 174 -61 312 -183 414c-101.333 84.667 -223 127 -365 127zM1004 1896h215l-339 -308h-138zM1320 1896h215l-339 -308h-138z" />
    <glyph glyph-name="odblacute" unicode="&#x151;" horiz-adv-x="1341" 
d="M680 1116c92.667 0 177.668 -22.167 255.001 -66.5s137.666 -106 180.999 -185s65 -168.5 65 -268.5c0 -114 -27.667 -219.833 -83 -317.5s-129.666 -173.167 -222.999 -226.5s-199 -80 -317 -80c-146 0 -266.167 47.833 -360.5 143.5s-141.5 217.5 -141.5 365.5
c0 116 27.667 223 83 321s131.166 174.833 227.499 230.5s200.833 83.5 313.5 83.5zM677.001 983c-86.667 0 -168.168 -21.665 -244.501 -64.998s-135 -102.833 -176 -178.5s-61.5 -159.167 -61.5 -250.5c0 -114.667 35.333 -207.834 106 -279.501s162 -107.5 274 -107.5
c87.333 0 166.5 20.833 237.5 62.5s127.5 101.834 169.5 180.501s63 163 63 253c0 75.333 -15.667 142.166 -47 200.499s-75.666 103.666 -132.999 135.999s-120 48.5 -188 48.5zM744 1598h215l-339 -308h-138zM1060 1598h215l-339 -308h-138z" />
    <glyph glyph-name="OE" unicode="&#x152;" horiz-adv-x="2445" 
d="M1593 1471l808.003 -0.000976562l-18 -143h-664l-65 -482h664l-18 -141h-664l-75 -563h664l-20 -142h-810l32 239c-91.333 -95.333 -190.333 -165.166 -297 -209.499s-225.334 -66.5 -356.001 -66.5c-228.667 0 -407.334 75 -536.001 225
c-106.667 125.333 -160 282 -160 470c0 237.333 82.833 438.333 248.5 603s368.5 247 608.5 247c141.333 0 263.666 -28.5 366.999 -85.5s187 -142.167 251 -255.5zM930.003 1368c-94 0 -198.832 -26.6709 -314.499 -80.0039s-210.167 -136.666 -283.5 -249.999
s-110 -242.666 -110 -387.999c0 -162.667 52.5 -296.167 157.5 -400.5s237.167 -156.5 396.5 -156.5c126 0 246.167 32.667 360.5 98s204 154 269 266s97.5 231 97.5 357c0 108.667 -23.5 204.334 -70.5 287.001s-114.333 147.834 -202 195.501s-187.834 71.5 -300.501 71.5
z" />
    <glyph glyph-name="oe" unicode="&#x153;" horiz-adv-x="2329" 
d="M2154 517h-968.002c-2 -25.333 -3 -44.333 -3 -57c0 -102.667 35.167 -188.167 105.5 -256.5s161.833 -102.5 274.5 -102.5c151.333 0 276.333 59.333 375 178l105 -84c-56 -70.667 -125.5 -125.5 -208.5 -164.5s-174.833 -58.5 -275.5 -58.5
c-109.333 0 -201.833 23 -277.5 69s-138.167 117 -187.5 213c-70.667 -100 -144.667 -170 -222 -210c-92.667 -48 -195 -72 -307 -72c-151.333 0 -272.666 47.167 -363.999 141.5s-137 217.166 -137 368.499c0 112.667 28 219 84 319s130.5 177.5 223.5 232.5
s194.833 82.5 305.5 82.5c109.333 0 204.833 -26 286.5 -78s141.834 -124 180.501 -216c68 98.667 147.333 172.334 238 221.001s188.667 73 294 73c144 0 261 -46.167 351 -138.5s135 -213.833 135 -364.5c0 -30.667 -2.66699 -62.667 -8 -96zM681.998 984
c-136 0 -249.667 -47.167 -341 -141.5s-137 -214.5 -137 -360.5c0 -118.667 34 -211.667 102 -279s159.667 -101 275 -101c132 0 244 47.5 336 142.5s138 213.167 138 354.5c0 116 -34.667 209.167 -104 279.5s-159 105.5 -269 105.5zM2028 636
c-1.33301 98 -35.332 180.333 -101.999 247s-149.334 100 -248.001 100c-112.667 0 -213 -33.167 -301 -99.5s-144 -148.833 -168 -247.5h819z" />
    <glyph glyph-name="Racute" unicode="&#x154;" horiz-adv-x="1243" 
d="M278 1471h369c131.333 0 225.333 -12.5 282 -37.5s102.667 -65 138 -120s53 -118.833 53 -191.5c0 -79.333 -20.833 -153 -62.5 -221s-98.5 -119.167 -170.5 -153.5s-166.667 -51.5 -284 -51.5l444 -696h-167l-443 696h-116l-95 -696h-148zM407 1330l-66 -490.001h169
c125.333 0 207.333 5 246 15c64.667 16 116.834 47.5 156.501 94.5s59.5 104.5 59.5 172.5c0 76.667 -27.667 132.334 -83 167.001c-42.667 27.333 -119.334 41 -230.001 41h-252zM781 1895h215l-339 -308h-138z" />
    <glyph glyph-name="racute" unicode="&#x155;" horiz-adv-x="616" 
d="M133 1088h139.003l-18 -137c37.333 52 82.333 92.5 135 121.5s106.667 43.5 162 43.5c39.333 0 80.333 -9.33301 123 -28l-66 -128c-34.667 14 -63.667 21 -87 21c-48.667 0 -96.834 -17 -144.501 -51s-86.334 -83.5 -116.001 -148.5s-54.834 -171.833 -75.501 -320.5
l-64 -461h-136zM611.003 1598h215l-339 -308h-138z" />
    <glyph glyph-name="Rcedilla" unicode="&#x156;" horiz-adv-x="1243" 
d="M278 1471h369c131.333 0 225.333 -12.5 282 -37.5s102.667 -65 138 -120s53 -118.833 53 -191.5c0 -79.333 -20.833 -153 -62.5 -221s-98.5 -119.167 -170.5 -153.5s-166.667 -51.5 -284 -51.5l444 -696h-167l-443 696h-116l-95 -696h-148zM407 1330l-66 -490.001h169
c125.333 0 207.333 5 246 15c64.667 16 116.834 47.5 156.501 94.5s59.5 104.5 59.5 172.5c0 76.667 -27.667 132.334 -83 167.001c-42.667 27.333 -119.334 41 -230.001 41h-252zM409 -120.001c26.667 6.66699 54.667 10 84 10c92 0 138 -31.667 138 -95
c0 -46.667 -23 -87.5 -69 -122.5s-107.333 -52.5 -184 -52.5c-42 0 -88 7 -138 21l32 70c37.333 -8 69.666 -12 96.999 -12c92.667 0 139 23.333 139 70c0 25.333 -20.667 38 -62 38c-17.333 0 -37.666 -2.33301 -60.999 -7z" />
    <glyph glyph-name="rcedilla" unicode="&#x157;" horiz-adv-x="616" 
d="M134 1088h139.003l-18 -137c37.333 52 82.333 92.5 135 121.5s106.667 43.5 162 43.5c39.333 0 80.333 -9.33301 123 -28l-66 -128c-34.667 14 -63.667 21 -87 21c-48.667 0 -96.834 -17 -144.501 -51s-86.334 -83.5 -116.001 -148.5s-54.834 -171.833 -75.501 -320.5
l-64 -461h-136zM90.0029 -120c26.667 6.66699 54.667 10 84 10c92 0 138 -31.667 138 -95c0 -46.667 -23 -87.5 -69 -122.5s-107.333 -52.5 -184 -52.5c-42 0 -88 7 -138 21l32 70c37.333 -8 69.666 -12 96.999 -12c92.667 0 139 23.333 139 70c0 25.333 -20.667 38 -62 38
c-17.333 0 -37.666 -2.33301 -60.999 -7z" />
    <glyph glyph-name="Rcaron" unicode="&#x158;" horiz-adv-x="1243" 
d="M278 1471h369c131.333 0 225.333 -12.5 282 -37.5s102.667 -65 138 -120s53 -118.833 53 -191.5c0 -79.333 -20.833 -153 -62.5 -221s-98.5 -119.167 -170.5 -153.5s-166.667 -51.5 -284 -51.5l444 -696h-167l-443 696h-116l-95 -696h-148zM407 1330l-66 -490.001h169
c125.333 0 207.333 5 246 15c64.667 16 116.834 47.5 156.501 94.5s59.5 104.5 59.5 172.5c0 76.667 -27.667 132.334 -83 167.001c-42.667 27.333 -119.334 41 -230.001 41h-252zM802 1582h-139l-254 257h180l155 -152l205 152h186z" />
    <glyph glyph-name="rcaron" unicode="&#x159;" horiz-adv-x="616" 
d="M133 1088h139.003l-18 -137c37.333 52 82.333 92.5 135 121.5s106.667 43.5 162 43.5c39.333 0 80.333 -9.33301 123 -28l-66 -128c-34.667 14 -63.667 21 -87 21c-48.667 0 -96.834 -17 -144.501 -51s-86.334 -83.5 -116.001 -148.5s-54.834 -171.833 -75.501 -320.5
l-64 -461h-136zM492.003 1285h-139l-254 257h180l155 -152l205 152h186z" />
    <glyph glyph-name="Sacute" unicode="&#x15a;" horiz-adv-x="1020" 
d="M927 1199l-138.999 -35.002c-18.667 62 -49.334 111 -92.001 147s-88.667 54 -138 54c-54.667 0 -99.167 -18.5 -133.5 -55.5s-51.5 -86.5 -51.5 -148.5c0 -54.667 18.333 -111.667 55 -171c22.667 -37.333 77.334 -95.333 164.001 -174
c90 -81.333 152.833 -157.166 188.5 -227.499s53.5 -139.166 53.5 -206.499c0 -71.333 -19.5 -140 -58.5 -206s-91.5 -118 -157.5 -156s-136 -57 -210 -57c-94 0 -175.5 30 -244.5 90s-118.5 148 -148.5 264l136 46c21.333 -88 56 -153.333 104 -196s103.333 -64 166 -64
c71.333 0 132.666 26.333 183.999 79s77 117.667 77 195c0 56.667 -14.5 112 -43.5 166s-85.833 119 -170.5 195c-90.667 82.667 -149.667 146 -177 190c-44.667 73.333 -67 150.666 -67 231.999c0 100.667 32.833 183.834 98.5 249.501s147.167 98.5 244.5 98.5
c82 0 155 -26 219 -78s111 -129 141 -231zM781.001 1895h215l-339 -308h-138z" />
    <glyph glyph-name="sacute" unicode="&#x15b;" horiz-adv-x="795" 
d="M694 966l-76.001 -113.001c-61.333 87.333 -134 131 -218 131c-48 0 -89 -15.667 -123 -47s-51 -66 -51 -104c0 -29.333 10.333 -57.333 31 -84c20 -26.667 65.667 -63 137 -109c104 -67.333 172.667 -126 206 -176c32.667 -50.667 49 -109 49 -175
c0 -91.333 -31.833 -167 -95.5 -227s-146.5 -90 -248.5 -90c-134.667 0 -248 59.667 -340 179l85 99c80.667 -98 168.334 -147 263.001 -147c54 0 101 19 141 57s60 82 60 132c0 40.667 -15 79.667 -45 117c-19.333 24 -71.333 64.667 -156 122
c-91.333 62.667 -151.333 114.667 -180 156c-28.667 40.667 -43 86.667 -43 138c0 80.667 30.333 149.334 91 206.001s137.334 85 230.001 85c54.667 0 104.167 -11 148.5 -33s89.166 -61 134.499 -117zM619.999 1598h215l-339 -308h-138z" />
    <glyph glyph-name="Scircumflex" unicode="&#x15c;" horiz-adv-x="1020" 
d="M927 1199l-138.999 -35.002c-18.667 62 -49.334 111 -92.001 147s-88.667 54 -138 54c-54.667 0 -99.167 -18.5 -133.5 -55.5s-51.5 -86.5 -51.5 -148.5c0 -54.667 18.333 -111.667 55 -171c22.667 -37.333 77.334 -95.333 164.001 -174
c90 -81.333 152.833 -157.166 188.5 -227.499s53.5 -139.166 53.5 -206.499c0 -71.333 -19.5 -140 -58.5 -206s-91.5 -118 -157.5 -156s-136 -57 -210 -57c-94 0 -175.5 30 -244.5 90s-118.5 148 -148.5 264l136 46c21.333 -88 56 -153.333 104 -196s103.333 -64 166 -64
c71.333 0 132.666 26.333 183.999 79s77 117.667 77 195c0 56.667 -14.5 112 -43.5 166s-85.833 119 -170.5 195c-90.667 82.667 -149.667 146 -177 190c-44.667 73.333 -67 150.666 -67 231.999c0 100.667 32.833 183.834 98.5 249.501s147.167 98.5 244.5 98.5
c82 0 155 -26 219 -78s111 -129 141 -231zM575.001 1840h139l254 -257h-180l-155 152l-205 -152h-186z" />
    <glyph glyph-name="scircumflex" unicode="&#x15d;" horiz-adv-x="795" 
d="M694 966l-76.001 -113.001c-61.333 87.333 -134 131 -218 131c-48 0 -89 -15.667 -123 -47s-51 -66 -51 -104c0 -29.333 10.333 -57.333 31 -84c20 -26.667 65.667 -63 137 -109c104 -67.333 172.667 -126 206 -176c32.667 -50.667 49 -109 49 -175
c0 -91.333 -31.833 -167 -95.5 -227s-146.5 -90 -248.5 -90c-134.667 0 -248 59.667 -340 179l85 99c80.667 -98 168.334 -147 263.001 -147c54 0 101 19 141 57s60 82 60 132c0 40.667 -15 79.667 -45 117c-19.333 24 -71.333 64.667 -156 122
c-91.333 62.667 -151.333 114.667 -180 156c-28.667 40.667 -43 86.667 -43 138c0 80.667 30.333 149.334 91 206.001s137.334 85 230.001 85c54.667 0 104.167 -11 148.5 -33s89.166 -61 134.499 -117zM389.999 1542h139l254 -257h-180l-155 152l-205 -152h-186z" />
    <glyph glyph-name="Scedilla" unicode="&#x15e;" horiz-adv-x="1020" 
d="M927 1199l-138.999 -35.002c-18.667 62 -49.334 111 -92.001 147s-88.667 54 -138 54c-54.667 0 -99.167 -18.5 -133.5 -55.5s-51.5 -86.5 -51.5 -148.5c0 -54.667 18.333 -111.667 55 -171c22.667 -37.333 77.334 -95.333 164.001 -174
c90 -81.333 152.833 -157.166 188.5 -227.499s53.5 -139.166 53.5 -206.499c0 -71.333 -19.5 -140 -58.5 -206s-91.5 -118 -157.5 -156s-136 -57 -210 -57c-94 0 -175.5 30 -244.5 90s-118.5 148 -148.5 264l136 46c21.333 -88 56 -153.333 104 -196s103.333 -64 166 -64
c71.333 0 132.666 26.333 183.999 79s77 117.667 77 195c0 56.667 -14.5 112 -43.5 166s-85.833 119 -170.5 195c-90.667 82.667 -149.667 146 -177 190c-44.667 73.333 -67 150.666 -67 231.999c0 100.667 32.833 183.834 98.5 249.501s147.167 98.5 244.5 98.5
c82 0 155 -26 219 -78s111 -129 141 -231zM356.001 -0.00195312l88.001 -0.000976562l-34 -118c16 2 29 3 39 3c29.333 0 53.5 -8.66699 72.5 -26s28.5 -39 28.5 -65c0 -46.667 -22.667 -87.334 -68 -122.001s-107 -52 -185 -52c-58.667 0 -112.667 10 -162 30l31 69
c41.333 -13.333 80.666 -20 117.999 -20c52 0 89 6.83301 111 20.5s33 29.834 33 48.501c0 10.667 -5 19.834 -15 27.501s-23.667 11.5 -41 11.5c-16 0 -40 -3 -72 -9z" />
    <glyph glyph-name="scedilla" unicode="&#x15f;" horiz-adv-x="795" 
d="M694 966l-76.001 -113.001c-61.333 87.333 -134 131 -218 131c-48 0 -89 -15.667 -123 -47s-51 -66 -51 -104c0 -29.333 10.333 -57.333 31 -84c20 -26.667 65.667 -63 137 -109c104 -67.333 172.667 -126 206 -176c32.667 -50.667 49 -109 49 -175
c0 -91.333 -31.833 -167 -95.5 -227s-146.5 -90 -248.5 -90c-134.667 0 -248 59.667 -340 179l85 99c80.667 -98 168.334 -147 263.001 -147c54 0 101 19 141 57s60 82 60 132c0 40.667 -15 79.667 -45 117c-19.333 24 -71.333 64.667 -156 122
c-91.333 62.667 -151.333 114.667 -180 156c-28.667 40.667 -43 86.667 -43 138c0 80.667 30.333 149.334 91 206.001s137.334 85 230.001 85c54.667 0 104.167 -11 148.5 -33s89.166 -61 134.499 -117zM266.999 -0.000976562l88.001 -0.000976562l-34 -118c16 2 29 3 39 3
c29.333 0 53.5 -8.66699 72.5 -26s28.5 -39 28.5 -65c0 -46.667 -22.667 -87.334 -68 -122.001s-107 -52 -185 -52c-58.667 0 -112.667 10 -162 30l31 69c41.333 -13.333 80.666 -20 117.999 -20c52 0 89 6.83301 111 20.5s33 29.834 33 48.501
c0 10.667 -5 19.834 -15 27.501s-23.667 11.5 -41 11.5c-16 0 -40 -3 -72 -9z" />
    <glyph glyph-name="Scaron" unicode="&#x160;" horiz-adv-x="1020" 
d="M927 1199l-138.999 -35.002c-18.667 62 -49.334 111 -92.001 147s-88.667 54 -138 54c-54.667 0 -99.167 -18.5 -133.5 -55.5s-51.5 -86.5 -51.5 -148.5c0 -54.667 18.333 -111.667 55 -171c22.667 -37.333 77.334 -95.333 164.001 -174
c90 -81.333 152.833 -157.166 188.5 -227.499s53.5 -139.166 53.5 -206.499c0 -71.333 -19.5 -140 -58.5 -206s-91.5 -118 -157.5 -156s-136 -57 -210 -57c-94 0 -175.5 30 -244.5 90s-118.5 148 -148.5 264l136 46c21.333 -88 56 -153.333 104 -196s103.333 -64 166 -64
c71.333 0 132.666 26.333 183.999 79s77 117.667 77 195c0 56.667 -14.5 112 -43.5 166s-85.833 119 -170.5 195c-90.667 82.667 -149.667 146 -177 190c-44.667 73.333 -67 150.666 -67 231.999c0 100.667 32.833 183.834 98.5 249.501s147.167 98.5 244.5 98.5
c82 0 155 -26 219 -78s111 -129 141 -231zM648.001 1583h-139l-254 257h180l155 -152l205 152h186z" />
    <glyph glyph-name="scaron" unicode="&#x161;" horiz-adv-x="795" 
d="M694 966l-76.001 -113.001c-61.333 87.333 -134 131 -218 131c-48 0 -89 -15.667 -123 -47s-51 -66 -51 -104c0 -29.333 10.333 -57.333 31 -84c20 -26.667 65.667 -63 137 -109c104 -67.333 172.667 -126 206 -176c32.667 -50.667 49 -109 49 -175
c0 -91.333 -31.833 -167 -95.5 -227s-146.5 -90 -248.5 -90c-134.667 0 -248 59.667 -340 179l85 99c80.667 -98 168.334 -147 263.001 -147c54 0 101 19 141 57s60 82 60 132c0 40.667 -15 79.667 -45 117c-19.333 24 -71.333 64.667 -156 122
c-91.333 62.667 -151.333 114.667 -180 156c-28.667 40.667 -43 86.667 -43 138c0 80.667 30.333 149.334 91 206.001s137.334 85 230.001 85c54.667 0 104.167 -11 148.5 -33s89.166 -61 134.499 -117zM534.999 1285h-139l-254 257h180l155 -152l205 152h186z" />
    <glyph glyph-name="Tcedilla" unicode="&#x162;" horiz-adv-x="872" 
d="M73 1471h879l-19 -140h-375l-177 -1331h-147l177 1331h-357zM286 -428l-61 26.999c28 48.667 45.333 90.667 52 126h-82l22 154h156l-7 -51c-16 -111.333 -42.667 -196.666 -80 -255.999z" />
    <glyph glyph-name="tcedilla" unicode="&#x163;" horiz-adv-x="694" 
d="M363 1495h137l-54 -407h216l-16 -122h-216l-132 -966h-140l131 966h-187l17 122h186zM209 -428l-61 26.999c28 48.667 45.333 90.667 52 126h-82l21 154h157l-7 -51c-16 -111.333 -42.667 -196.666 -80 -255.999z" />
    <glyph glyph-name="Tcaron" unicode="&#x164;" horiz-adv-x="872" 
d="M73 1471h879l-19 -140h-375l-177 -1331h-147l177 1331h-357zM574 1583h-139l-254 257h180l155 -152l205 152h186z" />
    <glyph glyph-name="tcaron" unicode="&#x165;" horiz-adv-x="694" 
d="M613 1163l-55 26.001c48 59.333 75.667 110.666 83 153.999h-67l29 165h135l-10 -73c-8 -64 -19.5 -114.5 -34.5 -151.5s-41.833 -77.167 -80.5 -120.5zM363 1495h137l-54 -407h216l-16 -122h-216l-132 -966h-140l131 966h-187l17 122h186z" />
    <glyph glyph-name="Tbar" unicode="&#x166;" horiz-adv-x="872" 
d="M319 639h-280l18 138h281l74 554h-358l19 140h879l-18 -140h-376l-74 -554h284l-18 -138h-284l-85 -639h-146z" />
    <glyph glyph-name="tbar" unicode="&#x167;" horiz-adv-x="694" 
d="M381 607h247l-16 -116h-247l-67 -491h-140l67 491h-215l15 116h215l49 359h-187l17 122h186l58 407h137l-54 -407h216l-16 -122h-216z" />
    <glyph glyph-name="Utilde" unicode="&#x168;" horiz-adv-x="1341" 
d="M233 1471l145.001 0.000976562l-111 -842c-14.667 -112 -22 -191.667 -22 -239c0 -92 26.333 -162.833 79 -212.5s127 -74.5 223 -74.5c67.333 0 127 11.333 179 34s96.167 55.667 132.5 99s62.166 93.333 77.499 150c26.667 98.667 49.667 223.334 69 374.001l92 711
h145l-98 -743l-24 -182c-14 -84.667 -30.667 -156.834 -50 -216.501s-44.666 -112.5 -75.999 -158.5s-67 -83.667 -107 -113s-88.5 -52.5 -145.5 -69.5s-120.833 -25.5 -191.5 -25.5c-144.667 0 -256.334 36.667 -335.001 110s-118 170.666 -118 291.999c0 34 2 72 6 114
l22 172zM1067 1789l56.999 -97c-53.333 -34.667 -97.5 -58 -132.5 -70s-70.5 -18 -106.5 -18c-48 0 -95.667 12.333 -143 37c-40 21.333 -65.667 33.666 -77 36.999c-16 4.66699 -32.667 7 -50 7c-24.667 0 -48 -4.16699 -70 -12.5s-55 -27.166 -99 -56.499l-52 102
c70 64.667 149.333 97 238 97c42.667 0 92 -13.333 148 -40c53.333 -26 95.333 -39 126 -39c38.667 0 92.334 17.667 161.001 53z" />
    <glyph glyph-name="utilde" unicode="&#x169;" horiz-adv-x="1245" 
d="M188 1088l140 0.000976562l-63 -455c-17.333 -128.667 -26 -211.334 -26 -248.001c0 -83.333 27.833 -151.333 83.5 -204s129.167 -79 220.5 -79c76 0 142 20 198 60s96 92.333 120 157c12 32.667 26.333 107.667 43 225l78 544h137l-56 -412
c-26.667 -196.667 -55 -336.5 -85 -419.5s-83.5 -151.167 -160.5 -204.5s-170.833 -80 -281.5 -80c-126 0 -229.167 38.5 -309.5 115.5s-120.5 173.167 -120.5 288.5c0 46 3.66699 99.667 11 161l10 96l5 41zM998 1492l56.999 -97c-53.333 -34.667 -97.5 -58 -132.5 -70
s-70.5 -18 -106.5 -18c-48 0 -95.667 12.333 -143 37c-40 21.333 -65.667 33.666 -77 36.999c-16 4.66699 -32.667 7 -50 7c-24.667 0 -48 -4.16699 -70 -12.5s-55 -27.166 -99 -56.499l-52 102c70 64.667 149.333 97 238 97c42.667 0 92 -13.333 148 -40
c53.333 -26 95.333 -39 126 -39c38.667 0 92.334 17.667 161.001 53z" />
    <glyph glyph-name="Umacron" unicode="&#x16a;" horiz-adv-x="1341" 
d="M233 1471l145.001 0.000976562l-111 -842c-14.667 -112 -22 -191.667 -22 -239c0 -92 26.333 -162.833 79 -212.5s127 -74.5 223 -74.5c67.333 0 127 11.333 179 34s96.167 55.667 132.5 99s62.166 93.333 77.499 150c26.667 98.667 49.667 223.334 69 374.001l92 711
h145l-98 -743l-24 -182c-14 -84.667 -30.667 -156.834 -50 -216.501s-44.666 -112.5 -75.999 -158.5s-67 -83.667 -107 -113s-88.5 -52.5 -145.5 -69.5s-120.833 -25.5 -191.5 -25.5c-144.667 0 -256.334 36.667 -335.001 110s-118 170.666 -118 291.999c0 34 2 72 6 114
l22 172zM424.001 1776h690l-17 -119h-690z" />
    <glyph glyph-name="umacron" unicode="&#x16b;" horiz-adv-x="1245" 
d="M188 1088l140 0.000976562l-63 -455c-17.333 -128.667 -26 -211.334 -26 -248.001c0 -83.333 27.833 -151.333 83.5 -204s129.167 -79 220.5 -79c76 0 142 20 198 60s96 92.333 120 157c12 32.667 26.333 107.667 43 225l78 544h137l-56 -412
c-26.667 -196.667 -55 -336.5 -85 -419.5s-83.5 -151.167 -160.5 -204.5s-170.833 -80 -281.5 -80c-126 0 -229.167 38.5 -309.5 115.5s-120.5 173.167 -120.5 288.5c0 46 3.66699 99.667 11 161l10 96l5 41zM367 1479h690l-17 -119h-690z" />
    <glyph glyph-name="Ubreve" unicode="&#x16c;" horiz-adv-x="1341" 
d="M233 1471l145.001 0.000976562l-111 -842c-14.667 -112 -22 -191.667 -22 -239c0 -92 26.333 -162.833 79 -212.5s127 -74.5 223 -74.5c67.333 0 127 11.333 179 34s96.167 55.667 132.5 99s62.166 93.333 77.499 150c26.667 98.667 49.667 223.334 69 374.001l92 711
h145l-98 -743l-24 -182c-14 -84.667 -30.667 -156.834 -50 -216.501s-44.666 -112.5 -75.999 -158.5s-67 -83.667 -107 -113s-88.5 -52.5 -145.5 -69.5s-120.833 -25.5 -191.5 -25.5c-144.667 0 -256.334 36.667 -335.001 110s-118 170.666 -118 291.999c0 34 2 72 6 114
l22 172zM421.001 1823h131.999c35.333 -69.333 105 -104 209 -104c54.667 0 99.667 7.5 135 22.5s70.333 42.167 105 81.5h128c-23.333 -60 -68.166 -110.167 -134.499 -150.5s-148.833 -60.5 -247.5 -60.5c-98 0 -175 20 -231 60s-88 90.333 -96 151z" />
    <glyph glyph-name="ubreve" unicode="&#x16d;" horiz-adv-x="1245" 
d="M188 1088l140 0.000976562l-63 -455c-17.333 -128.667 -26 -211.334 -26 -248.001c0 -83.333 27.833 -151.333 83.5 -204s129.167 -79 220.5 -79c76 0 142 20 198 60s96 92.333 120 157c12 32.667 26.333 107.667 43 225l78 544h137l-56 -412
c-26.667 -196.667 -55 -336.5 -85 -419.5s-83.5 -151.167 -160.5 -204.5s-170.833 -80 -281.5 -80c-126 0 -229.167 38.5 -309.5 115.5s-120.5 173.167 -120.5 288.5c0 46 3.66699 99.667 11 161l10 96l5 41zM364 1525h131.999c35.333 -69.333 105 -104 209 -104
c54.667 0 99.667 7.5 135 22.5s70.333 42.167 105 81.5h128c-23.333 -60 -68.166 -110.167 -134.499 -150.5s-148.833 -60.5 -247.5 -60.5c-98 0 -175 20 -231 60s-88 90.333 -96 151z" />
    <glyph glyph-name="Uring" unicode="&#x16e;" horiz-adv-x="1341" 
d="M233 1471l145.001 0.000976562l-111 -842c-14.667 -112 -22 -191.667 -22 -239c0 -92 26.333 -162.833 79 -212.5s127 -74.5 223 -74.5c67.333 0 127 11.333 179 34s96.167 55.667 132.5 99s62.166 93.333 77.499 150c26.667 98.667 49.667 223.334 69 374.001l92 711
h145l-98 -743l-24 -182c-14 -84.667 -30.667 -156.834 -50 -216.501s-44.666 -112.5 -75.999 -158.5s-67 -83.667 -107 -113s-88.5 -52.5 -145.5 -69.5s-120.833 -25.5 -191.5 -25.5c-144.667 0 -256.334 36.667 -335.001 110s-118 170.666 -118 291.999c0 34 2 72 6 114
l22 172zM765.001 1989c53.333 0 97.667 -17.5 133 -52.5s53 -78.833 53 -131.5c0 -64 -24.833 -120.5 -74.5 -169.5s-107.5 -73.5 -173.5 -73.5c-52 0 -95.5 17.667 -130.5 53s-52.5 79 -52.5 131c0 64 24.667 120.5 74 169.5s106.333 73.5 171 73.5zM749.002 1888
c-33.333 0 -62.668 -12.667 -88.001 -38s-38 -54.333 -38 -87c0 -27.333 9 -50 27 -68s40.667 -27 68 -27c34 0 63.667 12.667 89 38s38 54.333 38 87c0 27.333 -9.16699 50 -27.5 68s-41.166 27 -68.499 27z" />
    <glyph glyph-name="uring" unicode="&#x16f;" horiz-adv-x="1245" 
d="M188 1088l140 0.000976562l-63 -455c-17.333 -128.667 -26 -211.334 -26 -248.001c0 -83.333 27.833 -151.333 83.5 -204s129.167 -79 220.5 -79c76 0 142 20 198 60s96 92.333 120 157c12 32.667 26.333 107.667 43 225l78 544h137l-56 -412
c-26.667 -196.667 -55 -336.5 -85 -419.5s-83.5 -151.167 -160.5 -204.5s-170.833 -80 -281.5 -80c-126 0 -229.167 38.5 -309.5 115.5s-120.5 173.167 -120.5 288.5c0 46 3.66699 99.667 11 161l10 96l5 41zM715 1691c53.333 0 97.667 -17.5 133 -52.5
s53 -78.833 53 -131.5c0 -64 -24.833 -120.5 -74.5 -169.5s-107.5 -73.5 -173.5 -73.5c-52 0 -95.5 17.667 -130.5 53s-52.5 79 -52.5 131c0 64 24.667 120.5 74 169.5s106.333 73.5 171 73.5zM699.001 1590c-33.333 0 -62.668 -12.667 -88.001 -38s-38 -54.333 -38 -87
c0 -27.333 9 -50 27 -68s40.667 -27 68 -27c34 0 63.667 12.667 89 38s38 54.333 38 87c0 27.333 -9.16699 50 -27.5 68s-41.166 27 -68.499 27z" />
    <glyph glyph-name="Udblacute" unicode="&#x170;" horiz-adv-x="1341" 
d="M233 1471l145.001 0.000976562l-111 -842c-14.667 -112 -22 -191.667 -22 -239c0 -92 26.333 -162.833 79 -212.5s127 -74.5 223 -74.5c67.333 0 127 11.333 179 34s96.167 55.667 132.5 99s62.166 93.333 77.499 150c26.667 98.667 49.667 223.334 69 374.001l92 711
h145l-98 -743l-24 -182c-14 -84.667 -30.667 -156.834 -50 -216.501s-44.666 -112.5 -75.999 -158.5s-67 -83.667 -107 -113s-88.5 -52.5 -145.5 -69.5s-120.833 -25.5 -191.5 -25.5c-144.667 0 -256.334 36.667 -335.001 110s-118 170.666 -118 291.999c0 34 2 72 6 114
l22 172zM744.001 1896h215l-339 -308h-138zM1060 1896h215l-339 -308h-138z" />
    <glyph glyph-name="udblacute" unicode="&#x171;" horiz-adv-x="1245" 
d="M188 1088l140 0.000976562l-63 -455c-17.333 -128.667 -26 -211.334 -26 -248.001c0 -83.333 27.833 -151.333 83.5 -204s129.167 -79 220.5 -79c76 0 142 20 198 60s96 92.333 120 157c12 32.667 26.333 107.667 43 225l78 544h137l-56 -412
c-26.667 -196.667 -55 -336.5 -85 -419.5s-83.5 -151.167 -160.5 -204.5s-170.833 -80 -281.5 -80c-126 0 -229.167 38.5 -309.5 115.5s-120.5 173.167 -120.5 288.5c0 46 3.66699 99.667 11 161l10 96l5 41zM746 1598h215l-339 -308h-138zM1062 1598h215l-339 -308h-138z
" />
    <glyph glyph-name="Uogonek" unicode="&#x172;" horiz-adv-x="1341" 
d="M233 1471l145.001 0.000976562l-111 -842c-14.667 -112 -22 -191.667 -22 -239c0 -92 26.333 -162.833 79 -212.5s127 -74.5 223 -74.5c67.333 0 127 11.333 179 34s96.167 55.667 132.5 99s62.166 93.333 77.499 150c26.667 98.667 49.667 223.334 69 374.001l92 711
h145l-98 -743l-24 -182c-14 -84.667 -30.667 -156.834 -50 -216.501s-44.666 -112.5 -75.999 -158.5s-67 -83.667 -107 -113s-88.5 -52.5 -145.5 -69.5s-120.833 -25.5 -191.5 -25.5c-144.667 0 -256.334 36.667 -335.001 110s-118 170.666 -118 291.999c0 34 2 72 6 114
l22 172zM579.001 0.000976562l109.001 -0.00195312c-99.333 -75.333 -149 -143.333 -149 -204c0 -29.333 10.667 -53.166 32 -71.499s54.333 -27.5 99 -27.5c20 0 43.333 1.66699 70 5l-21 -85c-28.667 -6.66699 -57.334 -10 -86.001 -10c-69.333 0 -120.833 15 -154.5 45
s-50.5 68 -50.5 114c0 38.667 13.333 79.834 40 123.501s63.667 80.5 111 110.5z" />
    <glyph glyph-name="uogonek" unicode="&#x173;" horiz-adv-x="1245" 
d="M188 1088l140 0.000976562l-63 -455c-17.333 -128.667 -26 -211.334 -26 -248.001c0 -83.333 27.833 -151.333 83.5 -204s129.167 -79 220.5 -79c76 0 142 20 198 60s96 92.333 120 157c12 32.667 26.333 107.667 43 225l78 544h137l-56 -412
c-26.667 -196.667 -55 -336.5 -85 -419.5s-83.5 -151.167 -160.5 -204.5s-170.833 -80 -281.5 -80c-126 0 -229.167 38.5 -309.5 115.5s-120.5 173.167 -120.5 288.5c0 46 3.66699 99.667 11 161l10 96l5 41zM541 0.000976562l109.001 -0.00195312
c-99.333 -75.333 -149 -143.333 -149 -204c0 -29.333 10.667 -53.166 32 -71.499s54.333 -27.5 99 -27.5c20 0 43.333 1.66699 70 5l-21 -85c-28.667 -6.66699 -57.334 -10 -86.001 -10c-69.333 0 -120.833 15 -154.5 45s-50.5 68 -50.5 114
c0 38.667 13.333 79.834 40 123.501s63.667 80.5 111 110.5z" />
    <glyph glyph-name="Wcircumflex" unicode="&#x174;" horiz-adv-x="1966" 
d="M126 1471h143l204 -1093l569 1093h28l257 -1093l520 1093h155l-702 -1471h-27l-259 1108l-586 -1108h-27zM1031 1840h139l254 -257h-180l-155 152l-205 -152h-186z" />
    <glyph glyph-name="wcircumflex" unicode="&#x175;" horiz-adv-x="1702" 
d="M70 1088h139l224 -768l409 768h24l248 -776l400 776h150l-562 -1088h-28l-252 768l-409 -768h-26zM834 1542h139l254 -257h-180l-155 152l-205 -152h-186z" />
    <glyph glyph-name="Ycircumflex" unicode="&#x176;" horiz-adv-x="1212" 
d="M83 1471h154l315 -668l531 668h178l-652 -819l-89 -652h-144l89 660zM639 1840h139l254 -257h-180l-155 152l-205 -152h-186z" />
    <glyph glyph-name="ycircumflex" unicode="&#x177;" horiz-adv-x="1098" 
d="M47 1088h144l282 -803l466 803h155l-862 -1486h-157l308 531zM538 1542h139l254 -257h-180l-155 152l-205 -152h-186z" />
    <glyph glyph-name="Ydieresis" unicode="&#x178;" horiz-adv-x="1212" 
d="M83 1471h154l315 -668l531 668h178l-652 -819l-89 -652h-144l89 660zM507 1816c28.667 0 52.667 -9.66699 72 -29s29 -43 29 -71c0 -34.667 -13.5 -65.334 -40.5 -92.001s-58.5 -40 -94.5 -40c-28 0 -51.5 9.5 -70.5 28.5s-28.5 42.833 -28.5 71.5
c0 34.667 13.333 65.334 40 92.001s57.667 40 93 40zM915 1816c29.333 0 53.5 -9.66699 72.5 -29s28.5 -43 28.5 -71c0 -34.667 -13.5 -65.334 -40.5 -92.001s-58.167 -40 -93.5 -40c-28.667 0 -52.5 9.5 -71.5 28.5s-28.5 42.833 -28.5 71.5
c0 34.667 13.333 65.334 40 92.001s57.667 40 93 40z" />
    <glyph glyph-name="Zacute" unicode="&#x179;" horiz-adv-x="983" 
d="M217 1471h756l-722 -1331h551l-19 -140h-770l725 1329h-540zM731 1895h215l-339 -308h-138z" />
    <glyph glyph-name="zacute" unicode="&#x17a;" horiz-adv-x="870" 
d="M92 1088h748l-650 -964h591l-16 -124h-822l653 965h-520zM631 1598h215l-339 -308h-138z" />
    <glyph glyph-name="Zdot" unicode="&#x17b;" horiz-adv-x="983" 
d="M217 1471h756l-722 -1331h551l-19 -140h-770l725 1329h-540zM563 1815c28.667 0 52.667 -9.66699 72 -29s29 -43 29 -71c0 -34.667 -13.5 -65.334 -40.5 -92.001s-58.5 -40 -94.5 -40c-28 0 -51.5 9.5 -70.5 28.5s-28.5 42.833 -28.5 71.5
c0 34.667 13.333 65.334 40 92.001s57.667 40 93 40z" />
    <glyph glyph-name="zdot" unicode="&#x17c;" horiz-adv-x="870" 
d="M92 1088h748l-650 -964h591l-16 -124h-822l653 965h-520zM433 1518c28.667 0 52.667 -9.66699 72 -29s29 -43 29 -71c0 -34.667 -13.5 -65.334 -40.5 -92.001s-58.5 -40 -94.5 -40c-28 0 -51.5 9.5 -70.5 28.5s-28.5 42.833 -28.5 71.5c0 34.667 13.333 65.334 40 92.001
s57.667 40 93 40z" />
    <glyph glyph-name="Zcaron" unicode="&#x17d;" horiz-adv-x="983" 
d="M217 1471h756l-722 -1331h551l-19 -140h-770l725 1329h-540zM629 1583h-139l-254 257h180l155 -152l205 152h186z" />
    <glyph glyph-name="zcaron" unicode="&#x17e;" horiz-adv-x="870" 
d="M92 1088h748l-650 -964h591l-16 -124h-822l653 965h-520zM574 1285h-139l-254 257h180l155 -152l205 152h186z" />
    <glyph glyph-name="longs" unicode="&#x17f;" horiz-adv-x="410" 
d="M598 1471l-19.001 -132c-49.333 48 -96.666 72 -141.999 72c-22 0 -44 -11 -66 -33s-39.333 -80 -52 -174l-168 -1204h-137l166 1184c14 97.333 27.833 165.5 41.5 204.5s39 73.333 76 103s80.5 44.5 130.5 44.5c59.333 0 116 -21.667 170 -65z" />
    <glyph glyph-name="florin" unicode="&#x192;" horiz-adv-x="1135" 
d="M597 882l231 -0.00195312l-17 -122h-233l-107 -710c-19.333 -130.667 -44 -227.667 -74 -291s-66.833 -110 -110.5 -140s-89.167 -45 -136.5 -45c-45.333 0 -92.666 16.333 -141.999 49l18 124c36.667 -30 73.667 -45 111 -45c47.333 0 88.166 24.333 122.499 73
s62.166 147.334 83.499 296.001l101 689h-141l17 122h141l49 319c18.667 122.667 40.334 202.334 65.001 239.001c44 64 99.333 96 166 96c55.333 0 114.333 -21.667 177 -65l-18 -133c-51.333 48.667 -97.666 73 -138.999 73c-32.667 0 -57.834 -15.167 -75.501 -45.5
s-33.167 -93.5 -46.5 -189.5z" />
    <glyph glyph-name="Aringacute" unicode="&#x1fa;" horiz-adv-x="1515" 
d="M852 1471l493 -1471h-151l-161 481h-623l-275 -481h-164l847 1471h34zM805 1163l-314 -542h496zM896 1830c53.333 0 97.667 -17.5 133 -52.5s53 -78.833 53 -131.5c0 -64 -24.833 -120.5 -74.5 -169.5s-107.5 -73.5 -173.5 -73.5c-52 0 -95.5 17.667 -130.5 53
s-52.5 79 -52.5 131c0 64 24.667 120.5 74 169.5s106.333 73.5 171 73.5zM880.001 1729c-33.333 0 -62.668 -12.667 -88.001 -38s-38 -54.333 -38 -87c0 -27.333 9 -50 27 -68s40.667 -27 68 -27c34 0 63.667 12.667 89 38s38 54.333 38 87c0 27.333 -9.16699 50 -27.5 68
s-41.166 27 -68.499 27zM955.999 2170h215l-339 -308h-138z" />
    <glyph glyph-name="aringacute" unicode="&#x1fb;" horiz-adv-x="1399" 
d="M1121 0l-141 0.000976562l21 164c-126 -128 -270.333 -192 -433 -192c-148 0 -269.667 47.667 -365 143s-143 218 -143 368c0 173.333 61.833 322.166 185.5 446.499s269.167 186.5 436.5 186.5c90.667 0 170.167 -19 238.5 -57s126.833 -97.333 175.5 -178l25 207h145z
M583 100.001c90 0 172 21.1689 246 63.502s132.667 103.166 176 182.499s65 165.666 65 258.999c0 112.667 -35.667 204.334 -107 275.001s-164 106 -278 106c-134 0 -248.667 -48.333 -344 -145s-143 -215.334 -143 -356.001c0 -115.333 35.667 -208.333 107 -279
s164 -106 278 -106zM799 1647c53.333 0 97.667 -17.5 133 -52.5s53 -78.833 53 -131.5c0 -64 -24.833 -120.5 -74.5 -169.5s-107.5 -73.5 -173.5 -73.5c-52 0 -95.5 17.667 -130.5 53s-52.5 79 -52.5 131c0 64 24.667 120.5 74 169.5s106.333 73.5 171 73.5zM783.001 1546
c-33.333 0 -62.668 -12.667 -88.001 -38s-38 -54.333 -38 -87c0 -27.333 9 -50 27 -68s40.667 -27 68 -27c34 0 63.667 12.667 89 38s38 54.333 38 87c0 27.333 -9.16699 50 -27.5 68s-41.166 27 -68.499 27zM883.999 2030h215l-339 -308h-138z" />
    <glyph glyph-name="AEacute" unicode="&#x1fc;" horiz-adv-x="2032" 
d="M1743 0h-832l65 478h-504l-346 -478h-159l1059 1471h895l-21 -143h-661l-65 -482h661l-19 -141h-662l-75 -564h680zM1092 1344l-519 -723h423zM1428 1895h215l-339 -308h-138z" />
    <glyph glyph-name="aeacute" unicode="&#x1fd;" horiz-adv-x="2370" 
d="M1149 1088l125.001 -0.000976562l-22 -178c60.667 68.667 129.5 120.167 206.5 154.5s159.5 51.5 247.5 51.5c148.667 0 270.334 -46.833 365.001 -140.5s142 -214.834 142 -363.501c0 -30 -2.66699 -62 -8 -96h-985l-3 -47c0 -65.333 17 -127.333 51 -186
s80.333 -103.667 139 -135s127 -47 205 -47c148.667 0 274 58 376 174l107 -79c-120 -149.333 -286 -224 -498 -224c-104 0 -191.333 18.833 -262 56.5s-130.667 94.834 -180 171.501l-27 -200h-124l21 170c-68.667 -69.333 -139.834 -119.666 -213.501 -150.999
s-154.834 -47 -243.501 -47c-152.667 0 -273.334 46.333 -362.001 139c-98.667 102 -148 229.333 -148 382c0 170 61.5 316.333 184.5 439s268.5 184 436.5 184c106.667 0 198.334 -23.333 275.001 -70c57.333 -35.333 112.333 -94.333 165 -177zM683.001 986.999
c-152 0 -274.668 -56.335 -368.001 -169.002c-80 -95.333 -120 -205.666 -120 -330.999c0 -114.667 36.333 -207.5 109 -278.5s169 -106.5 289 -106.5c89.333 0 171.833 21.333 247.5 64s135.334 102.834 179.001 180.501s65.5 158.167 65.5 241.5
c0 72 -17.667 139.667 -53 203s-82.833 111.833 -142.5 145.5s-128.5 50.5 -206.5 50.5zM2081 634.997c-3.33301 99.333 -37.498 182.5 -102.498 249.5s-155.167 100.5 -270.5 100.5c-110.667 0 -207.334 -31.167 -290.001 -93.5s-140.334 -147.833 -173.001 -256.5h836z
M1332 1598h215l-339 -308h-138z" />
    <glyph glyph-name="Oslashacute" unicode="&#x1fe;" horiz-adv-x="1778" 
d="M1461 1302c124 -127.333 185.999 -287.666 185.999 -480.999c0 -241.333 -83.5 -444.5 -250.5 -609.5s-374.5 -247.5 -622.5 -247.5c-155.333 0 -288 33.333 -398 100l-132 -151l-98 88l126 144c-133.333 129.333 -200 298 -200 506
c0 157.333 37.833 301.666 113.5 432.999s181 235 316 311s282.167 114 441.5 114c156.667 0 295.334 -40.333 416.001 -121l121 139l102 -87zM366.999 255l897.999 1027c-91.333 58.667 -201.333 88 -330 88c-130 0 -250.5 -31.333 -361.5 -94
s-198.167 -149.834 -261.5 -261.501s-95 -230.834 -95 -357.501c0 -78.667 13.333 -153 40 -223s63.334 -129.667 110.001 -179zM1367 1195l-894 -1021c88 -48 187.667 -72 299 -72c131.333 0 253.5 31.833 366.5 95.5s201.5 152 265.5 265s96 235.167 96 366.5
c0 144.667 -44.333 266.667 -133 366zM1086 1895h215l-339 -308h-138z" />
    <glyph glyph-name="oslashacute" unicode="&#x1ff;" horiz-adv-x="1337" 
d="M1071 931c72 -95.333 107.999 -207 107.999 -335c0 -114 -27.5 -219.833 -82.5 -317.5s-129.333 -173.167 -223 -226.5s-199.167 -80 -316.5 -80c-104 0 -192 22 -264 66l-129 -149l-101 87l127 146c-90.667 97.333 -136 217 -136 359c0 115.333 27.5 221.833 82.5 319.5
s130.5 174.667 226.5 231s198.333 84.5 307 84.5c118.667 0 220.334 -30.667 305.001 -92l121 139l103 -84zM281.999 228l604 694c-63.333 40.667 -136.333 61 -219 61s-162 -22 -238 -66s-134.333 -103.667 -175 -179s-61 -158.333 -61 -249c0 -102 29.667 -189 89 -261z
M979.999 827l-594 -682.001c56.667 -28.667 119 -43 187 -43c87.333 0 166.5 20.833 237.5 62.5s127.5 101.834 169.5 180.501s63 162.667 63 252c0 85.333 -21 162 -63 230zM865.999 1598h215l-339 -308h-138z" />
    <glyph glyph-name="circumflex" unicode="&#x2c6;" horiz-adv-x="1028" 
d="M556 1542h139l254 -257h-180l-155 152l-205 -152h-186z" />
    <glyph glyph-name="caron" unicode="&#x2c7;" horiz-adv-x="1028" 
d="M652 1285h-139l-254 257h180l155 -152l205 152h186z" />
    <glyph glyph-name="macron" unicode="&#x2c9;" horiz-adv-x="993" 
d="M251 1479h690l-17 -119h-690z" />
    <glyph glyph-name="breve" unicode="&#x2d8;" horiz-adv-x="928" 
d="M215 1525h131.999c35.333 -69.333 105 -104 209 -104c54.667 0 99.667 7.5 135 22.5s70.333 42.167 105 81.5h128c-23.333 -60 -68.166 -110.167 -134.499 -150.5s-148.833 -60.5 -247.5 -60.5c-98 0 -175 20 -231 60s-88 90.333 -96 151z" />
    <glyph glyph-name="dotaccent" unicode="&#x2d9;" horiz-adv-x="455" 
d="M333 1518c28.667 0 52.667 -9.66699 72 -29s29 -43 29 -71c0 -34.667 -13.5 -65.334 -40.5 -92.001s-58.5 -40 -94.5 -40c-28 0 -51.5 9.5 -70.5 28.5s-28.5 42.833 -28.5 71.5c0 34.667 13.333 65.334 40 92.001s57.667 40 93 40z" />
    <glyph glyph-name="ring" unicode="&#x2da;" horiz-adv-x="680" 
d="M471 1691c53.333 0 97.667 -17.5 133 -52.5s53 -78.833 53 -131.5c0 -64 -24.833 -120.5 -74.5 -169.5s-107.5 -73.5 -173.5 -73.5c-52 0 -95.5 17.667 -130.5 53s-52.5 79 -52.5 131c0 64 24.667 120.5 74 169.5s106.333 73.5 171 73.5zM455.001 1590
c-33.333 0 -62.668 -12.667 -88.001 -38s-38 -54.333 -38 -87c0 -27.333 9 -50 27 -68s40.667 -27 68 -27c34 0 63.667 12.667 89 38s38 54.333 38 87c0 27.333 -9.16699 50 -27.5 68s-41.166 27 -68.499 27z" />
    <glyph glyph-name="ogonek" unicode="&#x2db;" horiz-adv-x="618" 
d="M311 0l109.001 -0.00195312c-99.333 -75.333 -149 -143.333 -149 -204c0 -29.333 10.667 -53.166 32 -71.499s54.333 -27.5 99 -27.5c20 0 43.333 1.66699 70 5l-21 -85c-28.667 -6.66699 -57.334 -10 -86.001 -10c-69.333 0 -120.833 15 -154.5 45s-50.5 68 -50.5 114
c0 38.667 13.333 79.834 40 123.501s63.667 80.5 111 110.5z" />
    <glyph glyph-name="tilde" unicode="&#x2dc;" horiz-adv-x="899" 
d="M835 1492l56.999 -97c-53.333 -34.667 -97.5 -58 -132.5 -70s-70.5 -18 -106.5 -18c-48 0 -95.667 12.333 -143 37c-40 21.333 -65.667 33.666 -77 36.999c-16 4.66699 -32.667 7 -50 7c-24.667 0 -48 -4.16699 -70 -12.5s-55 -27.166 -99 -56.499l-52 102
c70 64.667 149.333 97 238 97c42.667 0 92 -13.333 148 -40c53.333 -26 95.333 -39 126 -39c38.667 0 92.334 17.667 161.001 53z" />
    <glyph glyph-name="hungarumlaut" unicode="&#x2dd;" horiz-adv-x="1130" 
d="M592 1598h215l-339 -308h-138zM908 1598h215l-339 -308h-138z" />
    <glyph glyph-name="tonos" unicode="&#x384;" horiz-adv-x="774" 
d="M541 1598l-73 -338h-118l16 338h175z" />
    <glyph glyph-name="dieresistonos" unicode="&#x385;" horiz-adv-x="774" 
d="M541 1598l-73 -338h-118l16 338h175zM659 1291c-52 0 -78 25.332 -78 75.999c0.666992 28 11.167 52 31.5 72s43.833 30 70.5 30c51.333 0 77 -25.333 77 -76c0 -27.333 -10.167 -51.166 -30.5 -71.499s-43.833 -30.5 -70.5 -30.5zM167 1291
c-52 0 -77.999 25.332 -77.999 75.999c0 28 10.5 52 31.5 72s44.5 30 70.5 30c52 0 78 -25.333 78 -76c0 -27.333 -10.333 -51.166 -31 -71.499s-44.334 -30.5 -71.001 -30.5z" />
    <glyph glyph-name="Alphatonos" unicode="&#x386;" horiz-adv-x="1515" 
d="M852 1471l493 -1471h-151l-161 481h-623l-275 -481h-164l847 1471h34zM805 1163l-314 -542h496zM479 1508l-73 -338h-118l16 338h175z" />
    <glyph glyph-name="anoteleia" unicode="&#x387;" horiz-adv-x="567" 
d="M427 994c0 -34.667 -11.833 -63.667 -35.5 -87s-52.5 -35 -86.5 -35c-34.667 0 -63.667 11.667 -87 35s-35 52.333 -35 87c0 33.333 11.833 62 35.5 86s52.5 36 86.5 36s62.833 -11.833 86.5 -35.5s35.5 -52.5 35.5 -86.5z" />
    <glyph glyph-name="Epsilontonos" unicode="&#x388;" horiz-adv-x="1188" 
d="M1146 1471l-21 -143h-662l-65 -482h662l-19 -141h-662l-75 -564h662l-17 -141h-811l197 1471h811zM130 1508l-73 -338h-118l16 338h175z" />
    <glyph glyph-name="Etatonos" unicode="&#x389;" horiz-adv-x="1489" 
d="M335 1471h145l-79 -598h753l80 598h143l-193 -1471h-144l97 734h-757l-96 -734h-146zM130 1508l-73 -338h-118l16 338h175z" />
    <glyph glyph-name="Iotatonos" unicode="&#x38a;" horiz-adv-x="553" 
d="M328 1471h148l-199 -1471h-148zM130 1508l-73 -338h-118l16 338h175z" />
    <glyph glyph-name="Omicrontonos" unicode="&#x38c;" horiz-adv-x="1780" 
d="M956 1508c198 0 362.833 -65.001 494.5 -195.001s197.5 -294.333 197.5 -493c0 -242 -83.5 -445.333 -250.5 -610s-375.167 -247 -624.5 -247c-212 0 -381.667 63.333 -509 190s-191 292.334 -191 497.001c0 158 38.167 303 114.5 435s182 235.5 317 310.5
s285.5 112.5 451.5 112.5zM953 1369c-140.667 0 -266.167 -30.667 -376.5 -92s-197.666 -148.333 -261.999 -261s-96.5 -232.667 -96.5 -360c0 -108 23.333 -204.833 70 -290.5s111.167 -151.167 193.5 -196.5s179.166 -68 290.499 -68c132 0 254.333 31.833 367 95.5
s201.167 152 265.5 265s96.5 235.167 96.5 366.5c0 174 -61 312 -183 414c-101.333 84.667 -223 127 -365 127zM130 1508l-73 -338h-118l16 338h175z" />
    <glyph glyph-name="Upsilontonos" unicode="&#x38e;" horiz-adv-x="1322" 
d="M193 1471h154l315 -668l531 668h178l-652 -819l-89 -652h-144l89 660zM130 1508l-73 -338h-118l16 338h175z" />
    <glyph glyph-name="Omegatonos" unicode="&#x38f;" horiz-adv-x="1713" 
d="M985 138h439.998l-18 -138h-571l26 196c373.333 192.667 560 429.667 560 711c0.666992 142 -46.166 254.333 -140.499 337s-218.166 124 -371.499 124c-186.667 0 -343 -61.667 -469 -185s-189.333 -273.666 -190 -450.999c0 -86 21.667 -167.167 65 -243.5
s146.333 -173.833 309 -292.5l-26 -196h-551l18 138h423c-256 175.333 -384 374.333 -384 597c0 212.667 77.333 394.5 232 545.5s352 226.5 592 226.5c192 0 346.833 -54.833 464.5 -164.5s176.5 -249.834 176.5 -420.501c0 -348.667 -195 -610 -585 -784zM128.998 1508
l-73 -338h-118l16 338h175z" />
    <glyph glyph-name="iotadieresistonos" unicode="&#x390;" horiz-adv-x="410" 
d="M165 1088h133l-145 -1088h-138zM377 1598l-73 -338h-118l16 338h175zM495 1291c-52 0 -78 25.332 -78 75.999c0.666992 28 11.167 52 31.5 72s43.833 30 70.5 30c51.333 0 77 -25.333 77 -76c0 -27.333 -10.167 -51.166 -30.5 -71.499s-43.833 -30.5 -70.5 -30.5zM3 1291
c-52 0 -77.999 25.332 -77.999 75.999c0 28 10.5 52 31.5 72s44.5 30 70.5 30c52 0 78 -25.333 78 -76c0 -27.333 -10.333 -51.166 -31 -71.499s-44.334 -30.5 -71.001 -30.5z" />
    <glyph glyph-name="Alpha" unicode="&#x391;" horiz-adv-x="1515" 
d="M852 1471l493 -1471h-151l-161 481h-623l-275 -481h-164l847 1471h34zM805 1163l-314 -542h496z" />
    <glyph glyph-name="Beta" unicode="&#x392;" horiz-adv-x="1176" 
d="M246 1471l189.001 -0.000976562c185.333 0 310.666 -11.167 375.999 -33.5s118.166 -61.166 158.499 -116.499s60.5 -120.666 60.5 -195.999c0 -78.667 -21.333 -149 -64 -211s-100 -106.667 -172 -134c86.667 -26.667 154.667 -72.167 204 -136.5s74 -140.5 74 -228.5
c0 -90 -21.167 -167.333 -63.5 -232s-99.166 -111.334 -170.499 -140.001s-194.333 -43 -369 -43h-419zM373.001 1331l-65.999 -488c28.667 -2.66699 62 -4 100 -4c133.333 0 229.5 10.667 288.5 32s104.833 54.833 137.5 100.5s49 96.167 49 151.5
c0 72 -25.5 125.167 -76.5 159.5s-159.5 51.5 -325.5 51.5c-28.667 0 -64.334 -1 -107.001 -3zM289.002 698.999l-74 -560.002h199c138.667 0 234 5.66699 286 17c73.333 16.667 128.833 46.834 166.5 90.501s56.5 99.834 56.5 168.501c0 61.333 -15.333 112.5 -46 153.5
s-81 73 -151 96s-174.667 34.5 -314 34.5h-123z" />
    <glyph glyph-name="Gamma" unicode="&#x393;" horiz-adv-x="946" 
d="M962 1331h-591l-177 -1331h-146l196 1471h737z" />
    <glyph glyph-name="Delta" unicode="&#x394;" horiz-adv-x="1515" 
d="M1337 0h-1417l891 1471h36zM1137 140l-344 1024l-619 -1024h963z" />
    <glyph glyph-name="Epsilon" unicode="&#x395;" horiz-adv-x="1098" 
d="M1056 1471l-21 -143h-662l-65 -482h662l-19 -141h-662l-75 -564h662l-17 -141h-811l197 1471h811z" />
    <glyph glyph-name="Zeta" unicode="&#x396;" horiz-adv-x="983" 
d="M217 1471h756l-722 -1331h551l-19 -140h-770l725 1329h-540z" />
    <glyph glyph-name="Eta" unicode="&#x397;" horiz-adv-x="1399" 
d="M245 1471h145l-79 -598h753l80 598h143l-193 -1471h-144l97 734h-757l-96 -734h-146z" />
    <glyph glyph-name="Theta" unicode="&#x398;" horiz-adv-x="1780" 
d="M1648 820c0 -245.333 -83.667 -449.5 -251 -612.5s-375.333 -244.5 -624 -244.5c-210 0 -379.167 62.5 -507.5 187.5s-192.5 291.5 -192.5 499.5c0 242 83.833 445.5 251.5 610.5s378.167 247.5 631.5 247.5c200 0 365.333 -65 496 -195s196 -294.333 196 -493zM218 656
c0 -160.667 49.334 -293.333 148.001 -398s234 -157 406 -157c205.333 0 378.166 70 518.499 210s210.5 312.333 210.5 517c0 162 -52.833 292.667 -158.5 392s-235.5 149 -389.5 149c-226 0 -405 -71 -537 -213s-198 -308.667 -198 -500zM1217 674.001h-737l19 140h737z
" />
    <glyph glyph-name="Iota" unicode="&#x399;" horiz-adv-x="463" 
d="M238 1471h148l-199 -1471h-148z" />
    <glyph glyph-name="Kappa" unicode="&#x39a;" horiz-adv-x="1210" 
d="M243 1471h145l-79 -597l689 597h211l-797 -688l690 -783h-188l-625 710l-98 -710h-144z" />
    <glyph glyph-name="Lambda" unicode="&#x39b;" horiz-adv-x="1438" 
d="M1266 0h-148l-365 1165l-683 -1165h-163l862 1471h34z" />
    <glyph glyph-name="Mu" unicode="&#x39c;" horiz-adv-x="1882" 
d="M1642 1471v-1471h-138v1014l-638 -1014h-37l-381 1050l-302 -1050h-149l425 1471h24l430 -1195l743 1195h23z" />
    <glyph glyph-name="Nu" unicode="&#x39d;" horiz-adv-x="1515" 
d="M1265 1471h144l-199 -1471h-32l-828 1140l-154 -1140h-146l198 1471h32l830 -1142z" />
    <glyph glyph-name="Xi" unicode="&#x39e;" horiz-adv-x="1087" 
d="M1020 1331h-857l19 140h857zM939 724h-857l19 140h857zM843 0h-857l18 140h857z" />
    <glyph glyph-name="Omicron" unicode="&#x39f;" horiz-adv-x="1780" 
d="M956 1508c198 0 362.833 -65.001 494.5 -195.001s197.5 -294.333 197.5 -493c0 -242 -83.5 -445.333 -250.5 -610s-375.167 -247 -624.5 -247c-212 0 -381.667 63.333 -509 190s-191 292.334 -191 497.001c0 158 38.167 303 114.5 435s182 235.5 317 310.5
s285.5 112.5 451.5 112.5zM953 1369c-140.667 0 -266.167 -30.667 -376.5 -92s-197.666 -148.333 -261.999 -261s-96.5 -232.667 -96.5 -360c0 -108 23.333 -204.833 70 -290.5s111.167 -151.167 193.5 -196.5s179.166 -68 290.499 -68c132 0 254.333 31.833 367 95.5
s201.167 152 265.5 265s96.5 235.167 96.5 366.5c0 174 -61 312 -183 414c-101.333 84.667 -223 127 -365 127z" />
    <glyph glyph-name="Pi" unicode="&#x3a0;" horiz-adv-x="1399" 
d="M1092 0h-145l177 1331h-754l-177 -1331h-145l196 1471h1044z" />
    <glyph glyph-name="Rho" unicode="&#x3a1;" horiz-adv-x="1212" 
d="M262 1471l400.998 0.000976562c132.667 0 227.834 -12.333 285.501 -37s103.834 -64.167 138.501 -118.5s52 -118.5 52 -192.5c0 -96.667 -27.333 -180.834 -82 -252.501s-123.667 -120.5 -207 -146.5c-60.667 -19.333 -167.667 -29 -321 -29h-223l-94 -695h-147z
M391.998 1329l-68 -489.001h205c138 0 233.5 9.5 286.5 28.5s95.667 51.667 128 98s48.5 97.833 48.5 154.5c0 46.667 -11 86.334 -33 119.001s-52.333 55.667 -91 69s-109.667 20 -213 20h-263z" />
    <glyph glyph-name="Sigma" unicode="&#x3a3;" horiz-adv-x="1027" 
d="M798 0h-861l509 734l-307 737h840l-19 -142h-606l254 -608l-397 -578h606z" />
    <glyph glyph-name="Tau" unicode="&#x3a4;" horiz-adv-x="872" 
d="M73 1471h879l-19 -140h-375l-177 -1331h-147l177 1331h-357z" />
    <glyph glyph-name="Upsilon" unicode="&#x3a5;" horiz-adv-x="1212" 
d="M83 1471h154l315 -668l531 668h178l-652 -819l-89 -652h-144l89 660z" />
    <glyph glyph-name="Phi" unicode="&#x3a6;" horiz-adv-x="1760" 
d="M842 145l-19.001 -145.003h-144l19 145c-194 13.333 -347.833 66.333 -461.5 159s-170.5 214.667 -170.5 366c0 206 71 367.333 213 484s335 180.334 579 191.001l17 126h144l-17 -126c194.667 -13.333 348.834 -66.5 462.501 -159.5s170.5 -215.167 170.5 -366.5
c0 -207.333 -70.5 -369.166 -211.5 -485.499s-334.833 -179.166 -581.5 -188.499zM715.999 281.997l124 927c-417.333 -26 -626 -202.333 -626 -529c0 -243.333 167.333 -376 502 -398zM983.999 1209l-124 -927c417.333 26 626 201.667 626 527
c0 244 -167.333 377.333 -502 400z" />
    <glyph glyph-name="Chi" unicode="&#x3a7;" horiz-adv-x="1247" 
d="M217 1471h156l260 -572l433 572h172l-540 -713l348 -758h-155l-288 627l-476 -627h-173l584 771z" />
    <glyph glyph-name="Psi" unicode="&#x3a8;" horiz-adv-x="1620" 
d="M1479 964c-18 -136.667 -46.501 -240.001 -85.501 -310.001s-106.167 -134.5 -201.5 -193.5s-225.666 -92.833 -390.999 -101.5l-48 -359h-144l48 359c-352.667 20.667 -529 170.334 -529 449.001c0 46 4.33301 101.667 13 167l66 496h147l-60 -448
c-10 -78 -15 -140 -15 -186c0 -103.333 29.667 -182.166 89 -236.499s162 -87.5 308 -99.5l129 970h144l-129 -970c86 1.33301 186.333 28.666 301 81.999s187.667 200 219 440l60 448h147z" />
    <glyph glyph-name="Omega" unicode="&#x3a9;" horiz-adv-x="1713" 
d="M985 138h439.998l-18 -138h-571l26 196c373.333 192.667 560 429.667 560 711c0.666992 142 -46.166 254.333 -140.499 337s-218.166 124 -371.499 124c-186.667 0 -343 -61.667 -469 -185s-189.333 -273.666 -190 -450.999c0 -86 21.667 -167.167 65 -243.5
s146.333 -173.833 309 -292.5l-26 -196h-551l18 138h423c-256 175.333 -384 374.333 -384 597c0 212.667 77.333 394.5 232 545.5s352 226.5 592 226.5c192 0 346.833 -54.833 464.5 -164.5s176.5 -249.834 176.5 -420.501c0 -348.667 -195 -610 -585 -784z" />
    <glyph glyph-name="Iotadieresis" unicode="&#x3aa;" horiz-adv-x="463" 
d="M238 1471h148l-199 -1471h-148zM169 1816c28.667 0 52.667 -9.66699 72 -29s29 -43 29 -71c0 -34.667 -13.5 -65.334 -40.5 -92.001s-58.5 -40 -94.5 -40c-28 0 -51.5 9.5 -70.5 28.5s-28.5 42.833 -28.5 71.5c0 34.667 13.333 65.334 40 92.001s57.667 40 93 40z
M577 1816c29.333 0 53.5 -9.66699 72.5 -29s28.5 -43 28.5 -71c0 -34.667 -13.5 -65.334 -40.5 -92.001s-58.167 -40 -93.5 -40c-28.667 0 -52.5 9.5 -71.5 28.5s-28.5 42.833 -28.5 71.5c0 34.667 13.333 65.334 40 92.001s57.667 40 93 40z" />
    <glyph glyph-name="Upsilondieresis" unicode="&#x3ab;" horiz-adv-x="1212" 
d="M83 1471h154l315 -668l531 668h178l-652 -819l-89 -652h-144l89 660zM507 1816c28.667 0 52.667 -9.66699 72 -29s29 -43 29 -71c0 -34.667 -13.5 -65.334 -40.5 -92.001s-58.5 -40 -94.5 -40c-28 0 -51.5 9.5 -70.5 28.5s-28.5 42.833 -28.5 71.5
c0 34.667 13.333 65.334 40 92.001s57.667 40 93 40zM915 1816c29.333 0 53.5 -9.66699 72.5 -29s28.5 -43 28.5 -71c0 -34.667 -13.5 -65.334 -40.5 -92.001s-58.167 -40 -93.5 -40c-28.667 0 -52.5 9.5 -71.5 28.5s-28.5 42.833 -28.5 71.5
c0 34.667 13.333 65.334 40 92.001s57.667 40 93 40z" />
    <glyph glyph-name="alphatonos" unicode="&#x3ac;" horiz-adv-x="1399" 
d="M1121 0l-141 0.000976562l21 164c-126 -128 -270.333 -192 -433 -192c-148 0 -269.667 47.667 -365 143s-143 218 -143 368c0 173.333 61.833 322.166 185.5 446.499s269.167 186.5 436.5 186.5c90.667 0 170.167 -19 238.5 -57s126.833 -97.333 175.5 -178l25 207h145z
M583 100.001c90 0 172 21.1689 246 63.502s132.667 103.166 176 182.499s65 165.666 65 258.999c0 112.667 -35.667 204.334 -107 275.001s-164 106 -278 106c-134 0 -248.667 -48.333 -344 -145s-143 -215.334 -143 -356.001c0 -115.333 35.667 -208.333 107 -279
s164 -106 278 -106zM870 1598l-73 -338h-118l16 338h175z" />
    <glyph glyph-name="epsilontonos" unicode="&#x3ad;" horiz-adv-x="866" 
d="M713 116c-103.333 -96.667 -229.33 -145 -377.997 -145c-94 0 -171 27 -231 81s-90 124.333 -90 211c0 158 76.667 268.667 230 332c-78 46.667 -117 110.667 -117 192c0 93.333 34.5 171.833 103.5 235.5s155.167 95.5 258.5 95.5c110 0 208.333 -41 295 -123l-92 -97
c-68 58.667 -139.667 88 -215 88c-66.667 0 -119.334 -19.833 -158.001 -59.5s-58 -88.167 -58 -145.5c0 -43.333 15.167 -79.333 45.5 -108s70.166 -43 119.499 -43h73l-16 -120h-86c-62.667 0 -118.167 -22 -166.5 -66s-72.5 -101.333 -72.5 -172
c0 -113.333 68.667 -170 206 -170c105.333 0 196.666 38 273.999 114zM604.003 1598l-73 -338h-118l16 338h175z" />
    <glyph glyph-name="etatonos" unicode="&#x3ae;" horiz-adv-x="1249" 
d="M192 1088l134 0.000976562l-21 -167c110 130 238 195 384 195c113.333 0 204 -34.667 272 -104s102 -162 102 -278c0 -48 -7.33301 -126.333 -22 -235l-121 -897h-138l120 897c14.667 109.333 22 188 22 236c0 76 -22.667 137.333 -68 184s-106 70 -182 70
c-88 0 -174.167 -31.333 -258.5 -94s-141.833 -204.334 -172.5 -425.001l-65 -470h-137zM795 1598l-73 -338h-118l16 338h175z" />
    <glyph glyph-name="iotatonos" unicode="&#x3af;" horiz-adv-x="410" 
d="M164 1088h133l-145 -1088h-138zM379 1598l-73 -338h-118l16 338h175z" />
    <glyph glyph-name="upsilondieresistonos" unicode="&#x3b0;" horiz-adv-x="1219" 
d="M154 1088l138.001 -0.000976562l-68 -508c-10 -75.333 -15 -135.333 -15 -180c0 -198 96.667 -297 290 -297c128 0 230.167 47.833 306.5 143.5s114.166 214.834 113.499 357.501c0 159.333 -64 290 -192 392l88 121c164 -136 246 -297.667 246 -485
c0 -194.667 -52 -353.334 -156 -476.001s-246 -184 -426 -184c-272.667 0 -409 135.667 -409 407c0 50.667 4.66699 112.334 14 185.001zM781.001 1598l-73 -338h-118l16 338h175zM899.001 1291c-52 0 -78 25.332 -78 75.999c0.666992 28 11.167 52 31.5 72
s43.833 30 70.5 30c51.333 0 77 -25.333 77 -76c0 -27.333 -10.167 -51.166 -30.5 -71.499s-43.833 -30.5 -70.5 -30.5zM407.001 1291c-52 0 -77.999 25.332 -77.999 75.999c0 28 10.5 52 31.5 72s44.5 30 70.5 30c52 0 78 -25.333 78 -76
c0 -27.333 -10.333 -51.166 -31 -71.499s-44.334 -30.5 -71.001 -30.5z" />
    <glyph glyph-name="alpha" unicode="&#x3b1;" horiz-adv-x="1399" 
d="M1121 0l-141 0.000976562l21 164c-126 -128 -270.333 -192 -433 -192c-148 0 -269.667 47.667 -365 143s-143 218 -143 368c0 173.333 61.833 322.166 185.5 446.499s269.167 186.5 436.5 186.5c90.667 0 170.167 -19 238.5 -57s126.833 -97.333 175.5 -178l25 207h145z
M583 100.001c90 0 172 21.1689 246 63.502s132.667 103.166 176 182.499s65 165.666 65 258.999c0 112.667 -35.667 204.334 -107 275.001s-164 106 -278 106c-134 0 -248.667 -48.333 -344 -145s-143 -215.334 -143 -356.001c0 -115.333 35.667 -208.333 107 -279
s164 -106 278 -106z" />
    <glyph glyph-name="beta" unicode="&#x3b2;" horiz-adv-x="1221" 
d="M194 197l-79 -594.999h-141l200 1505c18.667 137.333 66.334 243.166 143.001 317.499s178.334 111.5 305.001 111.5c100 0 179.5 -27.5 238.5 -82.5s88.5 -127.833 88.5 -218.5c0 -170 -86.667 -281.667 -260 -335c105.333 -10.667 191.5 -55.5 258.5 -134.5
s100.5 -173.833 100.5 -284.5c0 -158 -46.333 -282.333 -139 -373s-218.334 -136 -377.001 -136c-148.667 0 -261.334 75 -338.001 225zM413 805.001l16 116.999c112.667 2.66699 203.5 29.834 272.5 81.501s103.5 121.5 103.5 209.5c0 59.333 -16 106.333 -48 141
s-76 52 -132 52c-92 0 -163.333 -25.667 -214 -77s-84 -136.333 -100 -255l-78 -584c-2.66699 -17.333 -4 -34 -4 -50c0 -93.333 29.333 -173.333 88 -240s135.667 -100 231 -100c114 0 202.167 33 264.5 99s93.5 159.333 93.5 280c0 217.333 -141 326 -423 326h-70z" />
    <glyph glyph-name="gamma" unicode="&#x3b3;" horiz-adv-x="1135" 
d="M517 104l-67 -502h-138l71 535l-327 951h143l275 -796l458 796h152z" />
    <glyph glyph-name="delta" unicode="&#x3b4;" horiz-adv-x="1171" 
d="M457 906c-86 64 -129 145.669 -129 245.002c0 109.333 44 200.833 132 274.5s195 110.5 321 110.5c84 0 162 -9.33301 234 -28l-53 -125c-53.333 14.667 -116 22 -188 22c-88.667 0 -161.167 -21.5 -217.5 -64.5s-84.5 -101.833 -84.5 -176.5
c0 -47.333 17.167 -88.333 51.5 -123s107.833 -76 220.5 -124c186.667 -78.667 280 -209.334 280 -392.001c0 -150 -52 -279.667 -156 -389s-235.667 -164 -395 -164c-119.333 0 -219.333 40.667 -300 122s-121 181.666 -121 300.999c0 110 34.5 211.667 103.5 305
s169.5 162 301.5 206zM880 506.002c0.666992 82.667 -26.999 153.333 -82.999 212s-126.667 88 -212 88c-104.667 0 -195.834 -40.667 -273.501 -122s-116.5 -175 -116.5 -281c0 -85.333 27.667 -156.333 83 -213s126.333 -85 213 -85c119.333 0 214 40 284 120
s105 173.667 105 281zM585.001 939.001z" />
    <glyph glyph-name="epsilon" unicode="&#x3b5;" horiz-adv-x="866" 
d="M734 116c-103.333 -96.667 -229.33 -145 -377.997 -145c-94 0 -171 27 -231 81s-90 124.333 -90 211c0 158 76.667 268.667 230 332c-78 46.667 -117 110.667 -117 192c0 93.333 34.5 171.833 103.5 235.5s155.167 95.5 258.5 95.5c110 0 208.333 -41 295 -123l-92 -97
c-68 58.667 -139.667 88 -215 88c-66.667 0 -119.334 -19.833 -158.001 -59.5s-58 -88.167 -58 -145.5c0 -43.333 15.167 -79.333 45.5 -108s70.166 -43 119.499 -43h73l-16 -120h-86c-62.667 0 -118.167 -22 -166.5 -66s-72.5 -101.333 -72.5 -172
c0 -113.333 68.667 -170 206 -170c105.333 0 196.666 38 273.999 114z" />
    <glyph glyph-name="zeta" unicode="&#x3b6;" horiz-adv-x="953" 
d="M205 -406l52.999 125.999c40.667 -10.667 79.334 -16 116.001 -16c180 0 270 56 270 168c0 36 -16.5 65 -49.5 87s-97.5 42.333 -193.5 61c-234 46.667 -351 179 -351 397c0 154 56.333 306.5 169 457.5s303.667 321.167 573 510.5h-503l17 123h674l-16 -123
c-257.333 -193.333 -450.5 -361.666 -579.5 -504.999s-193.833 -294 -194.5 -452c0 -78.667 20.667 -140.167 62 -184.5s118.333 -78.5 231 -102.5c116 -24.667 195.833 -56.167 239.5 -94.5s65.5 -87.833 65.5 -148.5c0 -96 -33.667 -174 -101 -234s-174 -90 -320 -90
c-58 0 -112 6.66699 -162 20z" />
    <glyph glyph-name="eta" unicode="&#x3b7;" horiz-adv-x="1249" 
d="M192 1088l134 0.000976562l-21 -167c110 130 238 195 384 195c113.333 0 204 -34.667 272 -104s102 -162 102 -278c0 -48 -7.33301 -126.333 -22 -235l-121 -897h-138l120 897c14.667 109.333 22 188 22 236c0 76 -22.667 137.333 -68 184s-106 70 -182 70
c-88 0 -174.167 -31.333 -258.5 -94s-141.833 -204.334 -172.5 -425.001l-65 -470h-137z" />
    <glyph glyph-name="theta" unicode="&#x3b8;" horiz-adv-x="1341" 
d="M538 -28c-152 0 -269.168 53.667 -351.501 161s-123.5 254.333 -123.5 441c0 255.333 60.833 479.5 182.5 672.5s288.834 289.5 501.501 289.5c162 0 281.333 -57.5 358 -172.5s115 -259.5 115 -433.5c0 -257.333 -60.333 -481.333 -181 -672s-287.667 -286 -501 -286z
M1077 816c3.33301 36.667 5.00098 72.001 5.00098 106.001c0 155.333 -30 275.166 -90 359.499s-147.333 126.5 -262 126.5c-126.667 0 -234.334 -53.5 -323.001 -160.5s-149.667 -250.833 -183 -431.5h853zM1061 693.001h-854c-4 -42.667 -6 -83.667 -6 -123
c0 -313.333 118 -470 354 -470c130 0 238.833 52.333 326.5 157s147.5 250 179.5 436z" />
    <glyph glyph-name="iota" unicode="&#x3b9;" horiz-adv-x="410" 
d="M164 1088h133l-145 -1088h-138z" />
    <glyph glyph-name="kappa" unicode="&#x3ba;" horiz-adv-x="1028" 
d="M194 1089h136l-57 -404l524 403h218l-632 -486l557 -602h-186l-502 540l-73 -540h-140z" />
    <glyph glyph-name="lambda" unicode="&#x3bb;" horiz-adv-x="1098" 
d="M941 0h-143l-251 838l-486 -838h-148l581 1006l-153 502h142z" />
    <glyph glyph-name="mu" unicode="&#x3bc;" horiz-adv-x="1249" 
d="M1100 1088l-151.001 -1088h-134l21 167c-85.333 -130 -208 -195 -368 -195c-144 0 -243 48 -297 144l-73 -514h-137l207 1486h138l-67 -499c-15.333 -112 -23 -189.667 -23 -233c0 -78.667 23.333 -141.167 70 -187.5s107 -69.5 181 -69.5
c83.333 0 156.333 21.333 219 64s108.834 94.334 138.501 155.001s54.167 160.667 73.5 300l65 470h137z" />
    <glyph glyph-name="nu" unicode="&#x3bd;" horiz-adv-x="1135" 
d="M56 1088h143l275 -796l458 796h152l-627 -1088h-26z" />
    <glyph glyph-name="xi" unicode="&#x3be;" horiz-adv-x="953" 
d="M205 -406l53 125.999c40.667 -10.667 79.334 -16 116.001 -16c180 0 270 56.333 270 169c0 32.667 -14.667 59 -44 79s-89.333 40 -180 60c-138.667 30.667 -235.5 79.334 -290.5 146.001s-82.5 147.667 -82.5 243c0 250.667 126 412.334 378 485.001
c-132 65.333 -198 154.666 -198 267.999c0 109.333 44.667 200.333 134 273s206 109 350 109c102.667 0 194 -12.333 274 -37l-51 -134c-72.667 26.667 -159.334 40 -260.001 40c-90 0 -163.333 -25 -220 -75s-85 -110.667 -85 -182c0 -66.667 33.833 -119.667 101.5 -159
s149.5 -59 245.5 -59h119l-16 -122h-202c-119.333 0 -220 -34 -302 -102s-123.333 -166.667 -124 -296c0 -70.667 18.167 -126.667 54.5 -168s108.166 -74 215.499 -98c132 -30 219.5 -64.167 262.5 -102.5s64.5 -86.5 64.5 -144.5
c0.666992 -94.667 -32.666 -172.167 -99.999 -232.5s-174.333 -90.5 -321 -90.5c-58 0 -112 6.66699 -162 20z" />
    <glyph glyph-name="omicron" unicode="&#x3bf;" horiz-adv-x="1341" 
d="M680 1116c92.667 0 177.668 -22.167 255.001 -66.5s137.666 -106 180.999 -185s65 -168.5 65 -268.5c0 -114 -27.667 -219.833 -83 -317.5s-129.666 -173.167 -222.999 -226.5s-199 -80 -317 -80c-146 0 -266.167 47.833 -360.5 143.5s-141.5 217.5 -141.5 365.5
c0 116 27.667 223 83 321s131.166 174.833 227.499 230.5s200.833 83.5 313.5 83.5zM677.001 983c-86.667 0 -168.168 -21.665 -244.501 -64.998s-135 -102.833 -176 -178.5s-61.5 -159.167 -61.5 -250.5c0 -114.667 35.333 -207.834 106 -279.501s162 -107.5 274 -107.5
c87.333 0 166.5 20.833 237.5 62.5s127.5 101.834 169.5 180.501s63 163 63 253c0 75.333 -15.667 142.166 -47 200.499s-75.666 103.666 -132.999 135.999s-120 48.5 -188 48.5z" />
    <glyph glyph-name="pi" unicode="&#x3c0;" horiz-adv-x="1373" 
d="M1323 965h-225l-129 -965h-137l129 965h-549l-129 -965h-137l129 965h-225l16 123h1273z" />
    <glyph glyph-name="rho" unicode="&#x3c1;" horiz-adv-x="1372" 
d="M181 211l-80.999 -608.999h-138l127 912c30.667 218.667 107 373.667 229 465s253.333 137 394 137c141.333 0 260.166 -48.5 356.499 -145.5s144.5 -221.833 144.5 -374.5c0 -170.667 -58 -317.334 -174 -440.001s-265.667 -184 -449 -184
c-176.667 0 -313 79.667 -409 239zM227.001 489.001c0 -114 34.833 -207 104.5 -279s161.5 -108 275.5 -108c142.667 0 256.667 49 342 147s128 214.333 128 349c0 124 -36.667 219.167 -110 285.5s-159.333 99.5 -258 99.5c-134 0 -247.833 -46.333 -341.5 -139
s-140.5 -211 -140.5 -355z" />
    <glyph glyph-name="sigma1" unicode="&#x3c2;" horiz-adv-x="1185" 
d="M1139 906l-112 -70.001c-80 98.667 -199.333 148 -358 148c-136.667 0 -251.834 -49.667 -345.501 -149s-140.5 -221.333 -140.5 -366c0 -86.667 26 -155.167 78 -205.5s149 -89.166 291 -116.499c141.333 -26.667 236.666 -59 285.999 -97s74 -88.667 74 -152
c0 -96 -33.667 -174 -101 -234s-174 -90 -320 -90c-58 0 -112 6.66699 -162 20l53 126c40.667 -10.667 79.334 -16 116.001 -16c180 0 270 55.667 270 167c0 36 -17.333 65 -52 87s-108 42.667 -220 62c-303.333 53.333 -455 199.666 -455 438.999
c0 178.667 62.333 332.834 187 462.501s276.334 194.5 455.001 194.5c109.333 0 198.5 -16.5 267.5 -49.5s131.833 -86.5 188.5 -160.5z" />
    <glyph glyph-name="sigma" unicode="&#x3c3;" horiz-adv-x="1468" 
d="M850 1088l594.001 0.000976562l-16 -123h-385c92 -98.667 138 -221.667 138 -369c0 -170.667 -58 -317.334 -174 -440.001s-265.667 -184 -449 -184c-146.667 0 -267 47.5 -361 142.5s-141 217.167 -141 366.5c0 178.667 60.667 329.167 182 451.5
s268.666 183.5 441.999 183.5c60 0 116.667 -9.33301 170 -28zM195.001 489.001c0 -114 34.833 -207 104.5 -279s161.5 -108 275.5 -108c148 0 263.333 50.667 346 152s124 216 124 344c0 124 -36.667 219.167 -110 285.5s-159.333 99.5 -258 99.5
c-134 0 -247.833 -46.333 -341.5 -139s-140.5 -211 -140.5 -355z" />
    <glyph glyph-name="tau" unicode="&#x3c4;" horiz-adv-x="823" 
d="M773 965h-292l-129 -965h-138l129 965h-293l16 123h723z" />
    <glyph glyph-name="upsilon" unicode="&#x3c5;" horiz-adv-x="1219" 
d="M154 1088l138.001 -0.000976562l-68 -508c-10 -75.333 -15 -135.333 -15 -180c0 -198 96.667 -297 290 -297c128 0 230.167 47.833 306.5 143.5s114.166 214.834 113.499 357.501c0 159.333 -64 290 -192 392l88 121c164 -136 246 -297.667 246 -485
c0 -194.667 -52 -353.334 -156 -476.001s-246 -184 -426 -184c-272.667 0 -409 135.667 -409 407c0 50.667 4.66699 112.334 14 185.001z" />
    <glyph glyph-name="phi" unicode="&#x3c6;" horiz-adv-x="1568" 
d="M723 -26l-49 -372.001h-141l49 373c-163.333 11.333 -293.833 61.333 -391.5 150s-146.5 204.667 -146.5 348c0 140.667 44.333 264.834 133 372.501s210.667 188.834 366 243.501l27 -133c-257.333 -94 -386 -252.333 -386 -475c0 -221.333 139 -344 417 -368l133 1000
c26.667 2 50 3 70 3c192 0 341.333 -47.333 448 -142s160 -218.334 160 -371.001c0.666992 -195.333 -60 -347.5 -182 -456.5s-291 -166.5 -507 -172.5zM857 978.999l-115 -869c353.333 16.667 530 178.667 530 486c0 116.667 -36.5 208.667 -109.5 276
s-174.833 103 -305.5 107z" />
    <glyph glyph-name="chi" unicode="&#x3c7;" horiz-adv-x="983" 
d="M965 1088l-476 -709l315 -777h-150l-258 638l-429 -638h-161l529 789l-282 697h148l226 -559l375 559h163z" />
    <glyph glyph-name="psi" unicode="&#x3c8;" horiz-adv-x="1507" 
d="M1316 554c-14 -108 -37 -199.831 -69 -275.498s-95.5 -143.167 -190.5 -202.5s-217.167 -93.333 -366.5 -102l-49 -372h-138l49 372c-322.667 27.333 -484 170.333 -484 429c0 44 4.33301 97.667 13 161l70 524h140l-64 -478c-10.667 -80 -16 -142.667 -16 -188
c0 -120.667 37.167 -201.167 111.5 -241.5s156.833 -63.5 247.5 -69.5l131 977h138l-131 -978c114 9.33301 206 36.166 276 80.499s117 95.666 141 153.999s43.667 146.833 59 265.5l64 478h140z" />
    </font>
</defs>
</svg>
